G04 DipTrace 3.3.0.0*
G04 uPeaks.GTP*
%MOIN*%
G04 #@! TF.FileFunction,Paste,Top*
G04 #@! TF.Part,Single*
%AMOUTLINE14*
4,1,4,
-0.010385,-0.011776,
-0.011776,-0.010385,
0.010385,0.011776,
0.011776,0.010385,
-0.010385,-0.011776,
0*%
%AMOUTLINE17*
4,1,4,
0.010385,-0.011776,
-0.011776,0.010385,
-0.010385,0.011776,
0.011776,-0.010385,
0.010385,-0.011776,
0*%
%AMOUTLINE18*
4,1,4,
-0.0125,-0.025,
0.0125,-0.025,
0.0125,0.025,
-0.0125,0.025,
-0.0125,-0.025,
0*%
%ADD61R,0.047087X0.031339*%
%ADD63R,0.086457X0.110079*%
%ADD65R,0.025433X0.019528*%
%ADD71R,0.070709X0.015591*%
%ADD73R,0.00811X0.032126*%
%ADD75R,0.031339X0.019528*%
%ADD77R,0.141969X0.070969*%
%ADD79R,0.050969X0.070969*%
%ADD81R,0.031339X0.078583*%
%ADD83R,0.031339X0.035276*%
%ADD85R,0.047087X0.094331*%
%ADD87R,0.035276X0.031339*%
%ADD89R,0.094331X0.047087*%
%ADD109OUTLINE14*%
%ADD112OUTLINE17*%
%ADD113OUTLINE18*%
%FSLAX26Y26*%
G04*
G70*
G90*
G75*
G01*
G04 TopPaste*
%LPD*%
D89*
X1121858Y3556861D3*
X960441D3*
X460856Y3560888D3*
X622273D3*
D87*
X792009Y4278999D3*
X858938D3*
D85*
X785449Y2933415D3*
Y3094832D3*
D87*
X705483Y2112949D3*
X772412D3*
D83*
X573255Y1992427D3*
Y2059356D3*
D87*
X437454Y2277730D3*
X504383D3*
X830661Y2736932D3*
X897591D3*
X516163Y2375449D3*
X449234D3*
X1051378Y2353079D3*
X1118307D3*
D83*
X767997Y1793125D3*
Y1726196D3*
X947412Y1962950D3*
Y2029879D3*
X866163Y1964770D3*
Y2031700D3*
D87*
X1124135Y1396325D3*
X1057206D3*
X1061308Y1242428D3*
X1128238D3*
X834088Y1555240D3*
X901017D3*
X521581Y1427399D3*
X588511D3*
X670042Y1247714D3*
X736971D3*
X1069408Y790051D3*
X1136337D3*
X1134574Y969353D3*
X1067644D3*
D83*
X992974Y910652D3*
Y977581D3*
X839039Y1090137D3*
Y1023207D3*
D87*
X524192Y916739D3*
X591121D3*
X664806Y709260D3*
X731735D3*
D81*
X740623Y3674723D3*
X840623D3*
Y3899526D3*
X740623D3*
D79*
X702163Y4370200D3*
X792163D3*
X882163D3*
D77*
X791163Y4618200D3*
D75*
X916703Y1753808D3*
X830089Y1716407D3*
Y1791210D3*
D73*
X1051706Y1885891D3*
X1077297D3*
X1102887D3*
X1128478D3*
Y2074867D3*
X1102887D3*
X1077297D3*
X1051706D3*
D71*
X686721Y1484045D3*
Y1434045D3*
Y1384045D3*
Y1334045D3*
X899319D3*
Y1384045D3*
Y1434045D3*
Y1484045D3*
X686352Y931085D3*
Y881085D3*
Y831085D3*
Y781085D3*
X898950D3*
Y831085D3*
Y881085D3*
Y931085D3*
D75*
X903774Y1216354D3*
X817160Y1178953D3*
Y1253756D3*
D65*
X766163Y3282066D3*
X703171D3*
D63*
X477130Y1969551D3*
Y2169179D3*
D61*
X603685Y1828415D3*
X517071Y1791013D3*
Y1865816D3*
X599165Y1687508D3*
X512551Y1650106D3*
Y1724909D3*
D83*
X432039Y3776168D3*
Y3709239D3*
D87*
X445528Y2608726D3*
X512457D3*
D83*
X1147677Y4388741D3*
Y4321812D3*
X1152315Y4195059D3*
Y4128130D3*
Y4000449D3*
Y3933520D3*
Y3787949D3*
Y3721020D3*
X991825Y1889526D3*
Y1822597D3*
X621992Y485871D3*
Y552801D3*
X1013753Y1679450D3*
Y1746379D3*
D87*
X448248Y2519293D3*
X515177D3*
X1060302Y1318832D3*
X1127231D3*
D83*
X438808Y1795845D3*
Y1862774D3*
X1066163Y2231700D3*
Y2298629D3*
D87*
X679312Y1552488D3*
X746241D3*
X588450Y1342560D3*
X521521D3*
X693465Y1157154D3*
X760394D3*
X585479Y1259799D3*
X518550D3*
D83*
X1104469Y1677438D3*
Y1744367D3*
X536658Y485307D3*
Y552236D3*
D87*
X1136778Y878853D3*
X1069849D3*
D83*
X916285Y1024134D3*
Y1091063D3*
D87*
X1072290Y699635D3*
X1139219D3*
D83*
X436848Y1658912D3*
Y1725841D3*
X991163Y2681700D3*
Y2748629D3*
D87*
X591121Y829167D3*
X524192D3*
X692728Y1034346D3*
X759658D3*
X528663Y994200D3*
X595592D3*
D109*
X594274Y2362870D3*
X608193Y2348951D3*
X622113Y2335032D3*
X636032Y2321112D3*
X649951Y2307193D3*
X663871Y2293273D3*
X677790Y2279354D3*
X691710Y2265434D3*
X705629Y2251514D3*
X719549Y2237596D3*
X733469Y2223676D3*
X747387Y2209757D3*
D112*
X830904D3*
X844823Y2223676D3*
X858743Y2237596D3*
X872663Y2251514D3*
X886581Y2265434D3*
X900501Y2279354D3*
X914420Y2293273D3*
X928340Y2307193D3*
X942260Y2321112D3*
X956179Y2335032D3*
X970098Y2348951D3*
X984017Y2362870D3*
D109*
Y2446387D3*
X970098Y2460306D3*
X956179Y2474226D3*
X942260Y2488146D3*
X928340Y2502064D3*
X914420Y2515984D3*
X900501Y2529903D3*
X886581Y2543823D3*
X872663Y2557743D3*
X858743Y2571661D3*
X844823Y2585581D3*
X830904Y2599500D3*
D112*
X747387D3*
X733469Y2585581D3*
X719549Y2571661D3*
X705629Y2557743D3*
X691710Y2543823D3*
X677790Y2529903D3*
X663871Y2515984D3*
X649951Y2502064D3*
X636032Y2488146D3*
X622113Y2474226D3*
X608193Y2460306D3*
X594274Y2446387D3*
G36*
X427469Y1461476D2*
X507405D1*
Y1541540D1*
X427469D1*
Y1461476D1*
G37*
D113*
X485186Y1501476D3*
X451722D3*
M02*
