G04 DipTrace 3.3.0.0*
G04 uPeaks.GTO*
%MOIN*%
G04 #@! TF.FileFunction,Legend,Top*
G04 #@! TF.Part,Single*
%ADD10C,0.009843*%
%ADD18C,0.008*%
%ADD20C,0.01*%
%ADD21C,0.006*%
%ADD22C,0.004*%
%ADD38C,0.002756*%
%ADD90C,0.004632*%
%ADD92C,0.00772*%
%ADD93C,0.015439*%
%FSLAX26Y26*%
G04*
G70*
G90*
G75*
G01*
G04 TopSilk*
%LPD*%
X1143522Y3519458D2*
D22*
Y3454499D1*
X991928D1*
X938777Y3507645D1*
Y3519458D1*
Y3594264D2*
Y3606077D1*
X991928Y3659223D1*
X1143522D1*
Y3594264D1*
X1131705Y3523388D2*
G02X950594Y3523388I-90556J33497D01*
G01*
X1131705Y3590333D2*
G03X950594Y3590333I-90556J-33497D01*
G01*
X439191Y3598292D2*
Y3663251D1*
X590786D1*
X643937Y3610104D1*
Y3598292D1*
Y3523485D2*
Y3511673D1*
X590786Y3458526D1*
X439191D1*
Y3523485D1*
X451009Y3594361D2*
G02X632120Y3594361I90556J-33497D01*
G01*
X451009Y3527416D2*
G03X632120Y3527416I90556J33497D01*
G01*
G36*
X814671Y4298613D2*
X835913D1*
Y4259388D1*
X814671D1*
Y4298613D1*
G37*
X748046Y2911751D2*
D22*
X683087D1*
Y3063345D1*
X736233Y3116496D1*
X748046D1*
X822852D2*
X834665D1*
X887811Y3063345D1*
Y2911751D1*
X822852D1*
X751976Y2923568D2*
G02X751976Y3104679I33497J90556D01*
G01*
X818921Y2923568D2*
G03X818921Y3104679I-33497J90556D01*
G01*
G36*
X728144Y2132563D2*
X749387D1*
Y2093339D1*
X728144D1*
Y2132563D1*
G37*
G36*
X553640Y2015088D2*
X592865D1*
Y2036330D1*
X553640D1*
Y2015088D1*
G37*
G36*
X460116Y2297344D2*
X481358D1*
Y2258119D1*
X460116D1*
Y2297344D1*
G37*
G36*
X853323Y2756546D2*
X874565D1*
Y2717322D1*
X853323D1*
Y2756546D1*
G37*
G36*
X493501Y2355835D2*
X472259D1*
Y2395059D1*
X493501D1*
Y2355835D1*
G37*
G36*
X1074039Y2372693D2*
X1095282D1*
Y2333469D1*
X1074039D1*
Y2372693D1*
G37*
G36*
X787612Y1770463D2*
X748387D1*
Y1749221D1*
X787612D1*
Y1770463D1*
G37*
G36*
X927798Y1985612D2*
X967022D1*
Y2006854D1*
X927798D1*
Y1985612D1*
G37*
G36*
X846549Y1987432D2*
X885773D1*
Y2008674D1*
X846549D1*
Y1987432D1*
G37*
G36*
X1101474Y1376711D2*
X1080231D1*
Y1415936D1*
X1101474D1*
Y1376711D1*
G37*
G36*
X1083970Y1262042D2*
X1105212D1*
Y1222818D1*
X1083970D1*
Y1262042D1*
G37*
G36*
X856749Y1574854D2*
X877992D1*
Y1535630D1*
X856749D1*
Y1574854D1*
G37*
G36*
X544243Y1447013D2*
X565485D1*
Y1407789D1*
X544243D1*
Y1447013D1*
G37*
G36*
X692703Y1267328D2*
X713946D1*
Y1228104D1*
X692703D1*
Y1267328D1*
G37*
G36*
X1092070Y809665D2*
X1113312D1*
Y770441D1*
X1092070D1*
Y809665D1*
G37*
G36*
X1111912Y949739D2*
X1090670D1*
Y988963D1*
X1111912D1*
Y949739D1*
G37*
G36*
X973360Y933314D2*
X1012584D1*
Y954556D1*
X973360D1*
Y933314D1*
G37*
G36*
X858654Y1067475D2*
X819429D1*
Y1046233D1*
X858654D1*
Y1067475D1*
G37*
G36*
X546853Y936353D2*
X568096D1*
Y897129D1*
X546853D1*
Y936353D1*
G37*
G36*
X687467Y728874D2*
X708710D1*
Y689650D1*
X687467D1*
Y728874D1*
G37*
X698100Y3732004D2*
D10*
X883147D1*
Y3840284D1*
Y3842246D2*
X698100D1*
Y3802882D1*
Y3732004D2*
Y3771367D1*
G03X698100Y3802882I1844J15758D01*
G01*
X668171Y4562346D2*
D21*
Y4426118D1*
X914155D2*
Y4562346D1*
X668171D2*
X914155D1*
Y4426118D2*
X668171D1*
X1149147Y1921331D2*
D18*
Y2039427D1*
X1031037D2*
Y1921331D1*
X1044938Y1941381D2*
G02X1044938Y1941381I5652J0D01*
G01*
X741832Y1507472D2*
D10*
Y1310617D1*
X844208Y1507472D2*
Y1310617D1*
X741832D2*
X844208D1*
X773325Y1507472D2*
X741832D1*
X812714D2*
X844208D1*
X773325D2*
G03X812714Y1507472I19694J9D01*
G01*
X741463Y954512D2*
Y757658D1*
X843839Y954512D2*
Y757658D1*
X741463D2*
X843839D1*
X772956Y954512D2*
X741463D1*
X812345D2*
X843839D1*
X772956D2*
G03X812345Y954512I19694J9D01*
G01*
X435124Y2922224D2*
D21*
X422625Y2909724D1*
Y2884724D2*
X435124Y2872224D1*
X422625Y2859724D1*
Y2834724D2*
X435124Y2822224D1*
X422625Y2809724D1*
Y2784724D2*
X435124Y2772224D1*
X422625Y2759724D1*
Y2734724D2*
X435124Y2722224D1*
Y2922224D2*
X510128D1*
X522627Y2909724D1*
Y2884724D1*
X510128Y2872224D1*
X522627Y2859724D1*
Y2834724D1*
X510128Y2822224D1*
X522627Y2809724D1*
Y2784724D1*
X510128Y2772224D1*
X522627Y2759724D1*
Y2734724D1*
X510128Y2722224D1*
Y2872224D2*
X435124D1*
X510128Y2822224D2*
X435124D1*
X510128Y2772224D2*
X435124D1*
X510128Y2722224D2*
X435124D1*
X422625Y2759724D2*
Y2734724D1*
Y2809724D2*
Y2784724D1*
Y2859724D2*
Y2834724D1*
Y2909724D2*
Y2884724D1*
X435124Y2722224D2*
X422625Y2709724D1*
Y2684724D2*
X435124Y2672224D1*
X510128Y2722224D2*
X522627Y2709724D1*
Y2684724D1*
X510128Y2672224D1*
X435124D1*
X422625Y2709724D2*
Y2684724D1*
X410127Y2909724D2*
D18*
Y2884724D1*
X614853Y3875650D2*
D21*
X639850Y3900650D1*
Y3950650D2*
X614853Y3975650D1*
X639850Y4000650D1*
Y4050650D2*
X614853Y4075650D1*
X639850Y4100650D1*
Y4150650D2*
X614853Y4175650D1*
X639850Y4200650D1*
Y4250650D2*
X614853Y4275650D1*
Y3875650D2*
X464845D1*
X439848Y3900650D1*
Y3950650D1*
X464845Y3975650D1*
X439848Y4000650D1*
Y4050650D1*
X464845Y4075650D1*
X439848Y4100650D1*
Y4150650D1*
X464845Y4175650D1*
X439848Y4200650D1*
Y4250650D1*
X464845Y4275650D1*
Y3975650D2*
X614853D1*
X464845Y4075650D2*
X614853D1*
X464845Y4175650D2*
X614853D1*
X464845Y4275650D2*
X614853D1*
X639850Y4200650D2*
Y4250650D1*
Y4100650D2*
Y4150650D1*
Y4000650D2*
Y4050650D1*
Y3900650D2*
Y3950650D1*
X614853Y4275650D2*
X639850Y4300650D1*
Y4350650D2*
X614853Y4375650D1*
X464845Y4275650D2*
X439848Y4300650D1*
Y4350650D1*
X464845Y4375650D1*
X614853D1*
X639850Y4300650D2*
Y4350650D1*
X664848Y3900650D2*
D18*
Y3950650D1*
G36*
X599845Y4135650D2*
X579843D1*
Y4115650D1*
X599845D1*
Y4135650D1*
G37*
X762224Y3266318D2*
D38*
X699238D1*
Y3297814D2*
X762224D1*
G36*
X742538Y3286003D2*
X726796D1*
Y3278129D1*
X742538D1*
Y3286003D1*
G37*
X555870Y2029997D2*
D10*
X398390D1*
X555870Y2108733D2*
X398390D1*
X527130Y2088111D2*
X427130D1*
Y2050618D1*
X527130D1*
Y2088111D2*
Y2050618D1*
G36*
X438075Y3753848D2*
X425158D1*
Y3731680D1*
X438075D1*
Y3753848D1*
G37*
G36*
X467847Y2614761D2*
X490016D1*
Y2601844D1*
X467847D1*
Y2614761D1*
G37*
G36*
X1153713Y4366422D2*
X1140795D1*
Y4344253D1*
X1153713D1*
Y4366422D1*
G37*
G36*
X1158350Y4172739D2*
X1145433D1*
Y4150571D1*
X1158350D1*
Y4172739D1*
G37*
G36*
Y3978129D2*
X1145433D1*
Y3955961D1*
X1158350D1*
Y3978129D1*
G37*
G36*
Y3765629D2*
X1145433D1*
Y3743461D1*
X1158350D1*
Y3765629D1*
G37*
G36*
X997861Y1867207D2*
X984944D1*
Y1845038D1*
X997861D1*
Y1867207D1*
G37*
G36*
X615957Y508191D2*
X628874D1*
Y530360D1*
X615957D1*
Y508191D1*
G37*
G36*
X1007718Y1701770D2*
X1020635D1*
Y1723938D1*
X1007718D1*
Y1701770D1*
G37*
G36*
X470568Y2525328D2*
X492736D1*
Y2512411D1*
X470568D1*
Y2525328D1*
G37*
G36*
X1082622Y1324867D2*
X1104790D1*
Y1311950D1*
X1082622D1*
Y1324867D1*
G37*
G36*
X432773Y1818165D2*
X445690D1*
Y1840333D1*
X432773D1*
Y1818165D1*
G37*
G36*
X1060127Y2254019D2*
X1073045D1*
Y2276188D1*
X1060127D1*
Y2254019D1*
G37*
G36*
X701632Y1558524D2*
X723801D1*
Y1545606D1*
X701632D1*
Y1558524D1*
G37*
G36*
X566130Y1336525D2*
X543962D1*
Y1349442D1*
X566130D1*
Y1336525D1*
G37*
G36*
X715784Y1163189D2*
X737953D1*
Y1150272D1*
X715784D1*
Y1163189D1*
G37*
G36*
X563159Y1253764D2*
X540991D1*
Y1266681D1*
X563159D1*
Y1253764D1*
G37*
G36*
X1098433Y1699758D2*
X1111350D1*
Y1721927D1*
X1098433D1*
Y1699758D1*
G37*
G36*
X530622Y507627D2*
X543539D1*
Y529795D1*
X530622D1*
Y507627D1*
G37*
G36*
X1114459Y872818D2*
X1092290D1*
Y885735D1*
X1114459D1*
Y872818D1*
G37*
G36*
X910249Y1046454D2*
X923167D1*
Y1068622D1*
X910249D1*
Y1046454D1*
G37*
G36*
X1094610Y705671D2*
X1116778D1*
Y692753D1*
X1094610D1*
Y705671D1*
G37*
G36*
X430812Y1681232D2*
X443730D1*
Y1703400D1*
X430812D1*
Y1681232D1*
G37*
G36*
X985127Y2704019D2*
X998045D1*
Y2726188D1*
X985127D1*
Y2704019D1*
G37*
G36*
X568801Y823131D2*
X546633D1*
Y836049D1*
X568801D1*
Y823131D1*
G37*
G36*
X715048Y1040382D2*
X737217D1*
Y1027465D1*
X715048D1*
Y1040382D1*
G37*
G36*
X550982Y1000235D2*
X573151D1*
Y987318D1*
X550982D1*
Y1000235D1*
G37*
X781502Y2584894D2*
D20*
X796789D1*
X969411Y2412272D1*
Y2396985D1*
X796789Y2224364D1*
X781502D1*
X608881Y2396985D1*
Y2412272D1*
X781502Y2584894D1*
X654149Y2404629D2*
G02X654149Y2404629I23632J0D01*
G01*
X435974Y1540843D2*
D18*
X498964D1*
X435974Y1462108D2*
G02X428101Y1473918I1960J9836D01*
G01*
X506837D2*
G02X498964Y1462108I-9827J-1977D01*
G01*
X506837Y1529034D2*
G03X498964Y1540843I-9840J1969D01*
G01*
X435974D2*
G03X428101Y1529034I1947J-9828D01*
G01*
X498964Y1462108D2*
X435974D1*
X628663Y706700D2*
D21*
X566163D1*
X478663Y1631700D2*
Y1769200D1*
X453663Y1781700D1*
G36*
X541163Y1881700D2*
X578663D1*
Y1769200D1*
X541163D1*
Y1881700D1*
G37*
G36*
Y1744200D2*
X578663D1*
Y1631700D1*
X541163D1*
Y1744200D1*
G37*
G36*
X853663Y1806700D2*
X891163D1*
Y1694200D1*
X853663D1*
Y1806700D1*
G37*
G36*
X843700Y1272577D2*
X878182D1*
Y1160228D1*
X843700D1*
Y1272577D1*
G37*
X412280Y3001906D2*
D21*
X473501D1*
Y2873966D1*
X412280D1*
Y3001906D1*
X906110Y3508762D2*
D90*
X904684Y3511614D1*
X901799Y3514499D1*
X898947Y3515925D1*
X893210D1*
X890325Y3514499D1*
X887473Y3511614D1*
X886014Y3508762D1*
X884588Y3504451D1*
Y3497255D1*
X886014Y3492977D1*
X887473Y3490092D1*
X890325Y3487240D1*
X893210Y3485781D1*
X898947D1*
X901799Y3487240D1*
X904684Y3490092D1*
X906110Y3492977D1*
X915373Y3510155D2*
X918259Y3511614D1*
X922570Y3515892D1*
Y3485781D1*
X680353Y3512218D2*
X678927Y3515070D1*
X676042Y3517955D1*
X673190Y3519381D1*
X667453D1*
X664568Y3517955D1*
X661716Y3515070D1*
X660257Y3512218D1*
X658831Y3507907D1*
Y3500711D1*
X660257Y3496433D1*
X661716Y3493548D1*
X664568Y3490696D1*
X667453Y3489237D1*
X673190D1*
X676042Y3490696D1*
X678927Y3493548D1*
X680353Y3496433D1*
X691076Y3512185D2*
Y3513611D1*
X692502Y3516496D1*
X693927Y3517922D1*
X696813Y3519348D1*
X702550D1*
X705401Y3517922D1*
X706827Y3516496D1*
X708286Y3513611D1*
Y3510759D1*
X706827Y3507874D1*
X703975Y3503596D1*
X689616Y3489237D1*
X709712D1*
X921555Y4285455D2*
X920129Y4288307D1*
X917244Y4291192D1*
X914392Y4292618D1*
X908655D1*
X905770Y4291192D1*
X902918Y4288307D1*
X901459Y4285455D1*
X900033Y4281144D1*
Y4273948D1*
X901459Y4269670D1*
X902918Y4266785D1*
X905770Y4263933D1*
X908655Y4262474D1*
X914392D1*
X917244Y4263933D1*
X920129Y4266785D1*
X921555Y4269670D1*
X933704Y4292584D2*
X949455D1*
X940867Y4281110D1*
X945178D1*
X948029Y4279685D1*
X949455Y4278259D1*
X950915Y4273948D1*
Y4271096D1*
X949455Y4266785D1*
X946604Y4263900D1*
X942292Y4262474D1*
X937981D1*
X933704Y4263900D1*
X932278Y4265359D1*
X930819Y4268211D1*
X780817Y3182784D2*
X779391Y3185636D1*
X776506Y3188521D1*
X773654Y3189947D1*
X767917D1*
X765032Y3188521D1*
X762180Y3185636D1*
X760721Y3182784D1*
X759295Y3178473D1*
Y3171277D1*
X760721Y3166999D1*
X762180Y3164114D1*
X765032Y3161262D1*
X767917Y3159803D1*
X773654D1*
X776506Y3161262D1*
X779391Y3164114D1*
X780817Y3166999D1*
X804440Y3159803D2*
Y3189914D1*
X790081Y3169851D1*
X811603D1*
X735029Y2169405D2*
X733603Y2172257D1*
X730718Y2175142D1*
X727866Y2176568D1*
X722129D1*
X719244Y2175142D1*
X716392Y2172257D1*
X714933Y2169405D1*
X713507Y2165094D1*
Y2157898D1*
X714933Y2153620D1*
X716392Y2150735D1*
X719244Y2147883D1*
X722129Y2146424D1*
X727866D1*
X730718Y2147883D1*
X733603Y2150735D1*
X735029Y2153620D1*
X761503Y2176535D2*
X747177D1*
X745751Y2163635D1*
X747177Y2165061D1*
X751488Y2166520D1*
X755766D1*
X760077Y2165061D1*
X762962Y2162209D1*
X764388Y2157898D1*
Y2155046D1*
X762962Y2150735D1*
X760077Y2147850D1*
X755766Y2146424D1*
X751488D1*
X747177Y2147850D1*
X745751Y2149309D1*
X744292Y2152161D1*
X616799Y2022702D2*
X613947Y2021276D1*
X611062Y2018391D1*
X609636Y2015539D1*
Y2009802D1*
X611062Y2006917D1*
X613947Y2004065D1*
X616799Y2002606D1*
X621110Y2001180D1*
X628306D1*
X632584Y2002606D1*
X635469Y2004065D1*
X638321Y2006917D1*
X639780Y2009802D1*
Y2015539D1*
X638321Y2018391D1*
X635469Y2021276D1*
X632584Y2022702D1*
X613947Y2049176D2*
X611095Y2047750D1*
X609669Y2043439D1*
Y2040588D1*
X611095Y2036277D1*
X615406Y2033391D1*
X622569Y2031965D1*
X629732D1*
X635469Y2033391D1*
X638354Y2036276D1*
X639780Y2040587D1*
Y2042013D1*
X638354Y2046291D1*
X635469Y2049176D1*
X631158Y2050602D1*
X629732D1*
X625421Y2049176D1*
X622569Y2046291D1*
X621143Y2042013D1*
Y2040588D1*
X622569Y2036276D1*
X625421Y2033391D1*
X629732Y2031965D1*
X467000Y2334186D2*
X465574Y2337038D1*
X462689Y2339923D1*
X459837Y2341349D1*
X454100D1*
X451215Y2339923D1*
X448363Y2337038D1*
X446904Y2334186D1*
X445478Y2329875D1*
Y2322679D1*
X446904Y2318401D1*
X448363Y2315516D1*
X451215Y2312664D1*
X454100Y2311205D1*
X459837D1*
X462689Y2312664D1*
X465574Y2315516D1*
X467000Y2318401D1*
X482000Y2311205D2*
X496359Y2341315D1*
X476263D1*
X860224Y2793388D2*
X858798Y2796240D1*
X855913Y2799125D1*
X853061Y2800551D1*
X847324D1*
X844439Y2799125D1*
X841587Y2796240D1*
X840128Y2793388D1*
X838702Y2789077D1*
Y2781881D1*
X840128Y2777603D1*
X841587Y2774718D1*
X844439Y2771866D1*
X847324Y2770407D1*
X853061D1*
X855913Y2771866D1*
X858798Y2774718D1*
X860224Y2777603D1*
X876650Y2800518D2*
X872372Y2799092D1*
X870913Y2796240D1*
Y2793355D1*
X872372Y2790503D1*
X875224Y2789044D1*
X880961Y2787618D1*
X885272Y2786192D1*
X888124Y2783307D1*
X889550Y2780455D1*
Y2776144D1*
X888124Y2773292D1*
X886698Y2771833D1*
X882387Y2770407D1*
X876650D1*
X872372Y2771833D1*
X870913Y2773292D1*
X869487Y2776144D1*
Y2780455D1*
X870913Y2783307D1*
X873798Y2786192D1*
X878076Y2787618D1*
X883813Y2789044D1*
X886698Y2790503D1*
X888124Y2793355D1*
Y2796240D1*
X886698Y2799092D1*
X882387Y2800518D1*
X876650D1*
X479492Y2431905D2*
X478066Y2434757D1*
X475181Y2437642D1*
X472329Y2439068D1*
X466592D1*
X463707Y2437642D1*
X460855Y2434757D1*
X459396Y2431905D1*
X457970Y2427594D1*
Y2420398D1*
X459396Y2416120D1*
X460855Y2413235D1*
X463707Y2410383D1*
X466592Y2408924D1*
X472329D1*
X475181Y2410383D1*
X478066Y2413235D1*
X479492Y2416120D1*
X507426Y2429020D2*
X505967Y2424709D1*
X503115Y2421824D1*
X498804Y2420398D1*
X497378D1*
X493067Y2421824D1*
X490215Y2424709D1*
X488756Y2429020D1*
Y2430446D1*
X490215Y2434757D1*
X493067Y2437609D1*
X497378Y2439035D1*
X498804D1*
X503115Y2437609D1*
X505967Y2434757D1*
X507426Y2429020D1*
Y2421824D1*
X505967Y2414661D1*
X503115Y2410350D1*
X498804Y2408924D1*
X495952D1*
X491641Y2410350D1*
X490215Y2413235D1*
X1072694Y2409535D2*
X1071268Y2412387D1*
X1068383Y2415272D1*
X1065531Y2416698D1*
X1059794D1*
X1056909Y2415272D1*
X1054057Y2412387D1*
X1052598Y2409535D1*
X1051172Y2405224D1*
Y2398028D1*
X1052598Y2393750D1*
X1054057Y2390865D1*
X1056909Y2388013D1*
X1059794Y2386554D1*
X1065531D1*
X1068383Y2388013D1*
X1071268Y2390865D1*
X1072694Y2393750D1*
X1081957Y2410928D2*
X1084843Y2412387D1*
X1089154Y2416664D1*
Y2386554D1*
X1107039Y2416664D2*
X1102728Y2415239D1*
X1099843Y2410928D1*
X1098417Y2403765D1*
Y2399454D1*
X1099843Y2392291D1*
X1102728Y2387980D1*
X1107039Y2386554D1*
X1109891D1*
X1114202Y2387980D1*
X1117054Y2392291D1*
X1118513Y2399454D1*
Y2403765D1*
X1117054Y2410928D1*
X1114202Y2415239D1*
X1109891Y2416664D1*
X1107039D1*
X1117054Y2410928D2*
X1099843Y2392291D1*
X711542Y1753962D2*
X708690Y1752536D1*
X705805Y1749651D1*
X704379Y1746799D1*
Y1741062D1*
X705804Y1738177D1*
X708690Y1735325D1*
X711541Y1733866D1*
X715852Y1732440D1*
X723049D1*
X727326Y1733866D1*
X730212Y1735325D1*
X733063Y1738177D1*
X734523Y1741062D1*
Y1746799D1*
X733063Y1749650D1*
X730212Y1752536D1*
X727326Y1753962D1*
X710149Y1763225D2*
X708690Y1766110D1*
X704412Y1770421D1*
X734523D1*
X710149Y1779685D2*
X708690Y1782570D1*
X704412Y1786881D1*
X734523D1*
X928078Y2083186D2*
X926652Y2086038D1*
X923767Y2088923D1*
X920916Y2090349D1*
X915179D1*
X912293Y2088923D1*
X909442Y2086038D1*
X907982Y2083186D1*
X906556Y2078875D1*
Y2071679D1*
X907982Y2067401D1*
X909442Y2064516D1*
X912293Y2061664D1*
X915179Y2060205D1*
X920916D1*
X923767Y2061664D1*
X926652Y2064516D1*
X928078Y2067401D1*
X937342Y2084578D2*
X940227Y2086038D1*
X944538Y2090315D1*
Y2060205D1*
X955261Y2083152D2*
Y2084578D1*
X956687Y2087464D1*
X958113Y2088889D1*
X960998Y2090315D1*
X966735D1*
X969587Y2088889D1*
X971013Y2087464D1*
X972472Y2084578D1*
Y2081727D1*
X971013Y2078841D1*
X968161Y2074564D1*
X953802Y2060205D1*
X973898D1*
X846829Y2085006D2*
X845403Y2087858D1*
X842518Y2090743D1*
X839666Y2092169D1*
X833929D1*
X831044Y2090743D1*
X828192Y2087858D1*
X826733Y2085006D1*
X825307Y2080695D1*
Y2073499D1*
X826733Y2069221D1*
X828192Y2066336D1*
X831044Y2063484D1*
X833929Y2062025D1*
X839666D1*
X842518Y2063484D1*
X845403Y2066336D1*
X846829Y2069221D1*
X856093Y2086399D2*
X858978Y2087858D1*
X863289Y2092136D1*
Y2062025D1*
X875437Y2092136D2*
X891189D1*
X882600Y2080662D1*
X886911D1*
X889763Y2079236D1*
X891189Y2077810D1*
X892648Y2073499D1*
Y2070647D1*
X891189Y2066336D1*
X888337Y2063451D1*
X884026Y2062025D1*
X879715D1*
X875437Y2063451D1*
X874011Y2064910D1*
X872552Y2067762D1*
X1077809Y1452781D2*
X1076383Y1455633D1*
X1073498Y1458518D1*
X1070646Y1459944D1*
X1064909D1*
X1062024Y1458518D1*
X1059172Y1455633D1*
X1057713Y1452781D1*
X1056287Y1448470D1*
Y1441274D1*
X1057713Y1436996D1*
X1059172Y1434111D1*
X1062024Y1431259D1*
X1064909Y1429800D1*
X1070646D1*
X1073498Y1431259D1*
X1076383Y1434111D1*
X1077809Y1436996D1*
X1087073Y1454174D2*
X1089958Y1455633D1*
X1094269Y1459911D1*
Y1429800D1*
X1117891D2*
Y1459911D1*
X1103532Y1439848D1*
X1125054D1*
X982624Y1261384D2*
X981198Y1264236D1*
X978313Y1267121D1*
X975461Y1268547D1*
X969724D1*
X966839Y1267121D1*
X963987Y1264236D1*
X962528Y1261384D1*
X961102Y1257073D1*
Y1249877D1*
X962528Y1245599D1*
X963987Y1242714D1*
X966839Y1239862D1*
X969724Y1238403D1*
X975461D1*
X978313Y1239862D1*
X981198Y1242714D1*
X982624Y1245599D1*
X991888Y1262777D2*
X994773Y1264236D1*
X999084Y1268514D1*
Y1238403D1*
X1025559Y1268514D2*
X1011233D1*
X1009807Y1255614D1*
X1011233Y1257040D1*
X1015544Y1258499D1*
X1019822D1*
X1024133Y1257040D1*
X1027018Y1254188D1*
X1028444Y1249877D1*
Y1247025D1*
X1027018Y1242714D1*
X1024133Y1239829D1*
X1019822Y1238403D1*
X1015544D1*
X1011233Y1239829D1*
X1009807Y1241288D1*
X1008348Y1244140D1*
X856133Y1611696D2*
X854708Y1614548D1*
X851822Y1617433D1*
X848971Y1618859D1*
X843234D1*
X840348Y1617433D1*
X837497Y1614548D1*
X836037Y1611696D1*
X834612Y1607385D1*
Y1600189D1*
X836037Y1595911D1*
X837497Y1593026D1*
X840348Y1590174D1*
X843234Y1588715D1*
X848971D1*
X851822Y1590174D1*
X854708Y1593026D1*
X856133Y1595911D1*
X865397Y1613089D2*
X868282Y1614548D1*
X872593Y1618826D1*
Y1588715D1*
X899068Y1614548D2*
X897642Y1617400D1*
X893331Y1618826D1*
X890479D1*
X886168Y1617400D1*
X883283Y1613089D1*
X881857Y1605926D1*
Y1598763D1*
X883283Y1593026D1*
X886168Y1590141D1*
X890479Y1588715D1*
X891905D1*
X896183Y1590141D1*
X899068Y1593026D1*
X900494Y1597337D1*
Y1598763D1*
X899068Y1603074D1*
X896183Y1605926D1*
X891905Y1607352D1*
X890479D1*
X886168Y1605926D1*
X883283Y1603074D1*
X881857Y1598763D1*
X442897Y1433855D2*
X441471Y1436707D1*
X438586Y1439592D1*
X435734Y1441018D1*
X429997D1*
X427112Y1439592D1*
X424260Y1436707D1*
X422801Y1433855D1*
X421375Y1429544D1*
Y1422348D1*
X422801Y1418070D1*
X424260Y1415185D1*
X427112Y1412333D1*
X429997Y1410874D1*
X435734D1*
X438586Y1412333D1*
X441471Y1415185D1*
X442897Y1418070D1*
X452161Y1435248D2*
X455046Y1436707D1*
X459357Y1440985D1*
Y1410874D1*
X474358D2*
X488717Y1440985D1*
X468621D1*
X668023Y1298981D2*
X666597Y1301833D1*
X663712Y1304718D1*
X660860Y1306144D1*
X655123D1*
X652238Y1304718D1*
X649386Y1301833D1*
X647927Y1298981D1*
X646501Y1294670D1*
Y1287474D1*
X647927Y1283196D1*
X649386Y1280311D1*
X652238Y1277459D1*
X655123Y1276000D1*
X660860D1*
X663712Y1277459D1*
X666597Y1280311D1*
X668023Y1283196D1*
X677286Y1300374D2*
X680171Y1301833D1*
X684482Y1306111D1*
Y1276000D1*
X700909Y1306111D2*
X696631Y1304685D1*
X695172Y1301833D1*
Y1298948D1*
X696631Y1296096D1*
X699483Y1294637D1*
X705220Y1293211D1*
X709531Y1291785D1*
X712383Y1288900D1*
X713809Y1286048D1*
Y1281737D1*
X712383Y1278885D1*
X710957Y1277426D1*
X706646Y1276000D1*
X700909D1*
X696631Y1277426D1*
X695172Y1278885D1*
X693746Y1281737D1*
Y1286048D1*
X695172Y1288900D1*
X698057Y1291785D1*
X702335Y1293211D1*
X708072Y1294637D1*
X710957Y1296096D1*
X712383Y1298948D1*
Y1301833D1*
X710957Y1304685D1*
X706646Y1306111D1*
X700909D1*
X1091437Y846507D2*
X1090011Y849359D1*
X1087126Y852244D1*
X1084274Y853670D1*
X1078537D1*
X1075652Y852244D1*
X1072800Y849359D1*
X1071341Y846507D1*
X1069915Y842196D1*
Y835000D1*
X1071341Y830722D1*
X1072800Y827837D1*
X1075652Y824985D1*
X1078537Y823526D1*
X1084274D1*
X1087126Y824985D1*
X1090011Y827837D1*
X1091437Y830722D1*
X1100701Y847900D2*
X1103586Y849359D1*
X1107897Y853637D1*
Y823526D1*
X1135830Y843622D2*
X1134371Y839311D1*
X1131519Y836426D1*
X1127208Y835000D1*
X1125782D1*
X1121471Y836426D1*
X1118619Y839311D1*
X1117160Y843622D1*
Y845048D1*
X1118619Y849359D1*
X1121471Y852211D1*
X1125782Y853637D1*
X1127208D1*
X1131519Y852211D1*
X1134371Y849359D1*
X1135830Y843622D1*
Y836426D1*
X1134371Y829263D1*
X1131519Y824952D1*
X1127208Y823526D1*
X1124356D1*
X1120045Y824952D1*
X1118619Y827837D1*
X1082510Y1025809D2*
X1081084Y1028661D1*
X1078199Y1031546D1*
X1075347Y1032972D1*
X1069610D1*
X1066725Y1031546D1*
X1063873Y1028661D1*
X1062414Y1025809D1*
X1060988Y1021498D1*
Y1014302D1*
X1062414Y1010024D1*
X1063873Y1007139D1*
X1066725Y1004287D1*
X1069610Y1002828D1*
X1075347D1*
X1078199Y1004287D1*
X1081084Y1007139D1*
X1082510Y1010024D1*
X1093233Y1025776D2*
Y1027202D1*
X1094659Y1030087D1*
X1096085Y1031513D1*
X1098970Y1032939D1*
X1104707D1*
X1107559Y1031513D1*
X1108985Y1030087D1*
X1110444Y1027202D1*
Y1024350D1*
X1108985Y1021465D1*
X1106133Y1017187D1*
X1091774Y1002828D1*
X1111870D1*
X1129756Y1032939D2*
X1125445Y1031513D1*
X1122559Y1027202D1*
X1121133Y1020039D1*
Y1015728D1*
X1122559Y1008565D1*
X1125445Y1004254D1*
X1129756Y1002828D1*
X1132607D1*
X1136918Y1004254D1*
X1139770Y1008565D1*
X1141229Y1015728D1*
Y1020039D1*
X1139770Y1027202D1*
X1136918Y1031513D1*
X1132607Y1032939D1*
X1129756D1*
X1139770Y1027202D2*
X1122559Y1008565D1*
X986140Y1030888D2*
X984714Y1033740D1*
X981829Y1036625D1*
X978977Y1038051D1*
X973240D1*
X970355Y1036625D1*
X967503Y1033740D1*
X966044Y1030888D1*
X964618Y1026577D1*
Y1019381D1*
X966044Y1015103D1*
X967503Y1012218D1*
X970355Y1009366D1*
X973240Y1007907D1*
X978977D1*
X981829Y1009366D1*
X984714Y1012218D1*
X986140Y1015103D1*
X996863Y1030855D2*
Y1032281D1*
X998289Y1035166D1*
X999715Y1036592D1*
X1002600Y1038018D1*
X1008337D1*
X1011189Y1036592D1*
X1012615Y1035166D1*
X1014074Y1032281D1*
Y1029429D1*
X1012615Y1026544D1*
X1009763Y1022266D1*
X995404Y1007907D1*
X1015500D1*
X1024763Y1032281D2*
X1027648Y1033740D1*
X1031959Y1038018D1*
Y1007907D1*
X825756Y993443D2*
X824330Y996295D1*
X821445Y999180D1*
X818593Y1000606D1*
X812856D1*
X809971Y999180D1*
X807119Y996295D1*
X805660Y993443D1*
X804234Y989132D1*
Y981936D1*
X805660Y977658D1*
X807119Y974773D1*
X809971Y971921D1*
X812856Y970462D1*
X818593D1*
X821445Y971921D1*
X824330Y974773D1*
X825756Y977658D1*
X836478Y993410D2*
Y994836D1*
X837904Y997721D1*
X839330Y999147D1*
X842215Y1000573D1*
X847952D1*
X850804Y999147D1*
X852230Y997721D1*
X853689Y994836D1*
Y991984D1*
X852230Y989099D1*
X849378Y984821D1*
X835019Y970462D1*
X855115D1*
X865838Y993410D2*
Y994836D1*
X867264Y997721D1*
X868690Y999147D1*
X871575Y1000573D1*
X877312D1*
X880164Y999147D1*
X881590Y997721D1*
X883049Y994836D1*
Y991984D1*
X881590Y989099D1*
X878738Y984821D1*
X864379Y970462D1*
X884475D1*
X439058Y923195D2*
X437632Y926047D1*
X434747Y928932D1*
X431895Y930358D1*
X426158D1*
X423273Y928932D1*
X420421Y926047D1*
X418962Y923195D1*
X417536Y918884D1*
Y911688D1*
X418962Y907410D1*
X420421Y904525D1*
X423273Y901673D1*
X426158Y900214D1*
X431895D1*
X434747Y901673D1*
X437632Y904525D1*
X439058Y907410D1*
X449780Y923162D2*
Y924588D1*
X451206Y927473D1*
X452632Y928899D1*
X455517Y930325D1*
X461254D1*
X464106Y928899D1*
X465532Y927473D1*
X466991Y924588D1*
Y921736D1*
X465532Y918851D1*
X462680Y914573D1*
X448321Y900214D1*
X468417D1*
X480566Y930325D2*
X496318D1*
X487729Y918851D1*
X492040D1*
X494892Y917425D1*
X496318Y915999D1*
X497777Y911688D1*
Y908836D1*
X496318Y904525D1*
X493466Y901640D1*
X489155Y900214D1*
X484844D1*
X480566Y901640D1*
X479140Y903099D1*
X477681Y905951D1*
X491459Y715716D2*
X490033Y718568D1*
X487148Y721453D1*
X484296Y722879D1*
X478559D1*
X475674Y721453D1*
X472822Y718568D1*
X471363Y715716D1*
X469937Y711405D1*
Y704209D1*
X471363Y699931D1*
X472822Y697046D1*
X475674Y694194D1*
X478559Y692735D1*
X484296D1*
X487148Y694194D1*
X490033Y697046D1*
X491459Y699931D1*
X502181Y715683D2*
Y717109D1*
X503607Y719994D1*
X505033Y721420D1*
X507918Y722846D1*
X513655D1*
X516507Y721420D1*
X517933Y719994D1*
X519392Y717109D1*
Y714257D1*
X517933Y711372D1*
X515081Y707094D1*
X500722Y692735D1*
X520818D1*
X544441D2*
Y722846D1*
X530082Y702783D1*
X551604D1*
X765896Y3986767D2*
Y3956623D1*
X775944D1*
X780255Y3958082D1*
X783140Y3960934D1*
X784566Y3963819D1*
X785992Y3968097D1*
Y3975293D1*
X784566Y3979604D1*
X783140Y3982456D1*
X780255Y3985341D1*
X775944Y3986767D1*
X765896D1*
X798140Y3986734D2*
X813892D1*
X805303Y3975260D1*
X809614D1*
X812466Y3973834D1*
X813892Y3972408D1*
X815351Y3968097D1*
Y3965245D1*
X813892Y3960934D1*
X811040Y3958049D1*
X806729Y3956623D1*
X802418D1*
X798140Y3958049D1*
X796714Y3959508D1*
X795255Y3962360D1*
X892540Y4639133D2*
Y4608989D1*
X923326Y4631970D2*
X921900Y4634822D1*
X919015Y4637707D1*
X916163Y4639133D1*
X910426D1*
X907541Y4637707D1*
X904689Y4634822D1*
X903230Y4631970D1*
X901804Y4627659D1*
Y4620463D1*
X903230Y4616185D1*
X904689Y4613300D1*
X907541Y4610448D1*
X910426Y4608989D1*
X916163D1*
X919015Y4610448D1*
X921900Y4613300D1*
X923326Y4616185D1*
X932589Y4633363D2*
X935474Y4634822D1*
X939785Y4639100D1*
Y4608989D1*
X843324Y1691227D2*
Y1661083D1*
X874109Y1684064D2*
X872683Y1686916D1*
X869798Y1689801D1*
X866946Y1691227D1*
X861209D1*
X858324Y1689801D1*
X855472Y1686916D1*
X854013Y1684064D1*
X852587Y1679753D1*
Y1672556D1*
X854013Y1668279D1*
X855472Y1665394D1*
X858324Y1662542D1*
X861209Y1661083D1*
X866946D1*
X869798Y1662542D1*
X872683Y1665394D1*
X874109Y1668279D1*
X884832Y1684030D2*
Y1685456D1*
X886258Y1688341D1*
X887684Y1689767D1*
X890569Y1691193D1*
X896306D1*
X899158Y1689767D1*
X900584Y1688341D1*
X902043Y1685456D1*
Y1682604D1*
X900584Y1679719D1*
X897732Y1675442D1*
X883373Y1661083D1*
X903469D1*
X983658Y1964874D2*
X1013802D1*
X990821Y1995659D2*
X987969Y1994233D1*
X985084Y1991348D1*
X983658Y1988496D1*
Y1982759D1*
X985084Y1979874D1*
X987969Y1977022D1*
X990821Y1975563D1*
X995132Y1974137D1*
X1002328D1*
X1006606Y1975563D1*
X1009491Y1977022D1*
X1012343Y1979874D1*
X1013802Y1982759D1*
Y1988496D1*
X1012343Y1991348D1*
X1009491Y1994233D1*
X1006606Y1995659D1*
X983691Y2007808D2*
Y2023560D1*
X995165Y2014971D1*
Y2019282D1*
X996591Y2022134D1*
X998017Y2023560D1*
X1002328Y2025019D1*
X1005180D1*
X1009491Y2023560D1*
X1012376Y2020708D1*
X1013802Y2016397D1*
Y2012086D1*
X1012376Y2007808D1*
X1010917Y2006382D1*
X1008065Y2004923D1*
X743283Y1302696D2*
Y1272552D1*
X774068Y1295533D2*
X772642Y1298385D1*
X769757Y1301270D1*
X766905Y1302696D1*
X761168D1*
X758283Y1301270D1*
X755431Y1298385D1*
X753972Y1295533D1*
X752546Y1291222D1*
Y1284026D1*
X753972Y1279748D1*
X755431Y1276863D1*
X758283Y1274011D1*
X761168Y1272552D1*
X766905D1*
X769757Y1274011D1*
X772642Y1276863D1*
X774068Y1279748D1*
X797691Y1272552D2*
Y1302663D1*
X783332Y1282600D1*
X804854D1*
X833534Y740722D2*
Y710578D1*
X864319Y733559D2*
X862893Y736411D1*
X860008Y739296D1*
X857156Y740722D1*
X851419D1*
X848534Y739296D1*
X845682Y736411D1*
X844223Y733559D1*
X842797Y729248D1*
Y722052D1*
X844223Y717774D1*
X845682Y714889D1*
X848534Y712037D1*
X851419Y710578D1*
X857156D1*
X860008Y712037D1*
X862893Y714889D1*
X864319Y717774D1*
X890794Y740689D2*
X876468D1*
X875042Y727789D1*
X876468Y729215D1*
X880779Y730674D1*
X885057D1*
X889368Y729215D1*
X892253Y726363D1*
X893679Y722052D1*
Y719200D1*
X892253Y714889D1*
X889368Y712004D1*
X885057Y710578D1*
X880779D1*
X876468Y712004D1*
X875042Y713463D1*
X873583Y716315D1*
X898444Y1241984D2*
X928588D1*
X905607Y1272769D2*
X902755Y1271343D1*
X899870Y1268458D1*
X898444Y1265607D1*
Y1259870D1*
X899870Y1256984D1*
X902755Y1254133D1*
X905607Y1252673D1*
X909918Y1251247D1*
X917114D1*
X921392Y1252673D1*
X924277Y1254133D1*
X927129Y1256984D1*
X928588Y1259869D1*
Y1265606D1*
X927129Y1268458D1*
X924277Y1271343D1*
X921392Y1272769D1*
X902755Y1299244D2*
X899903Y1297818D1*
X898477Y1293507D1*
Y1290655D1*
X899903Y1286344D1*
X904214Y1283459D1*
X911377Y1282033D1*
X918540D1*
X924277Y1283459D1*
X927162Y1286344D1*
X928588Y1290655D1*
Y1292081D1*
X927162Y1296359D1*
X924277Y1299244D1*
X919966Y1300670D1*
X918540D1*
X914229Y1299244D1*
X911377Y1296359D1*
X909951Y1292081D1*
Y1290655D1*
X911377Y1286344D1*
X914229Y1283459D1*
X918540Y1282033D1*
X548439Y2811045D2*
Y2788098D1*
X547013Y2783786D1*
X545554Y2782361D1*
X542702Y2780901D1*
X539817D1*
X536965Y2782361D1*
X535540Y2783786D1*
X534080Y2788098D1*
Y2790949D1*
X557703Y2795260D2*
X570636D1*
X574914Y2796686D1*
X576373Y2798146D1*
X577799Y2800997D1*
Y2805308D1*
X576373Y2808160D1*
X574914Y2809619D1*
X570636Y2811045D1*
X557703D1*
Y2780901D1*
X588522Y2803849D2*
Y2805275D1*
X589948Y2808160D1*
X591374Y2809586D1*
X594259Y2811012D1*
X599996D1*
X602847Y2809586D1*
X604273Y2808160D1*
X605733Y2805275D1*
Y2802423D1*
X604273Y2799538D1*
X601422Y2795260D1*
X587063Y2780901D1*
X607159D1*
X530168Y4419583D2*
Y4396636D1*
X528742Y4392325D1*
X527283Y4390899D1*
X524431Y4389439D1*
X521546D1*
X518694Y4390899D1*
X517268Y4392325D1*
X515809Y4396636D1*
Y4399487D1*
X539431Y4403799D2*
X552364D1*
X556642Y4405224D1*
X558101Y4406684D1*
X559527Y4409535D1*
Y4413847D1*
X558101Y4416698D1*
X556642Y4418158D1*
X552364Y4419583D1*
X539431D1*
Y4389439D1*
X571676Y4419550D2*
X587428D1*
X578839Y4408076D1*
X583150D1*
X586002Y4406650D1*
X587428Y4405224D1*
X588887Y4400913D1*
Y4398062D1*
X587428Y4393751D1*
X584576Y4390865D1*
X580265Y4389439D1*
X575954D1*
X571676Y4390865D1*
X570250Y4392325D1*
X568791Y4395176D1*
X846153Y3298746D2*
Y3268602D1*
X863364D1*
X872627Y3292976D2*
X875512Y3294435D1*
X879824Y3298713D1*
Y3268602D1*
X553532Y1959667D2*
X550680Y1958275D1*
X547795Y1955390D1*
X546369Y1952505D1*
X544910Y1948194D1*
Y1941031D1*
X546369Y1936720D1*
X547795Y1933868D1*
X550680Y1930983D1*
X553532Y1929557D1*
X559269D1*
X562154Y1930983D1*
X565006Y1933868D1*
X566432Y1936720D1*
X567891Y1941031D1*
Y1948194D1*
X566432Y1952505D1*
X565006Y1955390D1*
X562154Y1958275D1*
X559269Y1959667D1*
X553532D1*
X557843Y1935294D2*
X566432Y1926672D1*
X577154Y1953897D2*
X580039Y1955356D1*
X584350Y1959634D1*
Y1929523D1*
X605330Y1891935D2*
X602478Y1890542D1*
X599593Y1887657D1*
X598167Y1884772D1*
X596708Y1880461D1*
Y1873298D1*
X598167Y1868987D1*
X599593Y1866135D1*
X602478Y1863250D1*
X605330Y1861824D1*
X611067D1*
X613952Y1863250D1*
X616804Y1866135D1*
X618230Y1868987D1*
X619689Y1873298D1*
Y1880461D1*
X618230Y1884772D1*
X616804Y1887657D1*
X613952Y1890542D1*
X611067Y1891935D1*
X605330D1*
X609641Y1867561D2*
X618230Y1858939D1*
X630411Y1884739D2*
Y1886165D1*
X631837Y1889050D1*
X633263Y1890476D1*
X636148Y1891902D1*
X641885D1*
X644737Y1890476D1*
X646163Y1889050D1*
X647622Y1886165D1*
Y1883313D1*
X646163Y1880428D1*
X643311Y1876150D1*
X628952Y1861791D1*
X649048D1*
X600810Y1751028D2*
X597958Y1749636D1*
X595073Y1746751D1*
X593647Y1743865D1*
X592188Y1739554D1*
Y1732391D1*
X593647Y1728080D1*
X595073Y1725229D1*
X597958Y1722343D1*
X600810Y1720918D1*
X606547D1*
X609432Y1722343D1*
X612284Y1725229D1*
X613710Y1728080D1*
X615169Y1732391D1*
Y1739554D1*
X613710Y1743865D1*
X612284Y1746751D1*
X609432Y1749636D1*
X606547Y1751028D1*
X600810D1*
X605121Y1726654D2*
X613710Y1718032D1*
X627318Y1750995D2*
X643069D1*
X634481Y1739521D1*
X638792D1*
X641644Y1738095D1*
X643069Y1736669D1*
X644529Y1732358D1*
Y1729506D1*
X643069Y1725195D1*
X640218Y1722310D1*
X635907Y1720884D1*
X631596D1*
X627318Y1722310D1*
X625892Y1723769D1*
X624433Y1726621D1*
X432780Y3817976D2*
Y3830876D1*
X431320Y3835187D1*
X429895Y3836646D1*
X427043Y3838072D1*
X424158D1*
X421306Y3836646D1*
X419847Y3835187D1*
X418421Y3830876D1*
Y3817976D1*
X448565D1*
X432780Y3828024D2*
X448565Y3838072D1*
X425617Y3848794D2*
X424191D1*
X421306Y3850220D1*
X419880Y3851646D1*
X418454Y3854531D1*
Y3860268D1*
X419880Y3863120D1*
X421306Y3864546D1*
X424191Y3866005D1*
X427043D1*
X429928Y3864546D1*
X434206Y3861694D1*
X448565Y3847335D1*
Y3867431D1*
X546197Y2608341D2*
X559097D1*
X563408Y2609800D1*
X564867Y2611226D1*
X566293Y2614078D1*
Y2616963D1*
X564867Y2619815D1*
X563408Y2621274D1*
X559097Y2622700D1*
X546197D1*
Y2592556D1*
X556245Y2608341D2*
X566293Y2592556D1*
X578442Y2622667D2*
X594194D1*
X585605Y2611193D1*
X589916D1*
X592768Y2609767D1*
X594194Y2608341D1*
X595653Y2604030D1*
Y2601178D1*
X594194Y2596867D1*
X591342Y2593982D1*
X587031Y2592556D1*
X582720D1*
X578442Y2593982D1*
X577016Y2595441D1*
X575557Y2598293D1*
X1148417Y4429836D2*
Y4442736D1*
X1146958Y4447047D1*
X1145532Y4448506D1*
X1142680Y4449932D1*
X1139795D1*
X1136943Y4448506D1*
X1135484Y4447047D1*
X1134058Y4442736D1*
Y4429836D1*
X1164202D1*
X1148417Y4439884D2*
X1164202Y4449932D1*
Y4473555D2*
X1134092D1*
X1154154Y4459196D1*
Y4480718D1*
X1153055Y4237596D2*
Y4250496D1*
X1151596Y4254807D1*
X1150170Y4256266D1*
X1147318Y4257692D1*
X1144433D1*
X1141581Y4256266D1*
X1140122Y4254807D1*
X1138696Y4250496D1*
Y4237596D1*
X1168840D1*
X1153055Y4247644D2*
X1168840Y4257692D1*
X1143007Y4284167D2*
X1140155Y4282741D1*
X1138729Y4278430D1*
Y4275578D1*
X1140155Y4271267D1*
X1144466Y4268382D1*
X1151629Y4266956D1*
X1158792D1*
X1164529Y4268382D1*
X1167414Y4271267D1*
X1168840Y4275578D1*
Y4277004D1*
X1167414Y4281282D1*
X1164529Y4284167D1*
X1160218Y4285593D1*
X1158792D1*
X1154481Y4284167D1*
X1151629Y4281282D1*
X1150203Y4277004D1*
Y4275578D1*
X1151629Y4271267D1*
X1154481Y4268382D1*
X1158792Y4266956D1*
X1153055Y4042257D2*
Y4055157D1*
X1151596Y4059468D1*
X1150170Y4060927D1*
X1147318Y4062353D1*
X1144433D1*
X1141581Y4060927D1*
X1140122Y4059468D1*
X1138696Y4055157D1*
Y4042257D1*
X1168840D1*
X1153055Y4052305D2*
X1168840Y4062353D1*
Y4077353D2*
X1138729Y4091712D1*
Y4071616D1*
X1153055Y3829773D2*
Y3842673D1*
X1151596Y3846984D1*
X1150170Y3848443D1*
X1147318Y3849869D1*
X1144433D1*
X1141581Y3848443D1*
X1140122Y3846984D1*
X1138696Y3842673D1*
Y3829773D1*
X1168840D1*
X1153055Y3839821D2*
X1168840Y3849869D1*
X1138729Y3866296D2*
X1140155Y3862018D1*
X1143007Y3860559D1*
X1145892D1*
X1148744Y3862018D1*
X1150203Y3864870D1*
X1151629Y3870607D1*
X1153055Y3874918D1*
X1155940Y3877770D1*
X1158792Y3879195D1*
X1163103D1*
X1165955Y3877770D1*
X1167414Y3876344D1*
X1168840Y3872033D1*
Y3866296D1*
X1167414Y3862018D1*
X1165955Y3860559D1*
X1163103Y3859133D1*
X1158792D1*
X1155940Y3860559D1*
X1153055Y3863444D1*
X1151629Y3867722D1*
X1150203Y3873459D1*
X1148744Y3876344D1*
X1145892Y3877770D1*
X1143007D1*
X1140155Y3876344D1*
X1138729Y3872033D1*
Y3866296D1*
X942566Y1832047D2*
Y1844947D1*
X941107Y1849258D1*
X939681Y1850717D1*
X936829Y1852143D1*
X933944D1*
X931092Y1850717D1*
X929633Y1849258D1*
X928207Y1844947D1*
Y1832047D1*
X958351D1*
X942566Y1842095D2*
X958351Y1852143D1*
X938255Y1880077D2*
X942566Y1878617D1*
X945451Y1875766D1*
X946877Y1871454D1*
Y1870029D1*
X945451Y1865718D1*
X942566Y1862866D1*
X938255Y1861407D1*
X936829D1*
X932518Y1862866D1*
X929666Y1865718D1*
X928240Y1870029D1*
Y1871455D1*
X929666Y1875766D1*
X932518Y1878617D1*
X938255Y1880077D1*
X945451D1*
X952614Y1878617D1*
X956925Y1875765D1*
X958351Y1871454D1*
Y1868603D1*
X956925Y1864292D1*
X954040Y1862866D1*
X578257Y489833D2*
Y502732D1*
X576798Y507043D1*
X575372Y508503D1*
X572520Y509929D1*
X569635D1*
X566783Y508503D1*
X565324Y507044D1*
X563898Y502732D1*
Y489833D1*
X594042D1*
X578257Y499881D2*
X594042Y509928D1*
X569668Y519192D2*
X568209Y522077D1*
X563931Y526388D1*
X594042D1*
X563931Y544274D2*
X565357Y539963D1*
X569668Y537078D1*
X576831Y535652D1*
X581142D1*
X588305Y537078D1*
X592616Y539963D1*
X594042Y544274D1*
Y547126D1*
X592616Y551437D1*
X588305Y554289D1*
X581142Y555748D1*
X576831D1*
X569668Y554289D1*
X565357Y551437D1*
X563931Y547126D1*
Y544274D1*
X569668Y554289D2*
X588305Y537078D1*
X964493Y1679957D2*
X964494Y1692857D1*
X963034Y1697168D1*
X961608Y1698627D1*
X958757Y1700053D1*
X955871D1*
X953020Y1698627D1*
X951560Y1697168D1*
X950134Y1692857D1*
Y1679957D1*
X980278D1*
X964493Y1690005D2*
X980278Y1700053D1*
X955905Y1709317D2*
X954446Y1712202D1*
X950168Y1716513D1*
X980278D1*
X957331Y1727235D2*
X955905D1*
X953020Y1728661D1*
X951594Y1730087D1*
X950168Y1732972D1*
Y1738709D1*
X951594Y1741561D1*
X953020Y1742987D1*
X955905Y1744446D1*
X958757D1*
X961642Y1742987D1*
X965919Y1740135D1*
X980278Y1725776D1*
Y1745872D1*
X448755Y2568553D2*
X461655D1*
X465966Y2570012D1*
X467425Y2571438D1*
X468851Y2574290D1*
Y2577175D1*
X467425Y2580026D1*
X465966Y2581486D1*
X461655Y2582912D1*
X448755D1*
Y2552768D1*
X458803Y2568553D2*
X468851Y2552768D1*
X478115Y2577141D2*
X481000Y2578601D1*
X485311Y2582878D1*
Y2552768D1*
X497459Y2582878D2*
X513211D1*
X504622Y2571404D1*
X508933D1*
X511785Y2569978D1*
X513211Y2568553D1*
X514670Y2564242D1*
Y2561390D1*
X513211Y2557079D1*
X510359Y2554194D1*
X506048Y2552768D1*
X501737D1*
X497459Y2554194D1*
X496033Y2555653D1*
X494574Y2558505D1*
X972596Y1318092D2*
X985496D1*
X989807Y1319551D1*
X991266Y1320977D1*
X992692Y1323829D1*
Y1326714D1*
X991266Y1329566D1*
X989807Y1331025D1*
X985496Y1332451D1*
X972596D1*
Y1302307D1*
X982644Y1318092D2*
X992692Y1302307D1*
X1001955Y1326681D2*
X1004840Y1328140D1*
X1009152Y1332418D1*
Y1302307D1*
X1032774D2*
Y1332418D1*
X1018415Y1312355D1*
X1039937D1*
X477049Y1558852D2*
Y1571752D1*
X475590Y1576063D1*
X474164Y1577522D1*
X471312Y1578948D1*
X468427D1*
X465575Y1577522D1*
X464116Y1576063D1*
X462690Y1571752D1*
Y1558852D1*
X492834D1*
X477049Y1568900D2*
X492834Y1578948D1*
X468460Y1588212D2*
X467001Y1591097D1*
X462723Y1595408D1*
X492834D1*
X462723Y1621882D2*
Y1607556D1*
X475623Y1606130D1*
X474197Y1607556D1*
X472738Y1611867D1*
Y1616145D1*
X474197Y1620456D1*
X477049Y1623341D1*
X481360Y1624767D1*
X484212D1*
X488523Y1623341D1*
X491408Y1620456D1*
X492834Y1616145D1*
Y1611867D1*
X491408Y1607556D1*
X489949Y1606130D1*
X487097Y1604671D1*
X1117574Y2232936D2*
Y2245836D1*
X1116114Y2250147D1*
X1114688Y2251606D1*
X1111837Y2253032D1*
X1108952D1*
X1106100Y2251606D1*
X1104640Y2250147D1*
X1103215Y2245836D1*
X1103214Y2232936D1*
X1133358D1*
X1117574Y2242984D2*
X1133359Y2253032D1*
X1108985Y2262296D2*
X1107526Y2265181D1*
X1103248Y2269492D1*
X1133359D1*
X1107526Y2295966D2*
X1104674Y2294540D1*
X1103248Y2290229D1*
Y2287377D1*
X1104674Y2283066D1*
X1108985Y2280181D1*
X1116148Y2278755D1*
X1123311D1*
X1129047Y2280181D1*
X1131933Y2283066D1*
X1133359Y2287377D1*
Y2288803D1*
X1131933Y2293081D1*
X1129047Y2295966D1*
X1124736Y2297392D1*
X1123311D1*
X1119000Y2295966D1*
X1116148Y2293081D1*
X1114722Y2288803D1*
Y2287377D1*
X1116148Y2283066D1*
X1119000Y2280181D1*
X1123311Y2278755D1*
X679819Y1601748D2*
X692719D1*
X697030Y1603207D1*
X698489Y1604633D1*
X699915Y1607485D1*
Y1610370D1*
X698489Y1613222D1*
X697030Y1614681D1*
X692719Y1616107D1*
X679819D1*
Y1585963D1*
X689867Y1601748D2*
X699915Y1585963D1*
X709179Y1610337D2*
X712064Y1611796D1*
X716375Y1616074D1*
Y1585963D1*
X731376D2*
X745735Y1616074D1*
X725639D1*
X422045Y1341820D2*
X434944D1*
X439256Y1343279D1*
X440715Y1344705D1*
X442141Y1347557D1*
Y1350442D1*
X440715Y1353294D1*
X439256Y1354753D1*
X434944Y1356179D1*
X422045D1*
Y1326035D1*
X432093Y1341820D2*
X442141Y1326035D1*
X451404Y1350409D2*
X454289Y1351868D1*
X458600Y1356146D1*
Y1326035D1*
X475027Y1356146D2*
X470749Y1354720D1*
X469290Y1351868D1*
Y1348983D1*
X470749Y1346131D1*
X473601Y1344672D1*
X479338Y1343246D1*
X483649Y1341820D1*
X486501Y1338935D1*
X487927Y1336083D1*
Y1331772D1*
X486501Y1328920D1*
X485075Y1327461D1*
X480764Y1326035D1*
X475027D1*
X470749Y1327461D1*
X469290Y1328920D1*
X467864Y1331772D1*
Y1336083D1*
X469290Y1338935D1*
X472175Y1341820D1*
X476453Y1343246D1*
X482190Y1344672D1*
X485075Y1346131D1*
X486501Y1348983D1*
Y1351868D1*
X485075Y1354720D1*
X480764Y1356146D1*
X475027D1*
X669387Y1203819D2*
X682287D1*
X686598Y1205278D1*
X688057Y1206704D1*
X689483Y1209556D1*
Y1212441D1*
X688057Y1215293D1*
X686598Y1216752D1*
X682287Y1218178D1*
X669387D1*
Y1188034D1*
X679435Y1203819D2*
X689483Y1188034D1*
X698746Y1212408D2*
X701631Y1213867D1*
X705942Y1218145D1*
Y1188034D1*
X733876Y1208130D2*
X732417Y1203819D1*
X729565Y1200934D1*
X725254Y1199508D1*
X723828D1*
X719517Y1200934D1*
X716665Y1203819D1*
X715206Y1208130D1*
Y1209556D1*
X716665Y1213867D1*
X719517Y1216719D1*
X723828Y1218145D1*
X725254D1*
X729565Y1216719D1*
X732417Y1213867D1*
X733876Y1208130D1*
Y1200934D1*
X732417Y1193771D1*
X729565Y1189460D1*
X725254Y1188034D1*
X722402D1*
X718091Y1189460D1*
X716665Y1192345D1*
X412607Y1259059D2*
X425507D1*
X429818Y1260518D1*
X431277Y1261944D1*
X432703Y1264796D1*
Y1267681D1*
X431277Y1270533D1*
X429818Y1271992D1*
X425507Y1273418D1*
X412607D1*
Y1243274D1*
X422655Y1259059D2*
X432703Y1243274D1*
X443426Y1266222D2*
Y1267648D1*
X444852Y1270533D1*
X446277Y1271959D1*
X449163Y1273385D1*
X454900D1*
X457751Y1271959D1*
X459177Y1270533D1*
X460637Y1267648D1*
Y1264796D1*
X459177Y1261911D1*
X456325Y1257633D1*
X441966Y1243274D1*
X462062D1*
X479948Y1273385D2*
X475637Y1271959D1*
X472752Y1267648D1*
X471326Y1260485D1*
Y1256174D1*
X472752Y1249011D1*
X475637Y1244700D1*
X479948Y1243274D1*
X482800D1*
X487111Y1244700D1*
X489963Y1249011D1*
X491422Y1256174D1*
Y1260485D1*
X489963Y1267648D1*
X487111Y1271959D1*
X482800Y1273385D1*
X479948D1*
X489963Y1267648D2*
X472752Y1249011D1*
X1155209Y1671495D2*
Y1684395D1*
X1153750Y1688706D1*
X1152324Y1690166D1*
X1149472Y1691591D1*
X1146587D1*
X1143735Y1690166D1*
X1142276Y1688706D1*
X1140850Y1684395D1*
Y1671495D1*
X1170994D1*
X1155209Y1681543D2*
X1170994Y1691591D1*
X1148046Y1702314D2*
X1146620D1*
X1143735Y1703740D1*
X1142309Y1705166D1*
X1140883Y1708051D1*
Y1713788D1*
X1142309Y1716640D1*
X1143735Y1718066D1*
X1146620Y1719525D1*
X1149472D1*
X1152357Y1718066D1*
X1156635Y1715214D1*
X1170994Y1700855D1*
Y1720951D1*
X1148046Y1731674D2*
X1146620D1*
X1143735Y1733100D1*
X1142309Y1734526D1*
X1140883Y1737411D1*
Y1743148D1*
X1142309Y1745999D1*
X1143735Y1747425D1*
X1146620Y1748885D1*
X1149472D1*
X1152357Y1747425D1*
X1156635Y1744574D1*
X1170994Y1730214D1*
Y1750310D1*
X487398Y479364D2*
Y492264D1*
X485939Y496575D1*
X484513Y498034D1*
X481661Y499460D1*
X478776D1*
X475924Y498034D1*
X474465Y496575D1*
X473039Y492264D1*
Y479364D1*
X503183D1*
X487398Y489412D2*
X503183Y499460D1*
X480235Y510183D2*
X478809D1*
X475924Y511609D1*
X474498Y513035D1*
X473072Y515920D1*
Y521657D1*
X474498Y524509D1*
X475924Y525935D1*
X478809Y527394D1*
X481661D1*
X484546Y525935D1*
X488824Y523083D1*
X503183Y508724D1*
Y528820D1*
X473072Y540968D2*
Y556720D1*
X484546Y548131D1*
Y552442D1*
X485972Y555294D1*
X487398Y556720D1*
X491709Y558179D1*
X494561D1*
X498872Y556720D1*
X501757Y553868D1*
X503183Y549557D1*
Y545246D1*
X501757Y540968D1*
X500298Y539542D1*
X497446Y538083D1*
X1063193Y928113D2*
X1076093D1*
X1080404Y929572D1*
X1081863Y930998D1*
X1083289Y933850D1*
Y936735D1*
X1081863Y939587D1*
X1080404Y941046D1*
X1076093Y942472D1*
X1063193D1*
Y912328D1*
X1073241Y928113D2*
X1083289Y912328D1*
X1094012Y935276D2*
Y936702D1*
X1095438Y939587D1*
X1096864Y941013D1*
X1099749Y942439D1*
X1105486D1*
X1108338Y941013D1*
X1109764Y939587D1*
X1111223Y936702D1*
Y933850D1*
X1109764Y930965D1*
X1106912Y926687D1*
X1092553Y912328D1*
X1112649D1*
X1136271D2*
Y942439D1*
X1121912Y922376D1*
X1143434D1*
X872810Y1137622D2*
X885710D1*
X890021Y1139081D1*
X891480Y1140507D1*
X892906Y1143359D1*
Y1146244D1*
X891480Y1149096D1*
X890021Y1150555D1*
X885710Y1151981D1*
X872810D1*
Y1121837D1*
X882858Y1137622D2*
X892906Y1121837D1*
X903629Y1144785D2*
Y1146211D1*
X905055Y1149096D1*
X906481Y1150522D1*
X909366Y1151948D1*
X915103D1*
X917955Y1150522D1*
X919381Y1149096D1*
X920840Y1146211D1*
Y1143359D1*
X919381Y1140474D1*
X916529Y1136196D1*
X902170Y1121837D1*
X922266D1*
X948740Y1151948D2*
X934414D1*
X932989Y1139048D1*
X934414Y1140474D1*
X938726Y1141933D1*
X943003D1*
X947314Y1140474D1*
X950199Y1137622D1*
X951625Y1133311D1*
Y1130459D1*
X950199Y1126148D1*
X947314Y1123263D1*
X943003Y1121837D1*
X938726D1*
X934414Y1123263D1*
X932989Y1124722D1*
X931529Y1127574D1*
X1067077Y748895D2*
X1079977D1*
X1084288Y750354D1*
X1085747Y751780D1*
X1087173Y754632D1*
Y757517D1*
X1085747Y760369D1*
X1084288Y761828D1*
X1079977Y763254D1*
X1067077D1*
Y733110D1*
X1077125Y748895D2*
X1087173Y733110D1*
X1097895Y756058D2*
Y757484D1*
X1099321Y760369D1*
X1100747Y761795D1*
X1103632Y763221D1*
X1109369D1*
X1112221Y761795D1*
X1113647Y760369D1*
X1115106Y757484D1*
Y754632D1*
X1113647Y751747D1*
X1110795Y747469D1*
X1096436Y733110D1*
X1116532D1*
X1143007Y758943D2*
X1141581Y761795D1*
X1137270Y763221D1*
X1134418D1*
X1130107Y761795D1*
X1127222Y757484D1*
X1125796Y750321D1*
Y743158D1*
X1127222Y737421D1*
X1130107Y734536D1*
X1134418Y733110D1*
X1135844D1*
X1140122Y734536D1*
X1143007Y737421D1*
X1144433Y741732D1*
Y743158D1*
X1143007Y747469D1*
X1140122Y750321D1*
X1135844Y751747D1*
X1134418D1*
X1130107Y750321D1*
X1127222Y747469D1*
X1125796Y743158D1*
X425088Y1552969D2*
Y1565869D1*
X423629Y1570180D1*
X422203Y1571639D1*
X419351Y1573065D1*
X416466D1*
X413614Y1571639D1*
X412155Y1570180D1*
X410729Y1565869D1*
Y1552969D1*
X440873D1*
X425088Y1563017D2*
X440873Y1573065D1*
X417925Y1583788D2*
X416499D1*
X413614Y1585214D1*
X412188Y1586640D1*
X410762Y1589525D1*
Y1595262D1*
X412188Y1598114D1*
X413614Y1599540D1*
X416499Y1600999D1*
X419351D1*
X422236Y1599540D1*
X426514Y1596688D1*
X440873Y1582329D1*
Y1602425D1*
Y1617425D2*
X410762Y1631784D1*
Y1611688D1*
X941903Y2675773D2*
Y2688673D1*
X940444Y2692984D1*
X939018Y2694443D1*
X936166Y2695869D1*
X933281D1*
X930429Y2694443D1*
X928970Y2692984D1*
X927544Y2688673D1*
Y2675773D1*
X957688D1*
X941903Y2685821D2*
X957688Y2695869D1*
X934740Y2706592D2*
X933314D1*
X930429Y2708018D1*
X929003Y2709444D1*
X927577Y2712329D1*
Y2718066D1*
X929003Y2720918D1*
X930429Y2722344D1*
X933314Y2723803D1*
X936166D1*
X939051Y2722344D1*
X943329Y2719492D1*
X957688Y2705133D1*
Y2725229D1*
X927577Y2741655D2*
X929003Y2737377D1*
X931855Y2735918D1*
X934740D1*
X937592Y2737377D1*
X939051Y2740229D1*
X940477Y2745966D1*
X941903Y2750277D1*
X944788Y2753129D1*
X947640Y2754555D1*
X951951D1*
X954803Y2753129D1*
X956262Y2751703D1*
X957688Y2747392D1*
Y2741655D1*
X956262Y2737377D1*
X954803Y2735918D1*
X951951Y2734492D1*
X947640D1*
X944788Y2735918D1*
X941903Y2738803D1*
X940477Y2743081D1*
X939051Y2748818D1*
X937592Y2751703D1*
X934740Y2753129D1*
X931855D1*
X929003Y2751703D1*
X927577Y2747392D1*
Y2741655D1*
X418962Y828427D2*
X431862D1*
X436173Y829886D1*
X437632Y831312D1*
X439058Y834164D1*
Y837049D1*
X437632Y839901D1*
X436173Y841360D1*
X431862Y842786D1*
X418962D1*
Y812642D1*
X429010Y828427D2*
X439058Y812642D1*
X449780Y835589D2*
Y837015D1*
X451206Y839901D1*
X452632Y841326D1*
X455517Y842752D1*
X461254D1*
X464106Y841326D1*
X465532Y839901D1*
X466991Y837015D1*
Y834164D1*
X465532Y831278D1*
X462680Y827001D1*
X448321Y812642D1*
X468417D1*
X496351Y832738D2*
X494892Y828427D1*
X492040Y825541D1*
X487729Y824116D1*
X486303D1*
X481992Y825541D1*
X479140Y828427D1*
X477681Y832738D1*
Y834164D1*
X479140Y838475D1*
X481992Y841326D1*
X486303Y842752D1*
X487729D1*
X492040Y841326D1*
X494892Y838475D1*
X496351Y832738D1*
Y825541D1*
X494892Y818379D1*
X492040Y814068D1*
X487729Y812642D1*
X484877D1*
X480566Y814068D1*
X479140Y816953D1*
X686785Y1083606D2*
X699685D1*
X703996Y1085065D1*
X705455Y1086491D1*
X706881Y1089343D1*
Y1092228D1*
X705455Y1095080D1*
X703996Y1096539D1*
X699685Y1097965D1*
X686785D1*
Y1067821D1*
X696833Y1083606D2*
X706881Y1067821D1*
X719030Y1097932D2*
X734782D1*
X726193Y1086458D1*
X730504D1*
X733356Y1085032D1*
X734782Y1083606D1*
X736241Y1079295D1*
Y1076443D1*
X734782Y1072132D1*
X731930Y1069247D1*
X727619Y1067821D1*
X723308D1*
X719030Y1069247D1*
X717604Y1070706D1*
X716145Y1073558D1*
X754127Y1097932D2*
X749816Y1096506D1*
X746930Y1092195D1*
X745504Y1085032D1*
Y1080721D1*
X746930Y1073558D1*
X749816Y1069247D1*
X754127Y1067821D1*
X756978D1*
X761289Y1069247D1*
X764141Y1073558D1*
X765600Y1080721D1*
Y1085032D1*
X764141Y1092195D1*
X761289Y1096506D1*
X756978Y1097932D1*
X754127D1*
X764141Y1092195D2*
X746930Y1073558D1*
X429170Y993459D2*
X442070D1*
X446381Y994918D1*
X447840Y996344D1*
X449266Y999196D1*
Y1002081D1*
X447840Y1004933D1*
X446381Y1006392D1*
X442070Y1007818D1*
X429170D1*
Y977674D1*
X439218Y993459D2*
X449266Y977674D1*
X461414Y1007785D2*
X477166D1*
X468577Y996311D1*
X472888D1*
X475740Y994885D1*
X477166Y993459D1*
X478625Y989148D1*
Y986296D1*
X477166Y981985D1*
X474314Y979100D1*
X470003Y977674D1*
X465692D1*
X461414Y979100D1*
X459988Y980559D1*
X458529Y983411D1*
X487889Y1002048D2*
X490774Y1003507D1*
X495085Y1007785D1*
Y977674D1*
X827654Y2168933D2*
Y2147411D1*
X829080Y2143100D1*
X831965Y2140248D1*
X836276Y2138789D1*
X839128D1*
X843439Y2140248D1*
X846324Y2143100D1*
X847750Y2147411D1*
Y2168933D1*
X878535Y2161770D2*
X877109Y2164622D1*
X874224Y2167507D1*
X871372Y2168933D1*
X865635D1*
X862750Y2167507D1*
X859898Y2164622D1*
X858439Y2161770D1*
X857013Y2157459D1*
Y2150263D1*
X858439Y2145985D1*
X859898Y2143100D1*
X862750Y2140248D1*
X865635Y2138789D1*
X871372D1*
X874224Y2140248D1*
X877109Y2143100D1*
X878535Y2145985D1*
X887799Y2163163D2*
X890684Y2164622D1*
X894995Y2168900D1*
Y2138789D1*
X522180Y1564175D2*
X519295Y1561323D1*
X517869Y1557012D1*
Y1551275D1*
X519295Y1546964D1*
X522180Y1544079D1*
X525032D1*
X527917Y1545538D1*
X529343Y1546964D1*
X530769Y1549816D1*
X533654Y1558438D1*
X535080Y1561323D1*
X536539Y1562749D1*
X539391Y1564175D1*
X543702D1*
X546554Y1561323D1*
X548013Y1557012D1*
Y1551275D1*
X546554Y1546964D1*
X543702Y1544079D1*
X517869Y1587798D2*
X540817Y1587797D1*
X545128Y1586372D1*
X546554Y1584912D1*
X548013Y1582061D1*
Y1579175D1*
X546554Y1576324D1*
X545128Y1574898D1*
X540817Y1573438D1*
X537965D1*
X523639Y1597061D2*
X522180Y1599946D1*
X517902Y1604257D1*
X548013D1*
X1132704Y2563820D2*
D21*
X1129819Y2560935D1*
X1128393Y2558050D1*
Y2553772D1*
X1129819Y2550887D1*
X1132704Y2548035D1*
X1137015Y2546576D1*
X1139867D1*
X1144178Y2548035D1*
X1147030Y2550887D1*
X1148489Y2553772D1*
Y2558050D1*
X1147030Y2560935D1*
X1144178Y2563820D1*
X1132704Y2593064D2*
X1129819Y2590179D1*
X1128393Y2587294D1*
Y2583016D1*
X1129819Y2580131D1*
X1132704Y2577279D1*
X1137015Y2575820D1*
X1139867D1*
X1144178Y2577279D1*
X1147030Y2580131D1*
X1148489Y2583016D1*
Y2587294D1*
X1147030Y2590179D1*
X1144178Y2593064D1*
X1133434Y2605064D2*
Y2621645D1*
X1118345Y2633645D2*
X1148489D1*
X1132704D2*
X1129819Y2636530D1*
X1128393Y2639382D1*
Y2643693D1*
X1129819Y2646545D1*
X1132704Y2649430D1*
X1137015Y2650856D1*
X1139867D1*
X1144178Y2649430D1*
X1147030Y2646545D1*
X1148489Y2643693D1*
Y2639382D1*
X1147030Y2636530D1*
X1144178Y2633645D1*
X1128393Y2664315D2*
X1148489Y2672904D1*
X1154226Y2670052D1*
X1157111Y2667167D1*
X1158537Y2664315D1*
Y2662856D1*
X1128393Y2681526D2*
X1148489Y2672904D1*
X1133434Y2693526D2*
Y2710107D1*
X1132704Y2737892D2*
X1129819Y2736466D1*
X1128393Y2732155D1*
Y2727844D1*
X1129819Y2723533D1*
X1132704Y2722107D1*
X1135556Y2723533D1*
X1137015Y2726418D1*
X1138441Y2733581D1*
X1139867Y2736466D1*
X1142752Y2737892D1*
X1144178D1*
X1147030Y2736466D1*
X1148489Y2732155D1*
Y2727844D1*
X1147030Y2723533D1*
X1144178Y2722107D1*
X1128393Y2767103D2*
X1148489D1*
X1132704D2*
X1129819Y2764251D1*
X1128393Y2761366D1*
Y2757088D1*
X1129819Y2754203D1*
X1132704Y2751351D1*
X1137015Y2749892D1*
X1139867D1*
X1144178Y2751351D1*
X1147030Y2754203D1*
X1148489Y2757088D1*
Y2761366D1*
X1147030Y2764251D1*
X1144178Y2767103D1*
X1118345Y2827713D2*
Y2809076D1*
X1148489D1*
Y2827713D1*
X1132704Y2809076D2*
Y2820550D1*
X1128393Y2839713D2*
X1148489D1*
X1134130D2*
X1129819Y2844024D1*
X1128393Y2846909D1*
Y2851187D1*
X1129819Y2854072D1*
X1134130Y2855498D1*
X1148489D1*
X1134130D2*
X1129819Y2859809D1*
X1128393Y2862694D1*
Y2866972D1*
X1129819Y2869857D1*
X1134130Y2871316D1*
X1148489D1*
X1118345Y2883316D2*
X1119771Y2884742D1*
X1118345Y2886201D1*
X1116886Y2884742D1*
X1118345Y2883316D1*
X1128393Y2884742D2*
X1148489D1*
X1118345Y2898201D2*
X1148489D1*
X1118345Y2910201D2*
X1119771Y2911627D1*
X1118345Y2913086D1*
X1116886Y2911627D1*
X1118345Y2910201D1*
X1128393Y2911627D2*
X1148489D1*
X1137015Y2925086D2*
Y2942297D1*
X1134130D1*
X1131245Y2940871D1*
X1129819Y2939445D1*
X1128393Y2936560D1*
Y2932249D1*
X1129819Y2929397D1*
X1132704Y2926512D1*
X1137015Y2925086D1*
X1139867D1*
X1144178Y2926512D1*
X1147030Y2929397D1*
X1148489Y2932249D1*
Y2936560D1*
X1147030Y2939445D1*
X1144178Y2942297D1*
X1125508Y3007716D2*
X1122656Y3006290D1*
X1119771Y3003405D1*
X1118345Y3000553D1*
Y2994816D1*
X1119771Y2991931D1*
X1122656Y2989079D1*
X1125508Y2987620D1*
X1129819Y2986194D1*
X1137015D1*
X1141293Y2987620D1*
X1144178Y2989079D1*
X1147030Y2991931D1*
X1148489Y2994816D1*
Y3000553D1*
X1147030Y3003405D1*
X1144178Y3006290D1*
X1141293Y3007716D1*
X1137015D1*
Y3000553D1*
X1118345Y3019716D2*
X1119771Y3021142D1*
X1118345Y3022601D1*
X1116886Y3021142D1*
X1118345Y3019716D1*
X1128393Y3021142D2*
X1148489D1*
X1118345Y3034601D2*
X1148489D1*
X1118345Y3046601D2*
X1148489D1*
X1137015Y3058601D2*
Y3075812D1*
X1134130D1*
X1131245Y3074386D1*
X1129819Y3072960D1*
X1128393Y3070075D1*
Y3065764D1*
X1129819Y3062912D1*
X1132704Y3060027D1*
X1137015Y3058601D1*
X1139867D1*
X1144178Y3060027D1*
X1147030Y3062912D1*
X1148489Y3065764D1*
Y3070075D1*
X1147030Y3072960D1*
X1144178Y3075812D1*
X1118345Y3092123D2*
X1142752D1*
X1147030Y3093549D1*
X1148489Y3096434D1*
Y3099286D1*
X1128393Y3087812D2*
Y3097860D1*
X962729Y3333538D2*
D92*
X984284D1*
X991413Y3335914D1*
X993845Y3338346D1*
X996222Y3343099D1*
Y3350284D1*
X993845Y3355037D1*
X991413Y3357469D1*
X984284Y3359846D1*
X962729D1*
Y3309606D1*
X1011661Y3359846D2*
X1014038Y3357469D1*
X1016470Y3359846D1*
X1014038Y3362278D1*
X1011661Y3359846D1*
X1014038Y3343099D2*
Y3309606D1*
X1060594Y3343099D2*
Y3292859D1*
Y3335914D2*
X1055841Y3340667D1*
X1051032Y3343099D1*
X1043847D1*
X1039094Y3340667D1*
X1034285Y3335914D1*
X1031909Y3328729D1*
Y3323921D1*
X1034285Y3316791D1*
X1039094Y3311982D1*
X1043847Y3309606D1*
X1051032D1*
X1055841Y3311982D1*
X1060594Y3316791D1*
X1076033Y3343099D2*
Y3319167D1*
X1078410Y3312038D1*
X1083218Y3309606D1*
X1090403D1*
X1095156Y3312038D1*
X1102341Y3319167D1*
Y3343099D2*
Y3309606D1*
X1117781Y3328729D2*
X1146465D1*
Y3333538D1*
X1144089Y3338346D1*
X1141712Y3340723D1*
X1136904Y3343099D1*
X1129719D1*
X1124966Y3340723D1*
X1120157Y3335914D1*
X1117781Y3328729D1*
Y3323976D1*
X1120157Y3316791D1*
X1124966Y3312038D1*
X1129719Y3309606D1*
X1136904D1*
X1141712Y3312038D1*
X1146465Y3316791D1*
X967321Y3948813D2*
Y3917751D1*
X1017561D1*
Y3948812D1*
X991253Y3917751D2*
Y3936874D1*
X967321Y3964252D2*
X1017561D1*
X967321Y3996438D2*
X1017561D1*
X967321Y3979691D2*
Y4013184D1*
Y4028624D2*
X1017561Y4028623D1*
X967321Y4062117D2*
X1017561D1*
X991253Y4028623D2*
Y4062117D1*
X967321Y4108618D2*
Y4077556D1*
X1017561D1*
Y4108618D1*
X991253Y4077556D2*
Y4096679D1*
Y4124057D2*
Y4145557D1*
X988821Y4152742D1*
X986444Y4155174D1*
X981691Y4157550D1*
X976883D1*
X972129Y4155174D1*
X969698Y4152742D1*
X967321Y4145557D1*
Y4124057D1*
X1017561D1*
X991253Y4140803D2*
X1017561Y4157550D1*
X967321Y4221590D2*
X1017561Y4233584D1*
X967321Y4245522D1*
X1017561Y4257460D1*
X967321Y4269454D1*
X1017561Y4323195D2*
X967321Y4304016D1*
X1017561Y4284893D1*
X1000814Y4292078D2*
Y4316010D1*
X967321Y4338634D2*
X991253Y4357757D1*
X1017561D1*
X967321Y4376881D2*
X991253Y4357757D1*
X446473Y3328980D2*
D93*
X456090Y3333844D1*
X470460Y3348103D1*
Y3247734D1*
X506092Y3257351D2*
X501338Y3252487D1*
X506092Y3247734D1*
X510955Y3252487D1*
X506092Y3257351D1*
X570574Y3348103D2*
X556204Y3343350D1*
X546587Y3328980D1*
X541834Y3305104D1*
Y3290734D1*
X546587Y3266857D1*
X556204Y3252487D1*
X570574Y3247734D1*
X580080D1*
X594450Y3252487D1*
X603957Y3266857D1*
X608820Y3290734D1*
Y3305104D1*
X603957Y3328980D1*
X594450Y3343350D1*
X580080Y3348103D1*
X570574D1*
X603957Y3328980D2*
X546587Y3266857D1*
X439751Y2979974D2*
D92*
X444559Y2982406D1*
X451744Y2989536D1*
Y2939351D1*
M02*
