G04 DipTrace 3.3.0.0*
G04 uPeaks.GBO*
%MOIN*%
G04 #@! TF.FileFunction,Legend,Bot*
G04 #@! TF.Part,Single*
%ADD10C,0.009843*%
%ADD20C,0.01*%
%ADD21C,0.006*%
%ADD34C,0.005984*%
%ADD90C,0.004632*%
%ADD91C,0.02*%
%FSLAX26Y26*%
G04*
G70*
G90*
G75*
G01*
G04 BotSilk*
%LPD*%
X1026198Y1369321D2*
D21*
X956163D1*
X991163Y1334374D2*
Y1404317D1*
X941148Y1544204D2*
X816163D1*
X1041178D2*
X1166163D1*
X1041178Y1144195D2*
X1166163D1*
X941148D2*
X816163D1*
Y1544204D1*
X1166163D2*
Y1144195D1*
X1041178Y1544204D2*
D34*
Y1556678D1*
X941148D1*
Y1544204D1*
X626198Y1369321D2*
D21*
X556163D1*
X591163Y1334374D2*
Y1404317D1*
X541148Y1544204D2*
X416163D1*
X641178D2*
X766163D1*
X641178Y1144195D2*
X766163D1*
X541148D2*
X416163D1*
Y1544204D1*
X766163D2*
Y1144195D1*
X641178Y1544204D2*
D34*
Y1556678D1*
X541148D1*
Y1544204D1*
X956128Y894079D2*
D21*
X1026163D1*
X991163Y929026D2*
Y859082D1*
X1041178Y719195D2*
X1166163D1*
X941148D2*
X816163D1*
X941148Y1119205D2*
X816163D1*
X1041178D2*
X1166163D1*
Y719195D1*
X816163D2*
Y1119205D1*
X941148Y719195D2*
D34*
Y706721D1*
X1041178D1*
Y719195D1*
X556128Y894079D2*
D21*
X626163D1*
X591163Y929026D2*
Y859082D1*
X641178Y719195D2*
X766163D1*
X541148D2*
X416163D1*
X541148Y1119205D2*
X416163D1*
X641178D2*
X766163D1*
Y719195D1*
X416163D2*
Y1119205D1*
X541148Y719195D2*
D34*
Y706721D1*
X641178D1*
Y719195D1*
X431163Y3744203D2*
D21*
G03X456283Y3695375I60069J27D01*
G01*
X455163Y3792204D2*
G03X431163Y3744203I36020J-48010D01*
G01*
X551163D2*
G02X527995Y3696841I-59937J-28D01*
G01*
Y3791564D2*
G02X551163Y3744203I-36769J-47334D01*
G01*
X411163D2*
D20*
G03X439947Y3682739I80032J8D01*
G01*
X453515Y3814793D2*
G03X411163Y3744203I37715J-70628D01*
G01*
X571163D2*
G02X542843Y3683129I-79993J-10D01*
G01*
X530859Y3813654D2*
G02X571163Y3744203I-39638J-69423D01*
G01*
X1031163Y4344203D2*
D21*
G03X1056283Y4295375I60069J27D01*
G01*
X1055163Y4392204D2*
G03X1031163Y4344203I36020J-48010D01*
G01*
X1151163D2*
G02X1127995Y4296841I-59937J-28D01*
G01*
Y4391564D2*
G02X1151163Y4344203I-36769J-47334D01*
G01*
X1011163D2*
D20*
G03X1039947Y4282739I80032J8D01*
G01*
X1053515Y4414793D2*
G03X1011163Y4344203I37715J-70628D01*
G01*
X1171163D2*
G02X1142843Y4283129I-79993J-10D01*
G01*
X1130859Y4413654D2*
G02X1171163Y4344203I-39638J-69423D01*
G01*
X1031163Y4144203D2*
D21*
G03X1056283Y4095375I60069J27D01*
G01*
X1055163Y4192204D2*
G03X1031163Y4144203I36020J-48010D01*
G01*
X1151163D2*
G02X1127995Y4096841I-59937J-28D01*
G01*
Y4191564D2*
G02X1151163Y4144203I-36769J-47334D01*
G01*
X1011163D2*
D20*
G03X1039947Y4082739I80032J8D01*
G01*
X1053515Y4214793D2*
G03X1011163Y4144203I37715J-70628D01*
G01*
X1171163D2*
G02X1142843Y4083129I-79993J-10D01*
G01*
X1130859Y4213654D2*
G02X1171163Y4144203I-39638J-69423D01*
G01*
X1031163Y3944203D2*
D21*
G03X1056283Y3895375I60069J27D01*
G01*
X1055163Y3992204D2*
G03X1031163Y3944203I36020J-48010D01*
G01*
X1151163D2*
G02X1127995Y3896841I-59937J-28D01*
G01*
Y3991564D2*
G02X1151163Y3944203I-36769J-47334D01*
G01*
X1011163D2*
D20*
G03X1039947Y3882739I80032J8D01*
G01*
X1053515Y4014793D2*
G03X1011163Y3944203I37715J-70628D01*
G01*
X1171163D2*
G02X1142843Y3883129I-79993J-10D01*
G01*
X1130859Y4013654D2*
G02X1171163Y3944203I-39638J-69423D01*
G01*
X1031163Y3744203D2*
D21*
G03X1056283Y3695375I60069J27D01*
G01*
X1055163Y3792204D2*
G03X1031163Y3744203I36020J-48010D01*
G01*
X1151163D2*
G02X1127995Y3696841I-59937J-28D01*
G01*
Y3791564D2*
G02X1151163Y3744203I-36769J-47334D01*
G01*
X1011163D2*
D20*
G03X1039947Y3682739I80032J8D01*
G01*
X1053515Y3814793D2*
G03X1011163Y3744203I37715J-70628D01*
G01*
X1171163D2*
G02X1142843Y3683129I-79993J-10D01*
G01*
X1130859Y3813654D2*
G02X1171163Y3744203I-39638J-69423D01*
G01*
X851163Y492055D2*
D21*
G03X826043Y540883I-60069J-27D01*
G01*
X827163Y444053D2*
G03X851163Y492055I-36020J48010D01*
G01*
X731163D2*
G02X754331Y539416I59937J28D01*
G01*
Y444693D2*
G02X731163Y492055I36769J47334D01*
G01*
X871163D2*
D20*
G03X842379Y553519I-80032J-8D01*
G01*
X828811Y421465D2*
G03X871163Y492055I-37715J70628D01*
G01*
X711163D2*
G02X739483Y553129I79992J10D01*
G01*
X751467Y422603D2*
G02X711163Y492055I39638J69423D01*
G01*
X851163Y652856D2*
D21*
G03X826043Y701684I-60069J-27D01*
G01*
X827163Y604855D2*
G03X851163Y652856I-36020J48010D01*
G01*
X731163D2*
G02X754331Y700218I59937J28D01*
G01*
Y605495D2*
G02X731163Y652856I36769J47334D01*
G01*
X871163D2*
D20*
G03X842379Y714320I-80032J-8D01*
G01*
X828811Y582266D2*
G03X871163Y652856I-37715J70628D01*
G01*
X711163D2*
G02X739483Y713930I79992J10D01*
G01*
X751467Y583405D2*
G02X711163Y652856I39638J69423D01*
G01*
X968297Y4685143D2*
D10*
X614029D1*
Y4238267D1*
X968297D1*
Y4685143D1*
X653371Y4494203D2*
G02X653371Y4494203I137768J0D01*
G01*
X968297Y3910143D2*
X614029D1*
Y3463267D1*
X968297D1*
Y3910143D1*
X653371Y3719203D2*
G02X653371Y3719203I137768J0D01*
G01*
X968297Y3135143D2*
X614029D1*
Y2688267D1*
X968297D1*
Y3135143D1*
X653371Y2944203D2*
G02X653371Y2944203I137768J0D01*
G01*
X968297Y2360143D2*
X614029D1*
Y1913267D1*
X968297D1*
Y2360143D1*
X653371Y2169203D2*
G02X653371Y2169203I137768J0D01*
G01*
X413166Y3180215D2*
X649372Y3180573D1*
X649002Y3416800D1*
X412771Y3416377D1*
X413166Y3180215D1*
X1169160Y3416764D2*
X932953Y3416406D1*
X933323Y3180179D1*
X1169554Y3180602D1*
X1169160Y3416764D1*
X890333Y651433D2*
X890691Y415226D1*
X1126918Y415596D1*
X1126495Y651827D1*
X890333Y651433D1*
X456004Y650817D2*
X456362Y414611D1*
X692589Y414981D1*
X692166Y651212D1*
X456004Y650817D1*
X845637Y1596761D2*
D90*
Y1573813D1*
X847063Y1569502D1*
X848522Y1568076D1*
X851374Y1566617D1*
X854259D1*
X857111Y1568076D1*
X858537Y1569502D1*
X859996Y1573813D1*
Y1576665D1*
X836373Y1590991D2*
X833488Y1592450D1*
X829177Y1596727D1*
Y1566617D1*
X740798Y1596761D2*
Y1573813D1*
X742224Y1569502D1*
X743683Y1568076D1*
X746535Y1566617D1*
X749420D1*
X752272Y1568076D1*
X753698Y1569502D1*
X755157Y1573813D1*
Y1576665D1*
X730076Y1589565D2*
Y1590991D1*
X728650Y1593876D1*
X727224Y1595302D1*
X724339Y1596727D1*
X718602D1*
X715750Y1595302D1*
X714324Y1593876D1*
X712865Y1590991D1*
Y1588139D1*
X714324Y1585254D1*
X717176Y1580976D1*
X731535Y1566617D1*
X711439D1*
X866893Y1101450D2*
Y1078502D1*
X868319Y1074191D1*
X869778Y1072765D1*
X872630Y1071306D1*
X875515D1*
X878367Y1072765D1*
X879793Y1074191D1*
X881252Y1078502D1*
Y1081354D1*
X854744Y1101416D2*
X838992D1*
X847581Y1089943D1*
X843270D1*
X840418Y1088517D1*
X838992Y1087091D1*
X837533Y1082780D1*
Y1079928D1*
X838992Y1075617D1*
X841844Y1072732D1*
X846155Y1071306D1*
X850466D1*
X854744Y1072732D1*
X856170Y1074191D1*
X857629Y1077043D1*
X731146Y1105891D2*
Y1082943D1*
X732572Y1078632D1*
X734031Y1077206D1*
X736883Y1075747D1*
X739768D1*
X742620Y1077206D1*
X744046Y1078632D1*
X745505Y1082943D1*
Y1085795D1*
X707524Y1075747D2*
Y1105857D1*
X721883Y1085795D1*
X700361D1*
X536628Y3868133D2*
Y3837989D1*
X519417D1*
X491517Y3868133D2*
X510154D1*
Y3837989D1*
X491517D1*
X510154Y3853774D2*
X498680D1*
X482253Y3868133D2*
Y3837989D1*
X472205D1*
X467894Y3839448D1*
X465009Y3842300D1*
X463583Y3845185D1*
X462157Y3849463D1*
Y3856659D1*
X463583Y3860970D1*
X465009Y3863822D1*
X467894Y3866707D1*
X472205Y3868133D1*
X482253D1*
X452894Y3862363D2*
X450009Y3863822D1*
X445697Y3868100D1*
Y3837989D1*
X1143078Y4468133D2*
Y4437989D1*
X1125867D1*
X1097967Y4468133D2*
X1116604D1*
Y4437989D1*
X1097967D1*
X1116604Y4453774D2*
X1105130D1*
X1088703Y4468133D2*
Y4437989D1*
X1078655D1*
X1074344Y4439448D1*
X1071459Y4442300D1*
X1070033Y4445185D1*
X1068607Y4449463D1*
Y4456659D1*
X1070033Y4460970D1*
X1071459Y4463822D1*
X1074344Y4466707D1*
X1078655Y4468133D1*
X1088703D1*
X1057884Y4460937D2*
Y4462363D1*
X1056458Y4465248D1*
X1055033Y4466674D1*
X1052147Y4468100D1*
X1046410D1*
X1043559Y4466674D1*
X1042133Y4465248D1*
X1040673Y4462363D1*
Y4459511D1*
X1042133Y4456626D1*
X1044985Y4452348D1*
X1059344Y4437989D1*
X1039248D1*
X1009826Y4120077D2*
Y4089933D1*
X992615D1*
X964715Y4120077D2*
X983352D1*
Y4089933D1*
X964715D1*
X983352Y4105718D2*
X971878D1*
X955451Y4120077D2*
Y4089933D1*
X945403D1*
X941092Y4091392D1*
X938207Y4094244D1*
X936781Y4097129D1*
X935355Y4101407D1*
Y4108603D1*
X936781Y4112914D1*
X938207Y4115766D1*
X941092Y4118651D1*
X945403Y4120077D1*
X955451D1*
X923206Y4120044D2*
X907455D1*
X916044Y4108570D1*
X911733D1*
X908881Y4107144D1*
X907455Y4105718D1*
X905996Y4101407D1*
Y4098555D1*
X907455Y4094244D1*
X910307Y4091359D1*
X914618Y4089933D1*
X918929D1*
X923206Y4091359D1*
X924632Y4092818D1*
X926092Y4095670D1*
X1006813Y3988153D2*
Y3958009D1*
X989602D1*
X961702Y3988153D2*
X980339D1*
Y3958009D1*
X961702D1*
X980339Y3973794D2*
X968865D1*
X952438Y3988153D2*
Y3958009D1*
X942390D1*
X938079Y3959468D1*
X935194Y3962320D1*
X933768Y3965205D1*
X932342Y3969483D1*
Y3976679D1*
X933768Y3980990D1*
X935194Y3983842D1*
X938079Y3986727D1*
X942390Y3988153D1*
X952438D1*
X908720Y3958009D2*
Y3988120D1*
X923079Y3968057D1*
X901557D1*
X1144917Y3653933D2*
Y3623789D1*
X1127706D1*
X1099805Y3653933D2*
X1118442D1*
Y3623789D1*
X1099805D1*
X1118442Y3639574D2*
X1106968D1*
X1090542Y3653933D2*
Y3623789D1*
X1080494D1*
X1076183Y3625248D1*
X1073298Y3628100D1*
X1071872Y3630985D1*
X1070446Y3635263D1*
Y3642459D1*
X1071872Y3646770D1*
X1073298Y3649622D1*
X1076183Y3652507D1*
X1080494Y3653933D1*
X1090542D1*
X1043971Y3653899D2*
X1058297D1*
X1059723Y3641000D1*
X1058297Y3642425D1*
X1053986Y3643885D1*
X1049708D1*
X1045397Y3642425D1*
X1042512Y3639574D1*
X1041086Y3635263D1*
Y3632411D1*
X1042512Y3628100D1*
X1045397Y3625215D1*
X1049708Y3623789D1*
X1053986D1*
X1058297Y3625215D1*
X1059723Y3626674D1*
X1061182Y3629526D1*
X1005035Y520601D2*
Y490457D1*
X987824D1*
X959923Y520601D2*
X978560D1*
Y490457D1*
X959923D1*
X978560Y506242D2*
X967086D1*
X950660Y520601D2*
Y490457D1*
X940612D1*
X936301Y491916D1*
X933416Y494768D1*
X931990Y497653D1*
X930564Y501931D1*
Y509127D1*
X931990Y513438D1*
X933416Y516290D1*
X936301Y519175D1*
X940612Y520601D1*
X950660D1*
X904089Y516290D2*
X905515Y519141D1*
X909826Y520567D1*
X912678D1*
X916989Y519141D1*
X919874Y514830D1*
X921300Y507667D1*
Y500505D1*
X919874Y494768D1*
X916989Y491883D1*
X912678Y490457D1*
X911252D1*
X906974Y491883D1*
X904089Y494768D1*
X902663Y499079D1*
Y500505D1*
X904089Y504816D1*
X906974Y507667D1*
X911252Y509093D1*
X912678D1*
X916989Y507667D1*
X919874Y504816D1*
X921300Y500505D1*
X888057Y761456D2*
Y731312D1*
X870846D1*
X842946Y761456D2*
X861583D1*
Y731312D1*
X842946D1*
X861583Y747097D2*
X850109D1*
X833682Y761456D2*
Y731312D1*
X823634D1*
X819323Y732771D1*
X816438Y735623D1*
X815012Y738508D1*
X813586Y742786D1*
Y749982D1*
X815012Y754293D1*
X816438Y757145D1*
X819323Y760030D1*
X823634Y761456D1*
X833682D1*
X798586Y731312D2*
X784227Y761423D1*
X804323D1*
X804195Y4142921D2*
X791295D1*
X786984Y4144380D1*
X785525Y4145806D1*
X784099Y4148658D1*
Y4151543D1*
X785525Y4154395D1*
X786984Y4155854D1*
X791295Y4157280D1*
X804195D1*
Y4127136D1*
X794147Y4142921D2*
X784099Y4127136D1*
X774836Y4151510D2*
X771951Y4152969D1*
X767640Y4157247D1*
Y4127136D1*
X815891Y3939718D2*
X802991D1*
X798680Y3941177D1*
X797220Y3942603D1*
X795795Y3945455D1*
Y3948340D1*
X797220Y3951192D1*
X798680Y3952651D1*
X802991Y3954077D1*
X815891D1*
Y3923933D1*
X805843Y3939718D2*
X795795Y3923933D1*
X769320Y3954044D2*
X783646D1*
X785072Y3941144D1*
X783646Y3942570D1*
X779335Y3944029D1*
X775057D1*
X770746Y3942570D1*
X767861Y3939718D1*
X766435Y3935407D1*
Y3932555D1*
X767861Y3928244D1*
X770746Y3925359D1*
X775057Y3923933D1*
X779335D1*
X783646Y3925359D1*
X785072Y3926818D1*
X786531Y3929670D1*
X817670Y3164718D2*
X804770D1*
X800459Y3166177D1*
X799000Y3167603D1*
X797574Y3170455D1*
Y3173340D1*
X799000Y3176192D1*
X800459Y3177651D1*
X804770Y3179077D1*
X817670D1*
Y3148933D1*
X807622Y3164718D2*
X797574Y3148933D1*
X788311Y3173307D2*
X785426Y3174766D1*
X781115Y3179044D1*
Y3148933D1*
X771851Y3173307D2*
X768966Y3174766D1*
X764655Y3179044D1*
Y3148933D1*
X824120Y2389718D2*
X811220D1*
X806909Y2391177D1*
X805450Y2392603D1*
X804024Y2395455D1*
Y2398340D1*
X805450Y2401192D1*
X806909Y2402651D1*
X811220Y2404077D1*
X824120D1*
Y2373933D1*
X814072Y2389718D2*
X804024Y2373933D1*
X793302Y2396881D2*
Y2398307D1*
X791876Y2401192D1*
X790450Y2402618D1*
X787565Y2404044D1*
X781828D1*
X778976Y2402618D1*
X777550Y2401192D1*
X776091Y2398307D1*
Y2395455D1*
X777550Y2392570D1*
X780402Y2388292D1*
X794761Y2373933D1*
X774665D1*
X765401Y2398307D2*
X762516Y2399766D1*
X758205Y2404044D1*
Y2373933D1*
X548257Y3500721D2*
X551109Y3503606D1*
X555420Y3505032D1*
X561157D1*
X565468Y3503606D1*
X568353Y3500721D1*
Y3497869D1*
X566894Y3494984D1*
X565468Y3493558D1*
X562616Y3492132D1*
X553994Y3489247D1*
X551109Y3487821D1*
X549683Y3486362D1*
X548257Y3483510D1*
Y3479199D1*
X551109Y3476347D1*
X555420Y3474888D1*
X561157D1*
X565468Y3476347D1*
X568353Y3479199D1*
X538993Y3505032D2*
X531797Y3474888D1*
X524634Y3505032D1*
X517471Y3474888D1*
X510275Y3505032D1*
X501011Y3499262D2*
X498126Y3500721D1*
X493815Y3504999D1*
Y3474888D1*
X1074864Y3500750D2*
X1077716Y3503635D1*
X1082027Y3505061D1*
X1087764D1*
X1092075Y3503635D1*
X1094960Y3500750D1*
Y3497898D1*
X1093501Y3495013D1*
X1092075Y3493587D1*
X1089223Y3492161D1*
X1080601Y3489276D1*
X1077716Y3487850D1*
X1076290Y3486391D1*
X1074864Y3483539D1*
Y3479228D1*
X1077716Y3476376D1*
X1082027Y3474917D1*
X1087764D1*
X1092075Y3476376D1*
X1094960Y3479228D1*
X1065601Y3505061D2*
X1058404Y3474917D1*
X1051241Y3505061D1*
X1044079Y3474917D1*
X1036882Y3505061D1*
X1026160Y3497865D2*
Y3499291D1*
X1024734Y3502176D1*
X1023308Y3503602D1*
X1020423Y3505028D1*
X1014686D1*
X1011834Y3503602D1*
X1010408Y3502176D1*
X1008949Y3499291D1*
Y3496439D1*
X1010408Y3493554D1*
X1013260Y3489276D1*
X1027619Y3474917D1*
X1007523D1*
X1025601Y599952D2*
X1028453Y602837D1*
X1032764Y604263D1*
X1038501D1*
X1042812Y602837D1*
X1045697Y599952D1*
Y597100D1*
X1044238Y594215D1*
X1042812Y592789D1*
X1039960Y591363D1*
X1031338Y588478D1*
X1028453Y587052D1*
X1027027Y585593D1*
X1025601Y582741D1*
Y578430D1*
X1028453Y575578D1*
X1032764Y574119D1*
X1038501D1*
X1042812Y575578D1*
X1045697Y578430D1*
X1016337Y604263D2*
X1009141Y574119D1*
X1001978Y604263D1*
X994815Y574119D1*
X987619Y604263D1*
X963997Y574119D2*
Y604230D1*
X978356Y584167D1*
X956834D1*
X605799Y602099D2*
X608650Y604984D1*
X612961Y606410D1*
X618698D1*
X623009Y604984D1*
X625895Y602099D1*
Y599247D1*
X624435Y596362D1*
X623009Y594936D1*
X620158Y593510D1*
X611536Y590625D1*
X608650Y589199D1*
X607225Y587740D1*
X605799Y584888D1*
Y580577D1*
X608650Y577725D1*
X612961Y576266D1*
X618698D1*
X623009Y577725D1*
X625895Y580577D1*
X596535Y606410D2*
X589339Y576266D1*
X582176Y606410D1*
X575013Y576266D1*
X567817Y606410D1*
X541342Y602099D2*
X542768Y604951D1*
X547079Y606377D1*
X549931D1*
X554242Y604951D1*
X557127Y600640D1*
X558553Y593477D1*
Y586314D1*
X557127Y580577D1*
X554242Y577692D1*
X549931Y576266D1*
X548505D1*
X544228Y577692D1*
X541342Y580577D1*
X539917Y584888D1*
Y586314D1*
X541342Y590625D1*
X544228Y593477D1*
X548505Y594903D1*
X549931D1*
X554242Y593477D1*
X557127Y590625D1*
X558553Y586314D1*
X1123714Y2956446D2*
D21*
X1120829Y2959331D1*
X1119403Y2962216D1*
Y2966494D1*
X1120829Y2969379D1*
X1123714Y2972231D1*
X1128025Y2973690D1*
X1130877D1*
X1135188Y2972231D1*
X1138040Y2969379D1*
X1139499Y2966494D1*
Y2962216D1*
X1138040Y2959331D1*
X1135188Y2956446D1*
X1123714Y2927202D2*
X1120829Y2930087D1*
X1119403Y2932972D1*
Y2937250D1*
X1120829Y2940135D1*
X1123714Y2942987D1*
X1128025Y2944446D1*
X1130877D1*
X1135188Y2942987D1*
X1138040Y2940135D1*
X1139499Y2937250D1*
Y2932972D1*
X1138040Y2930087D1*
X1135188Y2927202D1*
X1124444Y2915202D2*
Y2898621D1*
X1109355Y2886621D2*
X1139499D1*
X1123714D2*
X1120829Y2883736D1*
X1119403Y2880884D1*
Y2876573D1*
X1120829Y2873721D1*
X1123714Y2870836D1*
X1128025Y2869410D1*
X1130877D1*
X1135188Y2870836D1*
X1138040Y2873721D1*
X1139499Y2876573D1*
Y2880884D1*
X1138040Y2883736D1*
X1135188Y2886621D1*
X1119403Y2855951D2*
X1139499Y2847362D1*
X1145236Y2850214D1*
X1148121Y2853099D1*
X1149547Y2855951D1*
Y2857410D1*
X1119403Y2838740D2*
X1139499Y2847362D1*
X1124444Y2826740D2*
Y2810159D1*
X1123714Y2782374D2*
X1120829Y2783800D1*
X1119403Y2788111D1*
Y2792422D1*
X1120829Y2796733D1*
X1123714Y2798159D1*
X1126566Y2796733D1*
X1128025Y2793848D1*
X1129451Y2786685D1*
X1130877Y2783800D1*
X1133762Y2782374D1*
X1135188D1*
X1138040Y2783800D1*
X1139499Y2788111D1*
Y2792422D1*
X1138040Y2796733D1*
X1135188Y2798159D1*
X1119403Y2753163D2*
X1139499D1*
X1123714D2*
X1120829Y2756015D1*
X1119403Y2758900D1*
Y2763178D1*
X1120829Y2766063D1*
X1123714Y2768915D1*
X1128025Y2770374D1*
X1130877D1*
X1135188Y2768915D1*
X1138040Y2766063D1*
X1139499Y2763178D1*
Y2758900D1*
X1138040Y2756015D1*
X1135188Y2753163D1*
X1109355Y2690629D2*
Y2709266D1*
X1139499D1*
Y2690629D1*
X1123714Y2709266D2*
Y2697792D1*
X1119403Y2678629D2*
X1139499D1*
X1125140D2*
X1120829Y2674318D1*
X1119403Y2671433D1*
Y2667155D1*
X1120829Y2664270D1*
X1125140Y2662844D1*
X1139499D1*
X1125140D2*
X1120829Y2658533D1*
X1119403Y2655648D1*
Y2651370D1*
X1120829Y2648485D1*
X1125140Y2647026D1*
X1139499D1*
X1109355Y2635026D2*
X1110781Y2633600D1*
X1109355Y2632141D1*
X1107896Y2633600D1*
X1109355Y2635026D1*
X1119403Y2633600D2*
X1139499D1*
X1109355Y2620141D2*
X1139499D1*
X1109355Y2608141D2*
X1110781Y2606715D1*
X1109355Y2605256D1*
X1107896Y2606715D1*
X1109355Y2608141D1*
X1119403Y2606715D2*
X1139499D1*
X1128025Y2593256D2*
Y2576045D1*
X1125140D1*
X1122255Y2577471D1*
X1120829Y2578897D1*
X1119403Y2581782D1*
Y2586093D1*
X1120829Y2588945D1*
X1123714Y2591830D1*
X1128025Y2593256D1*
X1130877D1*
X1135188Y2591830D1*
X1138040Y2588945D1*
X1139499Y2586093D1*
Y2581782D1*
X1138040Y2578897D1*
X1135188Y2576045D1*
X1116518Y2510626D2*
X1113666Y2512052D1*
X1110781Y2514937D1*
X1109355Y2517789D1*
Y2523526D1*
X1110781Y2526411D1*
X1113666Y2529263D1*
X1116518Y2530722D1*
X1120829Y2532148D1*
X1128025D1*
X1132303Y2530722D1*
X1135188Y2529263D1*
X1138040Y2526411D1*
X1139499Y2523526D1*
Y2517789D1*
X1138040Y2514937D1*
X1135188Y2512052D1*
X1132303Y2510626D1*
X1128025D1*
Y2517789D1*
X1109355Y2498626D2*
X1110781Y2497200D1*
X1109355Y2495741D1*
X1107896Y2497200D1*
X1109355Y2498626D1*
X1119403Y2497200D2*
X1139499D1*
X1109355Y2483741D2*
X1139499D1*
X1109355Y2471741D2*
X1139499D1*
X1128025Y2459741D2*
Y2442530D1*
X1125140D1*
X1122255Y2443956D1*
X1120829Y2445382D1*
X1119403Y2448267D1*
Y2452578D1*
X1120829Y2455430D1*
X1123714Y2458315D1*
X1128025Y2459741D1*
X1130877D1*
X1135188Y2458315D1*
X1138040Y2455430D1*
X1139499Y2452578D1*
Y2448267D1*
X1138040Y2445382D1*
X1135188Y2442530D1*
X1109355Y2426219D2*
X1133762D1*
X1138040Y2424793D1*
X1139499Y2421908D1*
Y2419056D1*
X1119403Y2430530D2*
Y2420482D1*
X1138073Y2404171D2*
X1139499Y2405630D1*
X1138073Y2407056D1*
X1136614Y2405630D1*
X1138073Y2404171D1*
X1140925D1*
X1143810Y2405630D1*
X1145236Y2407056D1*
X1116552Y2358815D2*
X1115126D1*
X1112241Y2357389D1*
X1110815Y2355963D1*
X1109389Y2353078D1*
Y2347341D1*
X1110815Y2344489D1*
X1112241Y2343063D1*
X1115126Y2341604D1*
X1117977D1*
X1120863Y2343063D1*
X1125140Y2345915D1*
X1139499Y2360274D1*
Y2340178D1*
X1109389Y2319556D2*
X1110815Y2323867D1*
X1115126Y2326752D1*
X1122289Y2328178D1*
X1126600D1*
X1133762Y2326752D1*
X1138073Y2323867D1*
X1139499Y2319556D1*
Y2316704D1*
X1138073Y2312393D1*
X1133762Y2309541D1*
X1126600Y2308082D1*
X1122289D1*
X1115126Y2309541D1*
X1110815Y2312393D1*
X1109389Y2316704D1*
Y2319556D1*
X1115126Y2309541D2*
X1133762Y2326752D1*
X1115126Y2296082D2*
X1113666Y2293197D1*
X1109389Y2288886D1*
X1139499D1*
X1109389Y2259675D2*
Y2274001D1*
X1122289Y2275427D1*
X1120863Y2274001D1*
X1119403Y2269690D1*
Y2265412D1*
X1120863Y2261101D1*
X1123714Y2258216D1*
X1128025Y2256790D1*
X1130877D1*
X1135188Y2258216D1*
X1138073Y2261101D1*
X1139499Y2265412D1*
Y2269690D1*
X1138073Y2274001D1*
X1136614Y2275427D1*
X1133762Y2276886D1*
X1136614Y2243364D2*
X1138073Y2244790D1*
X1139499Y2243364D1*
X1138073Y2241905D1*
X1136614Y2243364D1*
X1119403Y2198008D2*
X1139499Y2189386D1*
X1119403Y2180797D1*
X1109389Y2165912D2*
Y2150160D1*
X1120863Y2158749D1*
Y2154438D1*
X1122289Y2151586D1*
X1123714Y2150160D1*
X1128025Y2148701D1*
X1130877D1*
X1135188Y2150160D1*
X1138074Y2153012D1*
X1139499Y2157323D1*
Y2161634D1*
X1138074Y2165912D1*
X1136614Y2167338D1*
X1133763Y2168797D1*
X1020547Y1751317D2*
D91*
X968815D1*
X951703Y1757020D1*
X945867Y1762857D1*
X940163Y1774264D1*
Y1791509D1*
X945867Y1802916D1*
X951703Y1808753D1*
X968815Y1814456D1*
X1020547D1*
Y1693880D1*
X900163Y1814456D2*
X894459Y1808753D1*
X888623Y1814456D1*
X894459Y1820293D1*
X900163Y1814456D1*
X894459Y1774264D2*
Y1693880D1*
X779779Y1774264D2*
Y1653688D1*
Y1757020D2*
X791187Y1768428D1*
X802727Y1774264D1*
X819971D1*
X831379Y1768428D1*
X842919Y1757020D1*
X848623Y1739776D1*
Y1728236D1*
X842919Y1711124D1*
X831379Y1699584D1*
X819971Y1693880D1*
X802727D1*
X791187Y1699584D1*
X779779Y1711124D1*
X739779Y1774264D2*
Y1716828D1*
X734075Y1699717D1*
X722535Y1693880D1*
X705291D1*
X693883Y1699717D1*
X676639Y1716828D1*
Y1774264D2*
Y1693880D1*
X636639Y1739776D2*
X567795D1*
Y1751317D1*
X573499Y1762857D1*
X579203Y1768561D1*
X590743Y1774264D1*
X607987D1*
X619395Y1768561D1*
X630935Y1757020D1*
X636639Y1739776D1*
Y1728369D1*
X630935Y1711124D1*
X619395Y1699717D1*
X607987Y1693880D1*
X590743D1*
X579203Y1699717D1*
X567795Y1711124D1*
M02*
