M48
INCH
T01C0.0118
T02C0.024
T03C0.032
T04C0.0394
T05C0.04
T06C0.052
T07C0.084
T08C0.1181
%
T06
X+009912Y+015062
X+009912Y+011812
T05
X+009912Y+016062
T06
X+005912Y+015062
X+005912Y+011812
T05
X+005912Y+016062
T06
X+009912Y+007572
X+009912Y+010822
T05
X+009912Y+006572
T06
X+005912Y+007572
X+005912Y+010822
T05
X+005912Y+006572
T02
X+004476Y+028972
X+004976Y+028972
X+004476Y+028472
X+004976Y+028472
X+004476Y+027972
X+004976Y+027972
X+004476Y+027472
X+004976Y+027472
X+004476Y+026972
X+004976Y+026972
T05
X+005898Y+039256
X+004898Y+039256
X+005898Y+040256
X+004898Y+040256
X+005898Y+041256
X+004898Y+041256
X+005898Y+042256
X+004898Y+042256
X+005898Y+043256
X+004898Y+043256
T03
X+004912Y+037942
X+004912Y+036942
X+010912Y+043942
X+010912Y+042942
X+010912Y+041942
X+010912Y+040942
X+010912Y+039942
X+010912Y+038942
X+010912Y+037942
X+010912Y+036942
X+007912Y+004421
X+007912Y+005421
X+007912Y+006029
X+007912Y+007029
T04
X+008892Y+041992
X+007912Y+041989
X+006932Y+041992
T07
X+006042Y+044942
X+009782Y+044942
T04
X+008892Y+034242
X+007912Y+034239
X+006932Y+034242
T07
X+006042Y+037192
X+009782Y+037192
T04
X+008892Y+026492
X+007912Y+026489
X+006932Y+026492
T07
X+006042Y+029442
X+009782Y+029442
T04
X+008892Y+018742
X+007912Y+018739
X+006932Y+018742
T07
X+006042Y+021692
X+009782Y+021692
T04
X+004423Y+034263
X+006195Y+034266
X+006199Y+031707
X+004423Y+031704
X+011400Y+031707
X+009629Y+031704
X+009624Y+034263
X+011400Y+034266
X+011364Y+006223
X+011367Y+004451
X+008808Y+004447
X+008805Y+006223
X+007021Y+006217
X+007024Y+004445
X+004465Y+004441
X+004461Y+006217
T01
X+004224Y+020692
X+004211Y+022521
X+004210Y+023068
X+004599Y+020692
X+004974Y+020692
X+005474Y+019630
X+008037Y+008004
X+008037Y+008442
X+007037Y+009817
X+008037Y+010192
X+008724Y+010192
X+007912Y+013317
X+007912Y+013817
X+009849Y+012817
X+011099Y+011754
X+011224Y+010817
X+010474Y+011254
X+006599Y+010817
X+008402Y+024573
X+008471Y+023919
X+007912Y+022004
X+008349Y+021567
X+006349Y+026192
X+011037Y+025692
X+011037Y+025254
X+010464Y+020222
X+006349Y+025567
X+008759Y+024593
X+010785Y+020207
X+010069Y+020227
X+011143Y+030675
X+011103Y+030301
X+011113Y+029926
X+011123Y+029502
X+011123Y+029138
X+011133Y+028693
X+009824Y+030993
X+009221Y+033507
X+009868Y+033109
X+007662Y+033192
X+005662Y+033192
X+007662Y+032067
X+006900Y+033439
X+007813Y+035378
X+006504Y+036206
X+004249Y+036095
X+005367Y+036067
X+005400Y+035425
X+005537Y+034692
X+004268Y+034949
X+009799Y+034892
X+008640Y+034799
X+011537Y+036192
X+010206Y+023030
T08
X+007912Y+040567
T01
X+007854Y+031545
X+007940Y+044316
X+005577Y+024651
X+005577Y+023629
X+005599Y+026692
X+005649Y+025976
X+008011Y+030259
X+008011Y+027221
X+008081Y+032808
X+004384Y+030259
X+007287Y+022746
X+007055Y+020926
X+007047Y+019648
X+006555Y+032821
X+007989Y+010693
X+007989Y+011607
X+006062Y+013142
X+006239Y+014569
X+006210Y+008176
X+005911Y+009462
X+010683Y+021145
X+010683Y+024927
X+010897Y+021519
X+010923Y+024678
X+011140Y+024397
X+011140Y+021247
X+006667Y+011824
X+007435Y+014356
X+005316Y+014577
X+005316Y+013698
X+006767Y+015835
X+005314Y+007987
X+005314Y+009400
X+006420Y+008811
X+006561Y+010366
X+009941Y+008442
X+010634Y+006700
X+007724Y+025843
X+007633Y+028234
X+007738Y+025301
X+007355Y+027524
X+007945Y+025028
X+008342Y+028167
X+008805Y+025937
X+008779Y+028472
X+009086Y+016692
X+004727Y+024303
X+005639Y+005493
X+004474Y+024567
X+005149Y+006024
X+008525Y+022922
X+010410Y+042484
X+008974Y+021942
X+010547Y+040375
X+008949Y+022293
X+011529Y+039057
X+009239Y+022365
X+011500Y+036884
X+011170Y+007251
X+011170Y+008125
X+006162Y+004442
X+008769Y+023785
X+008364Y+028729
X+004885Y+029832
X+004315Y+036805
X+011394Y+008537
X+011359Y+009435
X+011434Y+007488
X+010747Y+007588
X+010792Y+009095
X+010789Y+016710
X+007187Y+012935
X+007233Y+010960
X+007611Y+015871
X+007912Y+014176
X+011106Y+015826
X+011272Y+013570
X+006438Y+038192
X+004417Y+011812
X+004212Y+016254
X+009304Y+016411
X+006482Y+016446
X+006234Y+015613
X+008172Y+023229
X+009226Y+041480
X+007927Y+023438
X+008387Y+033424
X+007986Y+025481
X+007416Y+024710
X+007373Y+023119
X+007688Y+021596
X+004629Y+026317
X+005605Y+022531
X+005971Y+023090
X+005662Y+032465
X+009624Y+032448
X+005624Y+023299
X+005431Y+032782
X+006021Y+032800
X+005343Y+007050
X+004949Y+025650
X+010653Y+025317
X+010038Y+026033
X+010162Y+026942
X+006835Y+024717
X+006362Y+016761
X+006743Y+024142
X+006338Y+017957
X+009819Y+038567
X+008823Y+044368
X+007432Y+035232
X+007406Y+037267
X+010778Y+036101
X+011329Y+014439
X+007432Y+035841
X+008405Y+009270
X+008303Y+015147
X+011532Y+035256
X+011287Y+010192
X+007599Y+009814
X+007599Y+007769
X+007509Y+007358
X+007599Y+013316
X+007599Y+012235
T00
M30
