G04 DipTrace 3.3.0.0*
G04 uPeaks_panel.GBL*
%MOIN*%
G04 #@! TF.FileFunction,Copper,L2,Bot*
G04 #@! TF.Part,Single*
G04 #@! TA.AperFunction,CopperBalancing*
%ADD15C,0.008*%
G04 #@! TA.AperFunction,ComponentPad*
%ADD17O,0.299213X0.177165*%
%FSLAX26Y26*%
G04*
G70*
G90*
G75*
G01*
G04 Bottom*
%LPD*%
X413808Y5423131D2*
D15*
X584130D1*
X787370D2*
X1170192D1*
X413808Y5415262D2*
X569473D1*
X802027D2*
X1170192D1*
X413808Y5407394D2*
X558958D1*
X812542D2*
X1170192D1*
X413808Y5399525D2*
X550755D1*
X820745D2*
X1170192D1*
X413808Y5391656D2*
X544161D1*
X827339D2*
X1170192D1*
X413808Y5383787D2*
X538802D1*
X832698D2*
X1170192D1*
X413808Y5375919D2*
X534442D1*
X837058D2*
X1170192D1*
X413808Y5368050D2*
X530942D1*
X840542D2*
X1170192D1*
X413808Y5360181D2*
X528223D1*
X843277D2*
X1170192D1*
X413808Y5352312D2*
X526208D1*
X845277D2*
X1170192D1*
X413808Y5344444D2*
X524864D1*
X846636D2*
X1170192D1*
X413808Y5336575D2*
X524145D1*
X847339D2*
X1170192D1*
X413808Y5328706D2*
X524067D1*
X847433D2*
X1170192D1*
X413808Y5320837D2*
X524598D1*
X846902D2*
X1170192D1*
X413808Y5312969D2*
X525755D1*
X845745D2*
X1170192D1*
X413808Y5305100D2*
X527567D1*
X843917D2*
X1170192D1*
X413808Y5297231D2*
X530083D1*
X841417D2*
X1170192D1*
X413808Y5289362D2*
X533348D1*
X838152D2*
X1170192D1*
X413808Y5281493D2*
X537442D1*
X834058D2*
X1170192D1*
X413808Y5273625D2*
X542489D1*
X829011D2*
X1170192D1*
X413808Y5265756D2*
X548708D1*
X822792D2*
X1170192D1*
X413808Y5257887D2*
X556380D1*
X815120D2*
X1170192D1*
X413808Y5250018D2*
X566114D1*
X805370D2*
X1170192D1*
X413808Y5242150D2*
X579239D1*
X792261D2*
X1170192D1*
X413808Y5234281D2*
X600927D1*
X770573D2*
X1170192D1*
X413808Y5226412D2*
X1170192D1*
X413808Y5218543D2*
X1170192D1*
X413808Y5210675D2*
X1170192D1*
X413808Y5202806D2*
X1170192D1*
X413808Y5194937D2*
X1170192D1*
X413808Y5187068D2*
X1170192D1*
X413808Y5179199D2*
X1170192D1*
X413808Y5171331D2*
X1170192D1*
X413808Y5163462D2*
X1170192D1*
X413808Y5155593D2*
X1170192D1*
X413808Y5147724D2*
X1170192D1*
X413808Y5139856D2*
X1170192D1*
X413808Y5131987D2*
X757567D1*
X826433D2*
X1170192D1*
X413808Y5124118D2*
X721817D1*
X862183D2*
X1170192D1*
X413808Y5116249D2*
X699692D1*
X884308D2*
X1170192D1*
X413808Y5108381D2*
X682520D1*
X901480D2*
X1170192D1*
X413808Y5100512D2*
X668223D1*
X915777D2*
X1170192D1*
X413808Y5092643D2*
X655880D1*
X928120D2*
X1170192D1*
X413808Y5084774D2*
X645005D1*
X938995D2*
X1170192D1*
X413808Y5076906D2*
X635270D1*
X948730D2*
X1170192D1*
X413808Y5069037D2*
X626489D1*
X957511D2*
X1170192D1*
X413808Y5061168D2*
X618505D1*
X965495D2*
X1170192D1*
X413808Y5053299D2*
X611223D1*
X972777D2*
X1170192D1*
X413808Y5045430D2*
X604552D1*
X979448D2*
X1170192D1*
X413808Y5037562D2*
X598427D1*
X985573D2*
X1170192D1*
X413808Y5029693D2*
X592817D1*
X991183D2*
X1170192D1*
X413808Y5021824D2*
X587661D1*
X996339D2*
X1170192D1*
X413808Y5013955D2*
X582927D1*
X1001073D2*
X1170192D1*
X413808Y5006087D2*
X578583D1*
X1005417D2*
X1170192D1*
X413808Y4998218D2*
X574614D1*
X1009386D2*
X1170192D1*
X413808Y4990349D2*
X571005D1*
X1012995D2*
X1170192D1*
X413808Y4982480D2*
X567723D1*
X1016277D2*
X1170192D1*
X413808Y4974612D2*
X564770D1*
X1019230D2*
X1170192D1*
X413808Y4966743D2*
X562114D1*
X1021886D2*
X1170192D1*
X413808Y4958874D2*
X559770D1*
X1024230D2*
X1170192D1*
X413808Y4951005D2*
X557708D1*
X1026292D2*
X1170192D1*
X413808Y4943136D2*
X555927D1*
X1028073D2*
X1170192D1*
X413808Y4935268D2*
X554411D1*
X1029589D2*
X1170192D1*
X413808Y4927399D2*
X553177D1*
X1030823D2*
X1170192D1*
X413808Y4919530D2*
X552208D1*
X1031792D2*
X1170192D1*
X413808Y4911661D2*
X551505D1*
X1032495D2*
X1170192D1*
X413808Y4903793D2*
X551052D1*
X1032948D2*
X1170192D1*
X413808Y4895924D2*
X550848D1*
X1033152D2*
X1170192D1*
X413808Y4888055D2*
X550927D1*
X1033073D2*
X1170192D1*
X413808Y4880186D2*
X551239D1*
X1032761D2*
X1170192D1*
X413808Y4872318D2*
X551833D1*
X1032167D2*
X1170192D1*
X413808Y4864449D2*
X552677D1*
X1031323D2*
X1170192D1*
X413808Y4856580D2*
X553786D1*
X1030214D2*
X1170192D1*
X413808Y4848711D2*
X555161D1*
X1028839D2*
X1170192D1*
X413808Y4840843D2*
X556802D1*
X1027198D2*
X1170192D1*
X413808Y4832974D2*
X558723D1*
X1025277D2*
X1170192D1*
X413808Y4825105D2*
X560927D1*
X1023073D2*
X1170192D1*
X413808Y4817236D2*
X563442D1*
X1020558D2*
X1170192D1*
X413808Y4809367D2*
X566239D1*
X1017761D2*
X1170192D1*
X413808Y4801499D2*
X569364D1*
X1014636D2*
X1170192D1*
X413808Y4793630D2*
X471645D1*
X512355D2*
X572802D1*
X1011198D2*
X1170192D1*
X413808Y4785761D2*
X458005D1*
X525995D2*
X576598D1*
X1007402D2*
X1170192D1*
X413808Y4777892D2*
X450005D1*
X533995D2*
X580755D1*
X1003245D2*
X1170192D1*
X413808Y4770024D2*
X444630D1*
X539370D2*
X585286D1*
X998714D2*
X1170192D1*
X413808Y4762155D2*
X441036D1*
X542964D2*
X590239D1*
X993761D2*
X1170192D1*
X413808Y4754286D2*
X438864D1*
X545136D2*
X595630D1*
X988370D2*
X1170192D1*
X413808Y4746417D2*
X437911D1*
X546089D2*
X601489D1*
X982511D2*
X1170192D1*
X413808Y4738549D2*
X438130D1*
X545870D2*
X607880D1*
X976120D2*
X1170192D1*
X413808Y4730680D2*
X439552D1*
X544448D2*
X614864D1*
X969136D2*
X1170192D1*
X413808Y4722811D2*
X442239D1*
X541761D2*
X622489D1*
X961511D2*
X1170192D1*
X413808Y4714942D2*
X446458D1*
X537542D2*
X630864D1*
X953136D2*
X1170192D1*
X413808Y4707073D2*
X452708D1*
X531292D2*
X640114D1*
X943886D2*
X1170192D1*
X413808Y4699205D2*
X462239D1*
X521761D2*
X650411D1*
X933589D2*
X1170192D1*
X413808Y4691336D2*
X482708D1*
X501292D2*
X661989D1*
X922011D2*
X1170192D1*
X413808Y4683467D2*
X675255D1*
X908745D2*
X1170192D1*
X413808Y4675598D2*
X690848D1*
X893152D2*
X1170192D1*
X413808Y4667730D2*
X710145D1*
X873855D2*
X1170192D1*
X413808Y4659861D2*
X736911D1*
X847089D2*
X1170192D1*
X413808Y4651992D2*
X1170192D1*
X413808Y4644123D2*
X1170192D1*
X413808Y4636255D2*
X1170192D1*
X413808Y4628386D2*
X1170192D1*
X413808Y4620517D2*
X1170192D1*
X413808Y4612648D2*
X1170192D1*
X413808Y4604780D2*
X1170192D1*
X413808Y4596911D2*
X484411D1*
X499589D2*
X1170192D1*
X413808Y4589042D2*
X462614D1*
X521386D2*
X1170192D1*
X413808Y4581173D2*
X452942D1*
X531058D2*
X1170192D1*
X413808Y4573304D2*
X446630D1*
X537370D2*
X1170192D1*
X413808Y4565436D2*
X442348D1*
X541652D2*
X1170192D1*
X413808Y4557567D2*
X439614D1*
X544386D2*
X1170192D1*
X413808Y4549698D2*
X438161D1*
X545839D2*
X1170192D1*
X413808Y4541829D2*
X437895D1*
X546105D2*
X1170192D1*
X413808Y4533961D2*
X438817D1*
X545183D2*
X1170192D1*
X413808Y4526092D2*
X440958D1*
X543042D2*
X1170192D1*
X413808Y4518223D2*
X444505D1*
X539495D2*
X1170192D1*
X413808Y4510354D2*
X449802D1*
X534198D2*
X1170192D1*
X413808Y4502486D2*
X457708D1*
X526292D2*
X1170192D1*
X413808Y4494617D2*
X471036D1*
X512964D2*
X1170192D1*
X413808Y4486748D2*
X1170192D1*
X413808Y4478879D2*
X1170192D1*
X413808Y4471010D2*
X1170192D1*
X413808Y4463142D2*
X1170192D1*
X413808Y4455273D2*
X1170192D1*
X413808Y4447404D2*
X1170192D1*
X413808Y4439535D2*
X1170192D1*
X413808Y4431667D2*
X1170192D1*
X413808Y4423798D2*
X1170192D1*
X413808Y4415929D2*
X1170192D1*
X413808Y4408060D2*
X1170192D1*
X413808Y4400192D2*
X1170192D1*
X413808Y4392323D2*
X468614D1*
X515386D2*
X1170192D1*
X413808Y4384454D2*
X456427D1*
X527573D2*
X1170192D1*
X413808Y4376585D2*
X448958D1*
X535042D2*
X1170192D1*
X413808Y4368717D2*
X443927D1*
X540073D2*
X1170192D1*
X413808Y4360848D2*
X440583D1*
X543417D2*
X1170192D1*
X413808Y4352979D2*
X438614D1*
X545386D2*
X736223D1*
X847777D2*
X1170192D1*
X413808Y4345110D2*
X437864D1*
X546136D2*
X709692D1*
X874308D2*
X1170192D1*
X413808Y4337241D2*
X438286D1*
X545714D2*
X690505D1*
X893495D2*
X1170192D1*
X413808Y4329373D2*
X439895D1*
X544105D2*
X674958D1*
X909042D2*
X1170192D1*
X413808Y4321504D2*
X442833D1*
X541167D2*
X661739D1*
X922261D2*
X1170192D1*
X413808Y4313635D2*
X447348D1*
X536652D2*
X650177D1*
X933823D2*
X1170192D1*
X413808Y4305766D2*
X454005D1*
X529995D2*
X639911D1*
X944089D2*
X1170192D1*
X413808Y4297898D2*
X464364D1*
X519636D2*
X630692D1*
X953308D2*
X1170192D1*
X413808Y4290029D2*
X622333D1*
X961667D2*
X1170192D1*
X413808Y4282160D2*
X614708D1*
X969292D2*
X1170192D1*
X413808Y4274291D2*
X607755D1*
X976245D2*
X1170192D1*
X413808Y4266423D2*
X601364D1*
X982636D2*
X1170192D1*
X413808Y4258554D2*
X595505D1*
X988495D2*
X1170192D1*
X413808Y4250685D2*
X590130D1*
X993870D2*
X1170192D1*
X413808Y4242816D2*
X585192D1*
X998808D2*
X1170192D1*
X413808Y4234948D2*
X580661D1*
X1003339D2*
X1170192D1*
X413808Y4227079D2*
X576520D1*
X1007480D2*
X1170192D1*
X413808Y4219210D2*
X572739D1*
X1011261D2*
X1170192D1*
X413808Y4211341D2*
X569302D1*
X1014698D2*
X1170192D1*
X413808Y4203472D2*
X566177D1*
X1017823D2*
X1170192D1*
X413808Y4195604D2*
X477692D1*
X506308D2*
X563380D1*
X1020620D2*
X1077692D1*
X1106308D2*
X1170192D1*
X413808Y4187735D2*
X460661D1*
X523339D2*
X560880D1*
X1023120D2*
X1060661D1*
X1123339D2*
X1170192D1*
X413808Y4179866D2*
X451708D1*
X532292D2*
X558677D1*
X1025323D2*
X1051708D1*
X1132292D2*
X1170192D1*
X413808Y4171997D2*
X445802D1*
X538198D2*
X556770D1*
X1027230D2*
X1045802D1*
X1138198D2*
X1170192D1*
X413808Y4164129D2*
X441802D1*
X542198D2*
X555130D1*
X1028870D2*
X1041802D1*
X1142198D2*
X1170192D1*
X413808Y4156260D2*
X439286D1*
X544714D2*
X553755D1*
X1030245D2*
X1039286D1*
X1144714D2*
X1170192D1*
X413808Y4148391D2*
X438036D1*
X545964D2*
X552645D1*
X1031355D2*
X1038036D1*
X1145964D2*
X1170192D1*
X413808Y4140522D2*
X437973D1*
X546027D2*
X551820D1*
X1032183D2*
X1037973D1*
X1146027D2*
X1170192D1*
X413808Y4132654D2*
X439083D1*
X544917D2*
X551239D1*
X1032761D2*
X1039083D1*
X1144917D2*
X1170192D1*
X413808Y4124785D2*
X441442D1*
X542558D2*
X550911D1*
X1033089D2*
X1041442D1*
X1142558D2*
X1170192D1*
X413808Y4116916D2*
X445239D1*
X538761D2*
X550864D1*
X1033136D2*
X1045239D1*
X1138761D2*
X1170192D1*
X413808Y4109047D2*
X450895D1*
X533105D2*
X551052D1*
X1032948D2*
X1050895D1*
X1133105D2*
X1170192D1*
X413808Y4101178D2*
X459395D1*
X524605D2*
X551505D1*
X1032495D2*
X1059395D1*
X1124605D2*
X1170192D1*
X413808Y4093310D2*
X474583D1*
X509417D2*
X552223D1*
X1031777D2*
X1074583D1*
X1109417D2*
X1170192D1*
X413808Y4085441D2*
X553208D1*
X1030792D2*
X1170192D1*
X413808Y4077572D2*
X554442D1*
X1029558D2*
X1170192D1*
X413808Y4069703D2*
X555958D1*
X1028042D2*
X1170192D1*
X413808Y4061835D2*
X557739D1*
X1026261D2*
X1170192D1*
X413808Y4053966D2*
X559817D1*
X1024183D2*
X1170192D1*
X413808Y4046097D2*
X562177D1*
X1021823D2*
X1170192D1*
X413808Y4038228D2*
X564833D1*
X1019167D2*
X1170192D1*
X413808Y4030360D2*
X567786D1*
X1016214D2*
X1170192D1*
X413808Y4022491D2*
X571083D1*
X1012917D2*
X1170192D1*
X413808Y4014622D2*
X574692D1*
X1009308D2*
X1170192D1*
X413808Y4006753D2*
X578661D1*
X1005339D2*
X1170192D1*
X413808Y3998885D2*
X583020D1*
X1000980D2*
X1170192D1*
X413808Y3991016D2*
X587755D1*
X996245D2*
X1170192D1*
X413808Y3983147D2*
X592927D1*
X991073D2*
X1170192D1*
X413808Y3975278D2*
X598552D1*
X985448D2*
X1170192D1*
X413808Y3967409D2*
X604677D1*
X979323D2*
X1170192D1*
X413808Y3959541D2*
X611364D1*
X972636D2*
X1170192D1*
X413808Y3951672D2*
X618661D1*
X965339D2*
X1170192D1*
X413808Y3943803D2*
X626661D1*
X957339D2*
X1170192D1*
X413808Y3935934D2*
X635458D1*
X948542D2*
X1170192D1*
X413808Y3928066D2*
X645208D1*
X938792D2*
X1170192D1*
X413808Y3920197D2*
X656114D1*
X927886D2*
X1170192D1*
X413808Y3912328D2*
X668505D1*
X915495D2*
X1170192D1*
X413808Y3904459D2*
X682848D1*
X901152D2*
X1170192D1*
X413808Y3896591D2*
X700083D1*
X883917D2*
X1170192D1*
X413808Y3888722D2*
X722348D1*
X861652D2*
X1170192D1*
X413808Y3880853D2*
X758723D1*
X825277D2*
X1170192D1*
X413808Y3872984D2*
X1170192D1*
X413808Y3865115D2*
X1170192D1*
X413808Y3857247D2*
X1170192D1*
X413808Y3849378D2*
X1170192D1*
X413808Y3841509D2*
X1170192D1*
X413808Y3833640D2*
X487739D1*
X576105D2*
X1007864D1*
X1096214D2*
X1170192D1*
X413808Y3825772D2*
X468270D1*
X595573D2*
X988395D1*
X1115683D2*
X1170192D1*
X413808Y3817903D2*
X454348D1*
X609495D2*
X974458D1*
X1129620D2*
X1170192D1*
X413808Y3810034D2*
X443286D1*
X620558D2*
X963411D1*
X1140667D2*
X1170192D1*
X413808Y3802165D2*
X434114D1*
X629730D2*
X954223D1*
X1149855D2*
X1170192D1*
X413808Y3794297D2*
X426317D1*
X637527D2*
X946427D1*
X1157652D2*
X1170192D1*
X413808Y3786428D2*
X419622D1*
X644230D2*
X939739D1*
X1164339D2*
X1170192D1*
X650011Y3778559D2*
X933942D1*
X655027Y3770690D2*
X928927D1*
X659355Y3762822D2*
X924598D1*
X663073Y3754953D2*
X920895D1*
X666214Y3747084D2*
X917739D1*
X668839Y3739215D2*
X915130D1*
X670948Y3731346D2*
X913005D1*
X672605Y3723478D2*
X911364D1*
X673792Y3715609D2*
X910161D1*
X674542Y3707740D2*
X909427D1*
X674839Y3699871D2*
X909114D1*
X674714Y3692003D2*
X909255D1*
X674152Y3684134D2*
X909817D1*
X673136Y3676265D2*
X910833D1*
X671667Y3668396D2*
X912286D1*
X669745Y3660528D2*
X914223D1*
X667323Y3652659D2*
X916630D1*
X664402Y3644790D2*
X919567D1*
X660917Y3636921D2*
X923036D1*
X656855Y3629052D2*
X927114D1*
X652120Y3621184D2*
X931848D1*
X413808Y3613315D2*
X417187D1*
X646652D2*
X937302D1*
X1166777D2*
X1170211D1*
X413808Y3605446D2*
X423505D1*
X640339D2*
X943630D1*
X1160448D2*
X1170192D1*
X413808Y3597577D2*
X430833D1*
X633011D2*
X950942D1*
X1153136D2*
X1170192D1*
X413808Y3589709D2*
X439411D1*
X624433D2*
X959520D1*
X1144558D2*
X1170192D1*
X413808Y3581840D2*
X449630D1*
X614214D2*
X756536D1*
X827464D2*
X969755D1*
X1134323D2*
X1170192D1*
X413808Y3573971D2*
X462239D1*
X601605D2*
X721333D1*
X862667D2*
X982348D1*
X1121730D2*
X1170192D1*
X413808Y3566102D2*
X478895D1*
X584948D2*
X699333D1*
X884667D2*
X999020D1*
X1105058D2*
X1170192D1*
X413808Y3558234D2*
X506927D1*
X556917D2*
X682239D1*
X901761D2*
X1027052D1*
X1077027D2*
X1170192D1*
X413808Y3550365D2*
X667989D1*
X916011D2*
X1170192D1*
X413808Y3542496D2*
X655677D1*
X928323D2*
X1170192D1*
X413808Y3534627D2*
X644817D1*
X939183D2*
X1170192D1*
X413808Y3526759D2*
X635098D1*
X948902D2*
X1170192D1*
X413808Y3518890D2*
X626333D1*
X957667D2*
X1170192D1*
X413808Y3511021D2*
X618364D1*
X965636D2*
X1170192D1*
X413808Y3503152D2*
X611083D1*
X972917D2*
X1170192D1*
X413808Y3495283D2*
X604427D1*
X979573D2*
X1170192D1*
X413808Y3487415D2*
X598317D1*
X985683D2*
X1170192D1*
X413808Y3479546D2*
X592708D1*
X991292D2*
X1170192D1*
X413808Y3471677D2*
X587567D1*
X996433D2*
X1170192D1*
X413808Y3463808D2*
X582833D1*
X1001167D2*
X1170192D1*
X413808Y3455940D2*
X578505D1*
X1005495D2*
X1170192D1*
X413808Y3448071D2*
X574552D1*
X1009448D2*
X1170192D1*
X413808Y3440202D2*
X570942D1*
X1013058D2*
X1170192D1*
X413808Y3432333D2*
X567677D1*
X1016323D2*
X1170192D1*
X413808Y3424465D2*
X564723D1*
X1019277D2*
X1170192D1*
X413808Y3416596D2*
X562067D1*
X1021933D2*
X1170192D1*
X413808Y3408727D2*
X559723D1*
X1024277D2*
X1170192D1*
X413808Y3400858D2*
X557677D1*
X1026323D2*
X1170192D1*
X413808Y3392990D2*
X555895D1*
X1028105D2*
X1170192D1*
X413808Y3385121D2*
X554395D1*
X1029605D2*
X1170192D1*
X413808Y3377252D2*
X553161D1*
X1030839D2*
X1170192D1*
X413808Y3369383D2*
X552192D1*
X1031808D2*
X1170192D1*
X413808Y3361514D2*
X551489D1*
X1032511D2*
X1170192D1*
X413808Y3353646D2*
X551036D1*
X1032964D2*
X1170192D1*
X413808Y3345777D2*
X550848D1*
X1033152D2*
X1170192D1*
X413808Y3337908D2*
X550927D1*
X1033073D2*
X1170192D1*
X413808Y3330039D2*
X551255D1*
X1032745D2*
X1170192D1*
X413808Y3322171D2*
X551848D1*
X1032152D2*
X1170192D1*
X413808Y3314302D2*
X552692D1*
X1031308D2*
X1170192D1*
X413808Y3306433D2*
X553802D1*
X1030198D2*
X1170192D1*
X413808Y3298564D2*
X555177D1*
X1028823D2*
X1170192D1*
X413808Y3290696D2*
X556833D1*
X1027167D2*
X1170192D1*
X413808Y3282827D2*
X558770D1*
X1025230D2*
X1170192D1*
X413808Y3274958D2*
X560973D1*
X1023027D2*
X1170192D1*
X413808Y3267089D2*
X563489D1*
X1020511D2*
X1170192D1*
X413808Y3259220D2*
X566302D1*
X1017698D2*
X1170192D1*
X413808Y3251352D2*
X569427D1*
X1014573D2*
X1170192D1*
X413808Y3243483D2*
X572880D1*
X1011120D2*
X1170192D1*
X413808Y3235614D2*
X576677D1*
X1007323D2*
X1170192D1*
X413808Y3227745D2*
X580833D1*
X1003167D2*
X1170192D1*
X413808Y3219877D2*
X585380D1*
X998620D2*
X1170192D1*
X413808Y3212008D2*
X590333D1*
X993667D2*
X1170192D1*
X413808Y3204139D2*
X595739D1*
X988261D2*
X1170192D1*
X413808Y3196270D2*
X601614D1*
X982386D2*
X1170192D1*
X413808Y3188402D2*
X608005D1*
X975995D2*
X1170192D1*
X413808Y3180533D2*
X615005D1*
X968995D2*
X1170192D1*
X413808Y3172664D2*
X622645D1*
X961355D2*
X1170192D1*
X413808Y3164795D2*
X631036D1*
X952964D2*
X1170192D1*
X413808Y3156927D2*
X640302D1*
X943698D2*
X1170192D1*
X413808Y3149058D2*
X650614D1*
X933386D2*
X1170192D1*
X413808Y3141189D2*
X662223D1*
X921777D2*
X1170192D1*
X413808Y3133320D2*
X675520D1*
X908480D2*
X1170192D1*
X413808Y3125451D2*
X691177D1*
X892823D2*
X1170192D1*
X413808Y3117583D2*
X710552D1*
X873448D2*
X1170192D1*
X413808Y3109714D2*
X737552D1*
X846448D2*
X1170192D1*
X413808Y3101845D2*
X1170192D1*
X413808Y3093976D2*
X1170192D1*
X413808Y3086108D2*
X1170192D1*
X413808Y3078239D2*
X1170192D1*
X413808Y3070370D2*
X1170192D1*
X413808Y3062501D2*
X1170192D1*
X413808Y3054633D2*
X1170192D1*
X413808Y3046764D2*
X1170192D1*
X413808Y3038895D2*
X1170192D1*
X413808Y3031026D2*
X1170192D1*
X413808Y3023157D2*
X1170192D1*
X413808Y3015289D2*
X1170192D1*
X413808Y3007420D2*
X1170192D1*
X413808Y2999551D2*
X1170192D1*
X413808Y2991682D2*
X1170192D1*
X413808Y2983814D2*
X1170192D1*
X413808Y2975945D2*
X1170192D1*
X413808Y2968076D2*
X1170192D1*
X413808Y2960207D2*
X1170192D1*
X413808Y2952339D2*
X1170192D1*
X413808Y2944470D2*
X1170192D1*
X413808Y2936601D2*
X1170192D1*
X413808Y2928732D2*
X1170192D1*
X413808Y2920864D2*
X1170192D1*
X413808Y2912995D2*
X1170192D1*
X413808Y2905126D2*
X1170192D1*
X413808Y2897257D2*
X1170192D1*
X413808Y2889388D2*
X1170192D1*
X413808Y2881520D2*
X1170192D1*
X413808Y2873651D2*
X1170192D1*
X413808Y2865782D2*
X1170192D1*
X413808Y2857913D2*
X1170192D1*
X413808Y2850045D2*
X1170192D1*
X413808Y2842176D2*
X1170192D1*
X413808Y2834307D2*
X1170192D1*
X413808Y2826438D2*
X1170192D1*
X413808Y2818570D2*
X1170192D1*
X413808Y2810701D2*
X1170192D1*
X413808Y2802832D2*
X735598D1*
X848402D2*
X1170192D1*
X413808Y2794963D2*
X709286D1*
X874714D2*
X1170192D1*
X413808Y2787094D2*
X690192D1*
X893808D2*
X1170192D1*
X413808Y2779226D2*
X674692D1*
X909308D2*
X1170192D1*
X413808Y2771357D2*
X661505D1*
X922495D2*
X1170192D1*
X413808Y2763488D2*
X649973D1*
X934027D2*
X1170192D1*
X413808Y2755619D2*
X639739D1*
X944261D2*
X1170192D1*
X413808Y2747751D2*
X630520D1*
X953480D2*
X1170192D1*
X413808Y2739882D2*
X622177D1*
X961823D2*
X1170192D1*
X413808Y2732013D2*
X614583D1*
X969417D2*
X1170192D1*
X413808Y2724144D2*
X607630D1*
X976370D2*
X1170192D1*
X413808Y2716276D2*
X601255D1*
X982745D2*
X1170192D1*
X413808Y2708407D2*
X595411D1*
X988589D2*
X1170192D1*
X413808Y2700538D2*
X590036D1*
X993964D2*
X1170192D1*
X413808Y2692669D2*
X585098D1*
X998902D2*
X1170192D1*
X413808Y2684801D2*
X580583D1*
X1003417D2*
X1170192D1*
X413808Y2676932D2*
X576442D1*
X1007558D2*
X1170192D1*
X413808Y2669063D2*
X572661D1*
X1011339D2*
X1170192D1*
X413808Y2661194D2*
X569239D1*
X1014761D2*
X1170192D1*
X413808Y2653325D2*
X566130D1*
X1017870D2*
X1170192D1*
X413808Y2645457D2*
X563333D1*
X1020667D2*
X1170192D1*
X413808Y2637588D2*
X560848D1*
X1023152D2*
X1170192D1*
X413808Y2629719D2*
X558645D1*
X1025355D2*
X1170192D1*
X413808Y2621850D2*
X556723D1*
X1027277D2*
X1170192D1*
X413808Y2613982D2*
X555098D1*
X1028902D2*
X1170192D1*
X413808Y2606113D2*
X553723D1*
X1030277D2*
X1170192D1*
X413808Y2598244D2*
X552630D1*
X1031370D2*
X1170192D1*
X413808Y2590375D2*
X551802D1*
X1032198D2*
X1170192D1*
X413808Y2582507D2*
X551223D1*
X1032777D2*
X1170192D1*
X413808Y2574638D2*
X550911D1*
X1033089D2*
X1170192D1*
X413808Y2566769D2*
X550864D1*
X1033136D2*
X1170192D1*
X413808Y2558900D2*
X551067D1*
X1032933D2*
X1170192D1*
X413808Y2551031D2*
X551520D1*
X1032480D2*
X1170192D1*
X413808Y2543163D2*
X552239D1*
X1031761D2*
X1170192D1*
X413808Y2535294D2*
X553223D1*
X1030777D2*
X1170192D1*
X413808Y2527425D2*
X554473D1*
X1029527D2*
X1170192D1*
X413808Y2519556D2*
X555989D1*
X1028011D2*
X1170192D1*
X413808Y2511688D2*
X557786D1*
X1026214D2*
X1170192D1*
X413808Y2503819D2*
X559848D1*
X1024152D2*
X1170192D1*
X413808Y2495950D2*
X562223D1*
X1021777D2*
X1170192D1*
X413808Y2488081D2*
X564880D1*
X1019120D2*
X1170192D1*
X413808Y2480213D2*
X567848D1*
X1016152D2*
X1170192D1*
X413808Y2472344D2*
X571145D1*
X1012855D2*
X1170192D1*
X413808Y2464475D2*
X574770D1*
X1009230D2*
X1170192D1*
X413808Y2456606D2*
X578739D1*
X1005261D2*
X1170192D1*
X413808Y2448738D2*
X583098D1*
X1000902D2*
X1170192D1*
X413808Y2440869D2*
X587848D1*
X996152D2*
X1170192D1*
X413808Y2433000D2*
X593020D1*
X990980D2*
X1170192D1*
X413808Y2425131D2*
X598661D1*
X985339D2*
X1170192D1*
X413808Y2417262D2*
X604802D1*
X979198D2*
X1170192D1*
X413808Y2409394D2*
X611489D1*
X972511D2*
X1170192D1*
X413808Y2401525D2*
X618802D1*
X965198D2*
X1170192D1*
X413808Y2393656D2*
X626817D1*
X957183D2*
X1170192D1*
X413808Y2385787D2*
X635630D1*
X948370D2*
X1170192D1*
X413808Y2377919D2*
X645395D1*
X938605D2*
X1170192D1*
X413808Y2370050D2*
X656333D1*
X927667D2*
X1170192D1*
X413808Y2362181D2*
X668739D1*
X915261D2*
X1170192D1*
X413808Y2354312D2*
X683130D1*
X900870D2*
X1170192D1*
X413808Y2346444D2*
X700442D1*
X883558D2*
X1170192D1*
X413808Y2338575D2*
X722833D1*
X861167D2*
X1170192D1*
X413808Y2330706D2*
X759817D1*
X824183D2*
X1170192D1*
X413808Y2322837D2*
X1170192D1*
X413808Y2314969D2*
X1170192D1*
X413808Y2307100D2*
X1170192D1*
X413808Y2299231D2*
X1170192D1*
X413808Y2291362D2*
X1170192D1*
X413808Y2283493D2*
X1170192D1*
X413808Y2275625D2*
X1170192D1*
X413808Y2267756D2*
X1170192D1*
X413808Y2259887D2*
X1170192D1*
X413808Y2252018D2*
X1170192D1*
X413808Y2244150D2*
X1170192D1*
X413808Y2236281D2*
X1170192D1*
X413808Y2228412D2*
X1170192D1*
X413808Y2220543D2*
X1170192D1*
X413808Y2212675D2*
X1170192D1*
X413808Y2204806D2*
X1170192D1*
X413808Y2196937D2*
X1170192D1*
X413808Y2189068D2*
X1170192D1*
X413808Y2181199D2*
X1170192D1*
X413808Y2173331D2*
X1170192D1*
X413808Y2165462D2*
X1170192D1*
X413808Y2157593D2*
X1170192D1*
X413808Y2149724D2*
X1170192D1*
X413808Y2141856D2*
X1170192D1*
X413808Y2133987D2*
X1170192D1*
X413808Y2126118D2*
X1170192D1*
X413808Y2118249D2*
X1170192D1*
X413808Y2110381D2*
X1170192D1*
X413808Y2102512D2*
X1170192D1*
X413808Y2094643D2*
X1170192D1*
X413808Y2086774D2*
X1170192D1*
X413808Y2078906D2*
X1170192D1*
X413808Y2071037D2*
X1170192D1*
X413808Y2063168D2*
X1170192D1*
X413808Y2055299D2*
X1170192D1*
X413808Y2047430D2*
X1170192D1*
X413808Y2039562D2*
X1170192D1*
X413808Y2031693D2*
X1170192D1*
X413808Y2023824D2*
X1170192D1*
X413808Y2015955D2*
X1170192D1*
X413808Y2008087D2*
X1170192D1*
X413808Y2000218D2*
X1170192D1*
X413808Y1992349D2*
X1170192D1*
X413808Y1984480D2*
X1170192D1*
X413808Y1976612D2*
X1170192D1*
X413808Y1968743D2*
X1170192D1*
X413808Y1960874D2*
X1170192D1*
X413808Y1953005D2*
X1170192D1*
X413808Y1945136D2*
X548255D1*
X635745D2*
X948255D1*
X1035745D2*
X1170192D1*
X413808Y1937268D2*
X523708D1*
X660292D2*
X923708D1*
X1060292D2*
X1170192D1*
X413808Y1929399D2*
X506692D1*
X677308D2*
X906692D1*
X1077308D2*
X1170192D1*
X413808Y1921530D2*
X493208D1*
X690792D2*
X893208D1*
X1090792D2*
X1170192D1*
X413808Y1913661D2*
X481927D1*
X702073D2*
X881927D1*
X1102073D2*
X1170192D1*
X413808Y1905793D2*
X472223D1*
X711777D2*
X872223D1*
X1111777D2*
X1170192D1*
X413808Y1897924D2*
X463739D1*
X720261D2*
X863739D1*
X1120261D2*
X1170192D1*
X413808Y1890055D2*
X456239D1*
X727761D2*
X856239D1*
X1127761D2*
X1170192D1*
X413808Y1882186D2*
X449583D1*
X734417D2*
X849583D1*
X1134417D2*
X1170192D1*
X413808Y1874318D2*
X443630D1*
X740370D2*
X843630D1*
X1140370D2*
X1170192D1*
X413808Y1866449D2*
X438317D1*
X745683D2*
X838317D1*
X1145683D2*
X1170192D1*
X413808Y1858580D2*
X433583D1*
X750417D2*
X833583D1*
X1150417D2*
X1170192D1*
X413808Y1850711D2*
X429364D1*
X754636D2*
X829364D1*
X1154636D2*
X1170192D1*
X413808Y1842843D2*
X425630D1*
X758370D2*
X825630D1*
X1158370D2*
X1170192D1*
X413808Y1834974D2*
X422333D1*
X761667D2*
X822333D1*
X1161667D2*
X1170192D1*
X413808Y1827105D2*
X419466D1*
X764527D2*
X819473D1*
X1164527D2*
X1170192D1*
X413808Y1819236D2*
X417000D1*
X766995D2*
X817005D1*
X1166995D2*
X1170193D1*
X769073Y1811367D2*
X814927D1*
X770777Y1803499D2*
X813223D1*
X772136Y1795630D2*
X811864D1*
X773120Y1787761D2*
X810880D1*
X773777Y1779892D2*
X810223D1*
X774073Y1772024D2*
X809927D1*
X774027Y1764155D2*
X809973D1*
X773652Y1756286D2*
X810348D1*
X772917Y1748417D2*
X811083D1*
X771855Y1740549D2*
X812145D1*
X770417Y1732680D2*
X813583D1*
X768636Y1724811D2*
X815364D1*
X413808Y1716942D2*
X417531D1*
X766464D2*
X817536D1*
X1166464D2*
X1170208D1*
X413808Y1709073D2*
X420091D1*
X763902D2*
X820098D1*
X1163902D2*
X1170192D1*
X413808Y1701205D2*
X423052D1*
X760948D2*
X823052D1*
X1160948D2*
X1170192D1*
X413808Y1693336D2*
X426442D1*
X757558D2*
X826442D1*
X1157558D2*
X1170192D1*
X413808Y1685467D2*
X430302D1*
X753698D2*
X830302D1*
X1153698D2*
X1170192D1*
X413808Y1677598D2*
X434630D1*
X749370D2*
X834630D1*
X1149370D2*
X1170192D1*
X413808Y1669730D2*
X439489D1*
X744511D2*
X839489D1*
X1144511D2*
X1170192D1*
X413808Y1661861D2*
X444942D1*
X739058D2*
X844942D1*
X1139058D2*
X1170192D1*
X413808Y1653992D2*
X451052D1*
X732948D2*
X851052D1*
X1132948D2*
X1170192D1*
X413808Y1646123D2*
X457895D1*
X726105D2*
X857895D1*
X1126105D2*
X1170192D1*
X413808Y1638255D2*
X465598D1*
X718402D2*
X865598D1*
X1118402D2*
X1170192D1*
X413808Y1630386D2*
X474348D1*
X709652D2*
X874348D1*
X1109652D2*
X1170192D1*
X413808Y1622517D2*
X484380D1*
X699620D2*
X884380D1*
X1099620D2*
X1170192D1*
X413808Y1614648D2*
X496098D1*
X687902D2*
X896098D1*
X1087902D2*
X1170192D1*
X413808Y1606780D2*
X510255D1*
X673745D2*
X910255D1*
X1073745D2*
X1170192D1*
X413808Y1598911D2*
X528442D1*
X655558D2*
X928442D1*
X1055558D2*
X1170192D1*
X413808Y1591042D2*
X556567D1*
X627433D2*
X956567D1*
X1027433D2*
X1170192D1*
X413808Y1583173D2*
X1170192D1*
X413808Y1575304D2*
X1170192D1*
X413808Y1567436D2*
X1170192D1*
X413808Y1559567D2*
X1170192D1*
X413808Y1551698D2*
X1170192D1*
X413808Y1543829D2*
X1170192D1*
X413808Y1535961D2*
X1170192D1*
X413808Y1528092D2*
X1170192D1*
X413808Y1520223D2*
X1170192D1*
X413808Y1512354D2*
X1170192D1*
X413808Y1504486D2*
X1170192D1*
X413808Y1496617D2*
X1170192D1*
X413808Y1488748D2*
X1170192D1*
X413808Y1480879D2*
X1170192D1*
X413808Y1473010D2*
X562505D1*
X621495D2*
X962505D1*
X1021495D2*
X1170192D1*
X413808Y1465142D2*
X531380D1*
X652620D2*
X931380D1*
X1052620D2*
X1170192D1*
X413808Y1457273D2*
X512395D1*
X671605D2*
X912395D1*
X1071605D2*
X1170192D1*
X413808Y1449404D2*
X497833D1*
X686167D2*
X897833D1*
X1086167D2*
X1170192D1*
X413808Y1441535D2*
X485833D1*
X698167D2*
X885833D1*
X1098167D2*
X1170192D1*
X413808Y1433667D2*
X475614D1*
X708386D2*
X875614D1*
X1108386D2*
X1170192D1*
X413808Y1425798D2*
X466708D1*
X717292D2*
X866708D1*
X1117292D2*
X1170192D1*
X413808Y1417929D2*
X458880D1*
X725120D2*
X858880D1*
X1125120D2*
X1170192D1*
X413808Y1410060D2*
X451927D1*
X732073D2*
X851927D1*
X1132073D2*
X1170192D1*
X413808Y1402192D2*
X445723D1*
X738277D2*
X845723D1*
X1138277D2*
X1170192D1*
X413808Y1394323D2*
X440192D1*
X743808D2*
X840192D1*
X1143808D2*
X1170192D1*
X413808Y1386454D2*
X435255D1*
X748745D2*
X835255D1*
X1148745D2*
X1170192D1*
X413808Y1378585D2*
X430848D1*
X753152D2*
X830848D1*
X1153152D2*
X1170192D1*
X413808Y1370717D2*
X426942D1*
X757058D2*
X826942D1*
X1157058D2*
X1170192D1*
X413808Y1362848D2*
X423489D1*
X760511D2*
X823489D1*
X1160511D2*
X1170192D1*
X413808Y1354979D2*
X420473D1*
X763527D2*
X820473D1*
X1163527D2*
X1170192D1*
X413808Y1347110D2*
X417843D1*
X766136D2*
X817864D1*
X1166136D2*
X1170209D1*
X768355Y1339241D2*
X815645D1*
X770198Y1331373D2*
X813802D1*
X771683Y1323504D2*
X812317D1*
X772808Y1315635D2*
X811192D1*
X773573Y1307766D2*
X810427D1*
X773995Y1299898D2*
X810005D1*
X774089Y1292029D2*
X809911D1*
X773823Y1284160D2*
X810177D1*
X773230Y1276291D2*
X810770D1*
X772277Y1268423D2*
X811723D1*
X770980Y1260554D2*
X813020D1*
X769323Y1252685D2*
X814677D1*
X413808Y1244816D2*
X416688D1*
X767292D2*
X816708D1*
X1167292D2*
X1170204D1*
X413808Y1236948D2*
X419123D1*
X764886D2*
X819114D1*
X1164886D2*
X1170192D1*
X413808Y1229079D2*
X421927D1*
X762073D2*
X821927D1*
X1162073D2*
X1170192D1*
X413808Y1221210D2*
X425161D1*
X758839D2*
X825161D1*
X1158839D2*
X1170192D1*
X413808Y1213341D2*
X428833D1*
X755167D2*
X828833D1*
X1155167D2*
X1170192D1*
X413808Y1205472D2*
X432989D1*
X751011D2*
X832989D1*
X1151011D2*
X1170192D1*
X413808Y1197604D2*
X437661D1*
X746339D2*
X837661D1*
X1146339D2*
X1170192D1*
X413808Y1189735D2*
X442880D1*
X741120D2*
X842880D1*
X1141120D2*
X1170192D1*
X413808Y1181866D2*
X448739D1*
X735261D2*
X848739D1*
X1135261D2*
X1170192D1*
X413808Y1173997D2*
X455302D1*
X728698D2*
X855302D1*
X1128698D2*
X1170192D1*
X413808Y1166129D2*
X462677D1*
X721323D2*
X862677D1*
X1121323D2*
X1170192D1*
X413808Y1158260D2*
X471020D1*
X712980D2*
X871020D1*
X1112980D2*
X1170192D1*
X413808Y1150391D2*
X480536D1*
X703464D2*
X880536D1*
X1103464D2*
X1170192D1*
X413808Y1142522D2*
X491583D1*
X692417D2*
X891583D1*
X1092417D2*
X1170192D1*
X413808Y1134654D2*
X504723D1*
X679277D2*
X904723D1*
X1079277D2*
X1170192D1*
X413808Y1126785D2*
X521145D1*
X662855D2*
X921145D1*
X1062855D2*
X1170192D1*
X413808Y1118916D2*
X544145D1*
X639855D2*
X944145D1*
X1039855D2*
X1170192D1*
X413808Y1111047D2*
X1170192D1*
X413808Y1103178D2*
X1170192D1*
X413808Y1095310D2*
X765255D1*
X818745D2*
X1170192D1*
X413808Y1087441D2*
X754536D1*
X829464D2*
X1170192D1*
X413808Y1079572D2*
X747692D1*
X836308D2*
X1170192D1*
X413808Y1071703D2*
X544739D1*
X605652D2*
X743067D1*
X840933D2*
X976364D1*
X1042636D2*
X1170192D1*
X413808Y1063835D2*
X519583D1*
X630823D2*
X740052D1*
X843948D2*
X952473D1*
X1066527D2*
X1170192D1*
X413808Y1055966D2*
X503645D1*
X646761D2*
X738348D1*
X845652D2*
X936911D1*
X1082089D2*
X1170192D1*
X413808Y1048097D2*
X491427D1*
X658980D2*
X737864D1*
X846136D2*
X924895D1*
X1094105D2*
X1170192D1*
X413808Y1040228D2*
X481458D1*
X668948D2*
X738536D1*
X845464D2*
X915067D1*
X1103933D2*
X1170192D1*
X413808Y1032360D2*
X473067D1*
X677339D2*
X740427D1*
X843573D2*
X906770D1*
X1112230D2*
X1170192D1*
X413808Y1024491D2*
X465880D1*
X684511D2*
X743661D1*
X840339D2*
X899677D1*
X1119323D2*
X1170192D1*
X413808Y1016622D2*
X459692D1*
X690714D2*
X748583D1*
X835417D2*
X893552D1*
X1125448D2*
X1170192D1*
X413808Y1008753D2*
X454333D1*
X696073D2*
X755848D1*
X828152D2*
X888255D1*
X1130745D2*
X1170192D1*
X413808Y1000885D2*
X449692D1*
X700714D2*
X767552D1*
X816448D2*
X883661D1*
X1135339D2*
X1170192D1*
X413808Y993016D2*
X445708D1*
X704698D2*
X879723D1*
X1139277D2*
X1170192D1*
X413808Y985147D2*
X442302D1*
X708105D2*
X876364D1*
X1142636D2*
X1170192D1*
X413808Y977278D2*
X439442D1*
X710964D2*
X873552D1*
X1145448D2*
X1170192D1*
X413808Y969409D2*
X437098D1*
X713308D2*
X871239D1*
X1147761D2*
X1170192D1*
X413808Y961541D2*
X435223D1*
X715167D2*
X869395D1*
X1149605D2*
X1170192D1*
X413808Y953672D2*
X433817D1*
X716573D2*
X868036D1*
X1150964D2*
X1170192D1*
X413808Y945803D2*
X432880D1*
X717527D2*
X867114D1*
X1151886D2*
X1170192D1*
X413808Y937934D2*
X432364D1*
X718027D2*
X773114D1*
X810886D2*
X866645D1*
X1152355D2*
X1170192D1*
X413808Y930066D2*
X432286D1*
X718105D2*
X758723D1*
X825277D2*
X866598D1*
X1152402D2*
X1170192D1*
X413808Y922197D2*
X432661D1*
X717745D2*
X750473D1*
X833527D2*
X867005D1*
X1151995D2*
X1170192D1*
X413808Y914328D2*
X433458D1*
X716933D2*
X744942D1*
X839058D2*
X867848D1*
X1151152D2*
X1170192D1*
X413808Y906459D2*
X434708D1*
X715683D2*
X741239D1*
X842761D2*
X869130D1*
X1149870D2*
X1170192D1*
X413808Y898591D2*
X436427D1*
X713980D2*
X738973D1*
X845027D2*
X870880D1*
X1148120D2*
X1170192D1*
X413808Y890722D2*
X438614D1*
X711792D2*
X737942D1*
X846058D2*
X873098D1*
X1145902D2*
X1170192D1*
X413808Y882853D2*
X441302D1*
X709105D2*
X738083D1*
X845917D2*
X875817D1*
X1143183D2*
X1170192D1*
X413808Y874984D2*
X444520D1*
X705886D2*
X739411D1*
X844589D2*
X879083D1*
X1139917D2*
X1170192D1*
X413808Y867115D2*
X448302D1*
X702089D2*
X742005D1*
X841995D2*
X882927D1*
X1136073D2*
X1170192D1*
X413808Y859247D2*
X452723D1*
X697683D2*
X746114D1*
X837886D2*
X887380D1*
X1131620D2*
X1170192D1*
X413808Y851378D2*
X457833D1*
X692573D2*
X752177D1*
X831823D2*
X892552D1*
X1126448D2*
X1170192D1*
X413808Y843509D2*
X463739D1*
X686667D2*
X761395D1*
X822605D2*
X898520D1*
X1120480D2*
X1170192D1*
X413808Y835640D2*
X470567D1*
X679823D2*
X779802D1*
X804198D2*
X905427D1*
X1113573D2*
X1170192D1*
X413808Y827772D2*
X478520D1*
X671870D2*
X913489D1*
X1105511D2*
X1170192D1*
X413808Y819903D2*
X487927D1*
X662480D2*
X923005D1*
X1095995D2*
X1170192D1*
X413808Y812034D2*
X499286D1*
X651105D2*
X934567D1*
X1084433D2*
X1170192D1*
X413808Y804165D2*
X513739D1*
X636667D2*
X949317D1*
X1069683D2*
X1170192D1*
X413808Y796297D2*
X534458D1*
X615948D2*
X970864D1*
X1048136D2*
X1170192D1*
X413808Y788428D2*
X1170192D1*
X413808Y780559D2*
X1170192D1*
X413808Y772690D2*
X1170192D1*
X413808Y764822D2*
X1170192D1*
X413808Y756953D2*
X1170192D1*
X413808Y749084D2*
X1170192D1*
X413808Y741215D2*
X1170192D1*
X413808Y733346D2*
X1170192D1*
X413808Y725478D2*
X1170192D1*
X413808Y717609D2*
X1170192D1*
X413808Y709740D2*
X1170192D1*
X413808Y701871D2*
X1170192D1*
X413808Y694003D2*
X1170192D1*
X413808Y686134D2*
X1170192D1*
X413808Y678265D2*
X1170192D1*
X413808Y670396D2*
X1170192D1*
X413808Y662528D2*
X1170192D1*
X413808Y654659D2*
X1170192D1*
X413808Y646790D2*
X1170192D1*
X413808Y638921D2*
X1170192D1*
X413808Y631052D2*
X1170192D1*
X413808Y623184D2*
X1170192D1*
X413808Y615315D2*
X1170192D1*
X413808Y607446D2*
X608989D1*
X762495D2*
X1170192D1*
X413808Y599577D2*
X582505D1*
X788995D2*
X1170192D1*
X413808Y591709D2*
X568395D1*
X803105D2*
X1170192D1*
X413808Y583840D2*
X558130D1*
X813370D2*
X1170192D1*
X413808Y575971D2*
X550098D1*
X821402D2*
X1170192D1*
X413808Y568102D2*
X543630D1*
X827870D2*
X1170192D1*
X413808Y560234D2*
X538364D1*
X833136D2*
X1170192D1*
X413808Y552365D2*
X534083D1*
X837417D2*
X1170192D1*
X413808Y544496D2*
X530677D1*
X840823D2*
X1170192D1*
X413808Y536627D2*
X528020D1*
X843480D2*
X1170192D1*
X413808Y528759D2*
X526067D1*
X845433D2*
X1170192D1*
X413808Y520890D2*
X524770D1*
X846730D2*
X1170192D1*
X413808Y513021D2*
X524114D1*
X847386D2*
X1170192D1*
X413808Y505152D2*
X524083D1*
X847417D2*
X1170192D1*
X413808Y497283D2*
X524677D1*
X846823D2*
X1170192D1*
X413808Y489415D2*
X525895D1*
X845605D2*
X1170192D1*
X413808Y481546D2*
X527770D1*
X843730D2*
X1170192D1*
X413808Y473677D2*
X530348D1*
X841152D2*
X1170192D1*
X413808Y465808D2*
X533677D1*
X837823D2*
X1170192D1*
X413808Y457940D2*
X537864D1*
X833636D2*
X1170192D1*
X413808Y450071D2*
X543005D1*
X828495D2*
X1170192D1*
X413808Y442202D2*
X549333D1*
X822167D2*
X1170192D1*
X413808Y434333D2*
X557177D1*
X814323D2*
X1170192D1*
X413808Y426465D2*
X567145D1*
X804355D2*
X1170192D1*
X413808Y418596D2*
X580708D1*
X790792D2*
X1170192D1*
X1171002Y1265294D2*
X1169734Y1258236D1*
X1167983Y1250431D1*
X1165890Y1242710D1*
X1163458Y1235089D1*
X1160693Y1227583D1*
X1157599Y1220206D1*
X1154182Y1212973D1*
X1150450Y1205898D1*
X1146410Y1198994D1*
X1142068Y1192275D1*
X1137435Y1185754D1*
X1132519Y1179444D1*
X1127328Y1173357D1*
X1121875Y1167505D1*
X1116168Y1161899D1*
X1110220Y1156550D1*
X1104042Y1151469D1*
X1097646Y1146665D1*
X1091043Y1142149D1*
X1084249Y1137927D1*
X1077274Y1134010D1*
X1070134Y1130404D1*
X1062841Y1127117D1*
X1055410Y1124154D1*
X1047856Y1121522D1*
X1040194Y1119226D1*
X1032437Y1117271D1*
X1024602Y1115659D1*
X1016703Y1114394D1*
X1008756Y1113479D1*
X1000777Y1112916D1*
X992780Y1112705D1*
X984782Y1112847D1*
X976798Y1113342D1*
X968843Y1114188D1*
X960934Y1115385D1*
X953085Y1116929D1*
X945312Y1118818D1*
X937630Y1121048D1*
X930053Y1123615D1*
X922598Y1126513D1*
X915277Y1129738D1*
X908106Y1133282D1*
X901098Y1137139D1*
X894267Y1141302D1*
X887626Y1145762D1*
X881189Y1150510D1*
X874967Y1155538D1*
X868973Y1160836D1*
X863218Y1166392D1*
X857715Y1172197D1*
X852472Y1178239D1*
X847502Y1184507D1*
X842812Y1190988D1*
X838414Y1197669D1*
X834314Y1204538D1*
X830521Y1211581D1*
X827042Y1218784D1*
X823885Y1226134D1*
X821055Y1233616D1*
X818558Y1241216D1*
X816398Y1248918D1*
X814580Y1256708D1*
X813108Y1264571D1*
X811984Y1272491D1*
X811210Y1280453D1*
X810789Y1288441D1*
X810720Y1296440D1*
X811004Y1304434D1*
X811640Y1312408D1*
X812628Y1320346D1*
X813965Y1328233D1*
X815648Y1336053D1*
X817675Y1343792D1*
X820041Y1351433D1*
X822742Y1358963D1*
X825772Y1366366D1*
X829126Y1373628D1*
X832798Y1380735D1*
X836779Y1387674D1*
X841062Y1394430D1*
X845639Y1400990D1*
X850501Y1407342D1*
X855639Y1413474D1*
X861042Y1419373D1*
X866699Y1425028D1*
X872601Y1430427D1*
X878736Y1435561D1*
X885091Y1440420D1*
X891654Y1444994D1*
X898412Y1449273D1*
X905352Y1453250D1*
X912462Y1456917D1*
X919726Y1460268D1*
X927131Y1463294D1*
X934662Y1465991D1*
X942304Y1468352D1*
X950044Y1470375D1*
X957865Y1472054D1*
X965753Y1473387D1*
X973691Y1474370D1*
X981666Y1475002D1*
X989660Y1475281D1*
X997659Y1475208D1*
X1005647Y1474782D1*
X1013608Y1474004D1*
X1021528Y1472876D1*
X1029390Y1471399D1*
X1037179Y1469577D1*
X1044880Y1467413D1*
X1052478Y1464912D1*
X1059959Y1462078D1*
X1067307Y1458916D1*
X1074508Y1455434D1*
X1081549Y1451637D1*
X1088416Y1447533D1*
X1095094Y1443131D1*
X1101573Y1438438D1*
X1107837Y1433464D1*
X1113877Y1428218D1*
X1119679Y1422711D1*
X1125232Y1416954D1*
X1130526Y1410957D1*
X1135551Y1404732D1*
X1140296Y1398292D1*
X1144752Y1391649D1*
X1148911Y1384816D1*
X1152764Y1377806D1*
X1156304Y1370632D1*
X1159525Y1363310D1*
X1162419Y1355853D1*
X1164982Y1348275D1*
X1167208Y1340591D1*
X1169092Y1332817D1*
X1170632Y1324967D1*
X1171000Y1322700D1*
Y1740234D1*
X1169734Y1733236D1*
X1167983Y1725431D1*
X1165890Y1717710D1*
X1163458Y1710089D1*
X1160693Y1702583D1*
X1157599Y1695206D1*
X1154182Y1687973D1*
X1150450Y1680898D1*
X1146410Y1673994D1*
X1142068Y1667275D1*
X1137435Y1660754D1*
X1132519Y1654444D1*
X1127328Y1648357D1*
X1121875Y1642505D1*
X1116168Y1636899D1*
X1110220Y1631550D1*
X1104042Y1626469D1*
X1097646Y1621665D1*
X1091043Y1617149D1*
X1084249Y1612927D1*
X1077274Y1609010D1*
X1070134Y1605404D1*
X1062841Y1602117D1*
X1055410Y1599154D1*
X1047856Y1596522D1*
X1040194Y1594226D1*
X1032437Y1592271D1*
X1024602Y1590659D1*
X1016703Y1589394D1*
X1008756Y1588479D1*
X1000777Y1587916D1*
X992780Y1587705D1*
X984782Y1587847D1*
X976798Y1588342D1*
X968843Y1589188D1*
X960934Y1590385D1*
X953085Y1591929D1*
X945312Y1593818D1*
X937630Y1596048D1*
X930053Y1598615D1*
X922598Y1601513D1*
X915277Y1604738D1*
X908106Y1608282D1*
X901098Y1612139D1*
X894267Y1616302D1*
X887626Y1620762D1*
X881189Y1625510D1*
X874967Y1630538D1*
X868973Y1635836D1*
X863218Y1641392D1*
X857715Y1647197D1*
X852472Y1653239D1*
X847502Y1659507D1*
X842812Y1665988D1*
X838414Y1672669D1*
X834314Y1679538D1*
X830521Y1686581D1*
X827042Y1693784D1*
X823885Y1701134D1*
X821055Y1708616D1*
X818558Y1716216D1*
X816398Y1723918D1*
X814580Y1731708D1*
X813108Y1739571D1*
X811984Y1747491D1*
X811210Y1755453D1*
X810789Y1763441D1*
X810720Y1771440D1*
X811004Y1779434D1*
X811640Y1787408D1*
X812628Y1795346D1*
X813965Y1803233D1*
X815648Y1811053D1*
X817675Y1818792D1*
X820041Y1826433D1*
X822742Y1833963D1*
X825772Y1841366D1*
X829126Y1848628D1*
X832798Y1855735D1*
X836779Y1862674D1*
X841062Y1869430D1*
X845639Y1875990D1*
X850501Y1882342D1*
X855639Y1888474D1*
X861042Y1894373D1*
X866699Y1900028D1*
X872601Y1905427D1*
X878736Y1910561D1*
X885091Y1915420D1*
X891654Y1919994D1*
X898412Y1924273D1*
X905352Y1928250D1*
X912462Y1931917D1*
X919726Y1935268D1*
X927131Y1938294D1*
X934662Y1940991D1*
X942304Y1943352D1*
X950044Y1945375D1*
X957865Y1947054D1*
X965753Y1948387D1*
X973691Y1949370D1*
X981666Y1950002D1*
X989660Y1950281D1*
X997659Y1950208D1*
X1005647Y1949782D1*
X1013608Y1949004D1*
X1021528Y1947876D1*
X1029390Y1946399D1*
X1037179Y1944577D1*
X1044880Y1942413D1*
X1052478Y1939912D1*
X1059959Y1937078D1*
X1067307Y1933916D1*
X1074508Y1930434D1*
X1081549Y1926637D1*
X1088416Y1922533D1*
X1095094Y1918131D1*
X1101573Y1913438D1*
X1107837Y1908464D1*
X1113877Y1903218D1*
X1119679Y1897711D1*
X1125232Y1891954D1*
X1130526Y1885957D1*
X1135551Y1879732D1*
X1140296Y1873292D1*
X1144752Y1866649D1*
X1148911Y1859816D1*
X1152764Y1852806D1*
X1156304Y1845632D1*
X1159525Y1838310D1*
X1162419Y1830853D1*
X1164982Y1823275D1*
X1167208Y1815591D1*
X1169092Y1807817D1*
X1170632Y1799967D1*
X1171000Y1797700D1*
Y3620516D1*
X1167787Y3615807D1*
X1162964Y3609426D1*
X1157789Y3603327D1*
X1152279Y3597528D1*
X1146452Y3592048D1*
X1140325Y3586905D1*
X1133919Y3582115D1*
X1127254Y3577693D1*
X1120351Y3573652D1*
X1113231Y3570007D1*
X1105917Y3566768D1*
X1098433Y3563945D1*
X1090801Y3561548D1*
X1083047Y3559584D1*
X1075195Y3558059D1*
X1067269Y3556978D1*
X1059295Y3556345D1*
X1051299Y3556162D1*
X1043304Y3556429D1*
X1035337Y3557145D1*
X1027423Y3558308D1*
X1019587Y3559914D1*
X1011854Y3561959D1*
X1004248Y3564436D1*
X996794Y3567336D1*
X989514Y3570652D1*
X982433Y3574371D1*
X975572Y3578483D1*
X968953Y3582975D1*
X962597Y3587832D1*
X956525Y3593038D1*
X950755Y3598578D1*
X945306Y3604434D1*
X940195Y3610587D1*
X935438Y3617018D1*
X931050Y3623706D1*
X927046Y3630631D1*
X923438Y3637770D1*
X920237Y3645100D1*
X917453Y3652599D1*
X915096Y3660243D1*
X913172Y3668007D1*
X911688Y3675867D1*
X910649Y3683798D1*
X910058Y3691775D1*
X909916Y3699773D1*
X910224Y3707766D1*
X910982Y3715729D1*
X912186Y3723637D1*
X913834Y3731464D1*
X915919Y3739187D1*
X918435Y3746779D1*
X921374Y3754219D1*
X924727Y3761481D1*
X928484Y3768543D1*
X932631Y3775382D1*
X937157Y3781978D1*
X942047Y3788308D1*
X947285Y3794353D1*
X952855Y3800094D1*
X958740Y3805513D1*
X964919Y3810592D1*
X971375Y3815315D1*
X978086Y3819667D1*
X985031Y3823636D1*
X992189Y3827207D1*
X999536Y3830370D1*
X1007049Y3833114D1*
X1014705Y3835432D1*
X1022479Y3837315D1*
X1030347Y3838757D1*
X1038283Y3839755D1*
X1046263Y3840305D1*
X1054262Y3840405D1*
X1062253Y3840055D1*
X1070212Y3839256D1*
X1078113Y3838010D1*
X1085932Y3836322D1*
X1093643Y3834197D1*
X1101223Y3831641D1*
X1108647Y3828663D1*
X1115892Y3825272D1*
X1122934Y3821479D1*
X1129752Y3817296D1*
X1136323Y3812736D1*
X1142628Y3807813D1*
X1148646Y3802543D1*
X1154358Y3796943D1*
X1159746Y3791031D1*
X1164792Y3784825D1*
X1169482Y3778345D1*
X1171007Y3776038D1*
X1171000Y5430984D1*
X755980Y5430978D1*
X763908Y5429922D1*
X771726Y5428236D1*
X779384Y5425930D1*
X786833Y5423019D1*
X794026Y5419521D1*
X800915Y5415459D1*
X807458Y5410859D1*
X813611Y5405751D1*
X819337Y5400166D1*
X824597Y5394142D1*
X829358Y5387716D1*
X833591Y5380929D1*
X837266Y5373826D1*
X840362Y5366452D1*
X842858Y5358853D1*
X844738Y5351079D1*
X845990Y5343180D1*
X846607Y5335206D1*
X846596Y5327501D1*
X845956Y5319529D1*
X844680Y5311633D1*
X842777Y5303865D1*
X840259Y5296274D1*
X837142Y5288909D1*
X833445Y5281816D1*
X829193Y5275043D1*
X824413Y5268630D1*
X819135Y5262621D1*
X813393Y5257054D1*
X807225Y5251963D1*
X800669Y5247382D1*
X793767Y5243341D1*
X786565Y5239864D1*
X779107Y5236975D1*
X771442Y5234691D1*
X763619Y5233028D1*
X755688Y5231996D1*
X747700Y5231602D1*
X621653Y5231645D1*
X613675Y5232210D1*
X605768Y5233413D1*
X597983Y5235243D1*
X590369Y5237691D1*
X582975Y5240740D1*
X575848Y5244371D1*
X569035Y5248560D1*
X562579Y5253280D1*
X556521Y5258502D1*
X550901Y5264192D1*
X545753Y5270313D1*
X541112Y5276826D1*
X537006Y5283690D1*
X533463Y5290860D1*
X530504Y5298291D1*
X528150Y5305934D1*
X526414Y5313741D1*
X525309Y5321662D1*
X524840Y5329647D1*
X525012Y5337643D1*
X525823Y5345599D1*
X527268Y5353466D1*
X529337Y5361191D1*
X532018Y5368726D1*
X535293Y5376023D1*
X539141Y5383034D1*
X543537Y5389715D1*
X548454Y5396023D1*
X553860Y5401917D1*
X559720Y5407360D1*
X565997Y5412317D1*
X572650Y5416756D1*
X579636Y5420649D1*
X586912Y5423970D1*
X594430Y5426698D1*
X602142Y5428817D1*
X609999Y5430311D1*
X616005Y5431001D1*
X413016Y5431000D1*
X413000Y3776141D1*
X417039Y3781978D1*
X421929Y3788308D1*
X427167Y3794353D1*
X432737Y3800094D1*
X438621Y3805513D1*
X444801Y3810592D1*
X451257Y3815315D1*
X457968Y3819667D1*
X464913Y3823636D1*
X472071Y3827207D1*
X479418Y3830370D1*
X486931Y3833114D1*
X494587Y3835432D1*
X502361Y3837315D1*
X510229Y3838757D1*
X518165Y3839755D1*
X526145Y3840305D1*
X534144Y3840405D1*
X542135Y3840055D1*
X550094Y3839256D1*
X557995Y3838010D1*
X565814Y3836322D1*
X573525Y3834197D1*
X581105Y3831641D1*
X588529Y3828663D1*
X595773Y3825272D1*
X602816Y3821479D1*
X609634Y3817296D1*
X616205Y3812736D1*
X622510Y3807813D1*
X628528Y3802543D1*
X634240Y3796943D1*
X639627Y3791031D1*
X644674Y3784825D1*
X649364Y3778345D1*
X653681Y3771611D1*
X657613Y3764645D1*
X661147Y3757469D1*
X664271Y3750106D1*
X666977Y3742578D1*
X669254Y3734910D1*
X671097Y3727127D1*
X672498Y3719251D1*
X673455Y3711310D1*
X673963Y3703327D1*
X673996Y3694292D1*
X673546Y3686306D1*
X672648Y3678357D1*
X671303Y3670472D1*
X669518Y3662675D1*
X667296Y3654991D1*
X664646Y3647444D1*
X661575Y3640058D1*
X658094Y3632856D1*
X654213Y3625862D1*
X649945Y3619097D1*
X645302Y3612582D1*
X640301Y3606340D1*
X634957Y3600388D1*
X629286Y3594747D1*
X623307Y3589434D1*
X617038Y3584465D1*
X610500Y3579857D1*
X603713Y3575624D1*
X596698Y3571780D1*
X589478Y3568336D1*
X582077Y3565304D1*
X574516Y3562693D1*
X566820Y3560511D1*
X559014Y3558766D1*
X551122Y3557463D1*
X543169Y3556606D1*
X535180Y3556197D1*
X527181Y3556239D1*
X519198Y3556731D1*
X511254Y3557671D1*
X503376Y3559056D1*
X495588Y3560882D1*
X487916Y3563144D1*
X480383Y3565834D1*
X473013Y3568943D1*
X465829Y3572462D1*
X458855Y3576379D1*
X452112Y3580682D1*
X445623Y3585358D1*
X439406Y3590392D1*
X433483Y3595768D1*
X427871Y3601468D1*
X422589Y3607475D1*
X417653Y3613769D1*
X413003Y3620450D1*
X413000Y1797766D1*
X414763Y1807153D1*
X416619Y1814934D1*
X418816Y1822626D1*
X421350Y1830213D1*
X424216Y1837681D1*
X427409Y1845016D1*
X430923Y1852202D1*
X434750Y1859226D1*
X438883Y1866075D1*
X443314Y1872735D1*
X448035Y1879193D1*
X453036Y1885436D1*
X458307Y1891453D1*
X463839Y1897231D1*
X469621Y1902760D1*
X475640Y1908028D1*
X481886Y1913026D1*
X488347Y1917743D1*
X495009Y1922171D1*
X501860Y1926300D1*
X508887Y1930123D1*
X516075Y1933633D1*
X523411Y1936822D1*
X530881Y1939684D1*
X538470Y1942214D1*
X546163Y1944406D1*
X553945Y1946258D1*
X561801Y1947764D1*
X569716Y1948922D1*
X577675Y1949730D1*
X585661Y1950186D1*
X593660Y1950289D1*
X601655Y1950039D1*
X609632Y1949437D1*
X617574Y1948484D1*
X625467Y1947181D1*
X633294Y1945531D1*
X641041Y1943538D1*
X648693Y1941204D1*
X656234Y1938536D1*
X663650Y1935537D1*
X670927Y1932215D1*
X678050Y1928574D1*
X685005Y1924623D1*
X691779Y1920369D1*
X698359Y1915820D1*
X704732Y1910985D1*
X710886Y1905874D1*
X716808Y1900497D1*
X722487Y1894863D1*
X727912Y1888985D1*
X733073Y1882872D1*
X737959Y1876538D1*
X742560Y1869995D1*
X746869Y1863255D1*
X750876Y1856332D1*
X754574Y1849239D1*
X757955Y1841989D1*
X761013Y1834597D1*
X763742Y1827078D1*
X766137Y1819445D1*
X768193Y1811715D1*
X769906Y1803901D1*
X771272Y1796019D1*
X772289Y1788085D1*
X772956Y1780113D1*
X773270Y1772120D1*
X773252Y1765000D1*
X772900Y1757009D1*
X772195Y1749041D1*
X771139Y1741111D1*
X769734Y1733236D1*
X767983Y1725431D1*
X765890Y1717710D1*
X763458Y1710089D1*
X760693Y1702583D1*
X757599Y1695206D1*
X754182Y1687973D1*
X750450Y1680898D1*
X746410Y1673994D1*
X742068Y1667275D1*
X737435Y1660754D1*
X732519Y1654444D1*
X727328Y1648357D1*
X721875Y1642505D1*
X716168Y1636899D1*
X710220Y1631550D1*
X704042Y1626469D1*
X697646Y1621665D1*
X691043Y1617149D1*
X684249Y1612927D1*
X677274Y1609010D1*
X670134Y1605404D1*
X662841Y1602117D1*
X655410Y1599154D1*
X647856Y1596522D1*
X640194Y1594226D1*
X632437Y1592271D1*
X624602Y1590659D1*
X616703Y1589394D1*
X608756Y1588479D1*
X600777Y1587916D1*
X592780Y1587705D1*
X584782Y1587847D1*
X576798Y1588342D1*
X568843Y1589188D1*
X560934Y1590385D1*
X553085Y1591929D1*
X545312Y1593818D1*
X537630Y1596048D1*
X530053Y1598615D1*
X522598Y1601513D1*
X515277Y1604738D1*
X508106Y1608282D1*
X501098Y1612139D1*
X494267Y1616302D1*
X487626Y1620762D1*
X481189Y1625510D1*
X474967Y1630538D1*
X468973Y1635836D1*
X463218Y1641392D1*
X457715Y1647197D1*
X452472Y1653239D1*
X447502Y1659507D1*
X442812Y1665988D1*
X438414Y1672669D1*
X434314Y1679538D1*
X430521Y1686581D1*
X427042Y1693784D1*
X423885Y1701134D1*
X421055Y1708616D1*
X418558Y1716216D1*
X416398Y1723918D1*
X414580Y1731708D1*
X413001Y1740266D1*
X413000Y1322766D1*
X414763Y1332153D1*
X416619Y1339934D1*
X418816Y1347626D1*
X421350Y1355213D1*
X424216Y1362681D1*
X427409Y1370016D1*
X430923Y1377202D1*
X434750Y1384226D1*
X438883Y1391075D1*
X443314Y1397735D1*
X448035Y1404193D1*
X453036Y1410436D1*
X458307Y1416453D1*
X463839Y1422231D1*
X469621Y1427760D1*
X475640Y1433028D1*
X481886Y1438026D1*
X488347Y1442743D1*
X495009Y1447171D1*
X501860Y1451300D1*
X508887Y1455123D1*
X516075Y1458633D1*
X523411Y1461822D1*
X530881Y1464684D1*
X538470Y1467214D1*
X546163Y1469406D1*
X553945Y1471258D1*
X561801Y1472764D1*
X569716Y1473922D1*
X577675Y1474730D1*
X585661Y1475186D1*
X593660Y1475289D1*
X601655Y1475039D1*
X609632Y1474437D1*
X617574Y1473484D1*
X625467Y1472181D1*
X633294Y1470531D1*
X641041Y1468538D1*
X648693Y1466204D1*
X656234Y1463536D1*
X663650Y1460537D1*
X670927Y1457215D1*
X678050Y1453574D1*
X685005Y1449623D1*
X691779Y1445369D1*
X698359Y1440820D1*
X704732Y1435985D1*
X710886Y1430874D1*
X716808Y1425497D1*
X722487Y1419863D1*
X727912Y1413985D1*
X733073Y1407872D1*
X737959Y1401538D1*
X742560Y1394995D1*
X746869Y1388255D1*
X750876Y1381332D1*
X754574Y1374239D1*
X757955Y1366989D1*
X761013Y1359597D1*
X763742Y1352078D1*
X766137Y1344445D1*
X768193Y1336715D1*
X769906Y1328901D1*
X771272Y1321019D1*
X772289Y1313085D1*
X772956Y1305113D1*
X773270Y1297120D1*
X773252Y1290000D1*
X772900Y1282009D1*
X772195Y1274041D1*
X771139Y1266111D1*
X769734Y1258236D1*
X767983Y1250431D1*
X765890Y1242710D1*
X763458Y1235089D1*
X760693Y1227583D1*
X757599Y1220206D1*
X754182Y1212973D1*
X750450Y1205898D1*
X746410Y1198994D1*
X742068Y1192275D1*
X737435Y1185754D1*
X732519Y1179444D1*
X727328Y1173357D1*
X721875Y1167505D1*
X716168Y1161899D1*
X710220Y1156550D1*
X704042Y1151469D1*
X697646Y1146665D1*
X691043Y1142149D1*
X684249Y1137927D1*
X677274Y1134010D1*
X670134Y1130404D1*
X662841Y1127117D1*
X655410Y1124154D1*
X647856Y1121522D1*
X640194Y1119226D1*
X632437Y1117271D1*
X624602Y1115659D1*
X616703Y1114394D1*
X608756Y1113479D1*
X600777Y1112916D1*
X592780Y1112705D1*
X584782Y1112847D1*
X576798Y1113342D1*
X568843Y1114188D1*
X560934Y1115385D1*
X553085Y1116929D1*
X545312Y1118818D1*
X537630Y1121048D1*
X530053Y1123615D1*
X522598Y1126513D1*
X515277Y1129738D1*
X508106Y1133282D1*
X501098Y1137139D1*
X494267Y1141302D1*
X487626Y1145762D1*
X481189Y1150510D1*
X474967Y1155538D1*
X468973Y1160836D1*
X463218Y1166392D1*
X457715Y1172197D1*
X452472Y1178239D1*
X447502Y1184507D1*
X442812Y1190988D1*
X438414Y1197669D1*
X434314Y1204538D1*
X430521Y1211581D1*
X427042Y1218784D1*
X423885Y1226134D1*
X421055Y1233616D1*
X418558Y1241216D1*
X416398Y1248918D1*
X414580Y1256708D1*
X413001Y1265266D1*
X413000Y413016D1*
X595953Y413000D1*
X590369Y414856D1*
X582975Y417905D1*
X575848Y421536D1*
X569035Y425725D1*
X562579Y430446D1*
X556521Y435667D1*
X550901Y441357D1*
X545753Y447478D1*
X541112Y453992D1*
X537006Y460855D1*
X533463Y468025D1*
X530504Y475456D1*
X528150Y483099D1*
X526414Y490907D1*
X525309Y498828D1*
X524840Y506812D1*
X525012Y514808D1*
X525823Y522765D1*
X527268Y530631D1*
X529337Y538356D1*
X532018Y545892D1*
X535293Y553188D1*
X539141Y560200D1*
X543537Y566881D1*
X548454Y573188D1*
X553860Y579083D1*
X559720Y584526D1*
X565997Y589483D1*
X572650Y593922D1*
X579636Y597814D1*
X586912Y601135D1*
X594430Y603864D1*
X602142Y605982D1*
X609999Y607477D1*
X617951Y608338D1*
X624711Y608551D1*
X747993Y608561D1*
X755980Y608143D1*
X763908Y607088D1*
X771726Y605402D1*
X779384Y603096D1*
X786833Y600184D1*
X794026Y596687D1*
X800915Y592625D1*
X807458Y588025D1*
X813611Y582916D1*
X819337Y577332D1*
X824597Y571307D1*
X829358Y564881D1*
X833591Y558095D1*
X837266Y550991D1*
X840362Y543617D1*
X842858Y536019D1*
X844738Y528245D1*
X845990Y520346D1*
X846607Y512372D1*
X846596Y504666D1*
X845956Y496694D1*
X844680Y488799D1*
X842777Y481030D1*
X840259Y473439D1*
X837142Y466074D1*
X833445Y458982D1*
X829193Y452208D1*
X824413Y445796D1*
X819135Y439787D1*
X813393Y434219D1*
X807225Y429128D1*
X800669Y424548D1*
X793767Y420506D1*
X786565Y417029D1*
X779107Y414140D1*
X775550Y413002D1*
X1170984Y413000D1*
X1171000Y1265234D1*
X1151575Y929301D2*
X1151125Y921314D1*
X1150226Y913366D1*
X1148882Y905481D1*
X1147096Y897684D1*
X1144875Y889999D1*
X1142225Y882452D1*
X1139154Y875066D1*
X1135673Y867865D1*
X1131792Y860870D1*
X1127523Y854105D1*
X1122881Y847591D1*
X1117880Y841348D1*
X1112535Y835397D1*
X1106865Y829756D1*
X1100885Y824442D1*
X1094617Y819474D1*
X1088079Y814866D1*
X1081291Y810633D1*
X1074277Y806788D1*
X1067057Y803344D1*
X1059655Y800312D1*
X1052094Y797701D1*
X1044399Y795520D1*
X1036592Y793775D1*
X1028700Y792472D1*
X1020747Y791614D1*
X1012759Y791206D1*
X1004760Y791248D1*
X996776Y791739D1*
X988833Y792679D1*
X980955Y794065D1*
X973167Y795891D1*
X965494Y798153D1*
X957961Y800842D1*
X950591Y803951D1*
X943408Y807470D1*
X936434Y811388D1*
X929691Y815691D1*
X923201Y820367D1*
X916985Y825401D1*
X911061Y830776D1*
X905450Y836476D1*
X900167Y842483D1*
X895232Y848778D1*
X890658Y855340D1*
X886460Y862149D1*
X882652Y869183D1*
X879246Y876421D1*
X876253Y883839D1*
X873681Y891413D1*
X871540Y899120D1*
X869835Y906935D1*
X868573Y914834D1*
X867758Y922791D1*
X867391Y930782D1*
X867474Y938780D1*
X868008Y946761D1*
X868989Y954700D1*
X870415Y962571D1*
X872282Y970349D1*
X874584Y978009D1*
X877313Y985528D1*
X880460Y992882D1*
X884016Y1000047D1*
X887970Y1007001D1*
X892309Y1013721D1*
X897018Y1020186D1*
X902084Y1026376D1*
X907491Y1032272D1*
X913220Y1037854D1*
X919254Y1043104D1*
X925574Y1048007D1*
X932160Y1052547D1*
X938991Y1056709D1*
X946045Y1060480D1*
X953301Y1063848D1*
X960734Y1066803D1*
X968321Y1069335D1*
X976039Y1071436D1*
X983863Y1073100D1*
X991769Y1074321D1*
X999730Y1075095D1*
X1007722Y1075420D1*
X1015720Y1075295D1*
X1023699Y1074720D1*
X1031632Y1073698D1*
X1039495Y1072230D1*
X1047263Y1070323D1*
X1054912Y1067981D1*
X1062417Y1065213D1*
X1069754Y1062027D1*
X1076900Y1058434D1*
X1083833Y1054444D1*
X1090530Y1050071D1*
X1096971Y1045327D1*
X1103135Y1040229D1*
X1109002Y1034792D1*
X1114554Y1029034D1*
X1119773Y1022972D1*
X1124643Y1016627D1*
X1129149Y1010017D1*
X1133275Y1003165D1*
X1137009Y996091D1*
X1140340Y988818D1*
X1143256Y981370D1*
X1145748Y973769D1*
X1147809Y966040D1*
X1149432Y958208D1*
X1150611Y950296D1*
X1151344Y942331D1*
X1151631Y933300D1*
X1151575Y929301D1*
X1032318Y3340000D2*
X1031819Y3328012D1*
X1030723Y3316063D1*
X1029031Y3304184D1*
X1026749Y3292405D1*
X1023881Y3280754D1*
X1020436Y3269260D1*
X1016421Y3257953D1*
X1011847Y3246860D1*
X1006725Y3236010D1*
X1001068Y3225428D1*
X994890Y3215142D1*
X988207Y3205177D1*
X981034Y3195558D1*
X973391Y3186309D1*
X965295Y3177453D1*
X956767Y3169012D1*
X947829Y3161007D1*
X938502Y3153459D1*
X928810Y3146385D1*
X918778Y3139803D1*
X908429Y3133731D1*
X897790Y3128182D1*
X886888Y3123171D1*
X875749Y3118711D1*
X864401Y3114812D1*
X852873Y3111485D1*
X841193Y3108736D1*
X829391Y3106575D1*
X817496Y3105004D1*
X805536Y3104030D1*
X793544Y3103653D1*
X781547Y3103876D1*
X769576Y3104697D1*
X757661Y3106114D1*
X745832Y3108124D1*
X734118Y3110722D1*
X722548Y3113901D1*
X711152Y3117654D1*
X699956Y3121971D1*
X688990Y3126841D1*
X678281Y3132253D1*
X667855Y3138192D1*
X657739Y3144644D1*
X647957Y3151593D1*
X638534Y3159021D1*
X629494Y3166910D1*
X620859Y3175241D1*
X612650Y3183992D1*
X604888Y3193142D1*
X597592Y3202668D1*
X590781Y3212547D1*
X584472Y3222752D1*
X578679Y3233260D1*
X573419Y3244044D1*
X568703Y3255078D1*
X564543Y3266332D1*
X560950Y3277781D1*
X557934Y3289394D1*
X555500Y3301143D1*
X553656Y3312999D1*
X552406Y3324933D1*
X551753Y3336914D1*
X551699Y3348913D1*
X552243Y3360899D1*
X553385Y3372843D1*
X555122Y3384716D1*
X557449Y3396486D1*
X560361Y3408127D1*
X563850Y3419607D1*
X567907Y3430899D1*
X572523Y3441974D1*
X577686Y3452805D1*
X583383Y3463365D1*
X589600Y3473628D1*
X596322Y3483567D1*
X603531Y3493159D1*
X611210Y3502379D1*
X619339Y3511204D1*
X627899Y3519612D1*
X636867Y3527583D1*
X646222Y3535096D1*
X655941Y3542134D1*
X665999Y3548677D1*
X676370Y3554710D1*
X687030Y3560218D1*
X697951Y3565187D1*
X709107Y3569605D1*
X720470Y3573461D1*
X732010Y3576745D1*
X743700Y3579449D1*
X755511Y3581566D1*
X767412Y3583091D1*
X779375Y3584020D1*
X791369Y3584351D1*
X803365Y3584083D1*
X815332Y3583217D1*
X827242Y3581754D1*
X839063Y3579699D1*
X850767Y3577057D1*
X862325Y3573833D1*
X873708Y3570037D1*
X884886Y3565678D1*
X895834Y3560766D1*
X906522Y3555314D1*
X916925Y3549335D1*
X927017Y3542845D1*
X936773Y3535859D1*
X946167Y3528395D1*
X955177Y3520471D1*
X963781Y3512108D1*
X971957Y3503325D1*
X979684Y3494146D1*
X986943Y3484592D1*
X993716Y3474688D1*
X999987Y3464458D1*
X1005740Y3453929D1*
X1010959Y3443125D1*
X1015634Y3432074D1*
X1019750Y3420803D1*
X1023299Y3409341D1*
X1026272Y3397717D1*
X1028661Y3385958D1*
X1030460Y3374095D1*
X1031665Y3362157D1*
X1032272Y3350174D1*
X1032318Y3340000D1*
Y4115000D2*
X1031819Y4103012D1*
X1030723Y4091063D1*
X1029031Y4079184D1*
X1026749Y4067405D1*
X1023881Y4055754D1*
X1020436Y4044260D1*
X1016421Y4032953D1*
X1011847Y4021860D1*
X1006725Y4011010D1*
X1001068Y4000428D1*
X994890Y3990142D1*
X988207Y3980177D1*
X981034Y3970558D1*
X973391Y3961309D1*
X965295Y3952453D1*
X956767Y3944012D1*
X947829Y3936007D1*
X938502Y3928459D1*
X928810Y3921385D1*
X918778Y3914803D1*
X908429Y3908731D1*
X897790Y3903182D1*
X886888Y3898171D1*
X875749Y3893711D1*
X864401Y3889812D1*
X852873Y3886485D1*
X841193Y3883736D1*
X829391Y3881575D1*
X817496Y3880004D1*
X805536Y3879030D1*
X793544Y3878653D1*
X781547Y3878876D1*
X769576Y3879697D1*
X757661Y3881114D1*
X745832Y3883124D1*
X734118Y3885722D1*
X722548Y3888901D1*
X711152Y3892654D1*
X699956Y3896971D1*
X688990Y3901841D1*
X678281Y3907253D1*
X667855Y3913192D1*
X657739Y3919644D1*
X647957Y3926593D1*
X638534Y3934021D1*
X629494Y3941910D1*
X620859Y3950241D1*
X612650Y3958992D1*
X604888Y3968142D1*
X597592Y3977668D1*
X590781Y3987547D1*
X584472Y3997752D1*
X578679Y4008260D1*
X573419Y4019044D1*
X568703Y4030078D1*
X564543Y4041332D1*
X560950Y4052781D1*
X557934Y4064394D1*
X555500Y4076143D1*
X553656Y4087999D1*
X552406Y4099933D1*
X551753Y4111914D1*
X551699Y4123913D1*
X552243Y4135899D1*
X553385Y4147843D1*
X555122Y4159716D1*
X557449Y4171486D1*
X560361Y4183127D1*
X563850Y4194607D1*
X567907Y4205899D1*
X572523Y4216974D1*
X577686Y4227805D1*
X583383Y4238365D1*
X589600Y4248628D1*
X596322Y4258567D1*
X603531Y4268159D1*
X611210Y4277379D1*
X619339Y4286204D1*
X627899Y4294612D1*
X636867Y4302583D1*
X646222Y4310096D1*
X655941Y4317134D1*
X665999Y4323677D1*
X676370Y4329710D1*
X687030Y4335218D1*
X697951Y4340187D1*
X709107Y4344605D1*
X720470Y4348461D1*
X732010Y4351745D1*
X743700Y4354449D1*
X755511Y4356566D1*
X767412Y4358091D1*
X779375Y4359020D1*
X791369Y4359351D1*
X803365Y4359083D1*
X815332Y4358217D1*
X827242Y4356754D1*
X839063Y4354699D1*
X850767Y4352057D1*
X862325Y4348833D1*
X873708Y4345037D1*
X884886Y4340678D1*
X895834Y4335766D1*
X906522Y4330314D1*
X916925Y4324335D1*
X927017Y4317845D1*
X936773Y4310859D1*
X946167Y4303395D1*
X955177Y4295471D1*
X963781Y4287108D1*
X971957Y4278325D1*
X979684Y4269146D1*
X986943Y4259592D1*
X993716Y4249688D1*
X999987Y4239458D1*
X1005740Y4228929D1*
X1010959Y4218125D1*
X1015634Y4207074D1*
X1019750Y4195803D1*
X1023299Y4184341D1*
X1026272Y4172717D1*
X1028661Y4160958D1*
X1030460Y4149095D1*
X1031665Y4137157D1*
X1032272Y4125174D1*
X1032318Y4115000D1*
Y4890000D2*
X1031819Y4878012D1*
X1030723Y4866063D1*
X1029031Y4854184D1*
X1026749Y4842405D1*
X1023881Y4830754D1*
X1020436Y4819260D1*
X1016421Y4807953D1*
X1011847Y4796860D1*
X1006725Y4786010D1*
X1001068Y4775428D1*
X994890Y4765142D1*
X988207Y4755177D1*
X981034Y4745558D1*
X973391Y4736309D1*
X965295Y4727453D1*
X956767Y4719012D1*
X947829Y4711007D1*
X938502Y4703459D1*
X928810Y4696385D1*
X918778Y4689803D1*
X908429Y4683731D1*
X897790Y4678182D1*
X886888Y4673171D1*
X875749Y4668711D1*
X864401Y4664812D1*
X852873Y4661485D1*
X841193Y4658736D1*
X829391Y4656575D1*
X817496Y4655004D1*
X805536Y4654030D1*
X793544Y4653653D1*
X781547Y4653876D1*
X769576Y4654697D1*
X757661Y4656114D1*
X745832Y4658124D1*
X734118Y4660722D1*
X722548Y4663901D1*
X711152Y4667654D1*
X699956Y4671971D1*
X688990Y4676841D1*
X678281Y4682253D1*
X667855Y4688192D1*
X657739Y4694644D1*
X647957Y4701593D1*
X638534Y4709021D1*
X629494Y4716910D1*
X620859Y4725241D1*
X612650Y4733992D1*
X604888Y4743142D1*
X597592Y4752668D1*
X590781Y4762547D1*
X584472Y4772752D1*
X578679Y4783260D1*
X573419Y4794044D1*
X568703Y4805078D1*
X564543Y4816332D1*
X560950Y4827781D1*
X557934Y4839394D1*
X555500Y4851143D1*
X553656Y4862999D1*
X552406Y4874933D1*
X551753Y4886914D1*
X551699Y4898913D1*
X552243Y4910899D1*
X553385Y4922843D1*
X555122Y4934716D1*
X557449Y4946486D1*
X560361Y4958127D1*
X563850Y4969607D1*
X567907Y4980899D1*
X572523Y4991974D1*
X577686Y5002805D1*
X583383Y5013365D1*
X589600Y5023628D1*
X596322Y5033567D1*
X603531Y5043159D1*
X611210Y5052379D1*
X619339Y5061204D1*
X627899Y5069612D1*
X636867Y5077583D1*
X646222Y5085096D1*
X655941Y5092134D1*
X665999Y5098677D1*
X676370Y5104710D1*
X687030Y5110218D1*
X697951Y5115187D1*
X709107Y5119605D1*
X720470Y5123461D1*
X732010Y5126745D1*
X743700Y5129449D1*
X755511Y5131566D1*
X767412Y5133091D1*
X779375Y5134020D1*
X791369Y5134351D1*
X803365Y5134083D1*
X815332Y5133217D1*
X827242Y5131754D1*
X839063Y5129699D1*
X850767Y5127057D1*
X862325Y5123833D1*
X873708Y5120037D1*
X884886Y5115678D1*
X895834Y5110766D1*
X906522Y5105314D1*
X916925Y5099335D1*
X927017Y5092845D1*
X936773Y5085859D1*
X946167Y5078395D1*
X955177Y5070471D1*
X963781Y5062108D1*
X971957Y5053325D1*
X979684Y5044146D1*
X986943Y5034592D1*
X993716Y5024688D1*
X999987Y5014458D1*
X1005740Y5003929D1*
X1010959Y4993125D1*
X1015634Y4982074D1*
X1019750Y4970803D1*
X1023299Y4959341D1*
X1026272Y4947717D1*
X1028661Y4935958D1*
X1030460Y4924095D1*
X1031665Y4912157D1*
X1032272Y4900174D1*
X1032318Y4890000D1*
X845194Y883754D2*
X844745Y879781D1*
X844000Y875852D1*
X842962Y871989D1*
X841638Y868216D1*
X840035Y864552D1*
X838162Y861019D1*
X836030Y857636D1*
X833650Y854422D1*
X831036Y851395D1*
X828203Y848573D1*
X825166Y845971D1*
X821943Y843604D1*
X818552Y841484D1*
X815011Y839625D1*
X811341Y838037D1*
X807563Y836727D1*
X803696Y835705D1*
X799765Y834975D1*
X795789Y834542D1*
X791792Y834407D1*
X787797Y834573D1*
X783825Y835037D1*
X779899Y835798D1*
X776041Y836850D1*
X772272Y838189D1*
X768615Y839806D1*
X765089Y841693D1*
X761714Y843838D1*
X758509Y846230D1*
X755493Y848856D1*
X752682Y851700D1*
X750091Y854747D1*
X747737Y857979D1*
X745631Y861379D1*
X743785Y864927D1*
X742211Y868603D1*
X740917Y872387D1*
X739909Y876257D1*
X739194Y880192D1*
X738777Y884169D1*
X738658Y888166D1*
X738839Y892161D1*
X739319Y896131D1*
X740094Y900054D1*
X741162Y903908D1*
X742515Y907671D1*
X744147Y911322D1*
X746047Y914841D1*
X748206Y918208D1*
X750610Y921403D1*
X753248Y924409D1*
X756103Y927209D1*
X759160Y929787D1*
X762401Y932130D1*
X765809Y934222D1*
X769364Y936054D1*
X773046Y937614D1*
X776835Y938894D1*
X780709Y939886D1*
X784647Y940585D1*
X788625Y940988D1*
X792623Y941091D1*
X796617Y940894D1*
X800586Y940399D1*
X804506Y939608D1*
X808355Y938525D1*
X812113Y937157D1*
X815758Y935512D1*
X819269Y933598D1*
X822627Y931426D1*
X825813Y929009D1*
X828809Y926360D1*
X831598Y923494D1*
X834164Y920427D1*
X836494Y917176D1*
X838573Y913760D1*
X840391Y910198D1*
X841937Y906510D1*
X843202Y902716D1*
X844179Y898838D1*
X844863Y894898D1*
X845250Y890918D1*
X845344Y887751D1*
X845194Y883754D1*
Y1044703D2*
X844745Y1040729D1*
X844000Y1036800D1*
X842962Y1032938D1*
X841638Y1029165D1*
X840035Y1025501D1*
X838162Y1021968D1*
X836030Y1018584D1*
X833650Y1015371D1*
X831036Y1012344D1*
X828203Y1009522D1*
X825166Y1006920D1*
X821943Y1004552D1*
X818552Y1002433D1*
X815011Y1000574D1*
X811341Y998986D1*
X807563Y997676D1*
X803696Y996654D1*
X799765Y995924D1*
X795789Y995490D1*
X791792Y995356D1*
X787797Y995522D1*
X783825Y995986D1*
X779899Y996746D1*
X776041Y997799D1*
X772272Y999138D1*
X768615Y1000755D1*
X765089Y1002641D1*
X761714Y1004787D1*
X758509Y1007179D1*
X755493Y1009805D1*
X752682Y1012649D1*
X750091Y1015696D1*
X747737Y1018928D1*
X745631Y1022328D1*
X743785Y1025876D1*
X742211Y1029552D1*
X740917Y1033336D1*
X739909Y1037206D1*
X739194Y1041140D1*
X738777Y1045118D1*
X738658Y1049115D1*
X738839Y1053110D1*
X739319Y1057080D1*
X740094Y1061003D1*
X741162Y1064857D1*
X742515Y1068620D1*
X744147Y1072271D1*
X746047Y1075790D1*
X748206Y1079156D1*
X750610Y1082352D1*
X753248Y1085358D1*
X756103Y1088158D1*
X759160Y1090736D1*
X762401Y1093078D1*
X765809Y1095171D1*
X769364Y1097003D1*
X773046Y1098563D1*
X776835Y1099842D1*
X780709Y1100835D1*
X784647Y1101534D1*
X788625Y1101936D1*
X792623Y1102040D1*
X796617Y1101843D1*
X800586Y1101348D1*
X804506Y1100557D1*
X808355Y1099474D1*
X812113Y1098106D1*
X815758Y1096461D1*
X819269Y1094547D1*
X822627Y1092375D1*
X825813Y1089958D1*
X828809Y1087309D1*
X831598Y1084443D1*
X834164Y1081376D1*
X836494Y1078125D1*
X838573Y1074709D1*
X840391Y1071147D1*
X841937Y1067459D1*
X843202Y1063665D1*
X844179Y1059787D1*
X844863Y1055847D1*
X845250Y1051867D1*
X845344Y1048699D1*
X845194Y1044703D1*
X545194Y4140004D2*
X544745Y4136030D1*
X544000Y4132101D1*
X542962Y4128239D1*
X541638Y4124465D1*
X540035Y4120802D1*
X538162Y4117268D1*
X536030Y4113885D1*
X533650Y4110671D1*
X531036Y4107645D1*
X528203Y4104822D1*
X525166Y4102220D1*
X521943Y4099853D1*
X518552Y4097734D1*
X515011Y4095875D1*
X511341Y4094286D1*
X507563Y4092977D1*
X503696Y4091954D1*
X499765Y4091224D1*
X495789Y4090791D1*
X491792Y4090657D1*
X487797Y4090822D1*
X483825Y4091286D1*
X479899Y4092047D1*
X476041Y4093100D1*
X472272Y4094438D1*
X468615Y4096055D1*
X465089Y4097942D1*
X461714Y4100087D1*
X458509Y4102480D1*
X455493Y4105105D1*
X452682Y4107950D1*
X450091Y4110996D1*
X447737Y4114229D1*
X445631Y4117628D1*
X443785Y4121176D1*
X442211Y4124852D1*
X440917Y4128636D1*
X439909Y4132506D1*
X439194Y4136441D1*
X438777Y4140418D1*
X438658Y4144415D1*
X438839Y4148410D1*
X439319Y4152381D1*
X440094Y4156304D1*
X441162Y4160158D1*
X442515Y4163921D1*
X444147Y4167572D1*
X446047Y4171091D1*
X448206Y4174457D1*
X450610Y4177652D1*
X453248Y4180658D1*
X456103Y4183458D1*
X459160Y4186037D1*
X462401Y4188379D1*
X465809Y4190472D1*
X469364Y4192303D1*
X473046Y4193863D1*
X476835Y4195143D1*
X480709Y4196135D1*
X484647Y4196835D1*
X488625Y4197237D1*
X492623Y4197340D1*
X496617Y4197144D1*
X500586Y4196648D1*
X504506Y4195857D1*
X508355Y4194775D1*
X512113Y4193407D1*
X515758Y4191761D1*
X519269Y4189847D1*
X522627Y4187675D1*
X525813Y4185258D1*
X528809Y4182609D1*
X531598Y4179743D1*
X534164Y4176676D1*
X536494Y4173426D1*
X538573Y4170010D1*
X540391Y4166448D1*
X541937Y4162759D1*
X543202Y4158966D1*
X544179Y4155088D1*
X544863Y4151148D1*
X545250Y4147167D1*
X545344Y4144000D1*
X545194Y4140004D1*
Y4340004D2*
X544745Y4336030D1*
X544000Y4332101D1*
X542962Y4328239D1*
X541638Y4324465D1*
X540035Y4320802D1*
X538162Y4317268D1*
X536030Y4313885D1*
X533650Y4310671D1*
X531036Y4307645D1*
X528203Y4304822D1*
X525166Y4302220D1*
X521943Y4299853D1*
X518552Y4297734D1*
X515011Y4295875D1*
X511341Y4294286D1*
X507563Y4292977D1*
X503696Y4291954D1*
X499765Y4291224D1*
X495789Y4290791D1*
X491792Y4290657D1*
X487797Y4290822D1*
X483825Y4291286D1*
X479899Y4292047D1*
X476041Y4293100D1*
X472272Y4294438D1*
X468615Y4296055D1*
X465089Y4297942D1*
X461714Y4300087D1*
X458509Y4302480D1*
X455493Y4305105D1*
X452682Y4307950D1*
X450091Y4310996D1*
X447737Y4314229D1*
X445631Y4317628D1*
X443785Y4321176D1*
X442211Y4324852D1*
X440917Y4328636D1*
X439909Y4332506D1*
X439194Y4336441D1*
X438777Y4340418D1*
X438658Y4344415D1*
X438839Y4348410D1*
X439319Y4352381D1*
X440094Y4356304D1*
X441162Y4360158D1*
X442515Y4363921D1*
X444147Y4367572D1*
X446047Y4371091D1*
X448206Y4374457D1*
X450610Y4377652D1*
X453248Y4380658D1*
X456103Y4383458D1*
X459160Y4386037D1*
X462401Y4388379D1*
X465809Y4390472D1*
X469364Y4392303D1*
X473046Y4393863D1*
X476835Y4395143D1*
X480709Y4396135D1*
X484647Y4396835D1*
X488625Y4397237D1*
X492623Y4397340D1*
X496617Y4397144D1*
X500586Y4396648D1*
X504506Y4395857D1*
X508355Y4394775D1*
X512113Y4393407D1*
X515758Y4391761D1*
X519269Y4389847D1*
X522627Y4387675D1*
X525813Y4385258D1*
X528809Y4382609D1*
X531598Y4379743D1*
X534164Y4376676D1*
X536494Y4373426D1*
X538573Y4370010D1*
X540391Y4366448D1*
X541937Y4362759D1*
X543202Y4358966D1*
X544179Y4355088D1*
X544863Y4351148D1*
X545250Y4347167D1*
X545344Y4344000D1*
X545194Y4340004D1*
Y4540004D2*
X544745Y4536030D1*
X544000Y4532101D1*
X542962Y4528239D1*
X541638Y4524465D1*
X540035Y4520802D1*
X538162Y4517268D1*
X536030Y4513885D1*
X533650Y4510671D1*
X531036Y4507645D1*
X528203Y4504822D1*
X525166Y4502220D1*
X521943Y4499853D1*
X518552Y4497734D1*
X515011Y4495875D1*
X511341Y4494286D1*
X507563Y4492977D1*
X503696Y4491954D1*
X499765Y4491224D1*
X495789Y4490791D1*
X491792Y4490657D1*
X487797Y4490822D1*
X483825Y4491286D1*
X479899Y4492047D1*
X476041Y4493100D1*
X472272Y4494438D1*
X468615Y4496055D1*
X465089Y4497942D1*
X461714Y4500087D1*
X458509Y4502480D1*
X455493Y4505105D1*
X452682Y4507950D1*
X450091Y4510996D1*
X447737Y4514229D1*
X445631Y4517628D1*
X443785Y4521176D1*
X442211Y4524852D1*
X440917Y4528636D1*
X439909Y4532506D1*
X439194Y4536441D1*
X438777Y4540418D1*
X438658Y4544415D1*
X438839Y4548410D1*
X439319Y4552381D1*
X440094Y4556304D1*
X441162Y4560158D1*
X442515Y4563921D1*
X444147Y4567572D1*
X446047Y4571091D1*
X448206Y4574457D1*
X450610Y4577652D1*
X453248Y4580658D1*
X456103Y4583458D1*
X459160Y4586037D1*
X462401Y4588379D1*
X465809Y4590472D1*
X469364Y4592303D1*
X473046Y4593863D1*
X476835Y4595143D1*
X480709Y4596135D1*
X484647Y4596835D1*
X488625Y4597237D1*
X492623Y4597340D1*
X496617Y4597144D1*
X500586Y4596648D1*
X504506Y4595857D1*
X508355Y4594775D1*
X512113Y4593407D1*
X515758Y4591761D1*
X519269Y4589847D1*
X522627Y4587675D1*
X525813Y4585258D1*
X528809Y4582609D1*
X531598Y4579743D1*
X534164Y4576676D1*
X536494Y4573426D1*
X538573Y4570010D1*
X540391Y4566448D1*
X541937Y4562759D1*
X543202Y4558966D1*
X544179Y4555088D1*
X544863Y4551148D1*
X545250Y4547167D1*
X545344Y4544000D1*
X545194Y4540004D1*
Y4740004D2*
X544745Y4736030D1*
X544000Y4732101D1*
X542962Y4728239D1*
X541638Y4724465D1*
X540035Y4720802D1*
X538162Y4717268D1*
X536030Y4713885D1*
X533650Y4710671D1*
X531036Y4707645D1*
X528203Y4704822D1*
X525166Y4702220D1*
X521943Y4699853D1*
X518552Y4697734D1*
X515011Y4695875D1*
X511341Y4694286D1*
X507563Y4692977D1*
X503696Y4691954D1*
X499765Y4691224D1*
X495789Y4690791D1*
X491792Y4690657D1*
X487797Y4690822D1*
X483825Y4691286D1*
X479899Y4692047D1*
X476041Y4693100D1*
X472272Y4694438D1*
X468615Y4696055D1*
X465089Y4697942D1*
X461714Y4700087D1*
X458509Y4702480D1*
X455493Y4705105D1*
X452682Y4707950D1*
X450091Y4710996D1*
X447737Y4714229D1*
X445631Y4717628D1*
X443785Y4721176D1*
X442211Y4724852D1*
X440917Y4728636D1*
X439909Y4732506D1*
X439194Y4736441D1*
X438777Y4740418D1*
X438658Y4744415D1*
X438839Y4748410D1*
X439319Y4752381D1*
X440094Y4756304D1*
X441162Y4760158D1*
X442515Y4763921D1*
X444147Y4767572D1*
X446047Y4771091D1*
X448206Y4774457D1*
X450610Y4777652D1*
X453248Y4780658D1*
X456103Y4783458D1*
X459160Y4786037D1*
X462401Y4788379D1*
X465809Y4790472D1*
X469364Y4792303D1*
X473046Y4793863D1*
X476835Y4795143D1*
X480709Y4796135D1*
X484647Y4796835D1*
X488625Y4797237D1*
X492623Y4797340D1*
X496617Y4797144D1*
X500586Y4796648D1*
X504506Y4795857D1*
X508355Y4794775D1*
X512113Y4793407D1*
X515758Y4791761D1*
X519269Y4789847D1*
X522627Y4787675D1*
X525813Y4785258D1*
X528809Y4782609D1*
X531598Y4779743D1*
X534164Y4776676D1*
X536494Y4773426D1*
X538573Y4770010D1*
X540391Y4766448D1*
X541937Y4762759D1*
X543202Y4758966D1*
X544179Y4755088D1*
X544863Y4751148D1*
X545250Y4747167D1*
X545344Y4744000D1*
X545194Y4740004D1*
X1145194Y4140004D2*
X1144745Y4136030D1*
X1144000Y4132101D1*
X1142962Y4128239D1*
X1141638Y4124465D1*
X1140035Y4120802D1*
X1138162Y4117268D1*
X1136030Y4113885D1*
X1133650Y4110671D1*
X1131036Y4107645D1*
X1128203Y4104822D1*
X1125166Y4102220D1*
X1121943Y4099853D1*
X1118552Y4097734D1*
X1115011Y4095875D1*
X1111341Y4094286D1*
X1107563Y4092977D1*
X1103696Y4091954D1*
X1099765Y4091224D1*
X1095789Y4090791D1*
X1091792Y4090657D1*
X1087797Y4090822D1*
X1083825Y4091286D1*
X1079899Y4092047D1*
X1076041Y4093100D1*
X1072272Y4094438D1*
X1068615Y4096055D1*
X1065089Y4097942D1*
X1061714Y4100087D1*
X1058509Y4102480D1*
X1055493Y4105105D1*
X1052682Y4107950D1*
X1050091Y4110996D1*
X1047737Y4114229D1*
X1045631Y4117628D1*
X1043785Y4121176D1*
X1042211Y4124852D1*
X1040917Y4128636D1*
X1039909Y4132506D1*
X1039194Y4136441D1*
X1038777Y4140418D1*
X1038658Y4144415D1*
X1038839Y4148410D1*
X1039319Y4152381D1*
X1040094Y4156304D1*
X1041162Y4160158D1*
X1042515Y4163921D1*
X1044147Y4167572D1*
X1046047Y4171091D1*
X1048206Y4174457D1*
X1050610Y4177652D1*
X1053248Y4180658D1*
X1056103Y4183458D1*
X1059160Y4186037D1*
X1062401Y4188379D1*
X1065809Y4190472D1*
X1069364Y4192303D1*
X1073046Y4193863D1*
X1076835Y4195143D1*
X1080709Y4196135D1*
X1084647Y4196835D1*
X1088625Y4197237D1*
X1092623Y4197340D1*
X1096617Y4197144D1*
X1100586Y4196648D1*
X1104506Y4195857D1*
X1108355Y4194775D1*
X1112113Y4193407D1*
X1115758Y4191761D1*
X1119269Y4189847D1*
X1122627Y4187675D1*
X1125813Y4185258D1*
X1128809Y4182609D1*
X1131598Y4179743D1*
X1134164Y4176676D1*
X1136494Y4173426D1*
X1138573Y4170010D1*
X1140391Y4166448D1*
X1141937Y4162759D1*
X1143202Y4158966D1*
X1144179Y4155088D1*
X1144863Y4151148D1*
X1145250Y4147167D1*
X1145344Y4144000D1*
X1145194Y4140004D1*
X1032318Y2565000D2*
X1031819Y2553012D1*
X1030723Y2541063D1*
X1029031Y2529184D1*
X1026749Y2517405D1*
X1023881Y2505754D1*
X1020436Y2494260D1*
X1016421Y2482953D1*
X1011847Y2471860D1*
X1006725Y2461010D1*
X1001068Y2450428D1*
X994890Y2440142D1*
X988207Y2430177D1*
X981034Y2420558D1*
X973391Y2411309D1*
X965295Y2402453D1*
X956767Y2394012D1*
X947829Y2386007D1*
X938502Y2378459D1*
X928810Y2371385D1*
X918778Y2364803D1*
X908429Y2358731D1*
X897790Y2353182D1*
X886888Y2348171D1*
X875749Y2343711D1*
X864401Y2339812D1*
X852873Y2336485D1*
X841193Y2333736D1*
X829391Y2331575D1*
X817496Y2330004D1*
X805536Y2329030D1*
X793544Y2328653D1*
X781547Y2328876D1*
X769576Y2329697D1*
X757661Y2331114D1*
X745832Y2333124D1*
X734118Y2335722D1*
X722548Y2338901D1*
X711152Y2342654D1*
X699956Y2346971D1*
X688990Y2351841D1*
X678281Y2357253D1*
X667855Y2363192D1*
X657739Y2369644D1*
X647957Y2376593D1*
X638534Y2384021D1*
X629494Y2391910D1*
X620859Y2400241D1*
X612650Y2408992D1*
X604888Y2418142D1*
X597592Y2427668D1*
X590781Y2437547D1*
X584472Y2447752D1*
X578679Y2458260D1*
X573419Y2469044D1*
X568703Y2480078D1*
X564543Y2491332D1*
X560950Y2502781D1*
X557934Y2514394D1*
X555500Y2526143D1*
X553656Y2537999D1*
X552406Y2549933D1*
X551753Y2561914D1*
X551699Y2573913D1*
X552243Y2585899D1*
X553385Y2597843D1*
X555122Y2609716D1*
X557449Y2621486D1*
X560361Y2633127D1*
X563850Y2644607D1*
X567907Y2655899D1*
X572523Y2666974D1*
X577686Y2677805D1*
X583383Y2688365D1*
X589600Y2698628D1*
X596322Y2708567D1*
X603531Y2718159D1*
X611210Y2727379D1*
X619339Y2736204D1*
X627899Y2744612D1*
X636867Y2752583D1*
X646222Y2760096D1*
X655941Y2767134D1*
X665999Y2773677D1*
X676370Y2779710D1*
X687030Y2785218D1*
X697951Y2790187D1*
X709107Y2794605D1*
X720470Y2798461D1*
X732010Y2801745D1*
X743700Y2804449D1*
X755511Y2806566D1*
X767412Y2808091D1*
X779375Y2809020D1*
X791369Y2809351D1*
X803365Y2809083D1*
X815332Y2808217D1*
X827242Y2806754D1*
X839063Y2804699D1*
X850767Y2802057D1*
X862325Y2798833D1*
X873708Y2795037D1*
X884886Y2790678D1*
X895834Y2785766D1*
X906522Y2780314D1*
X916925Y2774335D1*
X927017Y2767845D1*
X936773Y2760859D1*
X946167Y2753395D1*
X955177Y2745471D1*
X963781Y2737108D1*
X971957Y2728325D1*
X979684Y2719146D1*
X986943Y2709592D1*
X993716Y2699688D1*
X999987Y2689458D1*
X1005740Y2678929D1*
X1010959Y2668125D1*
X1015634Y2657074D1*
X1019750Y2645803D1*
X1023299Y2634341D1*
X1026272Y2622717D1*
X1028661Y2610958D1*
X1030460Y2599095D1*
X1031665Y2587157D1*
X1032272Y2575174D1*
X1032318Y2565000D1*
X717274Y928701D2*
X716824Y920714D1*
X715926Y912766D1*
X714582Y904881D1*
X712796Y897084D1*
X710574Y889399D1*
X707924Y881852D1*
X704853Y874466D1*
X701372Y867265D1*
X697491Y860270D1*
X693223Y853505D1*
X688581Y846991D1*
X683579Y840748D1*
X678235Y834797D1*
X672564Y829156D1*
X666585Y823842D1*
X660316Y818874D1*
X653778Y814266D1*
X646991Y810033D1*
X639976Y806188D1*
X632757Y802744D1*
X625355Y799712D1*
X617794Y797101D1*
X610098Y794920D1*
X602292Y793175D1*
X594400Y791872D1*
X586447Y791014D1*
X578458Y790606D1*
X570460Y790648D1*
X562476Y791139D1*
X554532Y792079D1*
X546654Y793465D1*
X538867Y795291D1*
X531194Y797553D1*
X523661Y800242D1*
X516291Y803351D1*
X509107Y806870D1*
X502133Y810788D1*
X495391Y815091D1*
X488901Y819767D1*
X482684Y824801D1*
X476761Y830176D1*
X471149Y835876D1*
X465867Y841883D1*
X460931Y848178D1*
X456357Y854740D1*
X452160Y861549D1*
X448352Y868583D1*
X444946Y875821D1*
X441952Y883239D1*
X439381Y890813D1*
X437239Y898520D1*
X435535Y906335D1*
X434273Y914234D1*
X433457Y922191D1*
X433091Y930182D1*
X433174Y938180D1*
X433707Y946161D1*
X434689Y954100D1*
X436115Y961971D1*
X437982Y969749D1*
X440283Y977409D1*
X443012Y984928D1*
X446160Y992282D1*
X449716Y999447D1*
X453670Y1006401D1*
X458008Y1013121D1*
X462718Y1019586D1*
X467784Y1025776D1*
X473190Y1031672D1*
X478919Y1037254D1*
X484954Y1042504D1*
X491274Y1047407D1*
X497860Y1051947D1*
X504691Y1056109D1*
X511745Y1059880D1*
X519000Y1063248D1*
X526433Y1066203D1*
X534021Y1068735D1*
X541739Y1070836D1*
X549563Y1072500D1*
X557468Y1073721D1*
X565430Y1074495D1*
X573422Y1074820D1*
X581420Y1074695D1*
X589398Y1074120D1*
X597331Y1073098D1*
X605195Y1071630D1*
X612963Y1069723D1*
X620611Y1067381D1*
X628116Y1064613D1*
X635453Y1061427D1*
X642600Y1057834D1*
X649532Y1053844D1*
X656230Y1049471D1*
X662671Y1044727D1*
X668834Y1039629D1*
X674701Y1034192D1*
X680253Y1028434D1*
X685473Y1022372D1*
X690343Y1016027D1*
X694848Y1009417D1*
X698974Y1002565D1*
X702709Y995491D1*
X706039Y988218D1*
X708955Y980770D1*
X711448Y973169D1*
X713508Y965440D1*
X715131Y957608D1*
X716311Y949696D1*
X717044Y941731D1*
X717331Y932700D1*
X717274Y928701D1*
D17*
X685749Y508665D3*
Y5331500D3*
M02*
