M48
INCH
T01C0.0827
T02C0.126
T03C0.2
T04C0.2441
T05C0.3
%
T01
X+007920Y+008878
X+007920Y+010487
X+004920Y+041440
X+004920Y+043440
X+004920Y+045440
X+004920Y+047440
X+010920Y+041440
T02
X+007350Y+005087G85X+006365Y+005087
X+007350Y+053315G85X+006365Y+053315
T03
X+010095Y+009333
X+005752Y+009327
X+005319Y+036983
X+010520Y+036983
T04
X+009920Y+012940
X+005920Y+012940
X+005920Y+017690
X+009920Y+017690
T05
X+007920Y+033440
X+007920Y+025690
X+007920Y+041190
X+007920Y+048940
T00
M30
