G04 DipTrace 3.3.0.0*
G04 uPeaks_panel.GTS*
%MOIN*%
G04 #@! TF.FileFunction,Soldermask,Top*
G04 #@! TF.Part,Single*
%ADD12C,0.001*%
%ADD18C,0.244094*%
%ADD19C,0.2*%
%ADD20C,0.3*%
%ADD21C,0.082677*%
%ADD24O,0.307213X0.185165*%
%FSLAX26Y26*%
G04*
G70*
G90*
G75*
G01*
G04 TopMask*
%LPD*%
D18*
X992000Y1294000D3*
X592000Y1769000D3*
X992000D3*
D19*
X1009500Y933300D3*
D20*
X792000Y3344000D3*
Y4119000D3*
Y4894000D3*
D19*
X1052039Y3698291D3*
X531921D3*
D21*
X792000Y887751D3*
Y1048699D3*
X492000Y4144000D3*
Y4344000D3*
Y4544000D3*
Y4744000D3*
X1092000Y4144000D3*
D18*
X592000Y1294000D3*
D20*
X792000Y2569000D3*
D19*
X575199Y932700D3*
D24*
X685749Y508665D3*
Y5331500D3*
X766890Y737751D2*
D12*
X774890D1*
X893890D2*
X901890D1*
X766890Y736751D2*
X774890D1*
X893890D2*
X901890D1*
X766890Y735751D2*
X774890D1*
X893890D2*
X901890D1*
X766890Y734751D2*
X774890D1*
X893890D2*
X901890D1*
X766890Y733751D2*
X774890D1*
X893890D2*
X901890D1*
X766890Y732751D2*
X774890D1*
X893890D2*
X901890D1*
X683890Y731751D2*
X690890D1*
X766890D2*
X774890D1*
X825890D2*
X863890D1*
X893890D2*
X901890D1*
X683890Y730751D2*
X690890D1*
X766890D2*
X774890D1*
X825890D2*
X867233D1*
X893890D2*
X901890D1*
X683890Y729751D2*
X690890D1*
X766890D2*
X774890D1*
X825890D2*
X869927D1*
X893890D2*
X901890D1*
X683890Y728751D2*
X690890D1*
X766890D2*
X774890D1*
X825890D2*
X871957D1*
X893890D2*
X901890D1*
X683890Y727751D2*
X690890D1*
X766890D2*
X774890D1*
X825890D2*
X873484D1*
X893890D2*
X901890D1*
X683890Y726751D2*
X690890D1*
X766890D2*
X774890D1*
X825890D2*
X874690D1*
X893890D2*
X901890D1*
X683890Y725751D2*
X690890D1*
X766890D2*
X774890D1*
X825890D2*
X875659D1*
X893890D2*
X901890D1*
X683890Y724751D2*
X690890D1*
X766890D2*
X774890D1*
X825890D2*
X876423D1*
X893890D2*
X901890D1*
X683890Y723751D2*
X690890D1*
X766890D2*
X774890D1*
X825890D2*
X877049D1*
X893890D2*
X901890D1*
X683890Y722751D2*
X690890D1*
X766890D2*
X774890D1*
X825890D2*
X833890D1*
X864848D2*
X877605D1*
X893890D2*
X901890D1*
X683890Y721751D2*
X690890D1*
X766890D2*
X774890D1*
X825890D2*
X833890D1*
X866677D2*
X878127D1*
X893890D2*
X901890D1*
X683890Y720751D2*
X690890D1*
X766890D2*
X774890D1*
X825890D2*
X833890D1*
X868235D2*
X878632D1*
X893890D2*
X901890D1*
X683890Y719751D2*
X690890D1*
X766890D2*
X774890D1*
X825890D2*
X833890D1*
X869441D2*
X879099D1*
X893890D2*
X901890D1*
X683890Y718751D2*
X690890D1*
X766890D2*
X774890D1*
X825890D2*
X833890D1*
X870326D2*
X879473D1*
X893890D2*
X901890D1*
X683890Y717751D2*
X690890D1*
X766890D2*
X774890D1*
X825890D2*
X833890D1*
X870974D2*
X879733D1*
X893890D2*
X901890D1*
X683890Y716751D2*
X690890D1*
X766890D2*
X774890D1*
X825890D2*
X833890D1*
X871425D2*
X879974D1*
X893890D2*
X901890D1*
X683890Y715751D2*
X690890D1*
X766890D2*
X774890D1*
X825890D2*
X833890D1*
X871716D2*
X880263D1*
X893890D2*
X901890D1*
X683890Y714751D2*
X690890D1*
X766890D2*
X774890D1*
X825890D2*
X833890D1*
X871968D2*
X880540D1*
X893890D2*
X901890D1*
X683890Y713751D2*
X690890D1*
X766890D2*
X774890D1*
X825890D2*
X833890D1*
X872261D2*
X880722D1*
X893890D2*
X901890D1*
X683890Y712751D2*
X690890D1*
X766890D2*
X774890D1*
X825890D2*
X833890D1*
X872540D2*
X880818D1*
X893890D2*
X901890D1*
X683890Y711751D2*
X690890D1*
X766890D2*
X774890D1*
X825890D2*
X833890D1*
X872722D2*
X880861D1*
X893890D2*
X901890D1*
X683890Y710751D2*
X690890D1*
X766890D2*
X774890D1*
X825890D2*
X833890D1*
X872818D2*
X880879D1*
X893890D2*
X901890D1*
X683890Y709751D2*
X690890D1*
X766890D2*
X774890D1*
X825890D2*
X833890D1*
X872861D2*
X880886D1*
X893890D2*
X901890D1*
X683890Y708751D2*
X690890D1*
X720890D2*
X741890D1*
X766890D2*
X774890D1*
X825890D2*
X833890D1*
X872879D2*
X880888D1*
X893890D2*
X901890D1*
X683890Y707751D2*
X690890D1*
X715486D2*
X743848D1*
X766890D2*
X774890D1*
X803890D2*
X814890D1*
X825890D2*
X833890D1*
X872886D2*
X880889D1*
X893890D2*
X901890D1*
X927890D2*
X935890D1*
X969890D2*
X977890D1*
X1004890D2*
X1047890D1*
X1069890D2*
X1112890D1*
X683890Y706751D2*
X690890D1*
X711243D2*
X745677D1*
X766890D2*
X774890D1*
X802735D2*
X813890D1*
X825890D2*
X833890D1*
X872888D2*
X880890D1*
X893890D2*
X901890D1*
X927890D2*
X935890D1*
X969890D2*
X977890D1*
X1002932D2*
X1047890D1*
X1067932D2*
X1112890D1*
X683890Y705751D2*
X690890D1*
X708019D2*
X747235D1*
X766890D2*
X774890D1*
X801487D2*
X812890D1*
X825890D2*
X833890D1*
X872889D2*
X880890D1*
X893890D2*
X901890D1*
X927890D2*
X935890D1*
X969890D2*
X977890D1*
X1001099D2*
X1047886D1*
X1066099D2*
X1112886D1*
X683890Y704751D2*
X690890D1*
X706723D2*
X748445D1*
X766890D2*
X774890D1*
X800228D2*
X811890D1*
X825890D2*
X833890D1*
X872890D2*
X880890D1*
X893890D2*
X901890D1*
X927890D2*
X935890D1*
X969890D2*
X977890D1*
X999509D2*
X1047831D1*
X1064509D2*
X1112831D1*
X683890Y703751D2*
X690890D1*
X706275D2*
X749365D1*
X766890D2*
X774890D1*
X799053D2*
X810890D1*
X825890D2*
X833890D1*
X872890D2*
X880890D1*
X893890D2*
X901890D1*
X927890D2*
X935890D1*
X969890D2*
X977890D1*
X998207D2*
X1047691D1*
X1063207D2*
X1112691D1*
X683890Y702751D2*
X690890D1*
X706046D2*
X750140D1*
X766890D2*
X774890D1*
X797960D2*
X809890D1*
X825890D2*
X833890D1*
X872890D2*
X880890D1*
X893890D2*
X901890D1*
X927890D2*
X935890D1*
X969890D2*
X977890D1*
X997171D2*
X1046853D1*
X1062171D2*
X1111853D1*
X683890Y701751D2*
X690890D1*
X705945D2*
X750831D1*
X766890D2*
X774890D1*
X796918D2*
X808886D1*
X825890D2*
X833890D1*
X872886D2*
X880886D1*
X893890D2*
X901890D1*
X927890D2*
X935890D1*
X969890D2*
X977890D1*
X996344D2*
X1044774D1*
X1061344D2*
X1109774D1*
X683890Y700751D2*
X690890D1*
X705890D2*
X721890D1*
X738493D2*
X751378D1*
X766890D2*
X774890D1*
X795900D2*
X807851D1*
X825890D2*
X833890D1*
X872851D2*
X880851D1*
X893890D2*
X901890D1*
X927890D2*
X935890D1*
X969890D2*
X977890D1*
X995611D2*
X1042501D1*
X1060611D2*
X1107501D1*
X683890Y699751D2*
X690890D1*
X740627D2*
X751805D1*
X766890D2*
X774890D1*
X794894D2*
X806723D1*
X825890D2*
X833890D1*
X872723D2*
X880723D1*
X893890D2*
X901890D1*
X927890D2*
X935890D1*
X969890D2*
X977890D1*
X994938D2*
X1009479D1*
X1025613D2*
X1040547D1*
X1059938D2*
X1074479D1*
X1090613D2*
X1105547D1*
X683890Y698751D2*
X690890D1*
X742166D2*
X752191D1*
X766890D2*
X774890D1*
X793891D2*
X805484D1*
X825890D2*
X833890D1*
X872480D2*
X880484D1*
X893890D2*
X901890D1*
X927890D2*
X935890D1*
X969890D2*
X977890D1*
X994398D2*
X1006725D1*
X1027903D2*
X1038890D1*
X1059398D2*
X1071725D1*
X1092903D2*
X1103890D1*
X683890Y697751D2*
X690890D1*
X743212D2*
X752511D1*
X766890D2*
X774890D1*
X792890D2*
X804227D1*
X825890D2*
X833890D1*
X872188D2*
X880223D1*
X893890D2*
X901890D1*
X927890D2*
X935890D1*
X969890D2*
X977890D1*
X993974D2*
X1004724D1*
X1029588D2*
X1039506D1*
X1058974D2*
X1069724D1*
X1094588D2*
X1104506D1*
X683890Y696751D2*
X690890D1*
X743930D2*
X752712D1*
X766890D2*
X774890D1*
X791890D2*
X803053D1*
X825890D2*
X833890D1*
X871883D2*
X880014D1*
X893890D2*
X901890D1*
X927890D2*
X935890D1*
X969890D2*
X977890D1*
X993584D2*
X1003276D1*
X1030792D2*
X1040045D1*
X1058584D2*
X1068276D1*
X1095792D2*
X1105045D1*
X683890Y695751D2*
X690890D1*
X744405D2*
X752814D1*
X766890D2*
X774890D1*
X790890D2*
X801960D1*
X825890D2*
X833890D1*
X871511D2*
X879794D1*
X893890D2*
X901890D1*
X927890D2*
X935890D1*
X969890D2*
X977890D1*
X993229D2*
X1002228D1*
X1031689D2*
X1040484D1*
X1058229D2*
X1067228D1*
X1096689D2*
X1105484D1*
X683890Y694751D2*
X690890D1*
X744675D2*
X752860D1*
X766890D2*
X774890D1*
X789886D2*
X800918D1*
X825890D2*
X833890D1*
X871042D2*
X879508D1*
X893890D2*
X901890D1*
X927890D2*
X935890D1*
X969890D2*
X977890D1*
X992901D2*
X1001515D1*
X1032323D2*
X1040851D1*
X1057901D2*
X1066515D1*
X1097323D2*
X1105851D1*
X683890Y693751D2*
X690890D1*
X744838D2*
X752879D1*
X766890D2*
X774890D1*
X788851D2*
X799900D1*
X825890D2*
X833890D1*
X870405D2*
X879199D1*
X893890D2*
X901890D1*
X927890D2*
X935890D1*
X969890D2*
X977890D1*
X992559D2*
X1001018D1*
X1032785D2*
X1041210D1*
X1057559D2*
X1066018D1*
X1097785D2*
X1106210D1*
X683890Y692751D2*
X690890D1*
X745021D2*
X752886D1*
X766890D2*
X774890D1*
X787723D2*
X798894D1*
X825890D2*
X833890D1*
X869477D2*
X878886D1*
X893890D2*
X901890D1*
X927890D2*
X935890D1*
X969890D2*
X977890D1*
X992257D2*
X1000604D1*
X1033184D2*
X1041519D1*
X1057257D2*
X1065604D1*
X1098184D2*
X1106519D1*
X683890Y691751D2*
X690890D1*
X745283D2*
X752888D1*
X766890D2*
X774890D1*
X786484D2*
X797891D1*
X825890D2*
X833890D1*
X868193D2*
X878516D1*
X893890D2*
X901890D1*
X927890D2*
X935890D1*
X969890D2*
X977890D1*
X992064D2*
X1000273D1*
X1033509D2*
X1041714D1*
X1057064D2*
X1065273D1*
X1098509D2*
X1106714D1*
X683890Y690751D2*
X690890D1*
X745548D2*
X752889D1*
X766890D2*
X774890D1*
X785227D2*
X796890D1*
X825890D2*
X833890D1*
X866607D2*
X878085D1*
X893890D2*
X901890D1*
X927890D2*
X935890D1*
X969890D2*
X977890D1*
X991964D2*
X1000070D1*
X1033711D2*
X1041815D1*
X1056964D2*
X1065070D1*
X1098711D2*
X1106815D1*
X683890Y689751D2*
X690890D1*
X745721D2*
X752890D1*
X766890D2*
X774890D1*
X784033D2*
X795890D1*
X825890D2*
X877615D1*
X893890D2*
X901890D1*
X927890D2*
X935890D1*
X969890D2*
X977890D1*
X991919D2*
X999966D1*
X1033814D2*
X1041860D1*
X1056919D2*
X1064966D1*
X1098814D2*
X1106860D1*
X683890Y688751D2*
X690890D1*
X745780D2*
X752890D1*
X766890D2*
X774890D1*
X782750D2*
X794890D1*
X825890D2*
X877092D1*
X893890D2*
X901890D1*
X927890D2*
X935890D1*
X969890D2*
X977890D1*
X991901D2*
X999920D1*
X1033860D2*
X1041879D1*
X1056901D2*
X1064920D1*
X1098860D2*
X1106879D1*
X683890Y687751D2*
X690890D1*
X745695D2*
X752890D1*
X766890D2*
X774890D1*
X780935D2*
X793890D1*
X825890D2*
X876463D1*
X893890D2*
X901890D1*
X927890D2*
X935890D1*
X969890D2*
X977890D1*
X991894D2*
X999901D1*
X1033879D2*
X1041886D1*
X1056894D2*
X1064901D1*
X1098879D2*
X1106886D1*
X683890Y686751D2*
X690890D1*
X745473D2*
X752890D1*
X766890D2*
X774890D1*
X778208D2*
X792890D1*
X825890D2*
X875650D1*
X893890D2*
X901890D1*
X927890D2*
X935890D1*
X969890D2*
X977890D1*
X991891D2*
X999894D1*
X1033886D2*
X1041888D1*
X1056891D2*
X1064894D1*
X1098886D2*
X1106888D1*
X683890Y685751D2*
X690890D1*
X745224D2*
X752890D1*
X766890D2*
X791890D1*
X825890D2*
X874598D1*
X893890D2*
X901890D1*
X927890D2*
X935890D1*
X969890D2*
X977890D1*
X991890D2*
X999891D1*
X1033888D2*
X1041889D1*
X1056890D2*
X1064891D1*
X1098888D2*
X1106889D1*
X683890Y684751D2*
X690890D1*
X745051D2*
X752890D1*
X766890D2*
X790890D1*
X825890D2*
X873242D1*
X893890D2*
X901890D1*
X927890D2*
X935890D1*
X969890D2*
X977890D1*
X991890D2*
X999894D1*
X1033889D2*
X1041886D1*
X1056890D2*
X1064894D1*
X1098889D2*
X1106886D1*
X683890Y683751D2*
X690890D1*
X744954D2*
X752890D1*
X766890D2*
X789890D1*
X825890D2*
X871601D1*
X893890D2*
X901890D1*
X927890D2*
X935890D1*
X969890D2*
X977890D1*
X991894D2*
X999929D1*
X1033886D2*
X1041851D1*
X1056894D2*
X1064929D1*
X1098886D2*
X1106851D1*
X683890Y682751D2*
X690890D1*
X712890D2*
X752890D1*
X766890D2*
X788890D1*
X825890D2*
X833890D1*
X839890D2*
X869780D1*
X893890D2*
X901890D1*
X927890D2*
X935890D1*
X969890D2*
X977890D1*
X991929D2*
X1000056D1*
X1033851D2*
X1041723D1*
X1056929D2*
X1065056D1*
X1098851D2*
X1106723D1*
X683890Y681751D2*
X690890D1*
X711278D2*
X752890D1*
X766890D2*
X787890D1*
X825890D2*
X833890D1*
X850890D2*
X867890D1*
X893890D2*
X901890D1*
X927890D2*
X935890D1*
X969890D2*
X977890D1*
X992056D2*
X1000300D1*
X1033719D2*
X1041484D1*
X1057056D2*
X1065300D1*
X1098719D2*
X1106484D1*
X683890Y680751D2*
X690890D1*
X709778D2*
X752890D1*
X766890D2*
X788735D1*
X825890D2*
X833890D1*
X893890D2*
X901890D1*
X927890D2*
X935890D1*
X969890D2*
X977890D1*
X992296D2*
X1000591D1*
X1033445D2*
X1041223D1*
X1057296D2*
X1065591D1*
X1098445D2*
X1106223D1*
X683890Y679751D2*
X690890D1*
X708501D2*
X752890D1*
X766890D2*
X789487D1*
X825890D2*
X833890D1*
X893890D2*
X901890D1*
X927890D2*
X935890D1*
X969890D2*
X977890D1*
X992556D2*
X1000897D1*
X1033057D2*
X1041014D1*
X1057556D2*
X1065897D1*
X1098057D2*
X1106014D1*
X683890Y678751D2*
X690890D1*
X707505D2*
X752890D1*
X766890D2*
X790228D1*
X825890D2*
X833890D1*
X893890D2*
X901890D1*
X927890D2*
X935890D1*
X969890D2*
X977890D1*
X992766D2*
X1001268D1*
X1032604D2*
X1040794D1*
X1057766D2*
X1066268D1*
X1097604D2*
X1105794D1*
X683890Y677751D2*
X690890D1*
X706681D2*
X752890D1*
X766890D2*
X791049D1*
X825890D2*
X833890D1*
X893890D2*
X901890D1*
X927890D2*
X935890D1*
X969890D2*
X977890D1*
X992990D2*
X1001734D1*
X1032088D2*
X1040508D1*
X1057990D2*
X1066734D1*
X1097088D2*
X1105508D1*
X683890Y676751D2*
X690890D1*
X705966D2*
X742890D1*
X744890D2*
X752890D1*
X766890D2*
X774890D1*
X780886D2*
X791921D1*
X825890D2*
X833890D1*
X893890D2*
X901890D1*
X927890D2*
X935890D1*
X969890D2*
X977890D1*
X993307D2*
X1002339D1*
X1031458D2*
X1040199D1*
X1058307D2*
X1067339D1*
X1096458D2*
X1105199D1*
X683890Y675751D2*
X690890D1*
X705408D2*
X728890D1*
X744890D2*
X752890D1*
X766890D2*
X774890D1*
X781851D2*
X792751D1*
X825890D2*
X833890D1*
X893890D2*
X901890D1*
X927890D2*
X935890D1*
X969890D2*
X977890D1*
X993712D2*
X1003179D1*
X1030607D2*
X1039886D1*
X1058712D2*
X1068179D1*
X1095607D2*
X1104886D1*
X683890Y674751D2*
X690890D1*
X704977D2*
X717086D1*
X744890D2*
X752890D1*
X766890D2*
X774890D1*
X782723D2*
X793494D1*
X825890D2*
X833890D1*
X893890D2*
X901890D1*
X927890D2*
X935890D1*
X969890D2*
X977890D1*
X994172D2*
X1004394D1*
X1029388D2*
X1039516D1*
X1059172D2*
X1069394D1*
X1094388D2*
X1104516D1*
X683890Y673751D2*
X690890D1*
X704589D2*
X715505D1*
X744890D2*
X752890D1*
X766890D2*
X774890D1*
X783484D2*
X794227D1*
X825890D2*
X833890D1*
X893890D2*
X901890D1*
X927890D2*
X935890D1*
X969890D2*
X977890D1*
X994690D2*
X1006146D1*
X1027634D2*
X1039085D1*
X1059690D2*
X1071146D1*
X1092634D2*
X1104085D1*
X683890Y672751D2*
X690890D1*
X704268D2*
X714210D1*
X744890D2*
X752890D1*
X766890D2*
X774890D1*
X784227D2*
X795015D1*
X825890D2*
X833890D1*
X893890D2*
X901890D1*
X927890D2*
X935890D1*
X969890D2*
X977890D1*
X995314D2*
X1008404D1*
X1025376D2*
X1038615D1*
X1060314D2*
X1073404D1*
X1090376D2*
X1103615D1*
X683890Y671751D2*
X690890D1*
X704068D2*
X713214D1*
X744890D2*
X752890D1*
X766890D2*
X774890D1*
X785049D2*
X795794D1*
X825890D2*
X833890D1*
X893890D2*
X901890D1*
X927890D2*
X935890D1*
X969890D2*
X977890D1*
X996086D2*
X1038092D1*
X1061086D2*
X1103092D1*
X683890Y670751D2*
X690890D1*
X703966D2*
X712438D1*
X744890D2*
X752890D1*
X766890D2*
X774890D1*
X785921D2*
X796512D1*
X825890D2*
X833890D1*
X893890D2*
X901890D1*
X927890D2*
X935890D1*
X969890D2*
X977890D1*
X996966D2*
X1037467D1*
X1061966D2*
X1102467D1*
X683890Y669751D2*
X690890D1*
X703920D2*
X712156D1*
X744890D2*
X752890D1*
X766890D2*
X774890D1*
X786751D2*
X797234D1*
X825890D2*
X833890D1*
X893890D2*
X901890D1*
X927890D2*
X935890D1*
X969890D2*
X977890D1*
X997890D2*
X1036689D1*
X1062890D2*
X1101689D1*
X683890Y668751D2*
X690890D1*
X703901D2*
X712003D1*
X744890D2*
X752890D1*
X766890D2*
X774890D1*
X787494D2*
X798018D1*
X825890D2*
X833890D1*
X893890D2*
X901890D1*
X927890D2*
X935890D1*
X969890D2*
X977890D1*
X996586D2*
X1035764D1*
X1061586D2*
X1100764D1*
X683890Y667751D2*
X690890D1*
X703894D2*
X711934D1*
X744890D2*
X752890D1*
X766890D2*
X774890D1*
X788231D2*
X798795D1*
X825890D2*
X833890D1*
X893890D2*
X901890D1*
X927890D2*
X935890D1*
X969890D2*
X977890D1*
X995420D2*
X1034636D1*
X1060420D2*
X1099636D1*
X683886Y666751D2*
X690890D1*
X703891D2*
X711906D1*
X744890D2*
X752890D1*
X766890D2*
X774890D1*
X789050D2*
X799512D1*
X825890D2*
X833890D1*
X893894D2*
X901890D1*
X927890D2*
X935890D1*
X969890D2*
X977890D1*
X994506D2*
X1033136D1*
X1059506D2*
X1098136D1*
X683851Y665751D2*
X690890D1*
X703890D2*
X711896D1*
X744890D2*
X752890D1*
X766890D2*
X774890D1*
X789922D2*
X800238D1*
X825890D2*
X833890D1*
X893929D2*
X901894D1*
X927890D2*
X935890D1*
X969890D2*
X977890D1*
X993796D2*
X1031019D1*
X1058796D2*
X1096019D1*
X683723Y664751D2*
X690890D1*
X703890D2*
X711892D1*
X744890D2*
X752890D1*
X766890D2*
X774890D1*
X790751D2*
X801053D1*
X825890D2*
X833890D1*
X894056D2*
X901929D1*
X927890D2*
X935890D1*
X969890D2*
X977890D1*
X993204D2*
X1028167D1*
X1058204D2*
X1093167D1*
X683484Y663751D2*
X690890D1*
X703890D2*
X711890D1*
X744886D2*
X752890D1*
X766890D2*
X774890D1*
X791494D2*
X801922D1*
X825890D2*
X833890D1*
X894296D2*
X902056D1*
X927894D2*
X935894D1*
X969886D2*
X977890D1*
X992702D2*
X1024890D1*
X1057702D2*
X1089890D1*
X683223Y662751D2*
X690890D1*
X703890D2*
X711890D1*
X744839D2*
X752890D1*
X766890D2*
X774890D1*
X792231D2*
X802752D1*
X825890D2*
X833890D1*
X894552D2*
X902300D1*
X927929D2*
X935929D1*
X969843D2*
X977890D1*
X992318D2*
X1001086D1*
X1057318D2*
X1066086D1*
X683014Y661751D2*
X690890D1*
X703890D2*
X711890D1*
X744722D2*
X752890D1*
X766890D2*
X774890D1*
X793050D2*
X803494D1*
X825890D2*
X833890D1*
X894727D2*
X902591D1*
X928056D2*
X936060D1*
X969737D2*
X977890D1*
X992088D2*
X1000501D1*
X1057088D2*
X1065501D1*
X682790Y660751D2*
X690890D1*
X703890D2*
X711894D1*
X744095D2*
X752890D1*
X766890D2*
X774890D1*
X793922D2*
X804227D1*
X825890D2*
X833890D1*
X894823D2*
X902897D1*
X928300D2*
X936339D1*
X969216D2*
X977890D1*
X991973D2*
X1000174D1*
X1056973D2*
X1065174D1*
X682473Y659751D2*
X690886D1*
X703894D2*
X711933D1*
X742399D2*
X752890D1*
X766890D2*
X774890D1*
X794751D2*
X805015D1*
X825890D2*
X833890D1*
X894901D2*
X903272D1*
X928591D2*
X936762D1*
X967874D2*
X977890D1*
X991922D2*
X999998D1*
X1056922D2*
X1064998D1*
X682064Y658751D2*
X690851D1*
X703929D2*
X712099D1*
X740021D2*
X752890D1*
X766890D2*
X774890D1*
X795494D2*
X805794D1*
X825890D2*
X833890D1*
X895046D2*
X903780D1*
X928897D2*
X937346D1*
X966056D2*
X977890D1*
X991906D2*
X1000190D1*
X1056906D2*
X1065190D1*
X681565Y657751D2*
X690723D1*
X704056D2*
X712411D1*
X736926D2*
X752890D1*
X766890D2*
X774890D1*
X796231D2*
X806512D1*
X825890D2*
X833890D1*
X895296D2*
X904425D1*
X929264D2*
X938140D1*
X963819D2*
X977890D1*
X991933D2*
X1001089D1*
X1056933D2*
X1066089D1*
X680845Y656751D2*
X690480D1*
X704300D2*
X713240D1*
X732921D2*
X752890D1*
X766890D2*
X774890D1*
X797050D2*
X807238D1*
X825890D2*
X833890D1*
X895590D2*
X905921D1*
X929695D2*
X939186D1*
X961169D2*
X977890D1*
X992062D2*
X1002387D1*
X1057062D2*
X1067387D1*
X679857Y655751D2*
X690188D1*
X704595D2*
X715697D1*
X727357D2*
X752890D1*
X766890D2*
X774890D1*
X797922D2*
X808053D1*
X825890D2*
X833890D1*
X895897D2*
X908056D1*
X930165D2*
X940535D1*
X958050D2*
X977890D1*
X992335D2*
X1033890D1*
X1057335D2*
X1098890D1*
X676744Y654751D2*
X689883D1*
X704932D2*
X719758D1*
X719739D2*
X752890D1*
X766890D2*
X774890D1*
X798751D2*
X808922D1*
X825890D2*
X833890D1*
X896268D2*
X910796D1*
X930687D2*
X942153D1*
X954552D2*
X977890D1*
X992727D2*
X1035964D1*
X1057727D2*
X1100964D1*
X661890Y653751D2*
X666890D1*
X671886D2*
X689511D1*
X705396D2*
X752890D1*
X766890D2*
X774890D1*
X799494D2*
X809752D1*
X825890D2*
X833890D1*
X896734D2*
X913667D1*
X931313D2*
X977890D1*
X993211D2*
X1037751D1*
X1058211D2*
X1102751D1*
X661739Y652751D2*
X689046D1*
X705973D2*
X743082D1*
X745928D2*
X752890D1*
X766890D2*
X774890D1*
X800231D2*
X810494D1*
X825890D2*
X833890D1*
X897332D2*
X916013D1*
X932086D2*
X968044D1*
X969731D2*
X977890D1*
X993811D2*
X1039173D1*
X1058811D2*
X1104173D1*
X661530Y651751D2*
X688444D1*
X706592D2*
X740458D1*
X746056D2*
X752890D1*
X766890D2*
X774890D1*
X801050D2*
X811227D1*
X825890D2*
X833890D1*
X898097D2*
X917779D1*
X932973D2*
X966292D1*
X970444D2*
X977890D1*
X994471D2*
X1040234D1*
X1059471D2*
X1105234D1*
X661339Y650751D2*
X687643D1*
X707311D2*
X737957D1*
X746300D2*
X752890D1*
X766890D2*
X774890D1*
X801922D2*
X812015D1*
X825890D2*
X833890D1*
X899018D2*
X918462D1*
X933926D2*
X964547D1*
X971023D2*
X977890D1*
X995088D2*
X1041083D1*
X1060088D2*
X1106083D1*
X661559Y649751D2*
X686583D1*
X708281D2*
X735381D1*
X746594D2*
X752890D1*
X766890D2*
X774890D1*
X802751D2*
X812793D1*
X825890D2*
X833890D1*
X900132D2*
X918693D1*
X934949D2*
X962683D1*
X971480D2*
X977890D1*
X995205D2*
X1041809D1*
X1060205D2*
X1106809D1*
X662333Y648751D2*
X685115D1*
X709623D2*
X732572D1*
X746924D2*
X752890D1*
X766890D2*
X774890D1*
X803485D2*
X813503D1*
X825890D2*
X833890D1*
X901514D2*
X918811D1*
X936145D2*
X960610D1*
X971880D2*
X977890D1*
X994900D2*
X1042370D1*
X1059900D2*
X1107370D1*
X664173Y647751D2*
X683011D1*
X711393D2*
X729398D1*
X747364D2*
X752890D1*
X766890D2*
X774890D1*
X804181D2*
X814187D1*
X825890D2*
X833890D1*
X903145D2*
X918862D1*
X937699D2*
X958250D1*
X972348D2*
X977890D1*
X994424D2*
X998890D1*
X1002890D2*
X1042801D1*
X1059424D2*
X1063890D1*
X1067890D2*
X1107801D1*
X666792Y646751D2*
X680165D1*
X713544D2*
X725777D1*
X747890D2*
X752890D1*
X766890D2*
X774890D1*
X804890D2*
X814890D1*
X825890D2*
X833890D1*
X904890D2*
X918890D1*
X939680D2*
X955629D1*
X972890D2*
X977890D1*
X993832D2*
X998890D1*
X1033848D2*
X1043190D1*
X1058832D2*
X1063890D1*
X1098848D2*
X1108190D1*
X669890Y645751D2*
X676890D1*
X715890D2*
X721890D1*
X941890D2*
X952890D1*
X993245D2*
X998890D1*
X1034684D2*
X1043511D1*
X1058245D2*
X1063890D1*
X1099684D2*
X1108511D1*
X992725Y644751D2*
X998890D1*
X1035313D2*
X1043712D1*
X1057725D2*
X1063890D1*
X1100313D2*
X1108712D1*
X992329Y643751D2*
X998890D1*
X1035778D2*
X1043814D1*
X1057329D2*
X1063890D1*
X1100778D2*
X1108814D1*
X992093Y642751D2*
X998890D1*
X1036181D2*
X1043860D1*
X1057093D2*
X1063890D1*
X1101181D2*
X1108860D1*
X991975Y641751D2*
X998890D1*
X1036508D2*
X1043879D1*
X1056975D2*
X1063890D1*
X1101508D2*
X1108879D1*
X991923Y640751D2*
X998890D1*
X1036710D2*
X1043886D1*
X1056923D2*
X1063890D1*
X1101710D2*
X1108886D1*
X991902Y639751D2*
X998890D1*
X1036814D2*
X1043888D1*
X1056902D2*
X1063890D1*
X1101814D2*
X1108888D1*
X991894Y638751D2*
X998890D1*
X1036860D2*
X1043889D1*
X1056894D2*
X1063890D1*
X1101860D2*
X1108889D1*
X991891Y637751D2*
X998890D1*
X1036879D2*
X1043890D1*
X1056891D2*
X1063890D1*
X1101879D2*
X1108890D1*
X991890Y636751D2*
X998890D1*
X1036886D2*
X1043890D1*
X1056890D2*
X1063890D1*
X1101886D2*
X1108890D1*
X991890Y635751D2*
X998890D1*
X1036888D2*
X1043890D1*
X1056890D2*
X1063890D1*
X1101888D2*
X1108890D1*
X991890Y634751D2*
X998890D1*
X1036889D2*
X1043890D1*
X1056890D2*
X1063890D1*
X1101889D2*
X1108890D1*
X991890Y633751D2*
X998894D1*
X1036886D2*
X1043890D1*
X1056890D2*
X1063894D1*
X1101886D2*
X1108890D1*
X991890Y632751D2*
X998929D1*
X1036851D2*
X1043890D1*
X1056890D2*
X1063929D1*
X1101851D2*
X1108890D1*
X991890Y631751D2*
X999056D1*
X1036723D2*
X1043890D1*
X1056890D2*
X1064056D1*
X1101723D2*
X1108890D1*
X991890Y630751D2*
X999300D1*
X1036480D2*
X1043890D1*
X1056890D2*
X1064300D1*
X1101480D2*
X1108890D1*
X991890Y629751D2*
X999595D1*
X1036188D2*
X1043890D1*
X1056890D2*
X1064595D1*
X1101188D2*
X1108890D1*
X991894Y628751D2*
X999936D1*
X1035879D2*
X1043886D1*
X1056894D2*
X1064936D1*
X1100879D2*
X1108886D1*
X991929Y627751D2*
X1000443D1*
X1035468D2*
X1043851D1*
X1056929D2*
X1065443D1*
X1100468D2*
X1108851D1*
X992060Y626751D2*
X1001226D1*
X1034836D2*
X1043719D1*
X1057060D2*
X1066226D1*
X1099836D2*
X1108719D1*
X992335Y625751D2*
X1002412D1*
X1033833D2*
X1043445D1*
X1057335D2*
X1067412D1*
X1098833D2*
X1108445D1*
X992723Y624751D2*
X1004154D1*
X1032410D2*
X1043057D1*
X1057723D2*
X1069154D1*
X1097410D2*
X1108057D1*
X993176Y623751D2*
X1006406D1*
X1030705D2*
X1042608D1*
X1058176D2*
X1071406D1*
X1095705D2*
X1107608D1*
X993691Y622751D2*
X1042127D1*
X1058691D2*
X1107127D1*
X994318Y621751D2*
X1041628D1*
X1059318D2*
X1106628D1*
X995126Y620751D2*
X1041060D1*
X1060126D2*
X1106060D1*
X996147Y619751D2*
X1040295D1*
X1061147D2*
X1105295D1*
X997422Y618751D2*
X1039198D1*
X1062422D2*
X1104198D1*
X999067Y617751D2*
X1037684D1*
X1064067D2*
X1102684D1*
X1001348Y616751D2*
X1035600D1*
X1066348D2*
X1100600D1*
X1004406Y615751D2*
X1032902D1*
X1069406D2*
X1097902D1*
X1007890Y614751D2*
X1029890D1*
X1072890D2*
X1094890D1*
X766890Y737751D2*
Y736751D1*
Y735751D1*
Y734751D1*
Y733751D1*
Y732751D1*
Y731751D1*
Y730751D1*
Y729751D1*
Y728751D1*
Y727751D1*
Y726751D1*
Y725751D1*
Y724751D1*
Y723751D1*
Y722751D1*
Y721751D1*
Y720751D1*
Y719751D1*
Y718751D1*
Y717751D1*
Y716751D1*
Y715751D1*
Y714751D1*
Y713751D1*
Y712751D1*
Y711751D1*
Y710751D1*
Y709751D1*
Y708751D1*
Y707751D1*
Y706751D1*
Y705751D1*
Y704751D1*
Y703751D1*
Y702751D1*
Y701751D1*
Y700751D1*
Y699751D1*
Y698751D1*
Y697751D1*
Y696751D1*
Y695751D1*
Y694751D1*
Y693751D1*
Y692751D1*
Y691751D1*
Y690751D1*
Y689751D1*
Y688751D1*
Y687751D1*
Y686751D1*
Y685751D1*
Y684751D1*
Y683751D1*
Y682751D1*
Y681751D1*
Y680751D1*
Y679751D1*
Y678751D1*
Y677751D1*
Y676751D1*
Y675751D1*
Y674751D1*
Y673751D1*
Y672751D1*
Y671751D1*
Y670751D1*
Y669751D1*
Y668751D1*
Y667751D1*
Y666751D1*
Y665751D1*
Y664751D1*
Y663751D1*
Y662751D1*
Y661751D1*
Y660751D1*
Y659751D1*
Y658751D1*
Y657751D1*
Y656751D1*
Y655751D1*
Y654751D1*
Y653751D1*
Y652751D1*
Y651751D1*
Y650751D1*
Y649751D1*
Y648751D1*
Y647751D1*
Y646751D1*
X774890Y737751D2*
Y736751D1*
Y735751D1*
Y734751D1*
Y733751D1*
Y732751D1*
Y731751D1*
Y730751D1*
Y729751D1*
Y728751D1*
Y727751D1*
Y726751D1*
Y725751D1*
Y724751D1*
Y723751D1*
Y722751D1*
Y721751D1*
Y720751D1*
Y719751D1*
Y718751D1*
Y717751D1*
Y716751D1*
Y715751D1*
Y714751D1*
Y713751D1*
Y712751D1*
Y711751D1*
Y710751D1*
Y709751D1*
Y708751D1*
Y707751D1*
Y706751D1*
Y705751D1*
Y704751D1*
Y703751D1*
Y702751D1*
Y701751D1*
Y700751D1*
Y699751D1*
Y698751D1*
Y697751D1*
Y696751D1*
Y695751D1*
Y694751D1*
Y693751D1*
Y692751D1*
Y691751D1*
Y690751D1*
Y689751D1*
Y688751D1*
Y687751D1*
Y686751D1*
X779890Y685751D1*
X893890Y737751D2*
Y736751D1*
Y735751D1*
Y734751D1*
Y733751D1*
Y732751D1*
Y731751D1*
Y730751D1*
Y729751D1*
Y728751D1*
Y727751D1*
Y726751D1*
Y725751D1*
Y724751D1*
Y723751D1*
Y722751D1*
Y721751D1*
Y720751D1*
Y719751D1*
Y718751D1*
Y717751D1*
Y716751D1*
Y715751D1*
Y714751D1*
Y713751D1*
Y712751D1*
Y711751D1*
Y710751D1*
Y709751D1*
Y708751D1*
Y707751D1*
Y706751D1*
Y705751D1*
Y704751D1*
Y703751D1*
Y702751D1*
Y701751D1*
Y700751D1*
Y699751D1*
Y698751D1*
Y697751D1*
Y696751D1*
Y695751D1*
Y694751D1*
Y693751D1*
Y692751D1*
Y691751D1*
Y690751D1*
Y689751D1*
Y688751D1*
Y687751D1*
Y686751D1*
Y685751D1*
Y684751D1*
Y683751D1*
Y682751D1*
Y681751D1*
Y680751D1*
Y679751D1*
Y678751D1*
Y677751D1*
Y676751D1*
Y675751D1*
Y674751D1*
Y673751D1*
Y672751D1*
Y671751D1*
Y670751D1*
Y669751D1*
Y668751D1*
Y667751D1*
X893894Y666751D1*
X893929Y665751D1*
X894056Y664751D1*
X894296Y663751D1*
X894552Y662751D1*
X894727Y661751D1*
X894823Y660751D1*
X894901Y659751D1*
X895046Y658751D1*
X895296Y657751D1*
X895590Y656751D1*
X895897Y655751D1*
X896268Y654751D1*
X896734Y653751D1*
X897332Y652751D1*
X898097Y651751D1*
X899018Y650751D1*
X900132Y649751D1*
X901514Y648751D1*
X903145Y647751D1*
X904890Y646751D1*
X901890Y737751D2*
Y736751D1*
Y735751D1*
Y734751D1*
Y733751D1*
Y732751D1*
Y731751D1*
Y730751D1*
Y729751D1*
Y728751D1*
Y727751D1*
Y726751D1*
Y725751D1*
Y724751D1*
Y723751D1*
Y722751D1*
Y721751D1*
Y720751D1*
Y719751D1*
Y718751D1*
Y717751D1*
Y716751D1*
Y715751D1*
Y714751D1*
Y713751D1*
Y712751D1*
Y711751D1*
Y710751D1*
Y709751D1*
Y708751D1*
Y707751D1*
Y706751D1*
Y705751D1*
Y704751D1*
Y703751D1*
Y702751D1*
Y701751D1*
Y700751D1*
Y699751D1*
Y698751D1*
Y697751D1*
Y696751D1*
Y695751D1*
Y694751D1*
Y693751D1*
Y692751D1*
Y691751D1*
Y690751D1*
Y689751D1*
Y688751D1*
Y687751D1*
Y686751D1*
Y685751D1*
Y684751D1*
Y683751D1*
Y682751D1*
Y681751D1*
Y680751D1*
Y679751D1*
Y678751D1*
Y677751D1*
Y676751D1*
Y675751D1*
Y674751D1*
Y673751D1*
Y672751D1*
Y671751D1*
Y670751D1*
Y669751D1*
Y668751D1*
Y667751D1*
Y666751D1*
X901894Y665751D1*
X901929Y664751D1*
X902056Y663751D1*
X902300Y662751D1*
X902591Y661751D1*
X902897Y660751D1*
X903272Y659751D1*
X903780Y658751D1*
X904425Y657751D1*
X905921Y656751D1*
X908056Y655751D1*
X910796Y654751D1*
X913667Y653751D1*
X916013Y652751D1*
X917779Y651751D1*
X918462Y650751D1*
X918693Y649751D1*
X918811Y648751D1*
X918862Y647751D1*
X918890Y646751D1*
X683890Y731751D2*
Y730751D1*
Y729751D1*
Y728751D1*
Y727751D1*
Y726751D1*
Y725751D1*
Y724751D1*
Y723751D1*
Y722751D1*
Y721751D1*
Y720751D1*
Y719751D1*
Y718751D1*
Y717751D1*
Y716751D1*
Y715751D1*
Y714751D1*
Y713751D1*
Y712751D1*
Y711751D1*
Y710751D1*
Y709751D1*
Y708751D1*
Y707751D1*
Y706751D1*
Y705751D1*
Y704751D1*
Y703751D1*
Y702751D1*
Y701751D1*
Y700751D1*
Y699751D1*
Y698751D1*
Y697751D1*
Y696751D1*
Y695751D1*
Y694751D1*
Y693751D1*
Y692751D1*
Y691751D1*
Y690751D1*
Y689751D1*
Y688751D1*
Y687751D1*
Y686751D1*
Y685751D1*
Y684751D1*
Y683751D1*
Y682751D1*
Y681751D1*
Y680751D1*
Y679751D1*
Y678751D1*
Y677751D1*
Y676751D1*
Y675751D1*
Y674751D1*
Y673751D1*
Y672751D1*
Y671751D1*
Y670751D1*
Y669751D1*
Y668751D1*
Y667751D1*
X683886Y666751D1*
X683851Y665751D1*
X683723Y664751D1*
X683484Y663751D1*
X683223Y662751D1*
X683014Y661751D1*
X682790Y660751D1*
X682473Y659751D1*
X682064Y658751D1*
X681565Y657751D1*
X680845Y656751D1*
X679857Y655751D1*
X676744Y654751D1*
X671886Y653751D1*
X665890Y652751D1*
X690890Y731751D2*
Y730751D1*
Y729751D1*
Y728751D1*
Y727751D1*
Y726751D1*
Y725751D1*
Y724751D1*
Y723751D1*
Y722751D1*
Y721751D1*
Y720751D1*
Y719751D1*
Y718751D1*
Y717751D1*
Y716751D1*
Y715751D1*
Y714751D1*
Y713751D1*
Y712751D1*
Y711751D1*
Y710751D1*
Y709751D1*
Y708751D1*
Y707751D1*
Y706751D1*
Y705751D1*
Y704751D1*
Y703751D1*
Y702751D1*
Y701751D1*
Y700751D1*
Y699751D1*
Y698751D1*
Y697751D1*
Y696751D1*
Y695751D1*
Y694751D1*
Y693751D1*
Y692751D1*
Y691751D1*
Y690751D1*
Y689751D1*
Y688751D1*
Y687751D1*
Y686751D1*
Y685751D1*
Y684751D1*
Y683751D1*
Y682751D1*
Y681751D1*
Y680751D1*
Y679751D1*
Y678751D1*
Y677751D1*
Y676751D1*
Y675751D1*
Y674751D1*
Y673751D1*
Y672751D1*
Y671751D1*
Y670751D1*
Y669751D1*
Y668751D1*
Y667751D1*
Y666751D1*
Y665751D1*
Y664751D1*
Y663751D1*
Y662751D1*
Y661751D1*
Y660751D1*
X690886Y659751D1*
X690851Y658751D1*
X690723Y657751D1*
X690480Y656751D1*
X690188Y655751D1*
X689883Y654751D1*
X689511Y653751D1*
X689046Y652751D1*
X688444Y651751D1*
X687643Y650751D1*
X686583Y649751D1*
X685115Y648751D1*
X683011Y647751D1*
X680165Y646751D1*
X676890Y645751D1*
X825890Y731751D2*
Y730751D1*
Y729751D1*
Y728751D1*
Y727751D1*
Y726751D1*
Y725751D1*
Y724751D1*
Y723751D1*
Y722751D1*
Y721751D1*
Y720751D1*
Y719751D1*
Y718751D1*
Y717751D1*
Y716751D1*
Y715751D1*
Y714751D1*
Y713751D1*
Y712751D1*
Y711751D1*
Y710751D1*
Y709751D1*
Y708751D1*
Y707751D1*
Y706751D1*
Y705751D1*
Y704751D1*
Y703751D1*
Y702751D1*
Y701751D1*
Y700751D1*
Y699751D1*
Y698751D1*
Y697751D1*
Y696751D1*
Y695751D1*
Y694751D1*
Y693751D1*
Y692751D1*
Y691751D1*
Y690751D1*
Y689751D1*
Y688751D1*
Y687751D1*
Y686751D1*
Y685751D1*
Y684751D1*
Y683751D1*
Y682751D1*
Y681751D1*
Y680751D1*
Y679751D1*
Y678751D1*
Y677751D1*
Y676751D1*
Y675751D1*
Y674751D1*
Y673751D1*
Y672751D1*
Y671751D1*
Y670751D1*
Y669751D1*
Y668751D1*
Y667751D1*
Y666751D1*
Y665751D1*
Y664751D1*
Y663751D1*
Y662751D1*
Y661751D1*
Y660751D1*
Y659751D1*
Y658751D1*
Y657751D1*
Y656751D1*
Y655751D1*
Y654751D1*
Y653751D1*
Y652751D1*
Y651751D1*
Y650751D1*
Y649751D1*
Y648751D1*
Y647751D1*
Y646751D1*
X863890Y731751D2*
X867233Y730751D1*
X869927Y729751D1*
X871957Y728751D1*
X873484Y727751D1*
X874690Y726751D1*
X875659Y725751D1*
X876423Y724751D1*
X877049Y723751D1*
X877605Y722751D1*
X878127Y721751D1*
X878632Y720751D1*
X879099Y719751D1*
X879473Y718751D1*
X879733Y717751D1*
X879974Y716751D1*
X880263Y715751D1*
X880540Y714751D1*
X880722Y713751D1*
X880818Y712751D1*
X880861Y711751D1*
X880879Y710751D1*
X880886Y709751D1*
X880888Y708751D1*
X880889Y707751D1*
X880890Y706751D1*
Y705751D1*
Y704751D1*
Y703751D1*
Y702751D1*
X880886Y701751D1*
X880851Y700751D1*
X880723Y699751D1*
X880484Y698751D1*
X880223Y697751D1*
X880014Y696751D1*
X879794Y695751D1*
X879508Y694751D1*
X879199Y693751D1*
X878886Y692751D1*
X878516Y691751D1*
X878085Y690751D1*
X877615Y689751D1*
X877092Y688751D1*
X876463Y687751D1*
X875650Y686751D1*
X874598Y685751D1*
X873242Y684751D1*
X871601Y683751D1*
X869780Y682751D1*
X867890Y681751D1*
X833890Y723751D2*
Y722751D1*
Y721751D1*
Y720751D1*
Y719751D1*
Y718751D1*
Y717751D1*
Y716751D1*
Y715751D1*
Y714751D1*
Y713751D1*
Y712751D1*
Y711751D1*
Y710751D1*
Y709751D1*
Y708751D1*
Y707751D1*
Y706751D1*
Y705751D1*
Y704751D1*
Y703751D1*
Y702751D1*
Y701751D1*
Y700751D1*
Y699751D1*
Y698751D1*
Y697751D1*
Y696751D1*
Y695751D1*
Y694751D1*
Y693751D1*
Y692751D1*
Y691751D1*
Y690751D1*
Y689751D1*
X862890Y723751D2*
X864848Y722751D1*
X866677Y721751D1*
X868235Y720751D1*
X869441Y719751D1*
X870326Y718751D1*
X870974Y717751D1*
X871425Y716751D1*
X871716Y715751D1*
X871968Y714751D1*
X872261Y713751D1*
X872540Y712751D1*
X872722Y711751D1*
X872818Y710751D1*
X872861Y709751D1*
X872879Y708751D1*
X872886Y707751D1*
X872888Y706751D1*
X872889Y705751D1*
X872890Y704751D1*
Y703751D1*
Y702751D1*
X872886Y701751D1*
X872851Y700751D1*
X872723Y699751D1*
X872480Y698751D1*
X872188Y697751D1*
X871883Y696751D1*
X871511Y695751D1*
X871042Y694751D1*
X870405Y693751D1*
X869477Y692751D1*
X868193Y691751D1*
X866607Y690751D1*
X864890Y689751D1*
X720890Y708751D2*
X715486Y707751D1*
X711243Y706751D1*
X708019Y705751D1*
X706723Y704751D1*
X706275Y703751D1*
X706046Y702751D1*
X705945Y701751D1*
X705890Y700751D1*
X741890Y708751D2*
X743848Y707751D1*
X745677Y706751D1*
X747235Y705751D1*
X748445Y704751D1*
X749365Y703751D1*
X750140Y702751D1*
X750831Y701751D1*
X751378Y700751D1*
X751805Y699751D1*
X752191Y698751D1*
X752511Y697751D1*
X752712Y696751D1*
X752814Y695751D1*
X752860Y694751D1*
X752879Y693751D1*
X752886Y692751D1*
X752888Y691751D1*
X752889Y690751D1*
X752890Y689751D1*
Y688751D1*
Y687751D1*
Y686751D1*
Y685751D1*
Y684751D1*
Y683751D1*
Y682751D1*
Y681751D1*
Y680751D1*
Y679751D1*
Y678751D1*
Y677751D1*
Y676751D1*
Y675751D1*
Y674751D1*
Y673751D1*
Y672751D1*
Y671751D1*
Y670751D1*
Y669751D1*
Y668751D1*
Y667751D1*
Y666751D1*
Y665751D1*
Y664751D1*
Y663751D1*
Y662751D1*
Y661751D1*
Y660751D1*
Y659751D1*
Y658751D1*
Y657751D1*
Y656751D1*
Y655751D1*
Y654751D1*
Y653751D1*
Y652751D1*
Y651751D1*
Y650751D1*
Y649751D1*
Y648751D1*
Y647751D1*
Y646751D1*
X803890Y707751D2*
X802735Y706751D1*
X801487Y705751D1*
X800228Y704751D1*
X799053Y703751D1*
X797960Y702751D1*
X796918Y701751D1*
X795900Y700751D1*
X794894Y699751D1*
X793891Y698751D1*
X792890Y697751D1*
X791890Y696751D1*
X790890Y695751D1*
X789886Y694751D1*
X788851Y693751D1*
X787723Y692751D1*
X786484Y691751D1*
X785227Y690751D1*
X784033Y689751D1*
X782750Y688751D1*
X780935Y687751D1*
X778208Y686751D1*
X774890Y685751D1*
X814890Y707751D2*
X813890Y706751D1*
X812890Y705751D1*
X811890Y704751D1*
X810890Y703751D1*
X809890Y702751D1*
X808886Y701751D1*
X807851Y700751D1*
X806723Y699751D1*
X805484Y698751D1*
X804227Y697751D1*
X803053Y696751D1*
X801960Y695751D1*
X800918Y694751D1*
X799900Y693751D1*
X798894Y692751D1*
X797891Y691751D1*
X796890Y690751D1*
X795890Y689751D1*
X794890Y688751D1*
X793890Y687751D1*
X792890Y686751D1*
X791890Y685751D1*
X790890Y684751D1*
X789890Y683751D1*
X788890Y682751D1*
X787890Y681751D1*
X788735Y680751D1*
X789487Y679751D1*
X790228Y678751D1*
X791049Y677751D1*
X791921Y676751D1*
X792751Y675751D1*
X793494Y674751D1*
X794227Y673751D1*
X795015Y672751D1*
X795794Y671751D1*
X796512Y670751D1*
X797234Y669751D1*
X798018Y668751D1*
X798795Y667751D1*
X799512Y666751D1*
X800238Y665751D1*
X801053Y664751D1*
X801922Y663751D1*
X802752Y662751D1*
X803494Y661751D1*
X804227Y660751D1*
X805015Y659751D1*
X805794Y658751D1*
X806512Y657751D1*
X807238Y656751D1*
X808053Y655751D1*
X808922Y654751D1*
X809752Y653751D1*
X810494Y652751D1*
X811227Y651751D1*
X812015Y650751D1*
X812793Y649751D1*
X813503Y648751D1*
X814187Y647751D1*
X814890Y646751D1*
X927890Y707751D2*
Y706751D1*
Y705751D1*
Y704751D1*
Y703751D1*
Y702751D1*
Y701751D1*
Y700751D1*
Y699751D1*
Y698751D1*
Y697751D1*
Y696751D1*
Y695751D1*
Y694751D1*
Y693751D1*
Y692751D1*
Y691751D1*
Y690751D1*
Y689751D1*
Y688751D1*
Y687751D1*
Y686751D1*
Y685751D1*
Y684751D1*
Y683751D1*
Y682751D1*
Y681751D1*
Y680751D1*
Y679751D1*
Y678751D1*
Y677751D1*
Y676751D1*
Y675751D1*
Y674751D1*
Y673751D1*
Y672751D1*
Y671751D1*
Y670751D1*
Y669751D1*
Y668751D1*
Y667751D1*
Y666751D1*
Y665751D1*
Y664751D1*
X927894Y663751D1*
X927929Y662751D1*
X928056Y661751D1*
X928300Y660751D1*
X928591Y659751D1*
X928897Y658751D1*
X929264Y657751D1*
X929695Y656751D1*
X930165Y655751D1*
X930687Y654751D1*
X931313Y653751D1*
X932086Y652751D1*
X932973Y651751D1*
X933926Y650751D1*
X934949Y649751D1*
X936145Y648751D1*
X937699Y647751D1*
X939680Y646751D1*
X941890Y645751D1*
X935890Y707751D2*
Y706751D1*
Y705751D1*
Y704751D1*
Y703751D1*
Y702751D1*
Y701751D1*
Y700751D1*
Y699751D1*
Y698751D1*
Y697751D1*
Y696751D1*
Y695751D1*
Y694751D1*
Y693751D1*
Y692751D1*
Y691751D1*
Y690751D1*
Y689751D1*
Y688751D1*
Y687751D1*
Y686751D1*
Y685751D1*
Y684751D1*
Y683751D1*
Y682751D1*
Y681751D1*
Y680751D1*
Y679751D1*
Y678751D1*
Y677751D1*
Y676751D1*
Y675751D1*
Y674751D1*
Y673751D1*
Y672751D1*
Y671751D1*
Y670751D1*
Y669751D1*
Y668751D1*
Y667751D1*
Y666751D1*
Y665751D1*
Y664751D1*
X935894Y663751D1*
X935929Y662751D1*
X936060Y661751D1*
X936339Y660751D1*
X936762Y659751D1*
X937346Y658751D1*
X938140Y657751D1*
X939186Y656751D1*
X940535Y655751D1*
X942153Y654751D1*
X943890Y653751D1*
X969890Y707751D2*
Y706751D1*
Y705751D1*
Y704751D1*
Y703751D1*
Y702751D1*
Y701751D1*
Y700751D1*
Y699751D1*
Y698751D1*
Y697751D1*
Y696751D1*
Y695751D1*
Y694751D1*
Y693751D1*
Y692751D1*
Y691751D1*
Y690751D1*
Y689751D1*
Y688751D1*
Y687751D1*
Y686751D1*
Y685751D1*
Y684751D1*
Y683751D1*
Y682751D1*
Y681751D1*
Y680751D1*
Y679751D1*
Y678751D1*
Y677751D1*
Y676751D1*
Y675751D1*
Y674751D1*
Y673751D1*
Y672751D1*
Y671751D1*
Y670751D1*
Y669751D1*
Y668751D1*
Y667751D1*
Y666751D1*
Y665751D1*
Y664751D1*
X969886Y663751D1*
X969843Y662751D1*
X969737Y661751D1*
X969216Y660751D1*
X967874Y659751D1*
X966056Y658751D1*
X963819Y657751D1*
X961169Y656751D1*
X958050Y655751D1*
X954552Y654751D1*
X950890Y653751D1*
X977890Y707751D2*
Y706751D1*
Y705751D1*
Y704751D1*
Y703751D1*
Y702751D1*
Y701751D1*
Y700751D1*
Y699751D1*
Y698751D1*
Y697751D1*
Y696751D1*
Y695751D1*
Y694751D1*
Y693751D1*
Y692751D1*
Y691751D1*
Y690751D1*
Y689751D1*
Y688751D1*
Y687751D1*
Y686751D1*
Y685751D1*
Y684751D1*
Y683751D1*
Y682751D1*
Y681751D1*
Y680751D1*
Y679751D1*
Y678751D1*
Y677751D1*
Y676751D1*
Y675751D1*
Y674751D1*
Y673751D1*
Y672751D1*
Y671751D1*
Y670751D1*
Y669751D1*
Y668751D1*
Y667751D1*
Y666751D1*
Y665751D1*
Y664751D1*
Y663751D1*
Y662751D1*
Y661751D1*
Y660751D1*
Y659751D1*
Y658751D1*
Y657751D1*
Y656751D1*
Y655751D1*
Y654751D1*
Y653751D1*
Y652751D1*
Y651751D1*
Y650751D1*
Y649751D1*
Y648751D1*
Y647751D1*
Y646751D1*
X1004890Y707751D2*
X1002932Y706751D1*
X1001099Y705751D1*
X999509Y704751D1*
X998207Y703751D1*
X997171Y702751D1*
X996344Y701751D1*
X995611Y700751D1*
X994938Y699751D1*
X994398Y698751D1*
X993974Y697751D1*
X993584Y696751D1*
X993229Y695751D1*
X992901Y694751D1*
X992559Y693751D1*
X992257Y692751D1*
X992064Y691751D1*
X991964Y690751D1*
X991919Y689751D1*
X991901Y688751D1*
X991894Y687751D1*
X991891Y686751D1*
X991890Y685751D1*
Y684751D1*
X991894Y683751D1*
X991929Y682751D1*
X992056Y681751D1*
X992296Y680751D1*
X992556Y679751D1*
X992766Y678751D1*
X992990Y677751D1*
X993307Y676751D1*
X993712Y675751D1*
X994172Y674751D1*
X994690Y673751D1*
X995314Y672751D1*
X996086Y671751D1*
X996966Y670751D1*
X997890Y669751D1*
X996586Y668751D1*
X995420Y667751D1*
X994506Y666751D1*
X993796Y665751D1*
X993204Y664751D1*
X992702Y663751D1*
X992318Y662751D1*
X992088Y661751D1*
X991973Y660751D1*
X991922Y659751D1*
X991906Y658751D1*
X991933Y657751D1*
X992062Y656751D1*
X992335Y655751D1*
X992727Y654751D1*
X993211Y653751D1*
X993811Y652751D1*
X994471Y651751D1*
X995088Y650751D1*
X995205Y649751D1*
X994900Y648751D1*
X994424Y647751D1*
X993832Y646751D1*
X993245Y645751D1*
X992725Y644751D1*
X992329Y643751D1*
X992093Y642751D1*
X991975Y641751D1*
X991923Y640751D1*
X991902Y639751D1*
X991894Y638751D1*
X991891Y637751D1*
X991890Y636751D1*
Y635751D1*
Y634751D1*
Y633751D1*
Y632751D1*
Y631751D1*
Y630751D1*
Y629751D1*
X991894Y628751D1*
X991929Y627751D1*
X992060Y626751D1*
X992335Y625751D1*
X992723Y624751D1*
X993176Y623751D1*
X993691Y622751D1*
X994318Y621751D1*
X995126Y620751D1*
X996147Y619751D1*
X997422Y618751D1*
X999067Y617751D1*
X1001348Y616751D1*
X1004406Y615751D1*
X1007890Y614751D1*
X1047890Y707751D2*
Y706751D1*
X1047886Y705751D1*
X1047831Y704751D1*
X1047691Y703751D1*
X1046853Y702751D1*
X1044774Y701751D1*
X1042501Y700751D1*
X1040547Y699751D1*
X1038890Y698751D1*
X1039506Y697751D1*
X1040045Y696751D1*
X1040484Y695751D1*
X1040851Y694751D1*
X1041210Y693751D1*
X1041519Y692751D1*
X1041714Y691751D1*
X1041815Y690751D1*
X1041860Y689751D1*
X1041879Y688751D1*
X1041886Y687751D1*
X1041888Y686751D1*
X1041889Y685751D1*
X1041886Y684751D1*
X1041851Y683751D1*
X1041723Y682751D1*
X1041484Y681751D1*
X1041223Y680751D1*
X1041014Y679751D1*
X1040794Y678751D1*
X1040508Y677751D1*
X1040199Y676751D1*
X1039886Y675751D1*
X1039516Y674751D1*
X1039085Y673751D1*
X1038615Y672751D1*
X1038092Y671751D1*
X1037467Y670751D1*
X1036689Y669751D1*
X1035764Y668751D1*
X1034636Y667751D1*
X1033136Y666751D1*
X1031019Y665751D1*
X1028167Y664751D1*
X1024890Y663751D1*
X1069890Y707751D2*
X1067932Y706751D1*
X1066099Y705751D1*
X1064509Y704751D1*
X1063207Y703751D1*
X1062171Y702751D1*
X1061344Y701751D1*
X1060611Y700751D1*
X1059938Y699751D1*
X1059398Y698751D1*
X1058974Y697751D1*
X1058584Y696751D1*
X1058229Y695751D1*
X1057901Y694751D1*
X1057559Y693751D1*
X1057257Y692751D1*
X1057064Y691751D1*
X1056964Y690751D1*
X1056919Y689751D1*
X1056901Y688751D1*
X1056894Y687751D1*
X1056891Y686751D1*
X1056890Y685751D1*
Y684751D1*
X1056894Y683751D1*
X1056929Y682751D1*
X1057056Y681751D1*
X1057296Y680751D1*
X1057556Y679751D1*
X1057766Y678751D1*
X1057990Y677751D1*
X1058307Y676751D1*
X1058712Y675751D1*
X1059172Y674751D1*
X1059690Y673751D1*
X1060314Y672751D1*
X1061086Y671751D1*
X1061966Y670751D1*
X1062890Y669751D1*
X1061586Y668751D1*
X1060420Y667751D1*
X1059506Y666751D1*
X1058796Y665751D1*
X1058204Y664751D1*
X1057702Y663751D1*
X1057318Y662751D1*
X1057088Y661751D1*
X1056973Y660751D1*
X1056922Y659751D1*
X1056906Y658751D1*
X1056933Y657751D1*
X1057062Y656751D1*
X1057335Y655751D1*
X1057727Y654751D1*
X1058211Y653751D1*
X1058811Y652751D1*
X1059471Y651751D1*
X1060088Y650751D1*
X1060205Y649751D1*
X1059900Y648751D1*
X1059424Y647751D1*
X1058832Y646751D1*
X1058245Y645751D1*
X1057725Y644751D1*
X1057329Y643751D1*
X1057093Y642751D1*
X1056975Y641751D1*
X1056923Y640751D1*
X1056902Y639751D1*
X1056894Y638751D1*
X1056891Y637751D1*
X1056890Y636751D1*
Y635751D1*
Y634751D1*
Y633751D1*
Y632751D1*
Y631751D1*
Y630751D1*
Y629751D1*
X1056894Y628751D1*
X1056929Y627751D1*
X1057060Y626751D1*
X1057335Y625751D1*
X1057723Y624751D1*
X1058176Y623751D1*
X1058691Y622751D1*
X1059318Y621751D1*
X1060126Y620751D1*
X1061147Y619751D1*
X1062422Y618751D1*
X1064067Y617751D1*
X1066348Y616751D1*
X1069406Y615751D1*
X1072890Y614751D1*
X1112890Y707751D2*
Y706751D1*
X1112886Y705751D1*
X1112831Y704751D1*
X1112691Y703751D1*
X1111853Y702751D1*
X1109774Y701751D1*
X1107501Y700751D1*
X1105547Y699751D1*
X1103890Y698751D1*
X1104506Y697751D1*
X1105045Y696751D1*
X1105484Y695751D1*
X1105851Y694751D1*
X1106210Y693751D1*
X1106519Y692751D1*
X1106714Y691751D1*
X1106815Y690751D1*
X1106860Y689751D1*
X1106879Y688751D1*
X1106886Y687751D1*
X1106888Y686751D1*
X1106889Y685751D1*
X1106886Y684751D1*
X1106851Y683751D1*
X1106723Y682751D1*
X1106484Y681751D1*
X1106223Y680751D1*
X1106014Y679751D1*
X1105794Y678751D1*
X1105508Y677751D1*
X1105199Y676751D1*
X1104886Y675751D1*
X1104516Y674751D1*
X1104085Y673751D1*
X1103615Y672751D1*
X1103092Y671751D1*
X1102467Y670751D1*
X1101689Y669751D1*
X1100764Y668751D1*
X1099636Y667751D1*
X1098136Y666751D1*
X1096019Y665751D1*
X1093167Y664751D1*
X1089890Y663751D1*
X722890Y701751D2*
X721890Y700751D1*
X735890Y701751D2*
X738493Y700751D1*
X740627Y699751D1*
X742166Y698751D1*
X743212Y697751D1*
X743930Y696751D1*
X744405Y695751D1*
X744675Y694751D1*
X744838Y693751D1*
X745021Y692751D1*
X745283Y691751D1*
X745548Y690751D1*
X745721Y689751D1*
X745780Y688751D1*
X745695Y687751D1*
X745473Y686751D1*
X745224Y685751D1*
X745051Y684751D1*
X744954Y683751D1*
X744890Y682751D1*
X1012890Y700751D2*
X1009479Y699751D1*
X1006725Y698751D1*
X1004724Y697751D1*
X1003276Y696751D1*
X1002228Y695751D1*
X1001515Y694751D1*
X1001018Y693751D1*
X1000604Y692751D1*
X1000273Y691751D1*
X1000070Y690751D1*
X999966Y689751D1*
X999920Y688751D1*
X999901Y687751D1*
X999894Y686751D1*
X999891Y685751D1*
X999894Y684751D1*
X999929Y683751D1*
X1000056Y682751D1*
X1000300Y681751D1*
X1000591Y680751D1*
X1000897Y679751D1*
X1001268Y678751D1*
X1001734Y677751D1*
X1002339Y676751D1*
X1003179Y675751D1*
X1004394Y674751D1*
X1006146Y673751D1*
X1008404Y672751D1*
X1010890Y671751D1*
X1022890Y700751D2*
X1025613Y699751D1*
X1027903Y698751D1*
X1029588Y697751D1*
X1030792Y696751D1*
X1031689Y695751D1*
X1032323Y694751D1*
X1032785Y693751D1*
X1033184Y692751D1*
X1033509Y691751D1*
X1033711Y690751D1*
X1033814Y689751D1*
X1033860Y688751D1*
X1033879Y687751D1*
X1033886Y686751D1*
X1033888Y685751D1*
X1033889Y684751D1*
X1033886Y683751D1*
X1033851Y682751D1*
X1033719Y681751D1*
X1033445Y680751D1*
X1033057Y679751D1*
X1032604Y678751D1*
X1032088Y677751D1*
X1031458Y676751D1*
X1030607Y675751D1*
X1029388Y674751D1*
X1027634Y673751D1*
X1025376Y672751D1*
X1022890Y671751D1*
X1077890Y700751D2*
X1074479Y699751D1*
X1071725Y698751D1*
X1069724Y697751D1*
X1068276Y696751D1*
X1067228Y695751D1*
X1066515Y694751D1*
X1066018Y693751D1*
X1065604Y692751D1*
X1065273Y691751D1*
X1065070Y690751D1*
X1064966Y689751D1*
X1064920Y688751D1*
X1064901Y687751D1*
X1064894Y686751D1*
X1064891Y685751D1*
X1064894Y684751D1*
X1064929Y683751D1*
X1065056Y682751D1*
X1065300Y681751D1*
X1065591Y680751D1*
X1065897Y679751D1*
X1066268Y678751D1*
X1066734Y677751D1*
X1067339Y676751D1*
X1068179Y675751D1*
X1069394Y674751D1*
X1071146Y673751D1*
X1073404Y672751D1*
X1075890Y671751D1*
X1087890Y700751D2*
X1090613Y699751D1*
X1092903Y698751D1*
X1094588Y697751D1*
X1095792Y696751D1*
X1096689Y695751D1*
X1097323Y694751D1*
X1097785Y693751D1*
X1098184Y692751D1*
X1098509Y691751D1*
X1098711Y690751D1*
X1098814Y689751D1*
X1098860Y688751D1*
X1098879Y687751D1*
X1098886Y686751D1*
X1098888Y685751D1*
X1098889Y684751D1*
X1098886Y683751D1*
X1098851Y682751D1*
X1098719Y681751D1*
X1098445Y680751D1*
X1098057Y679751D1*
X1097604Y678751D1*
X1097088Y677751D1*
X1096458Y676751D1*
X1095607Y675751D1*
X1094388Y674751D1*
X1092634Y673751D1*
X1090376Y672751D1*
X1087890Y671751D1*
X712890Y682751D2*
X711278Y681751D1*
X709778Y680751D1*
X708501Y679751D1*
X707505Y678751D1*
X706681Y677751D1*
X705966Y676751D1*
X705408Y675751D1*
X704977Y674751D1*
X704589Y673751D1*
X704268Y672751D1*
X704068Y671751D1*
X703966Y670751D1*
X703920Y669751D1*
X703901Y668751D1*
X703894Y667751D1*
X703891Y666751D1*
X703890Y665751D1*
Y664751D1*
Y663751D1*
Y662751D1*
Y661751D1*
Y660751D1*
X703894Y659751D1*
X703929Y658751D1*
X704056Y657751D1*
X704300Y656751D1*
X704595Y655751D1*
X704932Y654751D1*
X705396Y653751D1*
X705973Y652751D1*
X706592Y651751D1*
X707311Y650751D1*
X708281Y649751D1*
X709623Y648751D1*
X711393Y647751D1*
X713544Y646751D1*
X715890Y645751D1*
X833890Y683751D2*
Y682751D1*
Y681751D1*
Y680751D1*
Y679751D1*
Y678751D1*
Y677751D1*
Y676751D1*
Y675751D1*
Y674751D1*
Y673751D1*
Y672751D1*
Y671751D1*
Y670751D1*
Y669751D1*
Y668751D1*
Y667751D1*
Y666751D1*
Y665751D1*
Y664751D1*
Y663751D1*
Y662751D1*
Y661751D1*
Y660751D1*
Y659751D1*
Y658751D1*
Y657751D1*
Y656751D1*
Y655751D1*
Y654751D1*
Y653751D1*
Y652751D1*
Y651751D1*
Y650751D1*
Y649751D1*
Y648751D1*
Y647751D1*
Y646751D1*
X828890Y683751D2*
X839890Y682751D1*
X850890Y681751D1*
X743890Y677751D2*
X742890Y676751D1*
X744890Y677751D2*
Y676751D1*
Y675751D1*
Y674751D1*
Y673751D1*
Y672751D1*
Y671751D1*
Y670751D1*
Y669751D1*
Y668751D1*
Y667751D1*
Y666751D1*
Y665751D1*
Y664751D1*
X744886Y663751D1*
X744839Y662751D1*
X744722Y661751D1*
X744095Y660751D1*
X742399Y659751D1*
X740021Y658751D1*
X736926Y657751D1*
X732921Y656751D1*
X727357Y655751D1*
X719739Y654751D1*
X710890Y653751D1*
X774890Y677751D2*
Y676751D1*
Y675751D1*
Y674751D1*
Y673751D1*
Y672751D1*
Y671751D1*
Y670751D1*
Y669751D1*
Y668751D1*
Y667751D1*
Y666751D1*
Y665751D1*
Y664751D1*
Y663751D1*
Y662751D1*
Y661751D1*
Y660751D1*
Y659751D1*
Y658751D1*
Y657751D1*
Y656751D1*
Y655751D1*
Y654751D1*
Y653751D1*
Y652751D1*
Y651751D1*
Y650751D1*
Y649751D1*
Y648751D1*
Y647751D1*
Y646751D1*
X779890Y677751D2*
X780886Y676751D1*
X781851Y675751D1*
X782723Y674751D1*
X783484Y673751D1*
X784227Y672751D1*
X785049Y671751D1*
X785921Y670751D1*
X786751Y669751D1*
X787494Y668751D1*
X788231Y667751D1*
X789050Y666751D1*
X789922Y665751D1*
X790751Y664751D1*
X791494Y663751D1*
X792231Y662751D1*
X793050Y661751D1*
X793922Y660751D1*
X794751Y659751D1*
X795494Y658751D1*
X796231Y657751D1*
X797050Y656751D1*
X797922Y655751D1*
X798751Y654751D1*
X799494Y653751D1*
X800231Y652751D1*
X801050Y651751D1*
X801922Y650751D1*
X802751Y649751D1*
X803485Y648751D1*
X804181Y647751D1*
X804890Y646751D1*
X729890Y676751D2*
X728890Y675751D1*
X718890D2*
X717086Y674751D1*
X715505Y673751D1*
X714210Y672751D1*
X713214Y671751D1*
X712438Y670751D1*
X712156Y669751D1*
X712003Y668751D1*
X711934Y667751D1*
X711906Y666751D1*
X711896Y665751D1*
X711892Y664751D1*
X711890Y663751D1*
Y662751D1*
Y661751D1*
X711894Y660751D1*
X711933Y659751D1*
X712099Y658751D1*
X712411Y657751D1*
X713240Y656751D1*
X715697Y655751D1*
X719758Y654751D1*
X724890Y653751D1*
X1001890Y663751D2*
X1001086Y662751D1*
X1000501Y661751D1*
X1000174Y660751D1*
X999998Y659751D1*
X1000190Y658751D1*
X1001089Y657751D1*
X1002387Y656751D1*
X1003890Y655751D1*
X1066890Y663751D2*
X1066086Y662751D1*
X1065501Y661751D1*
X1065174Y660751D1*
X1064998Y659751D1*
X1065190Y658751D1*
X1066089Y657751D1*
X1067387Y656751D1*
X1068890Y655751D1*
X1033890D2*
X1035964Y654751D1*
X1037751Y653751D1*
X1039173Y652751D1*
X1040234Y651751D1*
X1041083Y650751D1*
X1041809Y649751D1*
X1042370Y648751D1*
X1042801Y647751D1*
X1043190Y646751D1*
X1043511Y645751D1*
X1043712Y644751D1*
X1043814Y643751D1*
X1043860Y642751D1*
X1043879Y641751D1*
X1043886Y640751D1*
X1043888Y639751D1*
X1043889Y638751D1*
X1043890Y637751D1*
Y636751D1*
Y635751D1*
Y634751D1*
Y633751D1*
Y632751D1*
Y631751D1*
Y630751D1*
Y629751D1*
X1043886Y628751D1*
X1043851Y627751D1*
X1043719Y626751D1*
X1043445Y625751D1*
X1043057Y624751D1*
X1042608Y623751D1*
X1042127Y622751D1*
X1041628Y621751D1*
X1041060Y620751D1*
X1040295Y619751D1*
X1039198Y618751D1*
X1037684Y617751D1*
X1035600Y616751D1*
X1032902Y615751D1*
X1029890Y614751D1*
X1098890Y655751D2*
X1100964Y654751D1*
X1102751Y653751D1*
X1104173Y652751D1*
X1105234Y651751D1*
X1106083Y650751D1*
X1106809Y649751D1*
X1107370Y648751D1*
X1107801Y647751D1*
X1108190Y646751D1*
X1108511Y645751D1*
X1108712Y644751D1*
X1108814Y643751D1*
X1108860Y642751D1*
X1108879Y641751D1*
X1108886Y640751D1*
X1108888Y639751D1*
X1108889Y638751D1*
X1108890Y637751D1*
Y636751D1*
Y635751D1*
Y634751D1*
Y633751D1*
Y632751D1*
Y631751D1*
Y630751D1*
Y629751D1*
X1108886Y628751D1*
X1108851Y627751D1*
X1108719Y626751D1*
X1108445Y625751D1*
X1108057Y624751D1*
X1107608Y623751D1*
X1107127Y622751D1*
X1106628Y621751D1*
X1106060Y620751D1*
X1105295Y619751D1*
X1104198Y618751D1*
X1102684Y617751D1*
X1100600Y616751D1*
X1097902Y615751D1*
X1094890Y614751D1*
X661890Y653751D2*
X661739Y652751D1*
X661530Y651751D1*
X661339Y650751D1*
X661559Y649751D1*
X662333Y648751D1*
X664173Y647751D1*
X666792Y646751D1*
X669890Y645751D1*
X666890Y653751D2*
X667890Y652751D1*
X745890Y653751D2*
X743082Y652751D1*
X740458Y651751D1*
X737957Y650751D1*
X735381Y649751D1*
X732572Y648751D1*
X729398Y647751D1*
X725777Y646751D1*
X721890Y645751D1*
X745890Y653751D2*
X745928Y652751D1*
X746056Y651751D1*
X746300Y650751D1*
X746594Y649751D1*
X746924Y648751D1*
X747364Y647751D1*
X747890Y646751D1*
X969890Y653751D2*
X968044Y652751D1*
X966292Y651751D1*
X964547Y650751D1*
X962683Y649751D1*
X960610Y648751D1*
X958250Y647751D1*
X955629Y646751D1*
X952890Y645751D1*
X968890Y653751D2*
X969731Y652751D1*
X970444Y651751D1*
X971023Y650751D1*
X971480Y649751D1*
X971880Y648751D1*
X972348Y647751D1*
X972890Y646751D1*
X998890Y648751D2*
Y647751D1*
Y646751D1*
Y645751D1*
Y644751D1*
Y643751D1*
Y642751D1*
Y641751D1*
Y640751D1*
Y639751D1*
Y638751D1*
Y637751D1*
Y636751D1*
Y635751D1*
Y634751D1*
X998894Y633751D1*
X998929Y632751D1*
X999056Y631751D1*
X999300Y630751D1*
X999595Y629751D1*
X999936Y628751D1*
X1000443Y627751D1*
X1001226Y626751D1*
X1002412Y625751D1*
X1004154Y624751D1*
X1006406Y623751D1*
X1008890Y622751D1*
X1001890Y648751D2*
X1002890Y647751D1*
X1063890Y648751D2*
Y647751D1*
Y646751D1*
Y645751D1*
Y644751D1*
Y643751D1*
Y642751D1*
Y641751D1*
Y640751D1*
Y639751D1*
Y638751D1*
Y637751D1*
Y636751D1*
Y635751D1*
Y634751D1*
X1063894Y633751D1*
X1063929Y632751D1*
X1064056Y631751D1*
X1064300Y630751D1*
X1064595Y629751D1*
X1064936Y628751D1*
X1065443Y627751D1*
X1066226Y626751D1*
X1067412Y625751D1*
X1069154Y624751D1*
X1071406Y623751D1*
X1073890Y622751D1*
X1066890Y648751D2*
X1067890Y647751D1*
X1032890D2*
X1033848Y646751D1*
X1034684Y645751D1*
X1035313Y644751D1*
X1035778Y643751D1*
X1036181Y642751D1*
X1036508Y641751D1*
X1036710Y640751D1*
X1036814Y639751D1*
X1036860Y638751D1*
X1036879Y637751D1*
X1036886Y636751D1*
X1036888Y635751D1*
X1036889Y634751D1*
X1036886Y633751D1*
X1036851Y632751D1*
X1036723Y631751D1*
X1036480Y630751D1*
X1036188Y629751D1*
X1035879Y628751D1*
X1035468Y627751D1*
X1034836Y626751D1*
X1033833Y625751D1*
X1032410Y624751D1*
X1030705Y623751D1*
X1028890Y622751D1*
X1097890Y647751D2*
X1098848Y646751D1*
X1099684Y645751D1*
X1100313Y644751D1*
X1100778Y643751D1*
X1101181Y642751D1*
X1101508Y641751D1*
X1101710Y640751D1*
X1101814Y639751D1*
X1101860Y638751D1*
X1101879Y637751D1*
X1101886Y636751D1*
X1101888Y635751D1*
X1101889Y634751D1*
X1101886Y633751D1*
X1101851Y632751D1*
X1101723Y631751D1*
X1101480Y630751D1*
X1101188Y629751D1*
X1100879Y628751D1*
X1100468Y627751D1*
X1099836Y626751D1*
X1098833Y625751D1*
X1097410Y624751D1*
X1095705Y623751D1*
X1093890Y622751D1*
M02*
