M48
INCH
T01C0.0118
T02C0.024
T03C0.032
T04C0.0394
T05C0.04
T06C0.0433
T07C0.052
T08C0.084
T09C0.1181
%
T01
X+005421Y+013398
X+006235Y+013238
X+006677Y+012745
X+006947Y+013064
X+007174Y+012588
X+007549Y+012970
X+007780Y+012461
X+008037Y+012067
X+008915Y+011758
X+008624Y+011138
X+009168Y+010630
X+009523Y+010178
X+009854Y+009748
X+010394Y+009834
X+010407Y+009462
X+009523Y+009225
X+008757Y+009754
X+007876Y+009449
X+007746Y+008790
X+007321Y+008683
X+007706Y+008092
X+008037Y+008004
X+008224Y+008700
X+007870Y+010210
X+007870Y+010987
X+007086Y+009767
X+006450Y+010009
X+006464Y+010494
X+005375Y+010467
X+005375Y+009829
X+005374Y+009476
X+006342Y+009230
X+005426Y+008166
X+005456Y+006998
X+004185Y+007147
X+004392Y+008791
X+004200Y+010076
X+004194Y+012141
X+005184Y+012404
X+006104Y+014302
X+006820Y+015013
X+007566Y+015262
X+008262Y+014737
X+007631Y+014390
X+007602Y+013985
X+008281Y+013981
X+008059Y+013202
X+009698Y+013063
X+009745Y+014230
X+011039Y+013687
X+010905Y+012616
X+011302Y+012465
X+010394Y+010464
X+011455Y+010181
X+011228Y+008585
X+011509Y+007144
X+006162Y+004442
X+005390Y+004865
X+005128Y+005685
X+004194Y+015820
X+004199Y+017328
X+005207Y+017095
X+005493Y+017337
X+005475Y+017657
X+005351Y+018402
X+006388Y+018270
X+005441Y+019582
X+004974Y+020849
X+004599Y+020849
X+004224Y+020849
X+004211Y+022678
X+004210Y+023225
X+004727Y+024303
X+004474Y+024567
X+005577Y+024651
X+005577Y+023629
X+005624Y+023299
X+005971Y+023090
X+005605Y+022531
X+006557Y+022321
X+007613Y+021815
X+007976Y+022507
X+007686Y+022939
X+007999Y+023228
X+008525Y+022922
X+008949Y+022293
X+009239Y+022365
X+008974Y+021942
X+008926Y+021557
X+008567Y+021244
X+008404Y+021558
X+009526Y+020854
X+010633Y+021222
X+010781Y+021560
X+010913Y+021847
X+010206Y+023030
X+009187Y+023901
X+008735Y+023698
X+008471Y+023919
X+008402Y+024573
X+008759Y+024593
X+007945Y+025028
X+007738Y+025301
X+007618Y+024790
X+006828Y+024691
X+006643Y+024144
X+007724Y+025843
X+008805Y+025937
X+010038Y+026033
X+010162Y+026942
X+011199Y+027948
X+011133Y+028693
X+011123Y+029138
X+011123Y+029502
X+011113Y+029926
X+011103Y+030301
X+011143Y+030675
X+009824Y+030993
X+008865Y+031933
X+008449Y+032083
X+008088Y+032643
X+007695Y+031940
X+007854Y+031545
X+007329Y+031141
X+006438Y+030870
X+005662Y+032312
X+005431Y+032782
X+005662Y+033192
X+006021Y+032800
X+006582Y+033129
X+006310Y+033465
X+007242Y+032406
X+008804Y+033517
X+009358Y+033644
X+009868Y+033109
X+009624Y+032448
X+008640Y+034799
X+007813Y+035378
X+007432Y+035232
X+006504Y+036206
X+005367Y+036067
X+005400Y+035425
X+005537Y+034692
X+004268Y+034949
X+004249Y+036095
X+004420Y+036805
X+006438Y+038192
X+007406Y+037267
X+008973Y+036107
X+010865Y+034917
X+011611Y+035176
X+011537Y+036192
X+011500Y+036884
X+011529Y+039057
X+010547Y+040375
X+009326Y+041309
X+010410Y+042484
X+008823Y+044368
X+007940Y+044316
X+009819Y+038567
X+008011Y+030259
X+008364Y+028729
X+008779Y+028472
X+008342Y+028167
X+007850Y+027728
X+008011Y+027221
X+007355Y+027524
X+007633Y+028234
X+005507Y+027226
X+005599Y+026692
X+005649Y+025976
X+004949Y+025650
X+004629Y+026317
X+004885Y+029832
X+004384Y+030259
X+010653Y+025317
X+010656Y+024927
X+010950Y+025005
X+010786Y+024621
X+010913Y+024295
X+010977Y+025546
X+011073Y+020216
X+011071Y+019794
X+010482Y+019978
X+010526Y+019209
X+010052Y+018925
X+009645Y+018601
X+010233Y+018374
X+011491Y+017100
X+011481Y+016758
X+011096Y+016761
X+010849Y+016234
X+010327Y+015525
X+008875Y+016147
X+006972Y+016058
X+007677Y+020011
T02
X+004476Y+028972
X+004976Y+028972
X+004976Y+028472
X+004476Y+028472
X+004476Y+027972
X+004976Y+027972
X+004976Y+027472
X+004476Y+027472
X+004476Y+026972
X+004976Y+026972
T03
X+004912Y+037942
X+004912Y+036942
X+010912Y+036942
X+010912Y+037942
X+010912Y+038942
X+010912Y+039942
X+010912Y+040942
X+010912Y+041942
X+010912Y+042942
X+010912Y+043942
X+007912Y+007029
X+007912Y+006029
X+007912Y+005421
X+007912Y+004421
T04
X+008892Y+041992
X+007912Y+041989
X+006932Y+041992
X+006932Y+034242
X+006195Y+034266
X+007912Y+034239
X+008892Y+034242
X+009624Y+034263
X+011400Y+034266
X+011400Y+031707
X+009629Y+031704
X+006199Y+031707
X+004423Y+031704
X+004423Y+034263
X+006932Y+026492
X+007912Y+026489
X+008892Y+026492
X+008892Y+018742
X+007912Y+018739
X+006932Y+018742
X+007021Y+006217
X+007024Y+004445
X+008808Y+004447
X+008805Y+006223
X+011364Y+006223
X+011367Y+004451
X+004465Y+004441
X+004461Y+006217
T05
X+009912Y+016062
X+005912Y+016062
X+005912Y+006572
X+009912Y+006572
X+005898Y+039256
X+004898Y+039256
X+004898Y+040256
X+005898Y+040256
X+005898Y+041256
X+004898Y+041256
X+004898Y+042256
X+005898Y+042256
X+005898Y+043256
X+004898Y+043256
T06
X+006929Y+017886
X+006929Y+016886
X+007929Y+016886
X+007929Y+017886
X+008929Y+017886
X+008929Y+016886
X+009929Y+016886
X+009929Y+017886
X+005929Y+017886
X+005929Y+016886
T07
X+009912Y+015062
X+009912Y+011812
X+009912Y+010822
X+009912Y+007572
X+005912Y+007572
X+005912Y+010822
X+005912Y+011812
X+005912Y+015062
T08
X+006042Y+044942
X+009782Y+044942
X+009782Y+037192
X+006042Y+037192
X+006042Y+029442
X+009782Y+029442
X+009782Y+021692
X+006042Y+021692
T09
X+007912Y+040567
T00
M30
