G04 DipTrace 3.3.0.0*
G04 uPeaks_exp04.GTP*
%MOIN*%
G04 #@! TF.FileFunction,Paste,Top*
G04 #@! TF.Part,Single*
%AMOUTLINE12*
4,1,4,
-0.0125,-0.025,
0.0125,-0.025,
0.0125,0.025,
-0.0125,0.025,
-0.0125,-0.025,
0*%
%AMOUTLINE15*
4,1,4,
-0.010385,-0.011776,
-0.011776,-0.010385,
0.010385,0.011776,
0.011776,0.010385,
-0.010385,-0.011776,
0*%
%AMOUTLINE18*
4,1,4,
0.010385,-0.011776,
-0.011776,0.010385,
-0.010385,0.011776,
0.011776,-0.010385,
0.010385,-0.011776,
0*%
%ADD59R,0.062835X0.007717*%
%ADD65R,0.031339X0.047087*%
%ADD67R,0.086457X0.110079*%
%ADD69R,0.025433X0.019528*%
%ADD77R,0.00811X0.032126*%
%ADD79R,0.031339X0.019528*%
%ADD81R,0.141969X0.070969*%
%ADD83R,0.050969X0.070969*%
%ADD85R,0.031339X0.078583*%
%ADD87R,0.031339X0.035276*%
%ADD89R,0.047087X0.094331*%
%ADD91R,0.035276X0.031339*%
%ADD93R,0.094331X0.047087*%
%ADD112OUTLINE12*%
%ADD115OUTLINE15*%
%ADD118OUTLINE18*%
%FSLAX26Y26*%
G04*
G70*
G90*
G75*
G01*
G04 TopPaste*
%LPD*%
D93*
X1121858Y3556861D3*
X960441D3*
X460856Y3560888D3*
X622273D3*
D91*
X792009Y4278999D3*
X858938D3*
D89*
X785449Y2933415D3*
Y3094832D3*
D91*
X705483Y2112949D3*
X772412D3*
D87*
X573255Y1992427D3*
Y2059356D3*
D91*
X437454Y2293428D3*
X504383D3*
X830661Y2736932D3*
X897591D3*
X516163Y2375449D3*
X449234D3*
X1051378Y2353079D3*
X1118307D3*
X933688Y1931791D3*
X1000617D3*
D87*
X993500Y1995760D3*
Y2062689D3*
X926385Y1997580D3*
Y2064509D3*
D91*
X1149627Y756700D3*
X1082698D3*
Y906700D3*
X1149627D3*
X582814Y1352163D3*
X515885D3*
X1149627Y1056700D3*
X1082698D3*
X678461Y1175938D3*
X745390D3*
X432698Y762949D3*
X499627D3*
Y906700D3*
X432698D3*
D87*
X587680Y868553D3*
Y935482D3*
D91*
X743161Y1094793D3*
X676232D3*
X432698Y1056700D3*
X499627D3*
D87*
X1000752Y940018D3*
Y873089D3*
D85*
X740623Y3674723D3*
X840623D3*
Y3899526D3*
X740623D3*
D83*
X702163Y4370200D3*
X792163D3*
X882163D3*
D81*
X791163Y4618200D3*
D79*
X695476Y1983776D3*
X782091Y2021177D3*
Y1946374D3*
D77*
X1067818Y1885891D3*
X1093408D3*
X1118999D3*
X1144589D3*
Y2074867D3*
X1118999D3*
X1093408D3*
X1067818D3*
D91*
X835934Y3326988D3*
X902864D3*
X703538Y3350025D3*
X770467D3*
X1145227Y1574139D3*
X1078298D3*
X1145669Y1381501D3*
X1078740D3*
D79*
X919916Y1110953D3*
X833302Y1073551D3*
Y1148354D3*
D69*
X766163Y3262571D3*
X703171D3*
D67*
X477130Y1985249D3*
Y2184877D3*
D65*
X465551Y1878009D3*
X502953Y1791395D3*
X428150D3*
X463706Y1710730D3*
X501108Y1624116D3*
X426304D3*
D87*
X432039Y3776168D3*
Y3709239D3*
D91*
X445528Y2608726D3*
X512457D3*
D87*
X1147677Y4388741D3*
Y4321812D3*
X1152315Y4195059D3*
Y4128130D3*
Y4000449D3*
Y3933520D3*
Y3787949D3*
Y3721020D3*
X854142Y2063281D3*
Y1996352D3*
D91*
X604741Y541155D3*
X537812D3*
X1138892Y1742966D3*
X1071963D3*
X448248Y2519293D3*
X515177D3*
X1082698Y831700D3*
X1149627D3*
X1082074Y1200852D3*
X1149003D3*
D87*
X1066163Y2231700D3*
Y2298629D3*
D91*
X1149627Y687950D3*
X1082698D3*
Y981700D3*
X1149627D3*
X908551Y1011293D3*
X841622D3*
X1082698Y1125449D3*
X1149627D3*
X1071702Y1817047D3*
X1138631D3*
X604325Y458032D3*
X537396D3*
X499627Y831700D3*
X432698D3*
X834349Y1204871D3*
X901278D3*
X432698Y687950D3*
X499627D3*
X498978Y1196142D3*
X432049D3*
D87*
X991163Y2681700D3*
Y2748629D3*
D91*
X499627Y975449D3*
X432698D3*
X675037Y1011549D3*
X741966D3*
X499627Y1125449D3*
X432698D3*
G36*
X447608Y1500289D2*
X527544D1*
Y1580354D1*
X447608D1*
Y1500289D1*
G37*
D112*
X505325Y1540290D3*
X471861D3*
D115*
X594274Y2362870D3*
X608193Y2348951D3*
X622113Y2335032D3*
X636032Y2321112D3*
X649951Y2307193D3*
X663871Y2293273D3*
X677790Y2279354D3*
X691710Y2265434D3*
X705629Y2251514D3*
X719549Y2237596D3*
X733469Y2223676D3*
X747387Y2209757D3*
D118*
X830904D3*
X844823Y2223676D3*
X858743Y2237596D3*
X872663Y2251514D3*
X886581Y2265434D3*
X900501Y2279354D3*
X914420Y2293273D3*
X928340Y2307193D3*
X942260Y2321112D3*
X956179Y2335032D3*
X970098Y2348951D3*
X984017Y2362870D3*
D115*
Y2446387D3*
X970098Y2460306D3*
X956179Y2474226D3*
X942260Y2488146D3*
X928340Y2502064D3*
X914420Y2515984D3*
X900501Y2529903D3*
X886581Y2543823D3*
X872663Y2557743D3*
X858743Y2571661D3*
X844823Y2585581D3*
X830904Y2599500D3*
D118*
X747387D3*
X733469Y2585581D3*
X719549Y2571661D3*
X705629Y2557743D3*
X691710Y2543823D3*
X677790Y2529903D3*
X663871Y2515984D3*
X649951Y2502064D3*
X636032Y2488146D3*
X622113Y2474226D3*
X608193Y2460306D3*
X594274Y2446387D3*
D59*
X679883Y1473723D3*
Y1448133D3*
Y1422542D3*
Y1396951D3*
Y1371361D3*
Y1345770D3*
X679891Y1320180D3*
X908230D3*
Y1345770D3*
Y1371361D3*
Y1396951D3*
Y1422542D3*
Y1448133D3*
Y1473723D3*
D91*
X516870Y1278781D3*
X583799D3*
X1080921Y1313739D3*
X1147850D3*
X512294Y1421660D3*
X579223D3*
X1079469Y1448310D3*
X1146398D3*
D59*
X677378Y948574D3*
Y922983D3*
Y897392D3*
Y871802D3*
Y846211D3*
Y820621D3*
X677386Y795030D3*
X905724D3*
Y820621D3*
Y846211D3*
Y871802D3*
Y897392D3*
Y922983D3*
Y948574D3*
D87*
X446882Y1401799D3*
Y1468728D3*
X444997Y1340021D3*
Y1273092D3*
X1013074Y1381453D3*
Y1314524D3*
D91*
X1145182Y1509403D3*
X1078253D3*
M02*
