G04 DipTrace 3.3.0.0*
G04 uPeaks_exp04.GTO*
%MOIN*%
G04 #@! TF.FileFunction,Legend,Top*
G04 #@! TF.Part,Single*
%ADD10C,0.009843*%
%ADD12C,0.001*%
%ADD18C,0.008*%
%ADD20C,0.01*%
%ADD21C,0.006*%
%ADD22C,0.004*%
%ADD32C,0.005*%
%ADD38C,0.002756*%
%ADD94C,0.003088*%
%ADD96C,0.00772*%
%ADD97C,0.015439*%
%ADD98C,0.006176*%
%ADD99C,0.004632*%
%FSLAX26Y26*%
G04*
G70*
G90*
G75*
G01*
G04 TopSilk*
%LPD*%
X1143522Y3519458D2*
D22*
Y3454499D1*
X991928D1*
X938777Y3507645D1*
Y3519458D1*
Y3594264D2*
Y3606077D1*
X991928Y3659223D1*
X1143522D1*
Y3594264D1*
X1131705Y3523388D2*
G02X950594Y3523388I-90556J33497D01*
G01*
X1131705Y3590333D2*
G03X950594Y3590333I-90556J-33497D01*
G01*
X439191Y3598292D2*
Y3663251D1*
X590786D1*
X643937Y3610104D1*
Y3598292D1*
Y3523485D2*
Y3511673D1*
X590786Y3458526D1*
X439191D1*
Y3523485D1*
X451009Y3594361D2*
G02X632120Y3594361I90556J-33497D01*
G01*
X451009Y3527416D2*
G03X632120Y3527416I90556J33497D01*
G01*
G36*
X814671Y4298613D2*
X835913D1*
Y4259388D1*
X814671D1*
Y4298613D1*
G37*
X748046Y2911751D2*
D22*
X683087D1*
Y3063345D1*
X736233Y3116496D1*
X748046D1*
X822852D2*
X834665D1*
X887811Y3063345D1*
Y2911751D1*
X822852D1*
X751976Y2923568D2*
G02X751976Y3104679I33497J90556D01*
G01*
X818921Y2923568D2*
G03X818921Y3104679I-33497J90556D01*
G01*
G36*
X728144Y2132563D2*
X749387D1*
Y2093339D1*
X728144D1*
Y2132563D1*
G37*
G36*
X553640Y2015088D2*
X592865D1*
Y2036330D1*
X553640D1*
Y2015088D1*
G37*
G36*
X460116Y2313042D2*
X481358D1*
Y2273818D1*
X460116D1*
Y2313042D1*
G37*
G36*
X853323Y2756546D2*
X874565D1*
Y2717322D1*
X853323D1*
Y2756546D1*
G37*
G36*
X493501Y2355835D2*
X472259D1*
Y2395059D1*
X493501D1*
Y2355835D1*
G37*
G36*
X1074039Y2372693D2*
X1095282D1*
Y2333469D1*
X1074039D1*
Y2372693D1*
G37*
G36*
X956349Y1951406D2*
X977592D1*
Y1912181D1*
X956349D1*
Y1951406D1*
G37*
G36*
X973886Y2018421D2*
X1013110D1*
Y2039664D1*
X973886D1*
Y2018421D1*
G37*
G36*
X906770Y2020241D2*
X945995D1*
Y2041484D1*
X906770D1*
Y2020241D1*
G37*
G36*
X1126966Y737085D2*
X1105723D1*
Y776310D1*
X1126966D1*
Y737085D1*
G37*
G36*
X1105360Y926314D2*
X1126602D1*
Y887089D1*
X1105360D1*
Y926314D1*
G37*
G36*
X560152Y1332549D2*
X538910D1*
Y1371773D1*
X560152D1*
Y1332549D1*
G37*
G36*
X1126966Y1037085D2*
X1105723D1*
Y1076310D1*
X1126966D1*
Y1037085D1*
G37*
G36*
X701122Y1195553D2*
X722365D1*
Y1156328D1*
X701122D1*
Y1195553D1*
G37*
G36*
X455360Y782563D2*
X476602D1*
Y743339D1*
X455360D1*
Y782563D1*
G37*
G36*
X476966Y887085D2*
X455723D1*
Y926310D1*
X476966D1*
Y887085D1*
G37*
G36*
X568066Y891214D2*
X607290D1*
Y912456D1*
X568066D1*
Y891214D1*
G37*
G36*
X720500Y1075179D2*
X699258D1*
Y1114403D1*
X720500D1*
Y1075179D1*
G37*
G36*
X455360Y1076314D2*
X476602D1*
Y1037089D1*
X455360D1*
Y1076314D1*
G37*
G36*
X1020366Y917357D2*
X981142D1*
Y896114D1*
X1020366D1*
Y917357D1*
G37*
X698100Y3732004D2*
D10*
X883147D1*
Y3840284D1*
Y3842246D2*
X698100D1*
Y3802882D1*
Y3732004D2*
Y3771367D1*
G03X698100Y3802882I1844J15758D01*
G01*
X668171Y4562346D2*
D21*
Y4426118D1*
X914155D2*
Y4562346D1*
X668171D2*
X914155D1*
Y4426118D2*
X668171D1*
X1165259Y1921331D2*
D18*
Y2039427D1*
X1047148D2*
Y1921331D1*
X1061050Y1941381D2*
G02X1061050Y1941381I5652J0D01*
G01*
G36*
X858254Y3333024D2*
X880423D1*
Y3320106D1*
X858254D1*
Y3333024D1*
G37*
G36*
X725858Y3356060D2*
X748026D1*
Y3343143D1*
X725858D1*
Y3356060D1*
G37*
G36*
X1122907Y1568104D2*
X1100739D1*
Y1581021D1*
X1122907D1*
Y1568104D1*
G37*
G36*
X1123350Y1375466D2*
X1101181D1*
Y1388383D1*
X1123350D1*
Y1375466D1*
G37*
X1042904Y1838618D2*
D32*
Y1638618D1*
X542904D1*
Y1838618D1*
X1042904D1*
X552354Y1651998D2*
G02X552354Y1651998I3925J0D01*
G01*
X435124Y2922224D2*
D21*
X422625Y2909724D1*
Y2884724D2*
X435124Y2872224D1*
X422625Y2859724D1*
Y2834724D2*
X435124Y2822224D1*
X422625Y2809724D1*
Y2784724D2*
X435124Y2772224D1*
X422625Y2759724D1*
Y2734724D2*
X435124Y2722224D1*
Y2922224D2*
X510128D1*
X522627Y2909724D1*
Y2884724D1*
X510128Y2872224D1*
X522627Y2859724D1*
Y2834724D1*
X510128Y2822224D1*
X522627Y2809724D1*
Y2784724D1*
X510128Y2772224D1*
X522627Y2759724D1*
Y2734724D1*
X510128Y2722224D1*
Y2872224D2*
X435124D1*
X510128Y2822224D2*
X435124D1*
X510128Y2772224D2*
X435124D1*
X510128Y2722224D2*
X435124D1*
X422625Y2759724D2*
Y2734724D1*
Y2809724D2*
Y2784724D1*
Y2859724D2*
Y2834724D1*
Y2909724D2*
Y2884724D1*
X435124Y2722224D2*
X422625Y2709724D1*
Y2684724D2*
X435124Y2672224D1*
X510128Y2722224D2*
X522627Y2709724D1*
Y2684724D1*
X510128Y2672224D1*
X435124D1*
X422625Y2709724D2*
Y2684724D1*
X410127Y2909724D2*
D18*
Y2884724D1*
X614853Y3875650D2*
D21*
X639850Y3900650D1*
Y3950650D2*
X614853Y3975650D1*
X639850Y4000650D1*
Y4050650D2*
X614853Y4075650D1*
X639850Y4100650D1*
Y4150650D2*
X614853Y4175650D1*
X639850Y4200650D1*
Y4250650D2*
X614853Y4275650D1*
Y3875650D2*
X464845D1*
X439848Y3900650D1*
Y3950650D1*
X464845Y3975650D1*
X439848Y4000650D1*
Y4050650D1*
X464845Y4075650D1*
X439848Y4100650D1*
Y4150650D1*
X464845Y4175650D1*
X439848Y4200650D1*
Y4250650D1*
X464845Y4275650D1*
Y3975650D2*
X614853D1*
X464845Y4075650D2*
X614853D1*
X464845Y4175650D2*
X614853D1*
X464845Y4275650D2*
X614853D1*
X639850Y4200650D2*
Y4250650D1*
Y4100650D2*
Y4150650D1*
Y4000650D2*
Y4050650D1*
Y3900650D2*
Y3950650D1*
X614853Y4275650D2*
X639850Y4300650D1*
Y4350650D2*
X614853Y4375650D1*
X464845Y4275650D2*
X439848Y4300650D1*
Y4350650D1*
X464845Y4375650D1*
X614853D1*
X639850Y4300650D2*
Y4350650D1*
X664848Y3900650D2*
D18*
Y3950650D1*
G36*
X599845Y4135650D2*
X579843D1*
Y4115650D1*
X599845D1*
Y4135650D1*
G37*
X762224Y3246823D2*
D38*
X699238D1*
Y3278319D2*
X762224D1*
G36*
X742538Y3266508D2*
X726796D1*
Y3258634D1*
X742538D1*
Y3266508D1*
G37*
X555870Y2045695D2*
D10*
X398390D1*
X555870Y2124431D2*
X398390D1*
X527130Y2103810D2*
X427130D1*
Y2066317D1*
X527130D1*
Y2103810D2*
Y2066317D1*
G36*
X438075Y3753848D2*
X425158D1*
Y3731680D1*
X438075D1*
Y3753848D1*
G37*
G36*
X467847Y2614761D2*
X490016D1*
Y2601844D1*
X467847D1*
Y2614761D1*
G37*
G36*
X1153713Y4366422D2*
X1140795D1*
Y4344253D1*
X1153713D1*
Y4366422D1*
G37*
G36*
X1158350Y4172739D2*
X1145433D1*
Y4150571D1*
X1158350D1*
Y4172739D1*
G37*
G36*
Y3978129D2*
X1145433D1*
Y3955961D1*
X1158350D1*
Y3978129D1*
G37*
G36*
Y3765629D2*
X1145433D1*
Y3743461D1*
X1158350D1*
Y3765629D1*
G37*
G36*
X860177Y2040961D2*
X847260D1*
Y2018793D1*
X860177D1*
Y2040961D1*
G37*
G36*
X582422Y535119D2*
X560253D1*
Y548037D1*
X582422D1*
Y535119D1*
G37*
G36*
X1116573Y1736930D2*
X1094404D1*
Y1749848D1*
X1116573D1*
Y1736930D1*
G37*
G36*
X470568Y2525328D2*
X492736D1*
Y2512411D1*
X470568D1*
Y2525328D1*
G37*
G36*
X1105018Y837735D2*
X1127186D1*
Y824818D1*
X1105018D1*
Y837735D1*
G37*
G36*
X1104393Y1206887D2*
X1126562D1*
Y1193970D1*
X1104393D1*
Y1206887D1*
G37*
G36*
X1060127Y2254019D2*
X1073045D1*
Y2276188D1*
X1060127D1*
Y2254019D1*
G37*
G36*
X1127308Y681915D2*
X1105139D1*
Y694832D1*
X1127308D1*
Y681915D1*
G37*
G36*
X1105018Y987735D2*
X1127186D1*
Y974818D1*
X1105018D1*
Y987735D1*
G37*
G36*
X886232Y1005257D2*
X864063D1*
Y1018175D1*
X886232D1*
Y1005257D1*
G37*
G36*
X1105018Y1131484D2*
X1127186D1*
Y1118567D1*
X1105018D1*
Y1131484D1*
G37*
G36*
X1094022Y1823083D2*
X1116190D1*
Y1810165D1*
X1094022D1*
Y1823083D1*
G37*
G36*
X582006Y451996D2*
X559837D1*
Y464913D1*
X582006D1*
Y451996D1*
G37*
G36*
X477308Y825664D2*
X455139D1*
Y838581D1*
X477308D1*
Y825664D1*
G37*
G36*
X856669Y1210907D2*
X878837D1*
Y1197990D1*
X856669D1*
Y1210907D1*
G37*
G36*
X455018Y693986D2*
X477186D1*
Y681068D1*
X455018D1*
Y693986D1*
G37*
G36*
X476658Y1190106D2*
X454490D1*
Y1203024D1*
X476658D1*
Y1190106D1*
G37*
G36*
X985127Y2704019D2*
X998045D1*
Y2726188D1*
X985127D1*
Y2704019D1*
G37*
G36*
X477308Y969413D2*
X455139D1*
Y982331D1*
X477308D1*
Y969413D1*
G37*
G36*
X697356Y1017584D2*
X719525D1*
Y1004667D1*
X697356D1*
Y1017584D1*
G37*
G36*
X477308Y1119413D2*
X455139D1*
Y1132331D1*
X477308D1*
Y1119413D1*
G37*
X456113Y1579657D2*
D18*
X519103D1*
X456113Y1500922D2*
G02X448240Y1512731I1960J9836D01*
G01*
X526976D2*
G02X519103Y1500922I-9827J-1977D01*
G01*
X526976Y1567848D2*
G03X519103Y1579657I-9840J1969D01*
G01*
X456113D2*
G03X448240Y1567848I1947J-9828D01*
G01*
X519103Y1500922D2*
X456113D1*
X781502Y2584894D2*
D20*
X796789D1*
X969411Y2412272D1*
Y2396985D1*
X796789Y2224363D1*
X781502D1*
X608880Y2396985D1*
Y2412272D1*
X781502Y2584894D1*
X654148Y2404629D2*
G02X654148Y2404629I23632J0D01*
G01*
X731072Y1495377D2*
D10*
Y1298526D1*
X857041Y1495377D2*
Y1298526D1*
X731072D2*
X857041D1*
X731072Y1495377D2*
X774368D1*
X813745D2*
X857041D1*
X774368D2*
G03X813745Y1495377I19688J3D01*
G01*
G36*
X539190Y1284816D2*
X561358D1*
Y1271899D1*
X539190D1*
Y1284816D1*
G37*
G36*
X1103241Y1319774D2*
X1125409D1*
Y1306857D1*
X1103241D1*
Y1319774D1*
G37*
G36*
X534614Y1427696D2*
X556782D1*
Y1414778D1*
X534614D1*
Y1427696D1*
G37*
G36*
X1101788Y1454345D2*
X1123957D1*
Y1441428D1*
X1101788D1*
Y1454345D1*
G37*
X728567Y970228D2*
D10*
Y773376D1*
X854535Y970228D2*
Y773376D1*
X728567D2*
X854535D1*
X728567Y970228D2*
X771863D1*
X811239D2*
X854535D1*
X771863D2*
G03X811239Y970228I19688J3D01*
G01*
G36*
X427268Y1424461D2*
X466492D1*
Y1445703D1*
X427268D1*
Y1424461D1*
G37*
G36*
X464612Y1317360D2*
X425387D1*
Y1296117D1*
X464612D1*
Y1317360D1*
G37*
G36*
X1032688Y1358791D2*
X993463D1*
Y1337549D1*
X1032688D1*
Y1358791D1*
G37*
G36*
X1122521Y1489789D2*
X1101279D1*
Y1529013D1*
X1122521D1*
Y1489789D1*
G37*
X478663Y1792747D2*
D21*
X453663Y1805247D1*
G36*
X408987Y1827857D2*
X521487D1*
Y1790357D1*
X408987D1*
Y1827857D1*
G37*
G36*
X406528Y1664064D2*
X519028D1*
Y1626564D1*
X406528D1*
Y1664064D1*
G37*
G36*
X717949Y2037946D2*
X755449D1*
Y1925446D1*
X717949D1*
Y2037946D1*
G37*
G36*
X859811Y1174850D2*
X894294D1*
Y1062501D1*
X859811D1*
Y1174850D1*
G37*
X412280Y3001906D2*
D21*
X473501D1*
Y2873966D1*
X412280D1*
Y3001906D1*
G36*
X951454Y1904396D2*
X1045563D1*
Y1608253D1*
X951454D1*
Y1904396D1*
G37*
G36*
X536789Y2332403D2*
X563373Y2304047D1*
X578879Y2342151D1*
X573563Y2347911D1*
D1*
X536789Y2332403D1*
G37*
X734413Y3620488D2*
D12*
X737413D1*
X734413Y3619488D2*
X737413D1*
X734413Y3618488D2*
X737413D1*
X734413Y3617488D2*
X737413D1*
X734413Y3616488D2*
X737413D1*
X734413Y3615488D2*
X737413D1*
X734413Y3614488D2*
X737413D1*
X734413Y3613488D2*
X737413D1*
X734413Y3612488D2*
X737413D1*
X734413Y3611488D2*
X737413D1*
X724413Y3610488D2*
X747413D1*
X724413Y3609488D2*
X747413D1*
X724413Y3608488D2*
X747413D1*
X724413Y3607488D2*
X747413D1*
X724413Y3606488D2*
X747413D1*
X734413Y3605488D2*
X737413D1*
X734413Y3604488D2*
X737413D1*
X734413Y3603488D2*
X737413D1*
X734413Y3602488D2*
X737413D1*
X734413Y3601488D2*
X737413D1*
X734413Y3600488D2*
X737413D1*
X734413Y3599488D2*
X737413D1*
X734413Y3598488D2*
X737413D1*
X734413Y3597488D2*
X737413D1*
X865647Y3489255D2*
X868647D1*
X865647Y3488255D2*
X868647D1*
X865647Y3487255D2*
X868647D1*
X865647Y3486255D2*
X868647D1*
X865647Y3485255D2*
X868647D1*
X865647Y3484255D2*
X868647D1*
X865647Y3483255D2*
X868647D1*
X865647Y3482255D2*
X868647D1*
X865647Y3481255D2*
X868647D1*
X865647Y3480255D2*
X868647D1*
X855647Y3479255D2*
X878647D1*
X855647Y3478255D2*
X878647D1*
X855647Y3477255D2*
X878647D1*
X855647Y3476255D2*
X878647D1*
X855647Y3475255D2*
X878647D1*
X865647Y3474255D2*
X868647D1*
X865647Y3473255D2*
X868647D1*
X865647Y3472255D2*
X868647D1*
X865647Y3471255D2*
X868647D1*
X865647Y3470255D2*
X868647D1*
X865647Y3469255D2*
X868647D1*
X865647Y3468255D2*
X868647D1*
X865647Y3467255D2*
X868647D1*
X865647Y3466255D2*
X868647D1*
X736140Y3778488D2*
X739140D1*
X736140Y3777488D2*
X739140D1*
X736140Y3776488D2*
X739140D1*
X736140Y3775488D2*
X739140D1*
X736140Y3774488D2*
X739140D1*
X736140Y3773488D2*
X739140D1*
X736140Y3772488D2*
X739140D1*
X736140Y3771488D2*
X739140D1*
X736140Y3770488D2*
X739140D1*
X736140Y3769488D2*
X739140D1*
X726140Y3768488D2*
X749140D1*
X726140Y3767488D2*
X749140D1*
X726140Y3766488D2*
X749140D1*
X726140Y3765488D2*
X749140D1*
X726140Y3764488D2*
X749140D1*
X736140Y3763488D2*
X739140D1*
X736140Y3762488D2*
X739140D1*
X736140Y3761488D2*
X739140D1*
X736140Y3760488D2*
X739140D1*
X736140Y3759488D2*
X739140D1*
X736140Y3758488D2*
X739140D1*
X736140Y3757488D2*
X739140D1*
X736140Y3756488D2*
X739140D1*
X736140Y3755488D2*
X739140D1*
X734413Y3620488D2*
Y3619488D1*
Y3618488D1*
Y3617488D1*
Y3616488D1*
Y3615488D1*
Y3614488D1*
Y3613488D1*
Y3612488D1*
Y3611488D1*
Y3610488D1*
X724413D1*
Y3609488D1*
Y3608488D1*
Y3607488D1*
Y3606488D1*
Y3605488D1*
X734413D1*
Y3604488D1*
Y3603488D1*
Y3602488D1*
Y3601488D1*
Y3600488D1*
Y3599488D1*
Y3598488D1*
Y3597488D1*
X737413Y3620488D2*
Y3619488D1*
Y3618488D1*
Y3617488D1*
Y3616488D1*
Y3615488D1*
Y3614488D1*
Y3613488D1*
Y3612488D1*
Y3611488D1*
Y3610488D1*
X747413D1*
Y3609488D1*
Y3608488D1*
Y3607488D1*
Y3606488D1*
Y3605488D1*
X737413D1*
Y3604488D1*
Y3603488D1*
Y3602488D1*
Y3601488D1*
Y3600488D1*
Y3599488D1*
Y3598488D1*
Y3597488D1*
X865647Y3489255D2*
Y3488255D1*
Y3487255D1*
Y3486255D1*
Y3485255D1*
Y3484255D1*
Y3483255D1*
Y3482255D1*
Y3481255D1*
Y3480255D1*
Y3479255D1*
X855647D1*
Y3478255D1*
Y3477255D1*
Y3476255D1*
Y3475255D1*
Y3474255D1*
X865647D1*
Y3473255D1*
Y3472255D1*
Y3471255D1*
Y3470255D1*
Y3469255D1*
Y3468255D1*
Y3467255D1*
Y3466255D1*
X868647Y3489255D2*
Y3488255D1*
Y3487255D1*
Y3486255D1*
Y3485255D1*
Y3484255D1*
Y3483255D1*
Y3482255D1*
Y3481255D1*
Y3480255D1*
Y3479255D1*
X878647D1*
Y3478255D1*
Y3477255D1*
Y3476255D1*
Y3475255D1*
Y3474255D1*
X868647D1*
Y3473255D1*
Y3472255D1*
Y3471255D1*
Y3470255D1*
Y3469255D1*
Y3468255D1*
Y3467255D1*
Y3466255D1*
X736140Y3778488D2*
Y3777488D1*
Y3776488D1*
Y3775488D1*
Y3774488D1*
Y3773488D1*
Y3772488D1*
Y3771488D1*
Y3770488D1*
Y3769488D1*
Y3768488D1*
X726140D1*
Y3767488D1*
Y3766488D1*
Y3765488D1*
Y3764488D1*
Y3763488D1*
X736140D1*
Y3762488D1*
Y3761488D1*
Y3760488D1*
Y3759488D1*
Y3758488D1*
Y3757488D1*
Y3756488D1*
Y3755488D1*
X739140Y3778488D2*
Y3777488D1*
Y3776488D1*
Y3775488D1*
Y3774488D1*
Y3773488D1*
Y3772488D1*
Y3771488D1*
Y3770488D1*
Y3769488D1*
Y3768488D1*
X749140D1*
Y3767488D1*
Y3766488D1*
Y3765488D1*
Y3764488D1*
Y3763488D1*
X739140D1*
Y3762488D1*
Y3761488D1*
Y3760488D1*
Y3759488D1*
Y3758488D1*
Y3757488D1*
Y3756488D1*
Y3755488D1*
X905266Y3496505D2*
D94*
X904316Y3498406D1*
X902392Y3500329D1*
X900491Y3501280D1*
X896666D1*
X894743Y3500329D1*
X892842Y3498406D1*
X891869Y3496505D1*
X890918Y3493631D1*
Y3488833D1*
X891869Y3485981D1*
X892842Y3484058D1*
X894743Y3482157D1*
X896666Y3481184D1*
X900491D1*
X902392Y3482157D1*
X904316Y3484058D1*
X905266Y3485981D1*
X911442Y3497433D2*
X913365Y3498406D1*
X916239Y3501258D1*
Y3481184D1*
X681659Y3499961D2*
X680709Y3501863D1*
X678785Y3503786D1*
X676884Y3504737D1*
X673059D1*
X671136Y3503786D1*
X669235Y3501863D1*
X668262Y3499961D1*
X667311Y3497087D1*
Y3492290D1*
X668262Y3489438D1*
X669235Y3487515D1*
X671136Y3485614D1*
X673059Y3484641D1*
X676884D1*
X678785Y3485614D1*
X680709Y3487515D1*
X681659Y3489438D1*
X688808Y3499939D2*
Y3500890D1*
X689758Y3502813D1*
X690709Y3503764D1*
X692632Y3504715D1*
X696457D1*
X698358Y3503764D1*
X699309Y3502813D1*
X700282Y3500890D1*
Y3498989D1*
X699309Y3497065D1*
X697408Y3494213D1*
X687835Y3484641D1*
X701232D1*
X922861Y4273198D2*
X921911Y4275099D1*
X919987Y4277022D1*
X918086Y4277973D1*
X914261D1*
X912338Y4277022D1*
X910437Y4275099D1*
X909464Y4273198D1*
X908513Y4270324D1*
Y4265526D1*
X909464Y4262674D1*
X910437Y4260751D1*
X912338Y4258850D1*
X914261Y4257877D1*
X918086D1*
X919987Y4258850D1*
X921911Y4260751D1*
X922861Y4262674D1*
X930960Y4277951D2*
X941462D1*
X935736Y4270302D1*
X938610D1*
X940511Y4269351D1*
X941462Y4268400D1*
X942434Y4265526D1*
Y4263625D1*
X941462Y4260751D1*
X939560Y4258828D1*
X936686Y4257877D1*
X933812D1*
X930960Y4258828D1*
X930010Y4259800D1*
X929037Y4261702D1*
X782361Y3170527D2*
X781410Y3172428D1*
X779487Y3174352D1*
X777586Y3175302D1*
X773761D1*
X771838Y3174352D1*
X769936Y3172428D1*
X768964Y3170527D1*
X768013Y3167653D1*
Y3162856D1*
X768964Y3160004D1*
X769936Y3158080D1*
X771838Y3156179D1*
X773761Y3155206D1*
X777586D1*
X779487Y3156179D1*
X781410Y3158080D1*
X782361Y3160004D1*
X798109Y3155206D2*
Y3175280D1*
X788537Y3161905D1*
X802885D1*
X736335Y2157148D2*
X735384Y2159049D1*
X733461Y2160972D1*
X731560Y2161923D1*
X727735D1*
X725812Y2160972D1*
X723910Y2159049D1*
X722938Y2157148D1*
X721987Y2154274D1*
Y2149476D1*
X722938Y2146625D1*
X723910Y2144701D1*
X725812Y2142800D1*
X727735Y2141827D1*
X731560D1*
X733461Y2142800D1*
X735384Y2144701D1*
X736335Y2146625D1*
X753985Y2161901D2*
X744434D1*
X743483Y2153301D1*
X744434Y2154252D1*
X747308Y2155224D1*
X750160D1*
X753034Y2154252D1*
X754957Y2152350D1*
X755908Y2149476D1*
Y2147575D1*
X754957Y2144701D1*
X753034Y2142778D1*
X750160Y2141827D1*
X747308D1*
X744434Y2142778D1*
X743483Y2143750D1*
X742511Y2145652D1*
X619637Y2023765D2*
X617736Y2022814D1*
X615812Y2020891D1*
X614862Y2018990D1*
Y2015165D1*
X615812Y2013242D1*
X617736Y2011340D1*
X619637Y2010368D1*
X622511Y2009417D1*
X627308D1*
X630160Y2010368D1*
X632084Y2011340D1*
X633985Y2013242D1*
X634958Y2015165D1*
Y2018990D1*
X633985Y2020891D1*
X632084Y2022814D1*
X630160Y2023765D1*
X617736Y2041415D2*
X615835Y2040464D1*
X614884Y2037590D1*
Y2035689D1*
X615835Y2032815D1*
X618709Y2030891D1*
X623484Y2029941D1*
X628259D1*
X632084Y2030891D1*
X634007Y2032815D1*
X634958Y2035689D1*
Y2036639D1*
X634007Y2039491D1*
X632084Y2041415D1*
X629210Y2042365D1*
X628259D1*
X625385Y2041415D1*
X623484Y2039491D1*
X622533Y2036639D1*
Y2035689D1*
X623484Y2032815D1*
X625385Y2030891D1*
X628259Y2029941D1*
X468306Y2337627D2*
X467355Y2339528D1*
X465432Y2341451D1*
X463531Y2342402D1*
X459706D1*
X457783Y2341451D1*
X455882Y2339528D1*
X454909Y2337627D1*
X453958Y2334753D1*
Y2329955D1*
X454909Y2327104D1*
X455882Y2325180D1*
X457783Y2323279D1*
X459706Y2322306D1*
X463531D1*
X465432Y2323279D1*
X467355Y2325180D1*
X468306Y2327104D1*
X478306Y2322306D2*
X487879Y2342380D1*
X474482D1*
X861525Y2781131D2*
X860574Y2783032D1*
X858651Y2784955D1*
X856749Y2785906D1*
X852925D1*
X851001Y2784955D1*
X849100Y2783032D1*
X848127Y2781131D1*
X847177Y2778257D1*
Y2773459D1*
X848127Y2770607D1*
X849100Y2768684D1*
X851001Y2766783D1*
X852925Y2765810D1*
X856749D1*
X858651Y2766783D1*
X860574Y2768684D1*
X861525Y2770607D1*
X872476Y2785884D2*
X869624Y2784933D1*
X868651Y2783032D1*
Y2781109D1*
X869624Y2779207D1*
X871525Y2778235D1*
X875350Y2777284D1*
X878224Y2776333D1*
X880125Y2774410D1*
X881075Y2772509D1*
Y2769635D1*
X880125Y2767733D1*
X879174Y2766761D1*
X876300Y2765810D1*
X872476D1*
X869624Y2766761D1*
X868651Y2767733D1*
X867700Y2769635D1*
Y2772509D1*
X868651Y2774410D1*
X870574Y2776333D1*
X873426Y2777284D1*
X877251Y2778235D1*
X879174Y2779207D1*
X880125Y2781109D1*
Y2783032D1*
X879174Y2784933D1*
X876300Y2785884D1*
X872476D1*
X480561Y2419648D2*
X479610Y2421549D1*
X477687Y2423472D1*
X475786Y2424423D1*
X471961D1*
X470038Y2423472D1*
X468136Y2421549D1*
X467164Y2419648D1*
X466213Y2416774D1*
Y2411976D1*
X467164Y2409125D1*
X468136Y2407201D1*
X470038Y2405300D1*
X471961Y2404327D1*
X475786D1*
X477687Y2405300D1*
X479610Y2407201D1*
X480561Y2409125D1*
X499183Y2417724D2*
X498211Y2414850D1*
X496309Y2412927D1*
X493435Y2411976D1*
X492485D1*
X489611Y2412927D1*
X487709Y2414850D1*
X486737Y2417724D1*
Y2418675D1*
X487709Y2421549D1*
X489611Y2423450D1*
X492485Y2424401D1*
X493435D1*
X496309Y2423450D1*
X498211Y2421549D1*
X499183Y2417724D1*
Y2412927D1*
X498211Y2408152D1*
X496309Y2405278D1*
X493435Y2404327D1*
X491534D1*
X488660Y2405278D1*
X487709Y2407201D1*
X1076743Y2397278D2*
X1075793Y2399179D1*
X1073869Y2401102D1*
X1071968Y2402053D1*
X1068144D1*
X1066220Y2401102D1*
X1064319Y2399179D1*
X1063346Y2397278D1*
X1062396Y2394404D1*
Y2389606D1*
X1063346Y2386754D1*
X1064319Y2384831D1*
X1066220Y2382930D1*
X1068144Y2381957D1*
X1071968D1*
X1073869Y2382930D1*
X1075793Y2384831D1*
X1076743Y2386754D1*
X1082919Y2398206D2*
X1084843Y2399179D1*
X1087717Y2402031D1*
Y2381957D1*
X1099640Y2402031D2*
X1096766Y2401080D1*
X1094843Y2398206D1*
X1093892Y2393431D1*
Y2390557D1*
X1094843Y2385782D1*
X1096766Y2382908D1*
X1099640Y2381957D1*
X1101542D1*
X1104416Y2382908D1*
X1106317Y2385782D1*
X1107290Y2390557D1*
Y2393431D1*
X1106317Y2398206D1*
X1104416Y2401080D1*
X1101542Y2402031D1*
X1099640D1*
X1106317Y2398206D2*
X1094843Y2385782D1*
X955068Y1969654D2*
X954118Y1971556D1*
X952194Y1973479D1*
X950293Y1974430D1*
X946468D1*
X944545Y1973479D1*
X942644Y1971556D1*
X941671Y1969654D1*
X940720Y1966780D1*
Y1961983D1*
X941671Y1959131D1*
X942644Y1957208D1*
X944545Y1955306D1*
X946468Y1954334D1*
X950293D1*
X952194Y1955306D1*
X954118Y1957208D1*
X955068Y1959131D1*
X961244Y1970583D2*
X963167Y1971556D1*
X966041Y1974408D1*
Y1954334D1*
X972217Y1970583D2*
X974141Y1971556D1*
X977015Y1974408D1*
Y1954334D1*
X1024745Y2055692D2*
X1022843Y2054742D1*
X1020920Y2052818D1*
X1019969Y2050917D1*
Y2047092D1*
X1020920Y2045169D1*
X1022843Y2043268D1*
X1024745Y2042295D1*
X1027619Y2041344D1*
X1032416D1*
X1035268Y2042295D1*
X1037191Y2043268D1*
X1039093Y2045169D1*
X1040065Y2047092D1*
Y2050917D1*
X1039093Y2052818D1*
X1037191Y2054742D1*
X1035268Y2055692D1*
X1023816Y2061868D2*
X1022843Y2063791D1*
X1019992Y2066665D1*
X1040065D1*
X1024767Y2073814D2*
X1023816D1*
X1021893Y2074765D1*
X1020942Y2075715D1*
X1019992Y2077639D1*
X1019991Y2081463D1*
X1020942Y2083364D1*
X1021893Y2084315D1*
X1023816Y2085288D1*
X1025717D1*
X1027641Y2084315D1*
X1030493Y2082414D1*
X1040065Y2072841D1*
Y2086238D1*
X911100Y2105559D2*
X910150Y2107460D1*
X908226Y2109383D1*
X906325Y2110334D1*
X902500D1*
X900577Y2109383D1*
X898676Y2107460D1*
X897703Y2105559D1*
X896752Y2102685D1*
Y2097887D1*
X897703Y2095035D1*
X898676Y2093112D1*
X900577Y2091211D1*
X902500Y2090238D1*
X906325D1*
X908226Y2091211D1*
X910150Y2093112D1*
X911100Y2095035D1*
X917276Y2106487D2*
X919200Y2107460D1*
X922074Y2110312D1*
Y2090238D1*
X930173Y2110312D2*
X940674D1*
X934948Y2102662D1*
X937822D1*
X939723Y2101712D1*
X940674Y2100761D1*
X941647Y2097887D1*
Y2095986D1*
X940674Y2093112D1*
X938773Y2091189D1*
X935899Y2090238D1*
X933025D1*
X930173Y2091189D1*
X929222Y2092161D1*
X928249Y2094063D1*
X1103776Y800385D2*
X1102825Y802287D1*
X1100902Y804210D1*
X1099001Y805161D1*
X1095176D1*
X1093253Y804210D1*
X1091351Y802287D1*
X1090379Y800385D1*
X1089428Y797511D1*
Y792714D1*
X1090379Y789862D1*
X1091351Y787939D1*
X1093253Y786037D1*
X1095176Y785065D1*
X1099001D1*
X1100902Y786037D1*
X1102825Y787939D1*
X1103776Y789862D1*
X1109952Y801314D2*
X1111875Y802287D1*
X1114749Y805139D1*
Y785065D1*
X1130498D2*
Y805139D1*
X1120925Y791763D1*
X1135273D1*
X1077590Y949284D2*
X1076639Y951186D1*
X1074716Y953109D1*
X1072815Y954060D1*
X1068990D1*
X1067067Y953109D1*
X1065165Y951186D1*
X1064193Y949284D1*
X1063242Y946410D1*
Y941613D1*
X1064193Y938761D1*
X1065165Y936838D1*
X1067067Y934936D1*
X1068990Y933964D1*
X1072815D1*
X1074716Y934936D1*
X1076639Y936838D1*
X1077590Y938761D1*
X1083766Y950213D2*
X1085689Y951186D1*
X1088563Y954037D1*
Y933964D1*
X1106213Y954037D2*
X1096662D1*
X1095711Y945438D1*
X1096662Y946388D1*
X1099536Y947361D1*
X1102388D1*
X1105262Y946388D1*
X1107185Y944487D1*
X1108136Y941613D1*
Y939712D1*
X1107185Y936838D1*
X1105262Y934914D1*
X1102388Y933964D1*
X1099536D1*
X1096662Y934914D1*
X1095711Y935887D1*
X1094739Y937788D1*
X514429Y1321514D2*
X513479Y1323415D1*
X511555Y1325339D1*
X509654Y1326289D1*
X505829D1*
X503906Y1325339D1*
X502005Y1323415D1*
X501032Y1321514D1*
X500081Y1318640D1*
Y1313843D1*
X501032Y1310991D1*
X502005Y1309067D1*
X503906Y1307166D1*
X505829Y1306193D1*
X509654D1*
X511555Y1307166D1*
X513479Y1309067D1*
X514429Y1310991D1*
X520605Y1322443D2*
X522528Y1323415D1*
X525402Y1326267D1*
Y1306193D1*
X543052Y1323415D2*
X542101Y1325317D1*
X539227Y1326267D1*
X537326D1*
X534452Y1325317D1*
X532529Y1322443D1*
X531578Y1317667D1*
Y1312892D1*
X532529Y1309067D1*
X534452Y1307144D1*
X537326Y1306193D1*
X538277D1*
X541129Y1307144D1*
X543052Y1309067D1*
X544003Y1311941D1*
Y1312892D1*
X543052Y1315766D1*
X541129Y1317667D1*
X538277Y1318618D1*
X537326D1*
X534452Y1317667D1*
X532529Y1315766D1*
X531578Y1312892D1*
X1075232Y1095502D2*
X1074281Y1097403D1*
X1072358Y1099327D1*
X1070456Y1100277D1*
X1066632D1*
X1064708Y1099327D1*
X1062807Y1097403D1*
X1061834Y1095502D1*
X1060884Y1092628D1*
Y1087831D1*
X1061834Y1084979D1*
X1062807Y1083055D1*
X1064708Y1081154D1*
X1066632Y1080181D1*
X1070456D1*
X1072358Y1081154D1*
X1074281Y1083055D1*
X1075232Y1084979D1*
X1081407Y1096431D2*
X1083331Y1097403D1*
X1086205Y1100255D1*
Y1080181D1*
X1096205D2*
X1105778Y1100255D1*
X1092380D1*
X667926Y1218872D2*
X666976Y1220774D1*
X665052Y1222697D1*
X663151Y1223648D1*
X659327D1*
X657403Y1222697D1*
X655502Y1220774D1*
X654529Y1218872D1*
X653578Y1215998D1*
Y1211201D1*
X654529Y1208349D1*
X655502Y1206426D1*
X657403Y1204524D1*
X659327Y1203552D1*
X663151D1*
X665052Y1204524D1*
X666976Y1206426D1*
X667926Y1208349D1*
X674102Y1219801D2*
X676026Y1220774D1*
X678900Y1223625D1*
Y1203552D1*
X689851Y1223625D2*
X686999Y1222675D1*
X686026Y1220774D1*
Y1218850D1*
X686999Y1216949D1*
X688900Y1215976D1*
X692725Y1215025D1*
X695599Y1214075D1*
X697500Y1212151D1*
X698450Y1210250D1*
Y1207376D1*
X697500Y1205475D1*
X696549Y1204502D1*
X693675Y1203552D1*
X689851D1*
X686999Y1204502D1*
X686026Y1205475D1*
X685075Y1207376D1*
Y1210250D1*
X686026Y1212151D1*
X687949Y1214075D1*
X690801Y1215025D1*
X694626Y1215976D1*
X696549Y1216949D1*
X697500Y1218850D1*
Y1220774D1*
X696549Y1222675D1*
X693675Y1223625D1*
X689851D1*
X428582Y802244D2*
X427632Y804145D1*
X425708Y806068D1*
X423807Y807019D1*
X419982D1*
X418059Y806068D1*
X416158Y804145D1*
X415185Y802244D1*
X414234Y799370D1*
Y794572D1*
X415185Y791720D1*
X416158Y789797D1*
X418059Y787896D1*
X419982Y786923D1*
X423807D1*
X425708Y787896D1*
X427632Y789797D1*
X428582Y791720D1*
X434758Y803172D2*
X436681Y804145D1*
X439555Y806997D1*
Y786923D1*
X458178Y800320D2*
X457205Y797446D1*
X455304Y795523D1*
X452430Y794572D1*
X451479D1*
X448605Y795523D1*
X446704Y797446D1*
X445731Y800320D1*
Y801271D1*
X446704Y804145D1*
X448605Y806046D1*
X451479Y806997D1*
X452430D1*
X455304Y806046D1*
X457205Y804145D1*
X458178Y800320D1*
Y795523D1*
X457205Y790748D1*
X455304Y787874D1*
X452430Y786923D1*
X450528D1*
X447654Y787874D1*
X446704Y789797D1*
X425157Y946192D2*
X424207Y948094D1*
X422283Y950017D1*
X420382Y950968D1*
X416557D1*
X414634Y950017D1*
X412733Y948094D1*
X411760Y946192D1*
X410809Y943318D1*
Y938521D1*
X411760Y935669D1*
X412733Y933746D1*
X414634Y931844D1*
X416557Y930872D1*
X420382D1*
X422283Y931844D1*
X424207Y933746D1*
X425157Y935669D1*
X432306Y946170D2*
Y947121D1*
X433256Y949044D1*
X434207Y949995D1*
X436131Y950946D1*
X439955D1*
X441856Y949995D1*
X442807Y949044D1*
X443780Y947121D1*
Y945220D1*
X442807Y943296D1*
X440906Y940444D1*
X431333Y930872D1*
X444730D1*
X456654Y950946D2*
X453780Y949995D1*
X451857Y947121D1*
X450906Y942346D1*
Y939472D1*
X451857Y934696D1*
X453780Y931822D1*
X456654Y930872D1*
X458555D1*
X461429Y931822D1*
X463331Y934696D1*
X464303Y939472D1*
Y942346D1*
X463331Y947121D1*
X461429Y949995D1*
X458555Y950946D1*
X456654D1*
X463331Y947121D2*
X451857Y934696D1*
X584896Y976531D2*
X583945Y978432D1*
X582022Y980356D1*
X580120Y981306D1*
X576296D1*
X574372Y980356D1*
X572471Y978432D1*
X571498Y976531D1*
X570548Y973657D1*
Y968860D1*
X571498Y966008D1*
X572471Y964084D1*
X574372Y962183D1*
X576296Y961210D1*
X580120D1*
X582022Y962183D1*
X583945Y964084D1*
X584896Y966008D1*
X592044Y976509D2*
Y977460D1*
X592995Y979383D1*
X593945Y980334D1*
X595869Y981284D1*
X599693D1*
X601595Y980334D1*
X602545Y979383D1*
X603518Y977460D1*
Y975558D1*
X602545Y973635D1*
X600644Y970783D1*
X591071Y961210D1*
X604469D1*
X610644Y977460D2*
X612568Y978432D1*
X615442Y981284D1*
Y961210D1*
X670458Y1140510D2*
X669507Y1142411D1*
X667584Y1144335D1*
X665683Y1145285D1*
X661858D1*
X659935Y1144335D1*
X658033Y1142411D1*
X657061Y1140510D1*
X656110Y1137636D1*
Y1132839D1*
X657061Y1129987D1*
X658033Y1128063D1*
X659935Y1126162D1*
X661858Y1125189D1*
X665683D1*
X667584Y1126162D1*
X669507Y1128063D1*
X670458Y1129987D1*
X677606Y1140488D2*
Y1141439D1*
X678557Y1143362D1*
X679508Y1144313D1*
X681431Y1145263D1*
X685256D1*
X687157Y1144313D1*
X688108Y1143362D1*
X689080Y1141439D1*
Y1139537D1*
X688108Y1137614D1*
X686206Y1134762D1*
X676634Y1125189D1*
X690031D1*
X697179Y1140488D2*
Y1141439D1*
X698130Y1143362D1*
X699081Y1144313D1*
X701004Y1145263D1*
X704829D1*
X706730Y1144313D1*
X707681Y1143362D1*
X708653Y1141439D1*
Y1139537D1*
X707681Y1137614D1*
X705779Y1134762D1*
X696207Y1125189D1*
X709604D1*
X420174Y1097834D2*
X419224Y1099735D1*
X417300Y1101659D1*
X415399Y1102609D1*
X411575D1*
X409651Y1101659D1*
X407750Y1099735D1*
X406777Y1097834D1*
X405827Y1094960D1*
Y1090163D1*
X406777Y1087311D1*
X407750Y1085387D1*
X409651Y1083486D1*
X411575Y1082513D1*
X415399D1*
X417300Y1083486D1*
X419224Y1085387D1*
X420174Y1087311D1*
X427323Y1097812D2*
Y1098763D1*
X428274Y1100686D1*
X429224Y1101637D1*
X431148Y1102587D1*
X434972D1*
X436873Y1101637D1*
X437824Y1100686D1*
X438797Y1098763D1*
Y1096861D1*
X437824Y1094938D1*
X435923Y1092086D1*
X426350Y1082513D1*
X439748D1*
X447847Y1102587D2*
X458348D1*
X452622Y1094938D1*
X455496D1*
X457397Y1093987D1*
X458348Y1093037D1*
X459321Y1090163D1*
Y1088261D1*
X458348Y1085387D1*
X456447Y1083464D1*
X453573Y1082513D1*
X450698D1*
X447847Y1083464D1*
X446896Y1084437D1*
X445923Y1086338D1*
X1036573Y891635D2*
X1034671Y890684D1*
X1032748Y888761D1*
X1031797Y886860D1*
Y883035D1*
X1032748Y881112D1*
X1034671Y879210D1*
X1036573Y878238D1*
X1039447Y877287D1*
X1044244D1*
X1047096Y878238D1*
X1049019Y879210D1*
X1050921Y881112D1*
X1051893Y883035D1*
Y886860D1*
X1050921Y888761D1*
X1049019Y890684D1*
X1047096Y891635D1*
X1036595Y898783D2*
X1035644D1*
X1033721Y899734D1*
X1032770Y900685D1*
X1031820Y902608D1*
Y906433D1*
X1032770Y908334D1*
X1033721Y909285D1*
X1035644Y910257D1*
X1037546D1*
X1039469Y909285D1*
X1042321Y907383D1*
X1051893Y897811D1*
Y911208D1*
Y926956D2*
X1031820D1*
X1045195Y917384D1*
Y931732D1*
X774138Y3972123D2*
Y3952027D1*
X780837D1*
X783711Y3952999D1*
X785634Y3954901D1*
X786585Y3956824D1*
X787536Y3959676D1*
Y3964473D1*
X786585Y3967347D1*
X785634Y3969249D1*
X783711Y3971172D1*
X780837Y3972123D1*
X774138D1*
X795635Y3972100D2*
X806136D1*
X800410Y3964451D1*
X803284D1*
X805185Y3963501D1*
X806136Y3962550D1*
X807109Y3959676D1*
Y3957775D1*
X806136Y3954901D1*
X804235Y3952977D1*
X801361Y3952027D1*
X798487D1*
X795635Y3952977D1*
X794684Y3953950D1*
X793711Y3955851D1*
X900414Y4624489D2*
Y4604393D1*
X920938Y4619713D2*
X919987Y4621615D1*
X918064Y4623538D1*
X916163Y4624489D1*
X912338D1*
X910415Y4623538D1*
X908513Y4621615D1*
X907541Y4619713D1*
X906590Y4616839D1*
Y4612042D1*
X907541Y4609190D1*
X908513Y4607267D1*
X910415Y4605365D1*
X912338Y4604393D1*
X916163D1*
X918064Y4605365D1*
X919987Y4607267D1*
X920938Y4609190D1*
X927114Y4620642D2*
X929037Y4621615D1*
X931911Y4624467D1*
Y4604393D1*
X659083Y1947364D2*
Y1927268D1*
X679607Y1942589D2*
X678656Y1944490D1*
X676733Y1946413D1*
X674831Y1947364D1*
X671007D1*
X669083Y1946413D1*
X667182Y1944490D1*
X666209Y1942589D1*
X665259Y1939715D1*
Y1934917D1*
X666209Y1932065D1*
X667182Y1930142D1*
X669083Y1928241D1*
X671007Y1927268D1*
X674831D1*
X676733Y1928241D1*
X678656Y1930142D1*
X679607Y1932065D1*
X686755Y1942567D2*
Y1943517D1*
X687706Y1945441D1*
X688656Y1946391D1*
X690580Y1947342D1*
X694404D1*
X696306Y1946391D1*
X697256Y1945441D1*
X698229Y1943517D1*
Y1941616D1*
X697256Y1939693D1*
X695355Y1936841D1*
X685782Y1927268D1*
X699180D1*
X1019862Y1956439D2*
X1039958D1*
X1024637Y1976962D2*
X1022736Y1976012D1*
X1020812Y1974088D1*
X1019862Y1972187D1*
Y1968362D1*
X1020812Y1966439D1*
X1022736Y1964538D1*
X1024637Y1963565D1*
X1027511Y1962614D1*
X1032308D1*
X1035160Y1963565D1*
X1037084Y1964538D1*
X1038985Y1966439D1*
X1039958Y1968362D1*
Y1972187D1*
X1038985Y1974088D1*
X1037084Y1976012D1*
X1035160Y1976962D1*
X1019884Y1985061D2*
Y1995563D1*
X1027533Y1989837D1*
Y1992711D1*
X1028484Y1994612D1*
X1029434Y1995563D1*
X1032308Y1996535D1*
X1034210D1*
X1037084Y1995563D1*
X1039007Y1993661D1*
X1039958Y1990787D1*
Y1987913D1*
X1039007Y1985061D1*
X1038034Y1984111D1*
X1036133Y1983138D1*
X843127Y3366390D2*
X851727D1*
X854601Y3367363D1*
X855574Y3368313D1*
X856525Y3370214D1*
Y3372138D1*
X855574Y3374039D1*
X854601Y3375012D1*
X851727Y3375962D1*
X843127D1*
Y3355866D1*
X849826Y3366390D2*
X856525Y3355866D1*
X864624Y3375940D2*
X875125D1*
X869399Y3368291D1*
X872273D1*
X874174Y3367340D1*
X875125Y3366390D1*
X876098Y3363516D1*
Y3361615D1*
X875125Y3358741D1*
X873224Y3356817D1*
X870350Y3355866D1*
X867476D1*
X864624Y3356817D1*
X863673Y3357790D1*
X862700Y3359691D1*
X893747Y3375940D2*
X884197D1*
X883246Y3367340D1*
X884197Y3368291D1*
X887071Y3369264D1*
X889923D1*
X892797Y3368291D1*
X894720Y3366390D1*
X895671Y3363516D1*
Y3361615D1*
X894720Y3358741D1*
X892797Y3356817D1*
X889923Y3355866D1*
X887071D1*
X884197Y3356817D1*
X883246Y3357790D1*
X882273Y3359691D1*
X711217Y3389427D2*
X719817D1*
X722691Y3390399D1*
X723664Y3391350D1*
X724615Y3393251D1*
Y3395175D1*
X723664Y3397076D1*
X722691Y3398049D1*
X719817Y3398999D1*
X711217D1*
Y3378903D1*
X717916Y3389427D2*
X724615Y3378903D1*
X732714Y3398977D2*
X743215D1*
X737489Y3391328D1*
X740363D1*
X742264Y3390377D1*
X743215Y3389427D1*
X744188Y3386553D1*
Y3384651D1*
X743215Y3381777D1*
X741314Y3379854D1*
X738440Y3378903D1*
X735566D1*
X732714Y3379854D1*
X731763Y3380827D1*
X730790Y3382728D1*
X761837Y3396125D2*
X760887Y3398026D1*
X758013Y3398977D1*
X756111D1*
X753237Y3398026D1*
X751314Y3395152D1*
X750363Y3390377D1*
Y3385602D1*
X751314Y3381777D1*
X753237Y3379854D1*
X756111Y3378903D1*
X757062D1*
X759914Y3379854D1*
X761837Y3381777D1*
X762788Y3384651D1*
Y3385602D1*
X761837Y3388476D1*
X759914Y3390377D1*
X757062Y3391328D1*
X756111D1*
X753237Y3390377D1*
X751314Y3388476D1*
X750363Y3385602D1*
X1059712Y1609975D2*
X1068312D1*
X1071186Y1610948D1*
X1072159Y1611898D1*
X1073109Y1613800D1*
Y1615723D1*
X1072159Y1617624D1*
X1071186Y1618597D1*
X1068312Y1619548D1*
X1059712D1*
Y1599452D1*
X1066410Y1609975D2*
X1073109Y1599452D1*
X1081208Y1619526D2*
X1091709D1*
X1085984Y1611876D1*
X1088858D1*
X1090759Y1610926D1*
X1091709Y1609975D1*
X1092682Y1607101D1*
Y1605200D1*
X1091709Y1602326D1*
X1089808Y1600402D1*
X1086934Y1599452D1*
X1084060D1*
X1081208Y1600402D1*
X1080258Y1601375D1*
X1079285Y1603276D1*
X1103633Y1619526D2*
X1100781Y1618575D1*
X1099809Y1616674D1*
Y1614750D1*
X1100781Y1612849D1*
X1102683Y1611876D1*
X1106507Y1610926D1*
X1109381Y1609975D1*
X1111282Y1608052D1*
X1112233Y1606150D1*
Y1603276D1*
X1111282Y1601375D1*
X1110332Y1600402D1*
X1107458Y1599452D1*
X1103633D1*
X1100781Y1600402D1*
X1099809Y1601375D1*
X1098858Y1603276D1*
Y1606150D1*
X1099809Y1608052D1*
X1101732Y1609975D1*
X1104584Y1610926D1*
X1108408Y1611876D1*
X1110332Y1612849D1*
X1111282Y1614750D1*
Y1616674D1*
X1110332Y1618575D1*
X1107458Y1619526D1*
X1103633D1*
X1062714Y1415954D2*
X1071314D1*
X1074188Y1416927D1*
X1075160Y1417877D1*
X1076111Y1419779D1*
Y1421702D1*
X1075160Y1423603D1*
X1074188Y1424576D1*
X1071314Y1425527D1*
X1062714D1*
Y1405431D1*
X1069412Y1415954D2*
X1076111Y1405431D1*
X1091859D2*
Y1425505D1*
X1082287Y1412129D1*
X1096635D1*
X1108558Y1425505D2*
X1105684Y1424554D1*
X1103761Y1421680D1*
X1102810Y1416905D1*
Y1414031D1*
X1103761Y1409255D1*
X1105684Y1406381D1*
X1108558Y1405431D1*
X1110460D1*
X1113334Y1406381D1*
X1115235Y1409255D1*
X1116208Y1414031D1*
Y1416905D1*
X1115235Y1421680D1*
X1113334Y1424554D1*
X1110460Y1425505D1*
X1108558D1*
X1115235Y1421680D2*
X1103761Y1409255D1*
X723071Y1601041D2*
X710647D1*
Y1580945D1*
X723071D1*
X710647Y1591469D2*
X718296D1*
X729247Y1601041D2*
X742644Y1580945D1*
Y1601041D2*
X729247Y1580945D1*
X748820Y1590518D2*
X757442D1*
X760294Y1591469D1*
X761267Y1592441D1*
X762217Y1594343D1*
Y1597217D1*
X761267Y1599118D1*
X760294Y1600091D1*
X757442Y1601041D1*
X748820D1*
Y1580945D1*
X783714D2*
X776042Y1601041D1*
X768393Y1580945D1*
X771267Y1587644D2*
X780840D1*
X803287Y1601041D2*
Y1580945D1*
X789889Y1601041D1*
Y1580945D1*
X809462Y1601041D2*
Y1580945D1*
X816161D1*
X819035Y1581918D1*
X820959Y1583819D1*
X821909Y1585743D1*
X822860Y1588595D1*
Y1593392D1*
X821909Y1596266D1*
X820959Y1598167D1*
X819035Y1600091D1*
X816161Y1601041D1*
X809462D1*
X841460D2*
X829036D1*
Y1580945D1*
X841460D1*
X829036Y1591469D2*
X836685D1*
X847636D2*
X856236D1*
X859110Y1592441D1*
X860083Y1593392D1*
X861033Y1595293D1*
Y1597217D1*
X860083Y1599118D1*
X859110Y1600091D1*
X856236Y1601041D1*
X847636D1*
Y1580945D1*
X854334Y1591469D2*
X861033Y1580945D1*
X913148Y1132718D2*
X933244D1*
X917923Y1153241D2*
X916022Y1152291D1*
X914099Y1150367D1*
X913148Y1148466D1*
Y1144641D1*
X914098Y1142718D1*
X916022Y1140817D1*
X917923Y1139844D1*
X920797Y1138893D1*
X925595D1*
X928446Y1139844D1*
X930370Y1140817D1*
X932271Y1142718D1*
X933244Y1144641D1*
Y1148466D1*
X932271Y1150367D1*
X930370Y1152291D1*
X928446Y1153241D1*
X916022Y1170891D2*
X914121Y1169940D1*
X913170Y1167066D1*
Y1165165D1*
X914121Y1162291D1*
X916995Y1160368D1*
X921770Y1159417D1*
X926545D1*
X930370Y1160368D1*
X932293Y1162291D1*
X933244Y1165165D1*
Y1166116D1*
X932293Y1168968D1*
X930370Y1170891D1*
X927496Y1171842D1*
X926545D1*
X923671Y1170891D1*
X921770Y1168968D1*
X920819Y1166116D1*
Y1165165D1*
X921770Y1162291D1*
X923671Y1160368D1*
X926545Y1159417D1*
X555833Y2796401D2*
Y2781102D1*
X554882Y2778228D1*
X553909Y2777278D1*
X552008Y2776305D1*
X550085D1*
X548183Y2777278D1*
X547233Y2778228D1*
X546260Y2781102D1*
Y2783003D1*
X562008Y2785877D2*
X570631D1*
X573482Y2786828D1*
X574455Y2787801D1*
X575406Y2789702D1*
Y2792576D1*
X574455Y2794477D1*
X573482Y2795450D1*
X570631Y2796401D1*
X562008D1*
Y2776305D1*
X582554Y2791603D2*
Y2792554D1*
X583505Y2794477D1*
X584456Y2795428D1*
X586379Y2796379D1*
X590204D1*
X592105Y2795428D1*
X593055Y2794477D1*
X594028Y2792554D1*
Y2790653D1*
X593055Y2788729D1*
X591154Y2785877D1*
X581581Y2776305D1*
X594979D1*
X435681Y4408393D2*
Y4393094D1*
X434730Y4390220D1*
X433757Y4389270D1*
X431856Y4388297D1*
X429932D1*
X428031Y4389270D1*
X427081Y4390220D1*
X426108Y4393094D1*
Y4394996D1*
X441856Y4397870D2*
X450478D1*
X453330Y4398820D1*
X454303Y4399793D1*
X455254Y4401694D1*
Y4404568D1*
X454303Y4406470D1*
X453330Y4407442D1*
X450478Y4408393D1*
X441856D1*
Y4388297D1*
X463353Y4408371D2*
X473854D1*
X468128Y4400722D1*
X471002D1*
X472903Y4399771D1*
X473854Y4398820D1*
X474827Y4395946D1*
Y4394045D1*
X473854Y4391171D1*
X471953Y4389248D1*
X469079Y4388297D1*
X466205D1*
X463353Y4389248D1*
X462402Y4390220D1*
X461429Y4392122D1*
X851765Y3264607D2*
Y3244511D1*
X863239D1*
X869414Y3260760D2*
X871338Y3261733D1*
X874212Y3264585D1*
Y3244511D1*
X542318Y1951302D2*
X540416Y1950374D1*
X538493Y1948450D1*
X537542Y1946527D1*
X536570Y1943653D1*
Y1938878D1*
X537542Y1936004D1*
X538493Y1934103D1*
X540416Y1932179D1*
X542318Y1931228D1*
X546142D1*
X548066Y1932179D1*
X549967Y1934103D1*
X550918Y1936004D1*
X551890Y1938878D1*
Y1943653D1*
X550918Y1946527D1*
X549967Y1948450D1*
X548066Y1950374D1*
X546142Y1951302D1*
X542318D1*
X545192Y1935053D2*
X550918Y1929305D1*
X558066Y1947456D2*
X559989Y1948428D1*
X562863Y1951280D1*
Y1931206D1*
X410617Y1891519D2*
X408716Y1890590D1*
X406793Y1888667D1*
X405842Y1886744D1*
X404869Y1883870D1*
Y1879094D1*
X405842Y1876220D1*
X406793Y1874319D1*
X408716Y1872396D1*
X410617Y1871445D1*
X414442D1*
X416365Y1872396D1*
X418267Y1874319D1*
X419217Y1876220D1*
X420190Y1879094D1*
Y1883870D1*
X419217Y1886744D1*
X418267Y1888667D1*
X416365Y1890590D1*
X414442Y1891519D1*
X410617D1*
X413491Y1875270D2*
X419217Y1869522D1*
X427339Y1886722D2*
Y1887672D1*
X428289Y1889596D1*
X429240Y1890546D1*
X431163Y1891497D1*
X434988D1*
X436889Y1890546D1*
X437840Y1889596D1*
X438813Y1887672D1*
Y1885771D1*
X437840Y1883848D1*
X435939Y1880996D1*
X426366Y1871423D1*
X439763D1*
X410049Y1722129D2*
X408148Y1721201D1*
X406225Y1719277D1*
X405274Y1717354D1*
X404301Y1714480D1*
Y1709705D1*
X405274Y1706831D1*
X406225Y1704929D1*
X408148Y1703006D1*
X410049Y1702055D1*
X413874D1*
X415797Y1703006D1*
X417699Y1704929D1*
X418649Y1706831D1*
X419622Y1709705D1*
Y1714480D1*
X418649Y1717354D1*
X417699Y1719277D1*
X415797Y1721201D1*
X413874Y1722129D1*
X410049D1*
X412923Y1705880D2*
X418649Y1700132D1*
X427721Y1722107D2*
X438222D1*
X432496Y1714458D1*
X435370D1*
X437272Y1713507D1*
X438222Y1712556D1*
X439195Y1709682D1*
Y1707781D1*
X438222Y1704907D1*
X436321Y1702984D1*
X433447Y1702033D1*
X430573D1*
X427721Y1702984D1*
X426770Y1703957D1*
X425798Y1705858D1*
X442638Y3826218D2*
Y3834818D1*
X441665Y3837692D1*
X440714Y3838665D1*
X438813Y3839616D1*
X436890D1*
X434989Y3838665D1*
X434016Y3837692D1*
X433065Y3834818D1*
Y3826218D1*
X453161D1*
X442638Y3832917D2*
X453161Y3839616D1*
X437863Y3846764D2*
X436912D1*
X434989Y3847715D1*
X434038Y3848665D1*
X433087Y3850589D1*
Y3854413D1*
X434038Y3856315D1*
X434989Y3857265D1*
X436912Y3858238D1*
X438813D1*
X440737Y3857265D1*
X443589Y3855364D1*
X453161Y3845791D1*
Y3859189D1*
X554440Y2598483D2*
X563040D1*
X565914Y2599456D1*
X566887Y2600406D1*
X567837Y2602308D1*
Y2604231D1*
X566887Y2606132D1*
X565914Y2607105D1*
X563040Y2608056D1*
X554440D1*
Y2587960D1*
X561139Y2598483D2*
X567837Y2587960D1*
X575936Y2608034D2*
X586438D1*
X580712Y2600384D1*
X583586D1*
X585487Y2599434D1*
X586438Y2598483D1*
X587410Y2595609D1*
Y2593708D1*
X586438Y2590834D1*
X584536Y2588910D1*
X581662Y2587960D1*
X578788D1*
X575936Y2588910D1*
X574986Y2589883D1*
X574013Y2591784D1*
X1158276Y4438317D2*
Y4446916D1*
X1157303Y4449790D1*
X1156352Y4450763D1*
X1154451Y4451714D1*
X1152528D1*
X1150626Y4450763D1*
X1149654Y4449790D1*
X1148703Y4446916D1*
Y4438317D1*
X1168799D1*
X1158276Y4445015D2*
X1168799Y4451714D1*
Y4467462D2*
X1148725D1*
X1162100Y4457890D1*
Y4472237D1*
X1162913Y4245596D2*
Y4254196D1*
X1161941Y4257070D1*
X1160990Y4258042D1*
X1159089Y4258993D1*
X1157165D1*
X1155264Y4258043D1*
X1154291Y4257070D1*
X1153341Y4254196D1*
Y4245596D1*
X1173437D1*
X1162913Y4252294D2*
X1173437Y4258993D1*
X1156215Y4276643D2*
X1154314Y4275692D1*
X1153363Y4272818D1*
Y4270917D1*
X1154314Y4268043D1*
X1157188Y4266119D1*
X1161963Y4265169D1*
X1166738D1*
X1170563Y4266119D1*
X1172486Y4268043D1*
X1173437Y4270917D1*
Y4271867D1*
X1172486Y4274719D1*
X1170563Y4276643D1*
X1167689Y4277593D1*
X1166738D1*
X1163864Y4276643D1*
X1161963Y4274719D1*
X1161012Y4271867D1*
Y4270917D1*
X1161963Y4268043D1*
X1163864Y4266119D1*
X1166738Y4265169D1*
X1162913Y4050499D2*
Y4059099D1*
X1161941Y4061973D1*
X1160990Y4062946D1*
X1159089Y4063897D1*
X1157165D1*
X1155264Y4062946D1*
X1154291Y4061973D1*
X1153341Y4059099D1*
Y4050499D1*
X1173437D1*
X1162913Y4057198D2*
X1173437Y4063896D1*
Y4073897D2*
X1153363Y4083470D1*
Y4070072D1*
X1162913Y3838010D2*
Y3846610D1*
X1161941Y3849484D1*
X1160990Y3850457D1*
X1159089Y3851408D1*
X1157165D1*
X1155264Y3850457D1*
X1154291Y3849484D1*
X1153341Y3846610D1*
Y3838010D1*
X1173437D1*
X1162913Y3844709D2*
X1173437Y3851408D1*
X1153363Y3862359D2*
X1154314Y3859507D1*
X1156215Y3858534D1*
X1158138D1*
X1160039Y3859507D1*
X1161012Y3861408D1*
X1161963Y3865233D1*
X1162913Y3868107D1*
X1164837Y3870008D1*
X1166738Y3870958D1*
X1169612D1*
X1171513Y3870008D1*
X1172486Y3869057D1*
X1173437Y3866183D1*
Y3862358D1*
X1172486Y3859507D1*
X1171513Y3858534D1*
X1169612Y3857583D1*
X1166738D1*
X1164837Y3858534D1*
X1162913Y3860457D1*
X1161963Y3863309D1*
X1161012Y3867134D1*
X1160039Y3869057D1*
X1158138Y3870008D1*
X1156215D1*
X1154314Y3869057D1*
X1153363Y3866183D1*
Y3862359D1*
X814740Y2013807D2*
Y2022406D1*
X813767Y2025280D1*
X812817Y2026253D1*
X810916Y2027204D1*
X808992D1*
X807091Y2026253D1*
X806118Y2025281D1*
X805168Y2022406D1*
X805167Y2013807D1*
X825263D1*
X814740Y2020505D2*
X825264Y2027204D1*
X811866Y2045826D2*
X814740Y2044853D1*
X816664Y2042952D1*
X817614Y2040078D1*
Y2039128D1*
X816664Y2036254D1*
X814740Y2034352D1*
X811866Y2033380D1*
X810916D1*
X808042Y2034352D1*
X806140Y2036254D1*
X805190Y2039128D1*
Y2040078D1*
X806140Y2042952D1*
X808042Y2044853D1*
X811866Y2045826D1*
X816664D1*
X821439Y2044853D1*
X824313Y2042952D1*
X825264Y2040078D1*
Y2038177D1*
X824313Y2035303D1*
X822390Y2034352D1*
X552759Y575032D2*
X561359D1*
X564233Y576004D1*
X565206Y576955D1*
X566157Y578856D1*
Y580780D1*
X565206Y582681D1*
X564233Y583654D1*
X561359Y584604D1*
X552759D1*
Y564508D1*
X559458Y575032D2*
X566157Y564508D1*
X572332Y580757D2*
X574256Y581730D1*
X577130Y584582D1*
Y564508D1*
X589053Y584582D2*
X586179Y583631D1*
X584256Y580757D1*
X583305Y575982D1*
Y573108D1*
X584256Y568333D1*
X586179Y565459D1*
X589053Y564508D1*
X590955D1*
X593829Y565459D1*
X595730Y568333D1*
X596703Y573108D1*
Y575982D1*
X595730Y580757D1*
X593829Y583631D1*
X590955Y584582D1*
X589053D1*
X595730Y580757D2*
X584256Y568333D1*
X1059194Y1708954D2*
X1067794D1*
X1070668Y1709927D1*
X1071640Y1710877D1*
X1072591Y1712779D1*
Y1714702D1*
X1071640Y1716603D1*
X1070668Y1717576D1*
X1067794Y1718527D1*
X1059194D1*
Y1698431D1*
X1065892Y1708954D2*
X1072591Y1698431D1*
X1078767Y1714680D2*
X1080690Y1715653D1*
X1083564Y1718505D1*
Y1698431D1*
X1090713Y1713729D2*
Y1714680D1*
X1091663Y1716603D1*
X1092614Y1717554D1*
X1094537Y1718505D1*
X1098362D1*
X1100263Y1717554D1*
X1101214Y1716603D1*
X1102186Y1714680D1*
Y1712779D1*
X1101214Y1710855D1*
X1099312Y1708003D1*
X1089740Y1698431D1*
X1103137D1*
X459741Y2558694D2*
X468341D1*
X471215Y2559667D1*
X472188Y2560618D1*
X473138Y2562519D1*
Y2564442D1*
X472188Y2566344D1*
X471215Y2567316D1*
X468341Y2568267D1*
X459741D1*
Y2548171D1*
X466440Y2558694D2*
X473138Y2548171D1*
X479314Y2564420D2*
X481237Y2565393D1*
X484111Y2568245D1*
Y2548171D1*
X492210Y2568245D2*
X502712D1*
X496986Y2560596D1*
X499860D1*
X501761Y2559645D1*
X502712Y2558694D1*
X503684Y2555820D1*
Y2553919D1*
X502712Y2551045D1*
X500810Y2549122D1*
X497936Y2548171D1*
X495062D1*
X492210Y2549122D1*
X491260Y2550094D1*
X490287Y2551996D1*
X1057911Y869919D2*
X1066511D1*
X1069385Y870891D1*
X1070358Y871842D1*
X1071309Y873743D1*
Y875667D1*
X1070358Y877568D1*
X1069385Y878541D1*
X1066511Y879491D1*
X1057911D1*
Y859395D1*
X1064610Y869919D2*
X1071309Y859395D1*
X1077484Y875645D2*
X1079408Y876617D1*
X1082282Y879469D1*
Y859395D1*
X1098030D2*
Y879469D1*
X1088457Y866094D1*
X1102805D1*
X1064292Y1239028D2*
X1072892D1*
X1075766Y1240000D1*
X1076739Y1240951D1*
X1077689Y1242852D1*
Y1244776D1*
X1076739Y1246677D1*
X1075766Y1247650D1*
X1072892Y1248600D1*
X1064292D1*
Y1228504D1*
X1070991Y1239028D2*
X1077689Y1228504D1*
X1083865Y1244754D2*
X1085788Y1245726D1*
X1088663Y1248578D1*
Y1228504D1*
X1106312Y1248578D2*
X1096762D1*
X1095811Y1239978D1*
X1096762Y1240929D1*
X1099636Y1241902D1*
X1102488D1*
X1105362Y1240929D1*
X1107285Y1239028D1*
X1108236Y1236154D1*
Y1234252D1*
X1107285Y1231378D1*
X1105362Y1229455D1*
X1102488Y1228504D1*
X1099636D1*
X1096762Y1229455D1*
X1095811Y1230428D1*
X1094838Y1232329D1*
X1127432Y2243679D2*
Y2252279D1*
X1126459Y2255153D1*
X1125508Y2256126D1*
X1123607Y2257076D1*
X1121684D1*
X1119783Y2256126D1*
X1118810Y2255153D1*
X1117859Y2252279D1*
Y2243679D1*
X1137955D1*
X1127432Y2250377D2*
X1137955Y2257076D1*
X1121706Y2263252D2*
X1120733Y2265175D1*
X1117881Y2268049D1*
X1137955D1*
X1120733Y2285699D2*
X1118832Y2284748D1*
X1117881Y2281874D1*
Y2279973D1*
X1118832Y2277099D1*
X1121706Y2275176D1*
X1126481Y2274225D1*
X1131256D1*
X1135081Y2275175D1*
X1137004Y2277099D1*
X1137955Y2279973D1*
Y2280924D1*
X1137004Y2283775D1*
X1135081Y2285699D1*
X1132207Y2286649D1*
X1131256D1*
X1128382Y2285699D1*
X1126481Y2283775D1*
X1125531Y2280924D1*
Y2279973D1*
X1126481Y2277099D1*
X1128382Y2275176D1*
X1131256Y2274225D1*
X1088320Y723186D2*
X1096920D1*
X1099794Y724159D1*
X1100766Y725110D1*
X1101717Y727011D1*
Y728934D1*
X1100766Y730836D1*
X1099794Y731808D1*
X1096920Y732759D1*
X1088320D1*
Y712663D1*
X1095018Y723186D2*
X1101717Y712663D1*
X1107893Y728912D2*
X1109816Y729885D1*
X1112690Y732737D1*
Y712663D1*
X1122690D2*
X1132263Y732737D1*
X1118866D1*
X1063766Y1019483D2*
X1072366D1*
X1075240Y1020456D1*
X1076213Y1021406D1*
X1077164Y1023308D1*
Y1025231D1*
X1076213Y1027132D1*
X1075240Y1028105D1*
X1072366Y1029056D1*
X1063766D1*
Y1008960D1*
X1070465Y1019483D2*
X1077164Y1008960D1*
X1083339Y1025209D2*
X1085263Y1026182D1*
X1088137Y1029034D1*
Y1008960D1*
X1099088Y1029034D2*
X1096236Y1028083D1*
X1095263Y1026182D1*
Y1024258D1*
X1096236Y1022357D1*
X1098137Y1021384D1*
X1101962Y1020434D1*
X1104836Y1019483D1*
X1106737Y1017560D1*
X1107688Y1015658D1*
Y1012784D1*
X1106737Y1010883D1*
X1105786Y1009910D1*
X1102912Y1008960D1*
X1099088D1*
X1096236Y1009910D1*
X1095263Y1010883D1*
X1094313Y1012784D1*
Y1015658D1*
X1095263Y1017560D1*
X1097187Y1019483D1*
X1100038Y1020434D1*
X1103863Y1021384D1*
X1105786Y1022357D1*
X1106737Y1024258D1*
Y1026182D1*
X1105786Y1028083D1*
X1102912Y1029034D1*
X1099088D1*
X938433Y1027721D2*
X947033D1*
X949907Y1028693D1*
X950879Y1029644D1*
X951830Y1031545D1*
Y1033469D1*
X950879Y1035370D1*
X949907Y1036343D1*
X947033Y1037293D1*
X938433D1*
Y1017197D1*
X945131Y1027721D2*
X951830Y1017197D1*
X958006Y1033446D2*
X959929Y1034419D1*
X962803Y1037271D1*
Y1017197D1*
X981426Y1030595D2*
X980453Y1027721D1*
X978552Y1025797D1*
X975678Y1024846D1*
X974727D1*
X971853Y1025797D1*
X969952Y1027721D1*
X968979Y1030595D1*
Y1031545D1*
X969952Y1034419D1*
X971853Y1036320D1*
X974727Y1037271D1*
X975678D1*
X978552Y1036320D1*
X980453Y1034419D1*
X981426Y1030595D1*
Y1025797D1*
X980453Y1021022D1*
X978552Y1018148D1*
X975678Y1017197D1*
X973776D1*
X970902Y1018148D1*
X969952Y1020071D1*
X1060528Y1162869D2*
X1069127D1*
X1072001Y1163842D1*
X1072974Y1164792D1*
X1073925Y1166693D1*
Y1168617D1*
X1072974Y1170518D1*
X1072001Y1171491D1*
X1069127Y1172441D1*
X1060528D1*
Y1152345D1*
X1067226Y1162869D2*
X1073925Y1152345D1*
X1081073Y1167644D2*
Y1168595D1*
X1082024Y1170518D1*
X1082975Y1171469D1*
X1084898Y1172419D1*
X1088723D1*
X1090624Y1171469D1*
X1091575Y1170518D1*
X1092547Y1168595D1*
Y1166693D1*
X1091575Y1164770D1*
X1089673Y1161918D1*
X1080101Y1152345D1*
X1093498D1*
X1105422Y1172419D2*
X1102548Y1171469D1*
X1100624Y1168595D1*
X1099674Y1163819D1*
Y1160945D1*
X1100624Y1156170D1*
X1102548Y1153296D1*
X1105422Y1152345D1*
X1107323D1*
X1110197Y1153296D1*
X1112098Y1156170D1*
X1113071Y1160945D1*
Y1163819D1*
X1112098Y1168595D1*
X1110197Y1171469D1*
X1107323Y1172419D1*
X1105422D1*
X1112098Y1168595D2*
X1100624Y1156170D1*
X1052362Y1781320D2*
X1060962D1*
X1063836Y1782293D1*
X1064809Y1783244D1*
X1065760Y1785145D1*
Y1787068D1*
X1064809Y1788970D1*
X1063836Y1789942D1*
X1060962Y1790893D1*
X1052362D1*
Y1770797D1*
X1059061Y1781320D2*
X1065760Y1770797D1*
X1072908Y1786096D2*
Y1787046D1*
X1073859Y1788970D1*
X1074809Y1789920D1*
X1076733Y1790871D1*
X1080557D1*
X1082459Y1789920D1*
X1083409Y1788970D1*
X1084382Y1787046D1*
Y1785145D1*
X1083409Y1783222D1*
X1081508Y1780370D1*
X1071935Y1770797D1*
X1085333D1*
X1092481Y1786096D2*
Y1787046D1*
X1093432Y1788970D1*
X1094382Y1789920D1*
X1096306Y1790871D1*
X1100130D1*
X1102032Y1789920D1*
X1102982Y1788970D1*
X1103955Y1787046D1*
Y1785145D1*
X1102982Y1783222D1*
X1101081Y1780370D1*
X1091508Y1770797D1*
X1104906D1*
X544589Y497433D2*
X553189D1*
X556063Y498406D1*
X557036Y499356D1*
X557987Y501258D1*
Y503181D1*
X557036Y505082D1*
X556063Y506055D1*
X553189Y507006D1*
X544589D1*
Y486910D1*
X551288Y497433D2*
X557987Y486910D1*
X565135Y502208D2*
Y503159D1*
X566086Y505082D1*
X567036Y506033D1*
X568960Y506984D1*
X572784D1*
X574686Y506033D1*
X575636Y505082D1*
X576609Y503159D1*
Y501258D1*
X575636Y499334D1*
X573735Y496482D1*
X564162Y486910D1*
X577560D1*
X585659Y506984D2*
X596160D1*
X590434Y499334D1*
X593308D1*
X595209Y498384D1*
X596160Y497433D1*
X597133Y494559D1*
Y492658D1*
X596160Y489784D1*
X594259Y487860D1*
X591385Y486910D1*
X588511D1*
X585659Y487860D1*
X584708Y488833D1*
X583735Y490734D1*
X412702Y869413D2*
X421302D1*
X424176Y870386D1*
X425149Y871337D1*
X426099Y873238D1*
Y875161D1*
X425149Y877063D1*
X424176Y878035D1*
X421302Y878986D1*
X412702D1*
Y858890D1*
X419400Y869413D2*
X426099Y858890D1*
X433248Y874189D2*
Y875139D1*
X434198Y877063D1*
X435149Y878013D1*
X437072Y878964D1*
X440897D1*
X442798Y878013D1*
X443749Y877063D1*
X444722Y875139D1*
Y873238D1*
X443749Y871315D1*
X441848Y868463D1*
X432275Y858890D1*
X445672D1*
X461421D2*
Y878964D1*
X451848Y865589D1*
X466196D1*
X837475Y1239604D2*
X846075D1*
X848949Y1240576D1*
X849922Y1241527D1*
X850872Y1243428D1*
Y1245352D1*
X849922Y1247253D1*
X848949Y1248226D1*
X846075Y1249176D1*
X837475D1*
Y1229080D1*
X844174Y1239604D2*
X850872Y1229080D1*
X858021Y1244379D2*
Y1245330D1*
X858971Y1247253D1*
X859922Y1248204D1*
X861845Y1249154D1*
X865670D1*
X867571Y1248204D1*
X868522Y1247253D1*
X869495Y1245330D1*
Y1243428D1*
X868522Y1241505D1*
X866621Y1238653D1*
X857048Y1229080D1*
X870445D1*
X888095Y1249154D2*
X878544D1*
X877594Y1240554D1*
X878544Y1241505D1*
X881419Y1242478D1*
X884270D1*
X887144Y1241505D1*
X889068Y1239604D1*
X890018Y1236730D1*
Y1234828D1*
X889068Y1231954D1*
X887144Y1230031D1*
X884270Y1229080D1*
X881419D1*
X878544Y1230031D1*
X877594Y1231004D1*
X876621Y1232905D1*
X428364Y726622D2*
X436964D1*
X439838Y727595D1*
X440811Y728545D1*
X441762Y730447D1*
Y732370D1*
X440811Y734271D1*
X439838Y735244D1*
X436964Y736195D1*
X428364D1*
Y716099D1*
X435063Y726622D2*
X441762Y716099D1*
X448910Y731397D2*
Y732348D1*
X449861Y734271D1*
X450811Y735222D1*
X452735Y736173D1*
X456559D1*
X458461Y735222D1*
X459411Y734271D1*
X460384Y732348D1*
Y730447D1*
X459411Y728523D1*
X457510Y725671D1*
X447937Y716099D1*
X461335D1*
X478984Y733321D2*
X478034Y735222D1*
X475160Y736173D1*
X473258D1*
X470384Y735222D1*
X468461Y732348D1*
X467510Y727573D1*
Y722797D1*
X468461Y718973D1*
X470384Y717049D1*
X473258Y716099D1*
X474209D1*
X477061Y717049D1*
X478984Y718973D1*
X479935Y721847D1*
Y722797D1*
X478984Y725671D1*
X477061Y727573D1*
X474209Y728523D1*
X473258D1*
X470384Y727573D1*
X468461Y725671D1*
X467510Y722797D1*
X419127Y1235331D2*
X427727D1*
X430601Y1236303D1*
X431574Y1237254D1*
X432525Y1239155D1*
Y1241079D1*
X431574Y1242980D1*
X430601Y1243953D1*
X427727Y1244903D1*
X419127D1*
Y1224807D1*
X425826Y1235331D2*
X432525Y1224807D1*
X439673Y1240106D2*
Y1241057D1*
X440624Y1242980D1*
X441574Y1243931D1*
X443498Y1244881D1*
X447322D1*
X449224Y1243931D1*
X450174Y1242980D1*
X451147Y1241057D1*
Y1239155D1*
X450174Y1237232D1*
X448273Y1234380D1*
X438700Y1224807D1*
X452098D1*
X462098D2*
X471671Y1244881D1*
X458273D1*
X951761Y2688904D2*
Y2697503D1*
X950788Y2700377D1*
X949838Y2701350D1*
X947937Y2702301D1*
X946013D1*
X944112Y2701350D1*
X943139Y2700377D1*
X942189Y2697503D1*
X942188Y2688904D1*
X962284D1*
X951761Y2695602D2*
X962285Y2702301D1*
X946986Y2709449D2*
X946035D1*
X944112Y2710400D1*
X943161Y2711351D1*
X942211Y2713274D1*
Y2717099D1*
X943161Y2719000D1*
X944112Y2719950D1*
X946035Y2720923D1*
X947937D1*
X949860Y2719950D1*
X952712Y2718049D1*
X962285Y2708476D1*
Y2721874D1*
X942211Y2732825D2*
X943161Y2729973D1*
X945063Y2729000D1*
X946986D1*
X948887Y2729973D1*
X949860Y2731874D1*
X950811Y2735699D1*
X951761Y2738573D1*
X953685Y2740474D1*
X955586Y2741425D1*
X958460D1*
X960361Y2740474D1*
X961334Y2739523D1*
X962285Y2736649D1*
Y2732825D1*
X961334Y2729973D1*
X960361Y2729000D1*
X958460Y2728050D1*
X955586D1*
X953685Y2729000D1*
X951761Y2730924D1*
X950811Y2733775D1*
X949860Y2737600D1*
X948887Y2739523D1*
X946986Y2740474D1*
X945063D1*
X943161Y2739523D1*
X942211Y2736649D1*
Y2732825D1*
X474862Y1015651D2*
X483462D1*
X486336Y1016624D1*
X487309Y1017574D1*
X488260Y1019476D1*
Y1021399D1*
X487309Y1023300D1*
X486336Y1024273D1*
X483462Y1025224D1*
X474862D1*
Y1005128D1*
X481561Y1015651D2*
X488260Y1005128D1*
X495408Y1020426D2*
Y1021377D1*
X496359Y1023300D1*
X497309Y1024251D1*
X499233Y1025202D1*
X503058D1*
X504959Y1024251D1*
X505909Y1023300D1*
X506882Y1021377D1*
Y1019476D1*
X505909Y1017552D1*
X504008Y1014700D1*
X494435Y1005128D1*
X507833D1*
X526455Y1018525D2*
X525482Y1015651D1*
X523581Y1013728D1*
X520707Y1012777D1*
X519757D1*
X516883Y1013728D1*
X514981Y1015651D1*
X514009Y1018525D1*
Y1019476D1*
X514981Y1022350D1*
X516883Y1024251D1*
X519757Y1025202D1*
X520707D1*
X523581Y1024251D1*
X525482Y1022350D1*
X526455Y1018525D1*
Y1013728D1*
X525482Y1008952D1*
X523581Y1006078D1*
X520707Y1005128D1*
X518806D1*
X515932Y1006078D1*
X514981Y1008002D1*
X657251Y1047274D2*
X665851D1*
X668725Y1048247D1*
X669697Y1049198D1*
X670648Y1051099D1*
Y1053022D1*
X669697Y1054924D1*
X668725Y1055896D1*
X665851Y1056847D1*
X657251D1*
Y1036751D1*
X663949Y1047274D2*
X670648Y1036751D1*
X678747Y1056825D2*
X689248D1*
X683522Y1049176D1*
X686396D1*
X688298Y1048225D1*
X689248Y1047274D1*
X690221Y1044400D1*
Y1042499D1*
X689248Y1039625D1*
X687347Y1037702D1*
X684473Y1036751D1*
X681599D1*
X678747Y1037702D1*
X677796Y1038674D1*
X676824Y1040576D1*
X702145Y1056825D2*
X699271Y1055874D1*
X697347Y1053000D1*
X696397Y1048225D1*
Y1045351D1*
X697347Y1040576D1*
X699271Y1037702D1*
X702145Y1036751D1*
X704046D1*
X706920Y1037702D1*
X708821Y1040576D1*
X709794Y1045351D1*
Y1048225D1*
X708821Y1053000D1*
X706920Y1055874D1*
X704046Y1056825D1*
X702145D1*
X708821Y1053000D2*
X697347Y1040576D1*
X414136Y1159483D2*
X422736D1*
X425610Y1160456D1*
X426583Y1161406D1*
X427533Y1163308D1*
Y1165231D1*
X426583Y1167132D1*
X425610Y1168105D1*
X422736Y1169056D1*
X414136D1*
Y1148960D1*
X420835Y1159483D2*
X427533Y1148960D1*
X435632Y1169034D2*
X446134D1*
X440408Y1161384D1*
X443282D1*
X445183Y1160434D1*
X446134Y1159483D1*
X447106Y1156609D1*
Y1154708D1*
X446134Y1151834D1*
X444232Y1149910D1*
X441358Y1148960D1*
X438484D1*
X435632Y1149910D1*
X434682Y1150883D1*
X433709Y1152784D1*
X453282Y1165209D2*
X455205Y1166182D1*
X458079Y1169034D1*
Y1148960D1*
X414545Y1528397D2*
X412621Y1526496D1*
X411671Y1523622D1*
Y1519797D1*
X412621Y1516923D1*
X414545Y1515000D1*
X416446D1*
X418369Y1515973D1*
X419320Y1516923D1*
X420271Y1518824D1*
X422194Y1524572D1*
X423145Y1526496D1*
X424118Y1527446D1*
X426019Y1528397D1*
X428893D1*
X430794Y1526496D1*
X431767Y1523622D1*
Y1519797D1*
X430794Y1516923D1*
X428893Y1515000D1*
X411671Y1544145D2*
X426969D1*
X429843Y1543195D1*
X430794Y1542222D1*
X431767Y1540321D1*
Y1538397D1*
X430794Y1536496D1*
X429843Y1535545D1*
X426969Y1534573D1*
X425068D1*
X415518Y1550321D2*
X414545Y1552245D1*
X411693Y1555119D1*
X431767Y1555118D1*
X768819Y2208128D2*
Y2193781D1*
X769770Y2190907D1*
X771693Y2189005D1*
X774567Y2188032D1*
X776469D1*
X779343Y2189005D1*
X781266Y2190907D1*
X782217Y2193781D1*
Y2208128D1*
X802740Y2203353D2*
X801790Y2205254D1*
X799866Y2207178D1*
X797965Y2208128D1*
X794140D1*
X792217Y2207178D1*
X790316Y2205254D1*
X789343Y2203353D1*
X788392Y2200479D1*
Y2195682D1*
X789343Y2192830D1*
X790316Y2190907D1*
X792217Y2189005D1*
X794140Y2188032D1*
X797965D1*
X799866Y2189005D1*
X801790Y2190907D1*
X802740Y2192830D1*
X808916Y2204282D2*
X810839Y2205254D1*
X813713Y2208106D1*
Y2188032D1*
X829751Y1527021D2*
Y1512673D1*
X830701Y1509799D1*
X832625Y1507898D1*
X835499Y1506925D1*
X837400D1*
X840274Y1507898D1*
X842197Y1509799D1*
X843148Y1512673D1*
Y1527021D1*
X849324Y1523174D2*
X851247Y1524147D1*
X854121Y1526999D1*
Y1506925D1*
X548402Y1243504D2*
X557001D1*
X559876Y1244477D1*
X560848Y1245427D1*
X561799Y1247329D1*
Y1249252D1*
X560848Y1251153D1*
X559876Y1252126D1*
X557001Y1253077D1*
X548402D1*
Y1232981D1*
X555100Y1243504D2*
X561799Y1232981D1*
X569898Y1253055D2*
X580399D1*
X574673Y1245405D1*
X577547D1*
X579449Y1244455D1*
X580399Y1243504D1*
X581372Y1240630D1*
Y1238729D1*
X580399Y1235855D1*
X578498Y1233931D1*
X575624Y1232981D1*
X572750D1*
X569898Y1233931D1*
X568947Y1234904D1*
X567975Y1236805D1*
X588520Y1248279D2*
Y1249230D1*
X589471Y1251153D1*
X590422Y1252104D1*
X592345Y1253055D1*
X596170D1*
X598071Y1252104D1*
X599022Y1251153D1*
X599994Y1249230D1*
Y1247329D1*
X599022Y1245405D1*
X597120Y1242553D1*
X587548Y1232981D1*
X600945D1*
X1062324Y1348559D2*
X1070924D1*
X1073798Y1349532D1*
X1074771Y1350482D1*
X1075721Y1352384D1*
Y1354307D1*
X1074771Y1356208D1*
X1073798Y1357181D1*
X1070924Y1358132D1*
X1062324D1*
Y1338036D1*
X1069023Y1348559D2*
X1075721Y1338036D1*
X1083821Y1358110D2*
X1094322D1*
X1088596Y1350460D1*
X1091470D1*
X1093371Y1349510D1*
X1094322Y1348559D1*
X1095294Y1345685D1*
Y1343784D1*
X1094322Y1340910D1*
X1092420Y1338986D1*
X1089546Y1338036D1*
X1086672D1*
X1083821Y1338986D1*
X1082870Y1339959D1*
X1081897Y1341860D1*
X1103394Y1358110D2*
X1113895D1*
X1108169Y1350460D1*
X1111043D1*
X1112944Y1349510D1*
X1113895Y1348559D1*
X1114868Y1345685D1*
Y1343784D1*
X1113895Y1340910D1*
X1111994Y1338986D1*
X1109119Y1338036D1*
X1106245D1*
X1103394Y1338986D1*
X1102443Y1339959D1*
X1101470Y1341860D1*
X519111Y1455336D2*
X527711D1*
X530585Y1456309D1*
X531558Y1457259D1*
X532509Y1459161D1*
Y1461084D1*
X531558Y1462985D1*
X530585Y1463958D1*
X527711Y1464909D1*
X519111D1*
Y1444813D1*
X525810Y1455336D2*
X532509Y1444813D1*
X540608Y1464887D2*
X551109D1*
X545383Y1457237D1*
X548257D1*
X550158Y1456287D1*
X551109Y1455336D1*
X552082Y1452462D1*
Y1450561D1*
X551109Y1447687D1*
X549208Y1445763D1*
X546334Y1444813D1*
X543460D1*
X540608Y1445763D1*
X539657Y1446736D1*
X538684Y1448637D1*
X567830Y1444813D2*
Y1464887D1*
X558257Y1451511D1*
X572605D1*
X1060871Y1481948D2*
X1069471D1*
X1072345Y1482920D1*
X1073318Y1483871D1*
X1074269Y1485772D1*
Y1487696D1*
X1073318Y1489597D1*
X1072345Y1490570D1*
X1069471Y1491520D1*
X1060871D1*
Y1471424D1*
X1067570Y1481948D2*
X1074269Y1471424D1*
X1082368Y1491498D2*
X1092869D1*
X1087143Y1483849D1*
X1090017D1*
X1091918Y1482898D1*
X1092869Y1481948D1*
X1093842Y1479074D1*
Y1477172D1*
X1092869Y1474298D1*
X1090968Y1472375D1*
X1088094Y1471424D1*
X1085220D1*
X1082368Y1472375D1*
X1081417Y1473348D1*
X1080444Y1475249D1*
X1103842Y1471424D2*
X1113415Y1491498D1*
X1100017D1*
X822454Y754308D2*
Y734212D1*
X842978Y749533D2*
X842027Y751434D1*
X840104Y753358D1*
X838202Y754308D1*
X834378D1*
X832454Y753358D1*
X830553Y751434D1*
X829580Y749533D1*
X828630Y746659D1*
Y741862D1*
X829580Y739010D1*
X830553Y737086D1*
X832454Y735185D1*
X834378Y734212D1*
X838202D1*
X840104Y735185D1*
X842027Y737086D1*
X842978Y739010D1*
X858726Y734212D2*
Y754286D1*
X849153Y740911D1*
X863501D1*
X402683Y1422865D2*
X400782Y1421914D1*
X398858Y1419991D1*
X397908Y1418090D1*
Y1414265D1*
X398858Y1412342D1*
X400782Y1410440D1*
X402683Y1409468D1*
X405557Y1408517D1*
X410354D1*
X413206Y1409468D1*
X415130Y1410440D1*
X417031Y1412342D1*
X418004Y1414265D1*
Y1418090D1*
X417031Y1419991D1*
X415130Y1421914D1*
X413206Y1422865D1*
X402705Y1430013D2*
X401754D1*
X399831Y1430964D1*
X398880Y1431915D1*
X397930Y1433838D1*
Y1437663D1*
X398880Y1439564D1*
X399831Y1440514D1*
X401754Y1441487D1*
X403656D1*
X405579Y1440514D1*
X408431Y1438613D1*
X418004Y1429040D1*
Y1442438D1*
X397930Y1460087D2*
Y1450537D1*
X406530Y1449586D1*
X405579Y1450537D1*
X404606Y1453411D1*
Y1456263D1*
X405579Y1459137D1*
X407480Y1461060D1*
X410354Y1462011D1*
X412256D1*
X415130Y1461060D1*
X417053Y1459137D1*
X418004Y1456263D1*
Y1453411D1*
X417053Y1450537D1*
X416080Y1449586D1*
X414179Y1448614D1*
X405516Y1292875D2*
X403615Y1291924D1*
X401692Y1290001D1*
X400741Y1288100D1*
Y1284275D1*
X401692Y1282352D1*
X403615Y1280450D1*
X405516Y1279478D1*
X408390Y1278527D1*
X413188D1*
X416040Y1279478D1*
X417963Y1280450D1*
X419864Y1282352D1*
X420837Y1284275D1*
Y1288100D1*
X419864Y1290001D1*
X417963Y1291924D1*
X416040Y1292875D1*
X405538Y1300023D2*
X404588D1*
X402664Y1300974D1*
X401714Y1301925D1*
X400763Y1303848D1*
Y1307673D1*
X401714Y1309574D1*
X402664Y1310524D1*
X404588Y1311497D1*
X406489D1*
X408412Y1310524D1*
X411264Y1308623D1*
X420837Y1299050D1*
Y1312448D1*
X403615Y1330097D2*
X401714Y1329147D1*
X400763Y1326273D1*
Y1324372D1*
X401714Y1321498D1*
X404588Y1319574D1*
X409363Y1318624D1*
X414138D1*
X417963Y1319574D1*
X419886Y1321498D1*
X420837Y1324372D1*
Y1325322D1*
X419886Y1328174D1*
X417963Y1330097D1*
X415089Y1331048D1*
X414138D1*
X411264Y1330097D1*
X409363Y1328174D1*
X408412Y1325322D1*
Y1324372D1*
X409363Y1321498D1*
X411264Y1319574D1*
X414138Y1318624D1*
X968875Y1335589D2*
X966973Y1334639D1*
X965050Y1332715D1*
X964099Y1330814D1*
Y1326989D1*
X965050Y1325066D1*
X966973Y1323165D1*
X968875Y1322192D1*
X971749Y1321241D1*
X976546D1*
X979398Y1322192D1*
X981321Y1323165D1*
X983223Y1325066D1*
X984195Y1326989D1*
Y1330814D1*
X983223Y1332715D1*
X981321Y1334639D1*
X979398Y1335589D1*
X968897Y1342738D2*
X967946D1*
X966023Y1343688D1*
X965072Y1344639D1*
X964121Y1346562D1*
Y1350387D1*
X965072Y1352288D1*
X966023Y1353239D1*
X967946Y1354212D1*
X969847D1*
X971771Y1353239D1*
X974623Y1351338D1*
X984195Y1341765D1*
Y1355162D1*
Y1365163D2*
X964121Y1374735D1*
Y1361338D1*
X1073149Y1547963D2*
X1072198Y1549864D1*
X1070275Y1551787D1*
X1068373Y1552738D1*
X1064549D1*
X1062625Y1551787D1*
X1060724Y1549864D1*
X1059751Y1547963D1*
X1058801Y1545089D1*
Y1540291D1*
X1059751Y1537439D1*
X1060724Y1535516D1*
X1062625Y1533615D1*
X1064549Y1532642D1*
X1068373D1*
X1070275Y1533615D1*
X1072198Y1535516D1*
X1073149Y1537439D1*
X1080297Y1547941D2*
Y1548891D1*
X1081248Y1550815D1*
X1082198Y1551765D1*
X1084122Y1552716D1*
X1087947D1*
X1089848Y1551765D1*
X1090798Y1550815D1*
X1091771Y1548891D1*
Y1546990D1*
X1090798Y1545067D1*
X1088897Y1542215D1*
X1079324Y1532642D1*
X1092722D1*
X1103673Y1552716D2*
X1100821Y1551765D1*
X1099848Y1549864D1*
Y1547941D1*
X1100821Y1546039D1*
X1102722Y1545067D1*
X1106547Y1544116D1*
X1109421Y1543165D1*
X1111322Y1541242D1*
X1112273Y1539341D1*
Y1536467D1*
X1111322Y1534565D1*
X1110371Y1533593D1*
X1107497Y1532642D1*
X1103673D1*
X1100821Y1533593D1*
X1099848Y1534565D1*
X1098898Y1536467D1*
Y1539341D1*
X1099848Y1541242D1*
X1101772Y1543165D1*
X1104623Y1544116D1*
X1108448Y1545067D1*
X1110371Y1546039D1*
X1111322Y1547941D1*
Y1549864D1*
X1110371Y1551765D1*
X1107497Y1552716D1*
X1103673D1*
X1132704Y2563820D2*
D21*
X1129819Y2560935D1*
X1128393Y2558050D1*
Y2553772D1*
X1129819Y2550887D1*
X1132704Y2548035D1*
X1137015Y2546576D1*
X1139867D1*
X1144178Y2548035D1*
X1147030Y2550887D1*
X1148489Y2553772D1*
Y2558050D1*
X1147030Y2560935D1*
X1144178Y2563820D1*
X1132704Y2593064D2*
X1129819Y2590179D1*
X1128393Y2587294D1*
Y2583016D1*
X1129819Y2580131D1*
X1132704Y2577279D1*
X1137015Y2575820D1*
X1139867D1*
X1144178Y2577279D1*
X1147030Y2580131D1*
X1148489Y2583016D1*
Y2587294D1*
X1147030Y2590179D1*
X1144178Y2593064D1*
X1133434Y2605064D2*
Y2621645D1*
X1118345Y2633645D2*
X1148489D1*
X1132704D2*
X1129819Y2636530D1*
X1128393Y2639382D1*
Y2643693D1*
X1129819Y2646545D1*
X1132704Y2649430D1*
X1137015Y2650856D1*
X1139867D1*
X1144178Y2649430D1*
X1147030Y2646545D1*
X1148489Y2643693D1*
Y2639382D1*
X1147030Y2636530D1*
X1144178Y2633645D1*
X1128393Y2664315D2*
X1148489Y2672904D1*
X1154226Y2670052D1*
X1157111Y2667167D1*
X1158537Y2664315D1*
Y2662856D1*
X1128393Y2681526D2*
X1148489Y2672904D1*
X1133434Y2693526D2*
Y2710107D1*
X1132704Y2737892D2*
X1129819Y2736466D1*
X1128393Y2732155D1*
Y2727844D1*
X1129819Y2723533D1*
X1132704Y2722107D1*
X1135556Y2723533D1*
X1137015Y2726418D1*
X1138441Y2733581D1*
X1139867Y2736466D1*
X1142752Y2737892D1*
X1144178D1*
X1147030Y2736466D1*
X1148489Y2732155D1*
Y2727844D1*
X1147030Y2723533D1*
X1144178Y2722107D1*
X1128393Y2767103D2*
X1148489D1*
X1132704D2*
X1129819Y2764251D1*
X1128393Y2761366D1*
Y2757088D1*
X1129819Y2754203D1*
X1132704Y2751351D1*
X1137015Y2749892D1*
X1139867D1*
X1144178Y2751351D1*
X1147030Y2754203D1*
X1148489Y2757088D1*
Y2761366D1*
X1147030Y2764251D1*
X1144178Y2767103D1*
X1118345Y2827713D2*
Y2809076D1*
X1148489D1*
Y2827713D1*
X1132704Y2809076D2*
Y2820550D1*
X1128393Y2839713D2*
X1148489D1*
X1134130D2*
X1129819Y2844024D1*
X1128393Y2846909D1*
Y2851187D1*
X1129819Y2854072D1*
X1134130Y2855498D1*
X1148489D1*
X1134130D2*
X1129819Y2859809D1*
X1128393Y2862694D1*
Y2866972D1*
X1129819Y2869857D1*
X1134130Y2871316D1*
X1148489D1*
X1118345Y2883316D2*
X1119771Y2884742D1*
X1118345Y2886201D1*
X1116886Y2884742D1*
X1118345Y2883316D1*
X1128393Y2884742D2*
X1148489D1*
X1118345Y2898201D2*
X1148489D1*
X1118345Y2910201D2*
X1119771Y2911627D1*
X1118345Y2913086D1*
X1116886Y2911627D1*
X1118345Y2910201D1*
X1128393Y2911627D2*
X1148489D1*
X1137015Y2925086D2*
Y2942297D1*
X1134130D1*
X1131245Y2940871D1*
X1129819Y2939445D1*
X1128393Y2936560D1*
Y2932249D1*
X1129819Y2929397D1*
X1132704Y2926512D1*
X1137015Y2925086D1*
X1139867D1*
X1144178Y2926512D1*
X1147030Y2929397D1*
X1148489Y2932249D1*
Y2936560D1*
X1147030Y2939445D1*
X1144178Y2942297D1*
X1125508Y3007716D2*
X1122656Y3006290D1*
X1119771Y3003405D1*
X1118345Y3000553D1*
Y2994816D1*
X1119771Y2991931D1*
X1122656Y2989079D1*
X1125508Y2987620D1*
X1129819Y2986194D1*
X1137015D1*
X1141293Y2987620D1*
X1144178Y2989079D1*
X1147030Y2991931D1*
X1148489Y2994816D1*
Y3000553D1*
X1147030Y3003405D1*
X1144178Y3006290D1*
X1141293Y3007716D1*
X1137015D1*
Y3000553D1*
X1118345Y3019716D2*
X1119771Y3021142D1*
X1118345Y3022601D1*
X1116886Y3021142D1*
X1118345Y3019716D1*
X1128393Y3021142D2*
X1148489D1*
X1118345Y3034601D2*
X1148489D1*
X1118345Y3046601D2*
X1148489D1*
X1137015Y3058601D2*
Y3075812D1*
X1134130D1*
X1131245Y3074386D1*
X1129819Y3072960D1*
X1128393Y3070075D1*
Y3065764D1*
X1129819Y3062912D1*
X1132704Y3060027D1*
X1137015Y3058601D1*
X1139867D1*
X1144178Y3060027D1*
X1147030Y3062912D1*
X1148489Y3065764D1*
Y3070075D1*
X1147030Y3072960D1*
X1144178Y3075812D1*
X1118345Y3092123D2*
X1142752D1*
X1147030Y3093549D1*
X1148489Y3096434D1*
Y3099286D1*
X1128393Y3087812D2*
Y3097860D1*
X962729Y3333538D2*
D96*
X984284D1*
X991413Y3335914D1*
X993845Y3338346D1*
X996222Y3343099D1*
Y3350284D1*
X993845Y3355037D1*
X991413Y3357469D1*
X984284Y3359846D1*
X962729D1*
Y3309606D1*
X1011661Y3359846D2*
X1014038Y3357469D1*
X1016470Y3359846D1*
X1014038Y3362278D1*
X1011661Y3359846D1*
X1014038Y3343099D2*
Y3309606D1*
X1060594Y3343099D2*
Y3292859D1*
Y3335914D2*
X1055841Y3340667D1*
X1051032Y3343099D1*
X1043847D1*
X1039094Y3340667D1*
X1034285Y3335914D1*
X1031909Y3328729D1*
Y3323921D1*
X1034285Y3316791D1*
X1039094Y3311982D1*
X1043847Y3309606D1*
X1051032D1*
X1055841Y3311982D1*
X1060594Y3316791D1*
X1076033Y3343099D2*
Y3319167D1*
X1078410Y3312038D1*
X1083218Y3309606D1*
X1090403D1*
X1095156Y3312038D1*
X1102341Y3319167D1*
Y3343099D2*
Y3309606D1*
X1117781Y3328729D2*
X1146465D1*
Y3333538D1*
X1144089Y3338346D1*
X1141712Y3340723D1*
X1136904Y3343099D1*
X1129719D1*
X1124966Y3340723D1*
X1120157Y3335914D1*
X1117781Y3328729D1*
Y3323976D1*
X1120157Y3316791D1*
X1124966Y3312038D1*
X1129719Y3309606D1*
X1136904D1*
X1141712Y3312038D1*
X1146465Y3316791D1*
X967321Y3948813D2*
Y3917751D1*
X1017561D1*
Y3948812D1*
X991253Y3917751D2*
Y3936874D1*
X967321Y3964252D2*
X1017561D1*
X967321Y3996438D2*
X1017561D1*
X967321Y3979691D2*
Y4013184D1*
Y4028624D2*
X1017561Y4028623D1*
X967321Y4062117D2*
X1017561D1*
X991253Y4028623D2*
Y4062117D1*
X967321Y4108618D2*
Y4077556D1*
X1017561D1*
Y4108618D1*
X991253Y4077556D2*
Y4096679D1*
Y4124057D2*
Y4145557D1*
X988821Y4152742D1*
X986444Y4155174D1*
X981691Y4157550D1*
X976883D1*
X972129Y4155174D1*
X969698Y4152742D1*
X967321Y4145557D1*
Y4124057D1*
X1017561D1*
X991253Y4140803D2*
X1017561Y4157550D1*
X967321Y4221590D2*
X1017561Y4233584D1*
X967321Y4245522D1*
X1017561Y4257460D1*
X967321Y4269454D1*
X1017561Y4323195D2*
X967321Y4304016D1*
X1017561Y4284893D1*
X1000814Y4292078D2*
Y4316010D1*
X967321Y4338634D2*
X991253Y4357757D1*
X1017561D1*
X967321Y4376881D2*
X991253Y4357757D1*
X446473Y3328980D2*
D97*
X456090Y3333844D1*
X470460Y3348103D1*
Y3247734D1*
X506092Y3257351D2*
X501338Y3252487D1*
X506092Y3247734D1*
X510955Y3252487D1*
X506092Y3257351D1*
X541834Y3328980D2*
X551451Y3333844D1*
X565821Y3348103D1*
Y3247734D1*
X439751Y2979974D2*
D96*
X444559Y2982406D1*
X451744Y2989536D1*
Y2939351D1*
X525056Y4583251D2*
D98*
Y4566007D1*
X526957Y4560303D1*
X528902Y4558357D1*
X532705Y4556456D1*
X538453D1*
X542256Y4558357D1*
X544201Y4560303D1*
X546102Y4566007D1*
Y4583251D1*
X505910D1*
X546102Y4532609D2*
X544201Y4536455D1*
X540354Y4540258D1*
X536552Y4542203D1*
X530804Y4544105D1*
X521209D1*
X515505Y4542203D1*
X511658Y4540258D1*
X507856Y4536455D1*
X505910Y4532609D1*
Y4524959D1*
X507856Y4521157D1*
X511658Y4517310D1*
X515505Y4515409D1*
X521209Y4513507D1*
X530804D1*
X536552Y4515409D1*
X540354Y4517310D1*
X544201Y4521157D1*
X546102Y4524959D1*
Y4532609D1*
Y4501156D2*
X505910Y4491561D1*
X546102Y4482011D1*
X505910Y4472460D1*
X546102Y4462865D1*
Y4425665D2*
Y4450514D1*
X505910D1*
Y4425665D1*
X526957Y4450514D2*
Y4435215D1*
Y4413313D2*
Y4396113D1*
X528902Y4390365D1*
X530804Y4388420D1*
X534606Y4386519D1*
X538453D1*
X542256Y4388420D1*
X544201Y4390365D1*
X546102Y4396113D1*
Y4413313D1*
X505910D1*
X526957Y4399916D2*
X505910Y4386519D1*
X1070951Y1657694D2*
D99*
X1068099Y1660579D1*
X1063788Y1662005D1*
X1058051D1*
X1053740Y1660579D1*
X1050855Y1657694D1*
Y1654842D1*
X1052314Y1651957D1*
X1053740Y1650531D1*
X1056592Y1649105D1*
X1065214Y1646220D1*
X1068099Y1644794D1*
X1069525Y1643335D1*
X1070951Y1640483D1*
Y1636172D1*
X1068099Y1633320D1*
X1063788Y1631861D1*
X1058051D1*
X1053740Y1633320D1*
X1050855Y1636172D1*
X1084526Y1662005D2*
Y1637598D1*
X1085952Y1633320D1*
X1088837Y1631861D1*
X1091689D1*
X1080215Y1651957D2*
X1090263D1*
X1100952D2*
Y1631861D1*
Y1643335D2*
X1102411Y1647646D1*
X1105263Y1650531D1*
X1108148Y1651957D1*
X1112459D1*
X1121723Y1662005D2*
X1123149Y1660579D1*
X1124608Y1662005D1*
X1123149Y1663464D1*
X1121723Y1662005D1*
X1123149Y1651957D2*
Y1631861D1*
X1133872Y1651957D2*
Y1621813D1*
Y1647646D2*
X1136757Y1650497D1*
X1139609Y1651957D1*
X1143920D1*
X1146805Y1650497D1*
X1149657Y1647646D1*
X1151116Y1643335D1*
Y1640449D1*
X1149657Y1636172D1*
X1146805Y1633287D1*
X1143920Y1631861D1*
X1139609D1*
X1136757Y1633287D1*
X1133872Y1636172D1*
X1160379Y1643335D2*
X1177590D1*
Y1646220D1*
X1176164Y1649105D1*
X1174738Y1650531D1*
X1171853Y1651957D1*
X1167542D1*
X1164690Y1650531D1*
X1161805Y1647646D1*
X1160379Y1643335D1*
Y1640483D1*
X1161805Y1636172D1*
X1164690Y1633320D1*
X1167542Y1631861D1*
X1171853D1*
X1174738Y1633320D1*
X1177590Y1636172D1*
M02*
