G04 DipTrace 3.3.0.0*
G04 uPeaks_exp04.GBS*
%MOIN*%
G04 #@! TF.FileFunction,Soldermask,Bot*
G04 #@! TF.Part,Single*
%AMOUTLINE1*
4,1,8,
0.010362,-0.025016,
0.025016,-0.010362,
0.025016,0.010362,
0.010362,0.025016,
-0.010362,0.025016,
-0.025016,0.010362,
-0.025016,-0.010362,
-0.010362,-0.025016,
0.010362,-0.025016,
0*%
%AMOUTLINE4*
4,1,8,
-0.016989,0.041016,
-0.041016,0.016989,
-0.041016,-0.016989,
-0.016989,-0.041016,
0.016989,-0.041016,
0.041016,-0.016989,
0.041016,0.016989,
0.016989,0.041016,
-0.016989,0.041016,
0*%
%AMOUTLINE7*
4,1,8,
-0.012432,-0.030016,
-0.030016,-0.012432,
-0.030016,0.012432,
-0.012432,0.030016,
0.012432,0.030016,
0.030016,0.012432,
0.030016,-0.012432,
0.012432,-0.030016,
-0.012432,-0.030016,
0*%
%AMOUTLINE10*
4,1,8,
0.012432,0.030016,
0.030016,0.012432,
0.030016,-0.012432,
0.012432,-0.030016,
-0.012432,-0.030016,
-0.030016,-0.012432,
-0.030016,0.012432,
-0.012432,0.030016,
0.012432,0.030016,
0*%
%ADD47C,0.11811*%
%ADD60C,0.077031*%
%ADD62O,0.108031X0.143031*%
%ADD70C,0.073031*%
%ADD72O,0.093031X0.083031*%
%ADD74C,0.072992*%
%ADD101OUTLINE1*%
%ADD104OUTLINE4*%
%ADD107OUTLINE7*%
%ADD110OUTLINE10*%
%FSLAX26Y26*%
G04*
G70*
G90*
G75*
G01*
G04 BotMask*
%LPD*%
D74*
X692904Y1788618D3*
X592904Y1688618D3*
Y1788618D3*
X692904Y1688618D3*
X792904D3*
Y1788618D3*
X892904Y1688618D3*
Y1788618D3*
X992904Y1688618D3*
Y1788618D3*
D72*
X991163Y1506200D3*
Y1181200D3*
D70*
Y1606200D3*
D72*
X591163Y1506200D3*
Y1181200D3*
D70*
Y1606200D3*
D72*
X991163Y757200D3*
Y1082200D3*
D70*
Y657200D3*
D72*
X591163Y757200D3*
Y1082200D3*
D70*
Y657200D3*
D101*
X447627Y2897224D3*
X497626D3*
X447627Y2847224D3*
X497626D3*
X447627Y2797224D3*
X497626D3*
X447627Y2747224D3*
X497626D3*
X447627Y2697224D3*
X497626D3*
D104*
X589848Y3925650D3*
X489848D3*
X589848Y4025650D3*
X489848D3*
X589848Y4125650D3*
X489848D3*
X589848Y4225650D3*
X489848D3*
X589848Y4325650D3*
X489848D3*
D107*
X491163Y3794199D3*
Y3694199D3*
X1091163Y4394199D3*
Y4294199D3*
Y4194199D3*
Y4094199D3*
Y3994199D3*
Y3894199D3*
Y3794199D3*
Y3694199D3*
D110*
X791163Y442058D3*
Y542058D3*
Y602860D3*
Y702860D3*
D70*
X889163Y4199200D3*
X791163Y4198924D3*
X693163Y4199200D3*
D62*
X604163Y4494200D3*
X978163D3*
D70*
X889163Y3424200D3*
X791163Y3423924D3*
X693163Y3424200D3*
D62*
X604163Y3719200D3*
X978163D3*
D70*
X889163Y2649200D3*
X791163Y2648924D3*
X693163Y2649200D3*
D62*
X604163Y2944200D3*
X978163D3*
D70*
X889163Y1874200D3*
X791163Y1873924D3*
X693163Y1874200D3*
D62*
X604163Y2169200D3*
X978163D3*
D60*
X442290Y3426306D3*
X619457Y3426598D3*
X619878Y3170693D3*
X442295Y3170352D3*
X1140035Y3170673D3*
X962869Y3170381D3*
X962448Y3426286D3*
X1140030Y3426627D3*
X1136424Y622308D3*
X1136717Y445142D3*
X880811Y444721D3*
X880470Y622303D3*
X702095Y621693D3*
X702387Y444526D3*
X446482Y444105D3*
X446140Y621688D3*
D47*
X791163Y4056700D3*
M02*
